421
Piece-Start Track-Start Inst_62 Bar-Start Bar-End Bar-Start Bar-End Bar-Start Bar-End Bar-Start Bar-End Bar-Start Bar-End Bar-Start Bar-End Bar-Start Bar-End Bar-Start Bar-End Bar-Start Bar-End Bar-Start Bar-End Bar-Start Bar-End Bar-Start Bar-End Bar-Start Bar-End Bar-Start Bar-End Bar-Start Bar-End Bar-Start Bar-End Bar-Start Bar-End Bar-Start Bar-End Bar-Start Bar-End Bar-Start Bar-End Bar-Start Bar-End Bar-Start Bar-End Bar-Start Bar-End Bar-Start Bar-End Bar-Start Bar-End Bar-Start Bar-End Bar-Start Bar-End Bar-Start Bar-End Bar-Start Bar-End Bar-Start Bar-End Bar-Start Bar-End Bar-Start Bar-End Bar-Start Bar-End Bar-Start Position_0 Note-On_74 Note-Duration_1 Note-Velocity_93 Note-On_69 Note-Duration_1 Note-Velocity_89 Position_1 Note-On_74 Note-Duration_1 Note-Velocity_79 Note-On_69 Note-Duration_1 Note-Velocity_82 Position_3 Note-On_74 Note-Duration_1 Note-Velocity_92 Note-On_69 Note-Duration_1 Note-Velocity_90 Position_4 Note-On_74 Note-Duration_1 Note-Velocity_79 Note-On_69 Note-Duration_1 Note-Velocity_82 Position_5 Note-On_74 Note-Duration_1 Note-Velocity_84 Note-On_69 Note-Duration_1 Note-Velocity_79 Position_7 Note-On_74 Note-Duration_1 Note-Velocity_94 Note-On_69 Note-Duration_1 Note-Velocity_93 Position_8 Note-On_74 Note-Duration_1 Note-Velocity_94 Note-On_71 Note-Duration_1 Note-Velocity_96 Position_9 Note-On_74 Note-Duration_1 Note-Velocity_94 Note-On_71 Note-Duration_1 Note-Velocity_94 Position_11 Note-On_74 Note-Duration_1 Note-Velocity_96 Note-On_71 Note-Duration_1 Note-Velocity_96 Position_12 Note-On_74 Note-Duration_1 Note-Velocity_94 Note-On_71 Note-Duration_1 Note-Velocity_94 Position_13 Note-On_74 Note-Duration_1 Note-Velocity_98 Note-On_71 Note-Duration_1 Note-Velocity_94 Position_15 Note-On_74 Note-Duration_1 Note-Velocity_98 Note-On_71 Note-Duration_1 Note-Velocity_94 Bar-End Bar-Start Position_0 Note-On_74 Note-Duration_1 Note-Velocity_98 Note-On_69 Note-Duration_1 Note-Velocity_94 Position_1 Note-On_74 Note-Duration_1 Note-Velocity_94 Note-On_69 Note-Duration_1 Note-Velocity_94 Position_3 Note-On_74 Note-Duration_1 Note-Velocity_96 Note-On_69 Note-Duration_1 Note-Velocity_96 Position_4 Note-On_74 Note-Duration_1 Note-Velocity_94 Note-On_69 Note-Duration_1 Note-Velocity_94 Position_5 Note-On_74 Note-Duration_1 Note-Velocity_93 Note-On_69 Note-Duration_1 Note-Velocity_93 Position_7 Note-On_74 Note-Duration_1 Note-Velocity_98 Note-On_69 Note-Duration_1 Note-Velocity_94 Position_8 Note-On_74 Note-Duration_1 Note-Velocity_94 Note-On_71 Note-Duration_1 Note-Velocity_94 Position_9 Note-On_74 Note-Duration_1 Note-Velocity_96 Note-On_71 Note-Duration_1 Note-Velocity_96 Position_11 Note-On_74 Note-Duration_1 Note-Velocity_98 Note-On_71 Note-Duration_1 Note-Velocity_98 Position_12 Note-On_74 Note-Duration_1 Note-Velocity_98 Note-On_71 Note-Duration_1 Note-Velocity_98 Position_13 Note-On_74 Note-Duration_1 Note-Velocity_90 Note-On_71 Note-Duration_1 Note-Velocity_98 Position_15 Note-On_74 Note-Duration_1 Note-Velocity_98 Note-On_71 Note-Duration_1 Note-Velocity_94 Bar-End Bar-Start Bar-End Bar-Start Bar-End Bar-Start Bar-End Bar-Start Bar-End Bar-Start Bar-End Bar-Start Bar-End Bar-Start Bar-End Bar-Start Bar-End Bar-Start Bar-End Bar-Start Bar-End Bar-Start Bar-End Bar-Start Bar-End Bar-Start Bar-End Bar-Start Bar-End Bar-Start Bar-End Bar-Start Bar-End Bar-Start Position_0 Note-On_74 Note-Duration_1 Note-Velocity_93 Note-On_69 Note-Duration_1 Note-Velocity_89 Position_1 Note-On_74 Note-Duration_1 Note-Velocity_79 Note-On_69 Note-Duration_1 Note-Velocity_82 Position_3 Note-On_74 Note-Duration_1 Note-Velocity_92 Note-On_69 Note-Duration_1 Note-Velocity_90 Position_4 Note-On_74 Note-Duration_1 Note-Velocity_79 Note-On_69 Note-Duration_1 Note-Velocity_82 Position_5 Note-On_74 Note-Duration_1 Note-Velocity_84 Note-On_69 Note-Duration_1 Note-Velocity_79 Position_7 Note-On_74 Note-Duration_1 Note-Velocity_94 Note-On_69 Note-Duration_1 Note-Velocity_93 Position_8 Note-On_74 Note-Duration_1 Note-Velocity_94 Note-On_71 Note-Duration_1 Note-Velocity_96 Position_9 Note-On_74 Note-Duration_1 Note-Velocity_94 Note-On_71 Note-Duration_1 Note-Velocity_94 Position_11 Note-On_74 Note-Duration_1 Note-Velocity_96 Note-On_71 Note-Duration_1 Note-Velocity_96 Position_12 Note-On_74 Note-Duration_1 Note-Velocity_94 Note-On_71 Note-Duration_1 Note-Velocity_94 Position_13 Note-On_74 Note-Duration_1 Note-Velocity_98 Note-On_71 Note-Duration_1 Note-Velocity_94 Position_15 Note-On_74 Note-Duration_1 Note-Velocity_98 Note-On_71 Note-Duration_1 Note-Velocity_94 Bar-End Bar-Start Position_0 Note-On_74 Note-Duration_1 Note-Velocity_98 Note-On_69 Note-Duration_1 Note-Velocity_94 Position_1 Note-On_74 Note-Duration_1 Note-Velocity_94 Note-On_69 Note-Duration_1 Note-Velocity_94 Position_3 Note-On_74 Note-Duration_1 Note-Velocity_96 Note-On_69 Note-Duration_1 Note-Velocity_96 Position_4 Note-On_74 Note-Duration_1 Note-Velocity_94 Note-On_69 Note-Duration_1 Note-Velocity_94 Position_5 Note-On_74 Note-Duration_1 Note-Velocity_93 Note-On_69 Note-Duration_1 Note-Velocity_93 Position_7 Note-On_74 Note-Duration_1 Note-Velocity_98 Note-On_69 Note-Duration_1 Note-Velocity_94 Position_8 Note-On_74 Note-Duration_1 Note-Velocity_94 Note-On_71 Note-Duration_1 Note-Velocity_94 Position_9 Note-On_74 Note-Duration_1 Note-Velocity_96 Note-On_71 Note-Duration_1 Note-Velocity_96 Position_11 Note-On_74 Note-Duration_1 Note-Velocity_98 Note-On_71 Note-Duration_1 Note-Velocity_98 Position_12 Note-On_74 Note-Duration_1 Note-Velocity_98 Note-On_71 Note-Duration_1 Note-Velocity_98 Position_13 Note-On_74 Note-Duration_1 Note-Velocity_90 Note-On_71 Note-Duration_1 Note-Velocity_98 Position_15 Note-On_74 Note-Duration_1 Note-Velocity_98 Note-On_71 Note-Duration_1 Note-Velocity_94 Bar-End Bar-Start Position_0 Note-On_74 Note-Duration_1 Note-Velocity_98 Note-On_69 Note-Duration_1 Note-Velocity_94 Position_1 Note-On_74 Note-Duration_1 Note-Velocity_94 Note-On_69 Note-Duration_1 Note-Velocity_94 Position_3 Note-On_74 Note-Duration_1 Note-Velocity_96 Note-On_69 Note-Duration_1 Note-Velocity_96 Position_4 Note-On_74 Note-Duration_1 Note-Velocity_94 Note-On_69 Note-Duration_1 Note-Velocity_94 Position_5 Note-On_74 Note-Duration_1 Note-Velocity_93 Note-On_69 Note-Duration_1 Note-Velocity_93 Position_7 Note-On_74 Note-Duration_1 Note-Velocity_98 Note-On_69 Note-Duration_1 Note-Velocity_94 Position_8 Note-On_74 Note-Duration_1 Note-Velocity_94 Note-On_71 Note-Duration_1 Note-Velocity_94 Position_9 Note-On_74 Note-Duration_1 Note-Velocity_96 Note-On_71 Note-Duration_1 Note-Velocity_96 Position_11 Note-On_74 Note-Duration_1 Note-Velocity_98 Note-On_71 Note-Duration_1 Note-Velocity_98 Position_12 Note-On_74 Note-Duration_1 Note-Velocity_98 Note-On_71 Note-Duration_1 Note-Velocity_98 Position_13 Note-On_74 Note-Duration_1 Note-Velocity_90 Note-On_71 Note-Duration_1 Note-Velocity_98 Position_15 Note-On_74 Note-Duration_1 Note-Velocity_98 Note-On_71 Note-Duration_1 Note-Velocity_94 Bar-End Bar-Start Position_0 Note-On_74 Note-Duration_1 Note-Velocity_98 Note-On_69 Note-Duration_1 Note-Velocity_94 Position_1 Note-On_74 Note-Duration_1 Note-Velocity_94 Note-On_69 Note-Duration_1 Note-Velocity_94 Position_3 Note-On_74 Note-Duration_1 Note-Velocity_96 Note-On_69 Note-Duration_1 Note-Velocity_96 Position_4 Note-On_74 Note-Duration_1 Note-Velocity_94 Note-On_69 Note-Duration_1 Note-Velocity_94 Position_5 Note-On_74 Note-Duration_1 Note-Velocity_93 Note-On_69 Note-Duration_1 Note-Velocity_93 Position_7 Note-On_74 Note-Duration_1 Note-Velocity_98 Note-On_69 Note-Duration_1 Note-Velocity_94 Position_8 Note-On_74 Note-Duration_1 Note-Velocity_94 Note-On_71 Note-Duration_1 Note-Velocity_94 Position_9 Note-On_74 Note-Duration_1 Note-Velocity_96 Note-On_71 Note-Duration_1 Note-Velocity_96 Position_11 Note-On_74 Note-Duration_1 Note-Velocity_98 Note-On_71 Note-Duration_1 Note-Velocity_98 Position_12 Note-On_74 Note-Duration_1 Note-Velocity_98 Note-On_71 Note-Duration_1 Note-Velocity_98 Position_13 Note-On_74 Note-Duration_1 Note-Velocity_90 Note-On_71 Note-Duration_1 Note-Velocity_98 Position_15 Note-On_74 Note-Duration_1 Note-Velocity_98 Note-On_71 Note-Duration_1 Note-Velocity_94 Bar-End Bar-Start Bar-End Bar-Start Bar-End Bar-Start Bar-End Bar-Start Bar-End Bar-Start Bar-End Bar-Start Bar-End Bar-Start Bar-End Bar-Start Bar-End Bar-Start Position_0 Note-On_74 Note-Duration_1 Note-Velocity_93 Note-On_69 Note-Duration_1 Note-Velocity_89 Position_1 Note-On_74 Note-Duration_1 Note-Velocity_79 Note-On_69 Note-Duration_1 Note-Velocity_82 Position_3 Note-On_74 Note-Duration_1 Note-Velocity_92 Note-On_69 Note-Duration_1 Note-Velocity_90 Position_4 Note-On_74 Note-Duration_1 Note-Velocity_79 Note-On_69 Note-Duration_1 Note-Velocity_82 Position_5 Note-On_74 Note-Duration_1 Note-Velocity_84 Note-On_69 Note-Duration_1 Note-Velocity_79 Position_7 Note-On_74 Note-Duration_1 Note-Velocity_94 Note-On_69 Note-Duration_1 Note-Velocity_93 Position_8 Note-On_74 Note-Duration_1 Note-Velocity_94 Note-On_71 Note-Duration_1 Note-Velocity_96 Position_9 Note-On_74 Note-Duration_1 Note-Velocity_94 Note-On_71 Note-Duration_1 Note-Velocity_94 Position_11 Note-On_74 Note-Duration_1 Note-Velocity_96 Note-On_71 Note-Duration_1 Note-Velocity_96 Position_12 Note-On_74 Note-Duration_1 Note-Velocity_94 Note-On_71 Note-Duration_1 Note-Velocity_94 Position_13 Note-On_74 Note-Duration_1 Note-Velocity_98 Note-On_71 Note-Duration_1 Note-Velocity_94 Position_15 Note-On_74 Note-Duration_1 Note-Velocity_98 Note-On_71 Note-Duration_1 Note-Velocity_94 Bar-End Bar-Start Position_0 Note-On_74 Note-Duration_1 Note-Velocity_98 Note-On_69 Note-Duration_1 Note-Velocity_94 Position_1 Note-On_74 Note-Duration_1 Note-Velocity_94 Note-On_69 Note-Duration_1 Note-Velocity_94 Position_3 Note-On_74 Note-Duration_1 Note-Velocity_96 Note-On_69 Note-Duration_1 Note-Velocity_96 Position_4 Note-On_74 Note-Duration_1 Note-Velocity_94 Note-On_69 Note-Duration_1 Note-Velocity_94 Position_5 Note-On_74 Note-Duration_1 Note-Velocity_93 Note-On_69 Note-Duration_1 Note-Velocity_93 Position_7 Note-On_74 Note-Duration_1 Note-Velocity_98 Note-On_69 Note-Duration_1 Note-Velocity_94 Position_8 Note-On_74 Note-Duration_1 Note-Velocity_94 Note-On_71 Note-Duration_1 Note-Velocity_94 Position_9 Note-On_74 Note-Duration_1 Note-Velocity_96 Note-On_71 Note-Duration_1 Note-Velocity_96 Position_11 Note-On_74 Note-Duration_1 Note-Velocity_98 Note-On_71 Note-Duration_1 Note-Velocity_98 Position_12 Note-On_74 Note-Duration_1 Note-Velocity_98 Note-On_71 Note-Duration_1 Note-Velocity_98 Position_13 Note-On_74 Note-Duration_1 Note-Velocity_90 Note-On_71 Note-Duration_1 Note-Velocity_98 Position_15 Note-On_74 Note-Duration_1 Note-Velocity_98 Note-On_71 Note-Duration_1 Note-Velocity_94 Bar-End Bar-Start Position_0 Note-On_74 Note-Duration_1 Note-Velocity_98 Note-On_69 Note-Duration_1 Note-Velocity_94 Position_1 Note-On_74 Note-Duration_1 Note-Velocity_94 Note-On_69 Note-Duration_1 Note-Velocity_94 Position_3 Note-On_74 Note-Duration_1 Note-Velocity_96 Note-On_69 Note-Duration_1 Note-Velocity_96 Position_4 Note-On_74 Note-Duration_1 Note-Velocity_94 Note-On_69 Note-Duration_1 Note-Velocity_94 Position_5 Note-On_74 Note-Duration_1 Note-Velocity_93 Note-On_69 Note-Duration_1 Note-Velocity_93 Position_7 Note-On_74 Note-Duration_1 Note-Velocity_98 Note-On_69 Note-Duration_1 Note-Velocity_94 Position_8 Note-On_74 Note-Duration_1 Note-Velocity_94 Note-On_71 Note-Duration_1 Note-Velocity_94 Position_9 Note-On_74 Note-Duration_1 Note-Velocity_96 Note-On_71 Note-Duration_1 Note-Velocity_96 Position_11 Note-On_74 Note-Duration_1 Note-Velocity_98 Note-On_71 Note-Duration_1 Note-Velocity_98 Position_12 Note-On_74 Note-Duration_1 Note-Velocity_98 Note-On_71 Note-Duration_1 Note-Velocity_98 Position_13 Note-On_74 Note-Duration_1 Note-Velocity_90 Note-On_71 Note-Duration_1 Note-Velocity_98 Position_15 Note-On_74 Note-Duration_1 Note-Velocity_98 Note-On_71 Note-Duration_1 Note-Velocity_94 Bar-End Bar-Start Position_0 Note-On_74 Note-Duration_1 Note-Velocity_98 Note-On_69 Note-Duration_1 Note-Velocity_94 Position_1 Note-On_74 Note-Duration_1 Note-Velocity_94 Note-On_69 Note-Duration_1 Note-Velocity_94 Position_3 Note-On_74 Note-Duration_1 Note-Velocity_96 Note-On_69 Note-Duration_1 Note-Velocity_96 Position_4 Note-On_74 Note-Duration_1 Note-Velocity_94 Note-On_69 Note-Duration_1 Note-Velocity_94 Position_5 Note-On_74 Note-Duration_1 Note-Velocity_93 Note-On_69 Note-Duration_1 Note-Velocity_93 Position_7 Note-On_74 Note-Duration_1 Note-Velocity_98 Note-On_69 Note-Duration_1 Note-Velocity_94 Position_8 Note-On_74 Note-Duration_1 Note-Velocity_94 Note-On_71 Note-Duration_1 Note-Velocity_94 Position_9 Note-On_74 Note-Duration_1 Note-Velocity_96 Note-On_71 Note-Duration_1 Note-Velocity_96 Position_11 Note-On_74 Note-Duration_1 Note-Velocity_98 Note-On_71 Note-Duration_1 Note-Velocity_98 Position_12 Note-On_74 Note-Duration_1 Note-Velocity_98 Note-On_71 Note-Duration_1 Note-Velocity_98 Position_13 Note-On_74 Note-Duration_1 Note-Velocity_90 Note-On_71 Note-Duration_1 Note-Velocity_98 Position_15 Note-On_74 Note-Duration_1 Note-Velocity_98 Note-On_71 Note-Duration_1 Note-Velocity_94 Bar-End Bar-Start Bar-End Bar-Start Bar-End Bar-Start Bar-End Bar-Start Bar-End Bar-Start Bar-End Bar-Start Bar-End Bar-Start Bar-End Bar-Start Bar-End Bar-Start Position_0 Note-On_74 Note-Duration_1 Note-Velocity_93 Note-On_69 Note-Duration_1 Note-Velocity_89 Position_1 Note-On_74 Note-Duration_1 Note-Velocity_79 Note-On_69 Note-Duration_1 Note-Velocity_82 Position_3 Note-On_74 Note-Duration_1 Note-Velocity_92 Note-On_69 Note-Duration_1 Note-Velocity_90 Position_4 Note-On_74 Note-Duration_1 Note-Velocity_79 Note-On_69 Note-Duration_1 Note-Velocity_82 Position_5 Note-On_74 Note-Duration_1 Note-Velocity_84 Note-On_69 Note-Duration_1 Note-Velocity_79 Position_7 Note-On_74 Note-Duration_1 Note-Velocity_94 Note-On_69 Note-Duration_1 Note-Velocity_93 Position_8 Note-On_74 Note-Duration_1 Note-Velocity_94 Note-On_71 Note-Duration_1 Note-Velocity_96 Position_9 Note-On_74 Note-Duration_1 Note-Velocity_94 Note-On_71 Note-Duration_1 Note-Velocity_94 Position_11 Note-On_74 Note-Duration_1 Note-Velocity_96 Note-On_71 Note-Duration_1 Note-Velocity_96 Position_12 Note-On_74 Note-Duration_1 Note-Velocity_94 Note-On_71 Note-Duration_1 Note-Velocity_94 Position_13 Note-On_74 Note-Duration_1 Note-Velocity_98 Note-On_71 Note-Duration_1 Note-Velocity_94 Position_15 Note-On_74 Note-Duration_1 Note-Velocity_98 Note-On_71 Note-Duration_1 Note-Velocity_94 Bar-End Bar-Start Position_0 Note-On_74 Note-Duration_1 Note-Velocity_98 Note-On_69 Note-Duration_1 Note-Velocity_94 Position_1 Note-On_74 Note-Duration_1 Note-Velocity_94 Note-On_69 Note-Duration_1 Note-Velocity_94 Position_3 Note-On_74 Note-Duration_1 Note-Velocity_96 Note-On_69 Note-Duration_1 Note-Velocity_96 Position_4 Note-On_74 Note-Duration_1 Note-Velocity_94 Note-On_69 Note-Duration_1 Note-Velocity_94 Position_5 Note-On_74 Note-Duration_1 Note-Velocity_93 Note-On_69 Note-Duration_1 Note-Velocity_93 Position_7 Note-On_74 Note-Duration_1 Note-Velocity_98 Note-On_69 Note-Duration_1 Note-Velocity_94 Position_8 Note-On_74 Note-Duration_1 Note-Velocity_94 Note-On_71 Note-Duration_1 Note-Velocity_94 Position_9 Note-On_74 Note-Duration_1 Note-Velocity_96 Note-On_71 Note-Duration_1 Note-Velocity_96 Position_11 Note-On_74 Note-Duration_1 Note-Velocity_98 Note-On_71 Note-Duration_1 Note-Velocity_98 Position_12 Note-On_74 Note-Duration_1 Note-Velocity_98 Note-On_71 Note-Duration_1 Note-Velocity_98 Position_13 Note-On_74 Note-Duration_1 Note-Velocity_90 Note-On_71 Note-Duration_1 Note-Velocity_98 Position_15 Note-On_74 Note-Duration_1 Note-Velocity_98 Note-On_71 Note-Duration_1 Note-Velocity_94 Bar-End Bar-Start Position_0 Note-On_74 Note-Duration_1 Note-Velocity_98 Note-On_69 Note-Duration_1 Note-Velocity_94 Position_1 Note-On_74 Note-Duration_1 Note-Velocity_94 Note-On_69 Note-Duration_1 Note-Velocity_94 Position_3 Note-On_74 Note-Duration_1 Note-Velocity_96 Note-On_69 Note-Duration_1 Note-Velocity_96 Position_4 Note-On_74 Note-Duration_1 Note-Velocity_94 Note-On_69 Note-Duration_1 Note-Velocity_94 Position_5 Note-On_74 Note-Duration_1 Note-Velocity_93 Note-On_69 Note-Duration_1 Note-Velocity_93 Position_7 Note-On_74 Note-Duration_1 Note-Velocity_98 Note-On_69 Note-Duration_1 Note-Velocity_94 Position_8 Note-On_74 Note-Duration_1 Note-Velocity_94 Note-On_71 Note-Duration_1 Note-Velocity_94 Position_9 Note-On_74 Note-Duration_1 Note-Velocity_96 Note-On_71 Note-Duration_1 Note-Velocity_96 Position_11 Note-On_74 Note-Duration_1 Note-Velocity_98 Note-On_71 Note-Duration_1 Note-Velocity_98 Position_12 Note-On_74 Note-Duration_1 Note-Velocity_98 Note-On_71 Note-Duration_1 Note-Velocity_98 Position_13 Note-On_74 Note-Duration_1 Note-Velocity_90 Note-On_71 Note-Duration_1 Note-Velocity_98 Position_15 Note-On_74 Note-Duration_1 Note-Velocity_98 Note-On_71 Note-Duration_1 Note-Velocity_94 Bar-End Bar-Start Position_0 Note-On_74 Note-Duration_1 Note-Velocity_98 Note-On_69 Note-Duration_1 Note-Velocity_94 Position_1 Note-On_74 Note-Duration_1 Note-Velocity_94 Note-On_69 Note-Duration_1 Note-Velocity_94 Position_3 Note-On_74 Note-Duration_1 Note-Velocity_96 Note-On_69 Note-Duration_1 Note-Velocity_96 Position_4 Note-On_74 Note-Duration_1 Note-Velocity_94 Note-On_69 Note-Duration_1 Note-Velocity_94 Position_5 Note-On_74 Note-Duration_1 Note-Velocity_93 Note-On_69 Note-Duration_1 Note-Velocity_93 Position_7 Note-On_74 Note-Duration_1 Note-Velocity_98 Note-On_69 Note-Duration_1 Note-Velocity_94 Position_8 Note-On_74 Note-Duration_1 Note-Velocity_94 Note-On_71 Note-Duration_1 Note-Velocity_94 Position_9 Note-On_74 Note-Duration_1 Note-Velocity_96 Note-On_71 Note-Duration_1 Note-Velocity_96 Position_11 Note-On_74 Note-Duration_1 Note-Velocity_98 Note-On_71 Note-Duration_1 Note-Velocity_98 Position_12 Note-On_74 Note-Duration_1 Note-Velocity_98 Note-On_71 Note-Duration_1 Note-Velocity_98 Position_13 Note-On_74 Note-Duration_1 Note-Velocity_90 Note-On_71 Note-Duration_1 Note-Velocity_98 Position_15 Note-On_74 Note-Duration_1 Note-Velocity_98 Note-On_71 Note-Duration_1 Note-Velocity_94 Bar-End Bar-Start Position_0 Note-On_74 Note-Duration_1 Note-Velocity_98 Note-On_69 Note-Duration_1 Note-Velocity_94 Position_1 Note-On_74 Note-Duration_1 Note-Velocity_94 Note-On_69 Note-Duration_1 Note-Velocity_94 Position_3 Note-On_74 Note-Duration_1 Note-Velocity_96 Note-On_69 Note-Duration_1 Note-Velocity_96 Position_4 Note-On_74 Note-Duration_1 Note-Velocity_94 Note-On_69 Note-Duration_1 Note-Velocity_94 Position_5 Note-On_74 Note-Duration_1 Note-Velocity_93 Note-On_69 Note-Duration_1 Note-Velocity_93 Position_7 Note-On_74 Note-Duration_1 Note-Velocity_98 Note-On_69 Note-Duration_1 Note-Velocity_94 Position_8 Note-On_74 Note-Duration_1 Note-Velocity_94 Note-On_71 Note-Duration_1 Note-Velocity_94 Position_9 Note-On_74 Note-Duration_1 Note-Velocity_96 Note-On_71 Note-Duration_1 Note-Velocity_96 Position_11 Note-On_74 Note-Duration_1 Note-Velocity_98 Note-On_71 Note-Duration_1 Note-Velocity_98 Position_12 Note-On_74 Note-Duration_1 Note-Velocity_98 Note-On_71 Note-Duration_1 Note-Velocity_98 Position_13 Note-On_74 Note-Duration_1 Note-Velocity_90 Note-On_71 Note-Duration_1 Note-Velocity_98 Position_15 Note-On_74 Note-Duration_1 Note-Velocity_98 Note-On_71 Note-Duration_1 Note-Velocity_94 Bar-End Bar-Start Position_0 Note-On_74 Note-Duration_1 Note-Velocity_98 Note-On_69 Note-Duration_1 Note-Velocity_94 Position_1 Note-On_74 Note-Duration_1 Note-Velocity_94 Note-On_69 Note-Duration_1 Note-Velocity_94 Position_3 Note-On_74 Note-Duration_1 Note-Velocity_96 Note-On_69 Note-Duration_1 Note-Velocity_96 Position_4 Note-On_74 Note-Duration_1 Note-Velocity_94 Note-On_69 Note-Duration_1 Note-Velocity_94 Position_5 Note-On_74 Note-Duration_1 Note-Velocity_93 Note-On_69 Note-Duration_1 Note-Velocity_93 Position_7 Note-On_74 Note-Duration_1 Note-Velocity_98 Note-On_69 Note-Duration_1 Note-Velocity_94 Position_8 Note-On_74 Note-Duration_1 Note-Velocity_94 Note-On_71 Note-Duration_1 Note-Velocity_94 Position_9 Note-On_74 Note-Duration_1 Note-Velocity_96 Note-On_71 Note-Duration_1 Note-Velocity_96 Position_11 Note-On_74 Note-Duration_1 Note-Velocity_98 Note-On_71 Note-Duration_1 Note-Velocity_98 Position_12 Note-On_74 Note-Duration_1 Note-Velocity_98 Note-On_71 Note-Duration_1 Note-Velocity_98 Position_13 Note-On_74 Note-Duration_1 Note-Velocity_90 Note-On_71 Note-Duration_1 Note-Velocity_98 Position_15 Note-On_74 Note-Duration_1 Note-Velocity_98 Note-On_71 Note-Duration_1 Note-Velocity_94 Bar-End Bar-Start Position_0 Note-On_74 Note-Duration_1 Note-Velocity_98 Note-On_69 Note-Duration_1 Note-Velocity_94 Position_1 Note-On_74 Note-Duration_1 Note-Velocity_94 Note-On_69 Note-Duration_1 Note-Velocity_94 Position_3 Note-On_74 Note-Duration_1 Note-Velocity_96 Note-On_69 Note-Duration_1 Note-Velocity_96 Position_4 Note-On_74 Note-Duration_1 Note-Velocity_94 Note-On_69 Note-Duration_1 Note-Velocity_94 Position_5 Note-On_74 Note-Duration_1 Note-Velocity_93 Note-On_69 Note-Duration_1 Note-Velocity_93 Position_7 Note-On_74 Note-Duration_1 Note-Velocity_98 Note-On_69 Note-Duration_1 Note-Velocity_94 Position_8 Note-On_74 Note-Duration_1 Note-Velocity_94 Note-On_71 Note-Duration_1 Note-Velocity_94 Position_9 Note-On_74 Note-Duration_1 Note-Velocity_96 Note-On_71 Note-Duration_1 Note-Velocity_96 Position_11 Note-On_74 Note-Duration_1 Note-Velocity_98 Note-On_71 Note-Duration_1 Note-Velocity_98 Position_12 Note-On_74 Note-Duration_1 Note-Velocity_98 Note-On_71 Note-Duration_1 Note-Velocity_98 Position_13 Note-On_74 Note-Duration_1 Note-Velocity_90 Note-On_71 Note-Duration_1 Note-Velocity_98 Position_15 Note-On_74 Note-Duration_1 Note-Velocity_98 Note-On_71 Note-Duration_1 Note-Velocity_94 Bar-End Bar-Start Position_0 Note-On_74 Note-Duration_1 Note-Velocity_98 Note-On_69 Note-Duration_1 Note-Velocity_94 Position_1 Note-On_74 Note-Duration_1 Note-Velocity_94 Note-On_69 Note-Duration_1 Note-Velocity_94 Position_3 Note-On_74 Note-Duration_1 Note-Velocity_96 Note-On_69 Note-Duration_1 Note-Velocity_96 Position_4 Note-On_74 Note-Duration_1 Note-Velocity_94 Note-On_69 Note-Duration_1 Note-Velocity_94 Position_5 Note-On_74 Note-Duration_1 Note-Velocity_93 Note-On_69 Note-Duration_1 Note-Velocity_93 Position_7 Note-On_74 Note-Duration_1 Note-Velocity_98 Note-On_69 Note-Duration_1 Note-Velocity_94 Position_8 Note-On_74 Note-Duration_1 Note-Velocity_94 Note-On_71 Note-Duration_1 Note-Velocity_94 Position_9 Note-On_74 Note-Duration_1 Note-Velocity_96 Note-On_71 Note-Duration_1 Note-Velocity_96 Position_11 Note-On_74 Note-Duration_1 Note-Velocity_98 Note-On_71 Note-Duration_1 Note-Velocity_98 Position_12 Note-On_74 Note-Duration_1 Note-Velocity_98 Note-On_71 Note-Duration_1 Note-Velocity_98 Position_13 Note-On_74 Note-Duration_1 Note-Velocity_90 Note-On_71 Note-Duration_1 Note-Velocity_98 Position_15 Note-On_74 Note-Duration_1 Note-Velocity_98 Note-On_71 Note-Duration_1 Note-Velocity_94 Bar-End Bar-Start Bar-End Bar-Start Bar-End Bar-Start Bar-End Bar-Start Bar-End Bar-Start Bar-End Bar-Start Bar-End Bar-Start Bar-End Bar-Start Bar-End Bar-Start Position_0 Note-On_74 Note-Duration_1 Note-Velocity_93 Note-On_69 Note-Duration_1 Note-Velocity_89 Position_1 Note-On_74 Note-Duration_1 Note-Velocity_79 Note-On_69 Note-Duration_1 Note-Velocity_82 Position_3 Note-On_74 Note-Duration_1 Note-Velocity_92 Note-On_69 Note-Duration_1 Note-Velocity_90 Position_4 Note-On_74 Note-Duration_1 Note-Velocity_79 Note-On_69 Note-Duration_1 Note-Velocity_82 Position_5 Note-On_74 Note-Duration_1 Note-Velocity_84 Note-On_69 Note-Duration_1 Note-Velocity_79 Position_7 Note-On_74 Note-Duration_1 Note-Velocity_94 Note-On_69 Note-Duration_1 Note-Velocity_93 Position_8 Note-On_74 Note-Duration_1 Note-Velocity_94 Note-On_71 Note-Duration_1 Note-Velocity_96 Position_9 Note-On_74 Note-Duration_1 Note-Velocity_94 Note-On_71 Note-Duration_1 Note-Velocity_94 Position_11 Note-On_74 Note-Duration_1 Note-Velocity_96 Note-On_71 Note-Duration_1 Note-Velocity_96 Position_12 Note-On_74 Note-Duration_1 Note-Velocity_94 Note-On_71 Note-Duration_1 Note-Velocity_94 Position_13 Note-On_74 Note-Duration_1 Note-Velocity_98 Note-On_71 Note-Duration_1 Note-Velocity_94 Position_15 Note-On_74 Note-Duration_1 Note-Velocity_98 Note-On_71 Note-Duration_1 Note-Velocity_94 Bar-End Bar-Start Position_0 Note-On_74 Note-Duration_1 Note-Velocity_98 Note-On_69 Note-Duration_1 Note-Velocity_94 Position_1 Note-On_74 Note-Duration_1 Note-Velocity_94 Note-On_69 Note-Duration_1 Note-Velocity_94 Position_3 Note-On_74 Note-Duration_1 Note-Velocity_96 Note-On_69 Note-Duration_1 Note-Velocity_96 Position_4 Note-On_74 Note-Duration_1 Note-Velocity_94 Note-On_69 Note-Duration_1 Note-Velocity_94 Position_5 Note-On_74 Note-Duration_1 Note-Velocity_93 Note-On_69 Note-Duration_1 Note-Velocity_93 Position_7 Note-On_74 Note-Duration_1 Note-Velocity_98 Note-On_69 Note-Duration_1 Note-Velocity_94 Position_8 Note-On_74 Note-Duration_1 Note-Velocity_94 Note-On_71 Note-Duration_1 Note-Velocity_94 Position_9 Note-On_74 Note-Duration_1 Note-Velocity_96 Note-On_71 Note-Duration_1 Note-Velocity_96 Position_11 Note-On_74 Note-Duration_1 Note-Velocity_98 Note-On_71 Note-Duration_1 Note-Velocity_98 Position_12 Note-On_74 Note-Duration_1 Note-Velocity_98 Note-On_71 Note-Duration_1 Note-Velocity_98 Position_13 Note-On_74 Note-Duration_1 Note-Velocity_90 Note-On_71 Note-Duration_1 Note-Velocity_98 Position_15 Note-On_74 Note-Duration_1 Note-Velocity_98 Note-On_71 Note-Duration_1 Note-Velocity_94 Bar-End Bar-Start Position_0 Note-On_74 Note-Duration_1 Note-Velocity_98 Note-On_69 Note-Duration_1 Note-Velocity_94 Position_1 Note-On_74 Note-Duration_1 Note-Velocity_94 Note-On_69 Note-Duration_1 Note-Velocity_94 Position_3 Note-On_74 Note-Duration_1 Note-Velocity_96 Note-On_69 Note-Duration_1 Note-Velocity_96 Position_4 Note-On_74 Note-Duration_1 Note-Velocity_94 Note-On_69 Note-Duration_1 Note-Velocity_94 Position_5 Note-On_74 Note-Duration_1 Note-Velocity_93 Note-On_69 Note-Duration_1 Note-Velocity_93 Position_7 Note-On_74 Note-Duration_1 Note-Velocity_98 Note-On_69 Note-Duration_1 Note-Velocity_94 Position_8 Note-On_74 Note-Duration_1 Note-Velocity_94 Note-On_71 Note-Duration_1 Note-Velocity_94 Position_9 Note-On_74 Note-Duration_1 Note-Velocity_96 Note-On_71 Note-Duration_1 Note-Velocity_96 Position_11 Note-On_74 Note-Duration_1 Note-Velocity_98 Note-On_71 Note-Duration_1 Note-Velocity_98 Position_12 Note-On_74 Note-Duration_1 Note-Velocity_98 Note-On_71 Note-Duration_1 Note-Velocity_98 Position_13 Note-On_74 Note-Duration_1 Note-Velocity_90 Note-On_71 Note-Duration_1 Note-Velocity_98 Position_15 Note-On_74 Note-Duration_1 Note-Velocity_98 Note-On_71 Note-Duration_1 Note-Velocity_94 Bar-End Bar-Start Position_0 Note-On_74 Note-Duration_1 Note-Velocity_98 Note-On_69 Note-Duration_1 Note-Velocity_94 Position_1 Note-On_74 Note-Duration_1 Note-Velocity_94 Note-On_69 Note-Duration_1 Note-Velocity_94 Position_3 Note-On_74 Note-Duration_1 Note-Velocity_96 Note-On_69 Note-Duration_1 Note-Velocity_96 Position_4 Note-On_74 Note-Duration_1 Note-Velocity_94 Note-On_69 Note-Duration_1 Note-Velocity_94 Position_5 Note-On_74 Note-Duration_1 Note-Velocity_93 Note-On_69 Note-Duration_1 Note-Velocity_93 Position_7 Note-On_74 Note-Duration_1 Note-Velocity_98 Note-On_69 Note-Duration_1 Note-Velocity_94 Position_8 Note-On_74 Note-Duration_1 Note-Velocity_94 Note-On_71 Note-Duration_1 Note-Velocity_94 Position_9 Note-On_74 Note-Duration_1 Note-Velocity_96 Note-On_71 Note-Duration_1 Note-Velocity_96 Position_11 Note-On_74 Note-Duration_1 Note-Velocity_98 Note-On_71 Note-Duration_1 Note-Velocity_98 Position_12 Note-On_74 Note-Duration_1 Note-Velocity_98 Note-On_71 Note-Duration_1 Note-Velocity_98 Position_13 Note-On_74 Note-Duration_1 Note-Velocity_90 Note-On_71 Note-Duration_1 Note-Velocity_98 Position_15 Note-On_74 Note-Duration_1 Note-Velocity_98 Note-On_71 Note-Duration_1 Note-Velocity_94 Bar-End Bar-Start Position_0 Note-On_74 Note-Duration_1 Note-Velocity_98 Note-On_69 Note-Duration_1 Note-Velocity_94 Position_1 Note-On_74 Note-Duration_1 Note-Velocity_94 Note-On_69 Note-Duration_1 Note-Velocity_94 Position_3 Note-On_74 Note-Duration_1 Note-Velocity_96 Note-On_69 Note-Duration_1 Note-Velocity_96 Position_4 Note-On_74 Note-Duration_1 Note-Velocity_94 Note-On_69 Note-Duration_1 Note-Velocity_94 Position_5 Note-On_74 Note-Duration_1 Note-Velocity_93 Note-On_69 Note-Duration_1 Note-Velocity_93 Position_7 Note-On_74 Note-Duration_1 Note-Velocity_98 Note-On_69 Note-Duration_1 Note-Velocity_94 Position_8 Note-On_74 Note-Duration_1 Note-Velocity_94 Note-On_71 Note-Duration_1 Note-Velocity_94 Position_9 Note-On_74 Note-Duration_1 Note-Velocity_96 Note-On_71 Note-Duration_1 Note-Velocity_96 Position_11 Note-On_74 Note-Duration_1 Note-Velocity_98 Note-On_71 Note-Duration_1 Note-Velocity_98 Position_12 Note-On_74 Note-Duration_1 Note-Velocity_98 Note-On_71 Note-Duration_1 Note-Velocity_98 Position_13 Note-On_74 Note-Duration_1 Note-Velocity_90 Note-On_71 Note-Duration_1 Note-Velocity_98 Position_15 Note-On_74 Note-Duration_1 Note-Velocity_98 Note-On_71 Note-Duration_1 Note-Velocity_94 Bar-End Bar-Start Position_0 Note-On_74 Note-Duration_1 Note-Velocity_98 Note-On_69 Note-Duration_1 Note-Velocity_94 Position_1 Note-On_74 Note-Duration_1 Note-Velocity_94 Note-On_69 Note-Duration_1 Note-Velocity_94 Position_3 Note-On_74 Note-Duration_1 Note-Velocity_96 Note-On_69 Note-Duration_1 Note-Velocity_96 Position_4 Note-On_74 Note-Duration_1 Note-Velocity_94 Note-On_69 Note-Duration_1 Note-Velocity_94 Position_5 Note-On_74 Note-Duration_1 Note-Velocity_93 Note-On_69 Note-Duration_1 Note-Velocity_93 Position_7 Note-On_74 Note-Duration_1 Note-Velocity_98 Note-On_69 Note-Duration_1 Note-Velocity_94 Position_8 Note-On_74 Note-Duration_1 Note-Velocity_94 Note-On_71 Note-Duration_1 Note-Velocity_94 Position_9 Note-On_74 Note-Duration_1 Note-Velocity_96 Note-On_71 Note-Duration_1 Note-Velocity_96 Position_11 Note-On_74 Note-Duration_1 Note-Velocity_98 Note-On_71 Note-Duration_1 Note-Velocity_98 Position_12 Note-On_74 Note-Duration_1 Note-Velocity_98 Note-On_71 Note-Duration_1 Note-Velocity_98 Position_13 Note-On_74 Note-Duration_1 Note-Velocity_90 Note-On_71 Note-Duration_1 Note-Velocity_98 Position_15 Note-On_74 Note-Duration_1 Note-Velocity_98 Note-On_71 Note-Duration_1 Note-Velocity_94 Bar-End Bar-Start Position_0 Note-On_74 Note-Duration_1 Note-Velocity_98 Note-On_69 Note-Duration_1 Note-Velocity_94 Position_1 Note-On_74 Note-Duration_1 Note-Velocity_94 Note-On_69 Note-Duration_1 Note-Velocity_94 Position_3 Note-On_74 Note-Duration_1 Note-Velocity_96 Note-On_69 Note-Duration_1 Note-Velocity_96 Position_4 Note-On_74 Note-Duration_1 Note-Velocity_94 Note-On_69 Note-Duration_1 Note-Velocity_94 Position_5 Note-On_74 Note-Duration_1 Note-Velocity_93 Note-On_69 Note-Duration_1 Note-Velocity_93 Position_7 Note-On_74 Note-Duration_1 Note-Velocity_98 Note-On_69 Note-Duration_1 Note-Velocity_94 Position_8 Note-On_74 Note-Duration_1 Note-Velocity_94 Note-On_71 Note-Duration_1 Note-Velocity_94 Position_9 Note-On_74 Note-Duration_1 Note-Velocity_96 Note-On_71 Note-Duration_1 Note-Velocity_96 Position_11 Note-On_74 Note-Duration_1 Note-Velocity_98 Note-On_71 Note-Duration_1 Note-Velocity_98 Position_12 Note-On_74 Note-Duration_1 Note-Velocity_98 Note-On_71 Note-Duration_1 Note-Velocity_98 Position_13 Note-On_74 Note-Duration_1 Note-Velocity_90 Note-On_71 Note-Duration_1 Note-Velocity_98 Position_15 Note-On_74 Note-Duration_1 Note-Velocity_98 Note-On_71 Note-Duration_1 Note-Velocity_94 Bar-End Bar-Start Position_0 Note-On_74 Note-Duration_1 Note-Velocity_98 Note-On_69 Note-Duration_1 Note-Velocity_94 Position_1 Note-On_74 Note-Duration_1 Note-Velocity_94 Note-On_69 Note-Duration_1 Note-Velocity_94 Position_3 Note-On_74 Note-Duration_1 Note-Velocity_96 Note-On_69 Note-Duration_1 Note-Velocity_96 Position_4 Note-On_74 Note-Duration_1 Note-Velocity_94 Note-On_69 Note-Duration_1 Note-Velocity_94 Position_5 Note-On_74 Note-Duration_1 Note-Velocity_93 Note-On_69 Note-Duration_1 Note-Velocity_93 Position_7 Note-On_74 Note-Duration_1 Note-Velocity_98 Note-On_69 Note-Duration_1 Note-Velocity_94 Position_8 Note-On_74 Note-Duration_1 Note-Velocity_94 Note-On_71 Note-Duration_1 Note-Velocity_94 Position_9 Note-On_74 Note-Duration_1 Note-Velocity_96 Note-On_71 Note-Duration_1 Note-Velocity_96 Position_11 Note-On_74 Note-Duration_1 Note-Velocity_98 Note-On_71 Note-Duration_1 Note-Velocity_98 Position_12 Note-On_74 Note-Duration_1 Note-Velocity_98 Note-On_71 Note-Duration_1 Note-Velocity_98 Position_13 Note-On_74 Note-Duration_1 Note-Velocity_90 Note-On_71 Note-Duration_1 Note-Velocity_98 Position_15 Note-On_74 Note-Duration_1 Note-Velocity_98 Note-On_71 Note-Duration_1 Note-Velocity_94 Bar-End Bar-Start Position_0 Note-On_74 Note-Duration_1 Note-Velocity_98 Note-On_69 Note-Duration_1 Note-Velocity_94 Position_1 Note-On_74 Note-Duration_1 Note-Velocity_94 Note-On_69 Note-Duration_1 Note-Velocity_94 Position_3 Note-On_74 Note-Duration_1 Note-Velocity_96 Note-On_69 Note-Duration_1 Note-Velocity_96 Position_4 Note-On_74 Note-Duration_1 Note-Velocity_94 Note-On_69 Note-Duration_1 Note-Velocity_94 Position_5 Note-On_74 Note-Duration_1 Note-Velocity_93 Note-On_69 Note-Duration_1 Note-Velocity_93 Position_7 Note-On_74 Note-Duration_1 Note-Velocity_98 Note-On_69 Note-Duration_1 Note-Velocity_94 Position_8 Note-On_74 Note-Duration_1 Note-Velocity_94 Note-On_71 Note-Duration_1 Note-Velocity_94 Position_9 Note-On_74 Note-Duration_1 Note-Velocity_96 Note-On_71 Note-Duration_1 Note-Velocity_96 Position_11 Note-On_74 Note-Duration_1 Note-Velocity_98 Note-On_71 Note-Duration_1 Note-Velocity_98 Position_12 Note-On_74 Note-Duration_1 Note-Velocity_98 Note-On_71 Note-Duration_1 Note-Velocity_98 Position_13 Note-On_74 Note-Duration_1 Note-Velocity_90 Note-On_71 Note-Duration_1 Note-Velocity_98 Position_15 Note-On_74 Note-Duration_1 Note-Velocity_98 Note-On_71 Note-Duration_1 Note-Velocity_94 Bar-End Bar-Start Bar-End Bar-Start Bar-End Bar-Start Bar-End Bar-Start Bar-End Bar-Start Bar-End Bar-Start Bar-End Bar-Start Bar-End Bar-Start Bar-End Bar-Start Position_0 Note-On_74 Note-Duration_1 Note-Velocity_93 Note-On_69 Note-Duration_1 Note-Velocity_89 Position_1 Note-On_74 Note-Duration_1 Note-Velocity_79 Note-On_69 Note-Duration_1 Note-Velocity_82 Position_3 Note-On_74 Note-Duration_1 Note-Velocity_92 Note-On_69 Note-Duration_1 Note-Velocity_90 Position_4 Note-On_74 Note-Duration_1 Note-Velocity_79 Note-On_69 Note-Duration_1 Note-Velocity_82 Position_5 Note-On_74 Note-Duration_1 Note-Velocity_84 Note-On_69 Note-Duration_1 Note-Velocity_79 Position_7 Note-On_74 Note-Duration_1 Note-Velocity_94 Note-On_69 Note-Duration_1 Note-Velocity_93 Position_8 Note-On_74 Note-Duration_1 Note-Velocity_94 Note-On_71 Note-Duration_1 Note-Velocity_96 Position_9 Note-On_74 Note-Duration_1 Note-Velocity_94 Note-On_71 Note-Duration_1 Note-Velocity_94 Position_11 Note-On_74 Note-Duration_1 Note-Velocity_96 Note-On_71 Note-Duration_1 Note-Velocity_96 Position_12 Note-On_74 Note-Duration_1 Note-Velocity_94 Note-On_71 Note-Duration_1 Note-Velocity_94 Position_13 Note-On_74 Note-Duration_1 Note-Velocity_98 Note-On_71 Note-Duration_1 Note-Velocity_94 Position_15 Note-On_74 Note-Duration_1 Note-Velocity_98 Note-On_71 Note-Duration_1 Note-Velocity_94 Bar-End Bar-Start Position_0 Note-On_74 Note-Duration_1 Note-Velocity_98 Note-On_69 Note-Duration_1 Note-Velocity_94 Position_1 Note-On_74 Note-Duration_1 Note-Velocity_94 Note-On_69 Note-Duration_1 Note-Velocity_94 Position_3 Note-On_74 Note-Duration_1 Note-Velocity_96 Note-On_69 Note-Duration_1 Note-Velocity_96 Position_4 Note-On_74 Note-Duration_1 Note-Velocity_94 Note-On_69 Note-Duration_1 Note-Velocity_94 Position_5 Note-On_74 Note-Duration_1 Note-Velocity_93 Note-On_69 Note-Duration_1 Note-Velocity_93 Position_7 Note-On_74 Note-Duration_1 Note-Velocity_98 Note-On_69 Note-Duration_1 Note-Velocity_94 Position_8 Note-On_74 Note-Duration_1 Note-Velocity_94 Note-On_71 Note-Duration_1 Note-Velocity_94 Position_9 Note-On_74 Note-Duration_1 Note-Velocity_96 Note-On_71 Note-Duration_1 Note-Velocity_96 Position_11 Note-On_74 Note-Duration_1 Note-Velocity_98 Note-On_71 Note-Duration_1 Note-Velocity_98 Position_12 Note-On_74 Note-Duration_1 Note-Velocity_98 Note-On_71 Note-Duration_1 Note-Velocity_98 Position_13 Note-On_74 Note-Duration_1 Note-Velocity_90 Note-On_71 Note-Duration_1 Note-Velocity_98 Position_15 Note-On_74 Note-Duration_1 Note-Velocity_98 Note-On_71 Note-Duration_1 Note-Velocity_94 Bar-End Bar-Start Position_0 Note-On_74 Note-Duration_1 Note-Velocity_98 Note-On_69 Note-Duration_1 Note-Velocity_94 Position_1 Note-On_74 Note-Duration_1 Note-Velocity_94 Note-On_69 Note-Duration_1 Note-Velocity_94 Position_3 Note-On_74 Note-Duration_1 Note-Velocity_96 Note-On_69 Note-Duration_1 Note-Velocity_96 Position_4 Note-On_74 Note-Duration_1 Note-Velocity_94 Note-On_69 Note-Duration_1 Note-Velocity_94 Position_5 Note-On_74 Note-Duration_1 Note-Velocity_93 Note-On_69 Note-Duration_1 Note-Velocity_93 Position_7 Note-On_74 Note-Duration_1 Note-Velocity_98 Note-On_69 Note-Duration_1 Note-Velocity_94 Position_8 Note-On_74 Note-Duration_1 Note-Velocity_94 Note-On_71 Note-Duration_1 Note-Velocity_94 Position_9 Note-On_74 Note-Duration_1 Note-Velocity_96 Note-On_71 Note-Duration_1 Note-Velocity_96 Position_11 Note-On_74 Note-Duration_1 Note-Velocity_98 Note-On_71 Note-Duration_1 Note-Velocity_98 Position_12 Note-On_74 Note-Duration_1 Note-Velocity_98 Note-On_71 Note-Duration_1 Note-Velocity_98 Position_13 Note-On_74 Note-Duration_1 Note-Velocity_90 Note-On_71 Note-Duration_1 Note-Velocity_98 Position_15 Note-On_74 Note-Duration_1 Note-Velocity_98 Note-On_71 Note-Duration_1 Note-Velocity_94 Bar-End Bar-Start Position_0 Note-On_74 Note-Duration_1 Note-Velocity_98 Note-On_69 Note-Duration_1 Note-Velocity_94 Position_1 Note-On_74 Note-Duration_1 Note-Velocity_94 Note-On_69 Note-Duration_1 Note-Velocity_94 Position_3 Note-On_74 Note-Duration_1 Note-Velocity_96 Note-On_69 Note-Duration_1 Note-Velocity_96 Position_4 Note-On_74 Note-Duration_1 Note-Velocity_94 Note-On_69 Note-Duration_1 Note-Velocity_94 Position_5 Note-On_74 Note-Duration_1 Note-Velocity_93 Note-On_69 Note-Duration_1 Note-Velocity_93 Position_7 Note-On_74 Note-Duration_1 Note-Velocity_98 Note-On_69 Note-Duration_1 Note-Velocity_94 Position_8 Note-On_74 Note-Duration_1 Note-Velocity_94 Note-On_71 Note-Duration_1 Note-Velocity_94 Position_9 Note-On_74 Note-Duration_1 Note-Velocity_96 Note-On_71 Note-Duration_1 Note-Velocity_96 Position_11 Note-On_74 Note-Duration_1 Note-Velocity_98 Note-On_71 Note-Duration_1 Note-Velocity_98 Position_12 Note-On_74 Note-Duration_1 Note-Velocity_98 Note-On_71 Note-Duration_1 Note-Velocity_98 Position_13 Note-On_74 Note-Duration_1 Note-Velocity_90 Note-On_71 Note-Duration_1 Note-Velocity_98 Position_15 Note-On_74 Note-Duration_1 Note-Velocity_98 Note-On_71 Note-Duration_1 Note-Velocity_94 Bar-End Bar-Start Position_0 Note-On_74 Note-Duration_1 Note-Velocity_98 Note-On_69 Note-Duration_1 Note-Velocity_94 Position_1 Note-On_74 Note-Duration_1 Note-Velocity_94 Note-On_69 Note-Duration_1 Note-Velocity_94 Position_3 Note-On_74 Note-Duration_1 Note-Velocity_96 Note-On_69 Note-Duration_1 Note-Velocity_96 Position_4 Note-On_74 Note-Duration_1 Note-Velocity_94 Note-On_69 Note-Duration_1 Note-Velocity_94 Position_5 Note-On_74 Note-Duration_1 Note-Velocity_93 Note-On_69 Note-Duration_1 Note-Velocity_93 Position_7 Note-On_74 Note-Duration_1 Note-Velocity_98 Note-On_69 Note-Duration_1 Note-Velocity_94 Position_8 Note-On_74 Note-Duration_1 Note-Velocity_94 Note-On_71 Note-Duration_1 Note-Velocity_94 Position_9 Note-On_74 Note-Duration_1 Note-Velocity_96 Note-On_71 Note-Duration_1 Note-Velocity_96 Position_11 Note-On_74 Note-Duration_1 Note-Velocity_98 Note-On_71 Note-Duration_1 Note-Velocity_98 Position_12 Note-On_74 Note-Duration_1 Note-Velocity_98 Note-On_71 Note-Duration_1 Note-Velocity_98 Position_13 Note-On_74 Note-Duration_1 Note-Velocity_90 Note-On_71 Note-Duration_1 Note-Velocity_98 Position_15 Note-On_74 Note-Duration_1 Note-Velocity_98 Note-On_71 Note-Duration_1 Note-Velocity_94 Bar-End Bar-Start Position_0 Note-On_74 Note-Duration_1 Note-Velocity_98 Note-On_69 Note-Duration_1 Note-Velocity_94 Position_1 Note-On_74 Note-Duration_1 Note-Velocity_94 Note-On_69 Note-Duration_1 Note-Velocity_94 Position_3 Note-On_74 Note-Duration_1 Note-Velocity_96 Note-On_69 Note-Duration_1 Note-Velocity_96 Position_4 Note-On_74 Note-Duration_1 Note-Velocity_94 Note-On_69 Note-Duration_1 Note-Velocity_94 Position_5 Note-On_74 Note-Duration_1 Note-Velocity_93 Note-On_69 Note-Duration_1 Note-Velocity_93 Position_7 Note-On_74 Note-Duration_1 Note-Velocity_98 Note-On_69 Note-Duration_1 Note-Velocity_94 Position_8 Note-On_74 Note-Duration_1 Note-Velocity_94 Note-On_71 Note-Duration_1 Note-Velocity_94 Position_9 Note-On_74 Note-Duration_1 Note-Velocity_96 Note-On_71 Note-Duration_1 Note-Velocity_96 Position_11 Note-On_74 Note-Duration_1 Note-Velocity_98 Note-On_71 Note-Duration_1 Note-Velocity_98 Position_12 Note-On_74 Note-Duration_1 Note-Velocity_98 Note-On_71 Note-Duration_1 Note-Velocity_98 Position_13 Note-On_74 Note-Duration_1 Note-Velocity_90 Note-On_71 Note-Duration_1 Note-Velocity_98 Position_15 Note-On_74 Note-Duration_1 Note-Velocity_98 Note-On_71 Note-Duration_1 Note-Velocity_94 Bar-End Bar-Start Position_0 Note-On_74 Note-Duration_1 Note-Velocity_98 Note-On_69 Note-Duration_1 Note-Velocity_94 Position_1 Note-On_74 Note-Duration_1 Note-Velocity_94 Note-On_69 Note-Duration_1 Note-Velocity_94 Position_3 Note-On_74 Note-Duration_1 Note-Velocity_96 Note-On_69 Note-Duration_1 Note-Velocity_96 Position_4 Note-On_74 Note-Duration_1 Note-Velocity_94 Note-On_69 Note-Duration_1 Note-Velocity_94 Position_5 Note-On_74 Note-Duration_1 Note-Velocity_93 Note-On_69 Note-Duration_1 Note-Velocity_93 Position_7 Note-On_74 Note-Duration_1 Note-Velocity_98 Note-On_69 Note-Duration_1 Note-Velocity_94 Position_8 Note-On_74 Note-Duration_1 Note-Velocity_94 Note-On_71 Note-Duration_1 Note-Velocity_94 Position_9 Note-On_74 Note-Duration_1 Note-Velocity_96 Note-On_71 Note-Duration_1 Note-Velocity_96 Position_11 Note-On_74 Note-Duration_1 Note-Velocity_98 Note-On_71 Note-Duration_1 Note-Velocity_98 Position_12 Note-On_74 Note-Duration_1 Note-Velocity_98 Note-On_71 Note-Duration_1 Note-Velocity_98 Position_13 Note-On_74 Note-Duration_1 Note-Velocity_90 Note-On_71 Note-Duration_1 Note-Velocity_98 Position_15 Note-On_74 Note-Duration_1 Note-Velocity_98 Note-On_71 Note-Duration_1 Note-Velocity_94 Bar-End Bar-Start Position_0 Note-On_74 Note-Duration_1 Note-Velocity_98 Note-On_69 Note-Duration_1 Note-Velocity_94 Position_1 Note-On_74 Note-Duration_1 Note-Velocity_94 Note-On_69 Note-Duration_1 Note-Velocity_94 Position_3 Note-On_74 Note-Duration_1 Note-Velocity_96 Note-On_69 Note-Duration_1 Note-Velocity_96 Position_4 Note-On_74 Note-Duration_1 Note-Velocity_94 Note-On_69 Note-Duration_1 Note-Velocity_94 Position_5 Note-On_74 Note-Duration_1 Note-Velocity_93 Note-On_69 Note-Duration_1 Note-Velocity_93 Position_7 Note-On_74 Note-Duration_1 Note-Velocity_98 Note-On_69 Note-Duration_1 Note-Velocity_94 Position_8 Note-On_74 Note-Duration_1 Note-Velocity_94 Note-On_71 Note-Duration_1 Note-Velocity_94 Position_9 Note-On_74 Note-Duration_1 Note-Velocity_96 Note-On_71 Note-Duration_1 Note-Velocity_96 Position_11 Note-On_74 Note-Duration_1 Note-Velocity_98 Note-On_71 Note-Duration_1 Note-Velocity_98 Position_12 Note-On_74 Note-Duration_1 Note-Velocity_98 Note-On_71 Note-Duration_1 Note-Velocity_98 Position_13 Note-On_74 Note-Duration_1 Note-Velocity_90 Note-On_71 Note-Duration_1 Note-Velocity_98 Position_15 Note-On_74 Note-Duration_1 Note-Velocity_98 Note-On_71 Note-Duration_1 Note-Velocity_94 Bar-End Bar-Start Position_0 Note-On_74 Note-Duration_1 Note-Velocity_98 Note-On_69 Note-Duration_1 Note-Velocity_94 Position_1 Note-On_74 Note-Duration_1 Note-Velocity_94 Note-On_69 Note-Duration_1 Note-Velocity_94 Position_3 Note-On_74 Note-Duration_1 Note-Velocity_96 Note-On_69 Note-Duration_1 Note-Velocity_96 Position_4 Note-On_74 Note-Duration_1 Note-Velocity_94 Note-On_69 Note-Duration_1 Note-Velocity_94 Position_5 Note-On_74 Note-Duration_1 Note-Velocity_93 Note-On_69 Note-Duration_1 Note-Velocity_93 Position_7 Note-On_74 Note-Duration_1 Note-Velocity_98 Note-On_69 Note-Duration_1 Note-Velocity_94 Position_8 Note-On_74 Note-Duration_1 Note-Velocity_94 Note-On_71 Note-Duration_1 Note-Velocity_94 Position_9 Note-On_74 Note-Duration_1 Note-Velocity_96 Note-On_71 Note-Duration_1 Note-Velocity_96 Position_11 Note-On_74 Note-Duration_1 Note-Velocity_98 Note-On_71 Note-Duration_1 Note-Velocity_98 Position_12 Note-On_74 Note-Duration_1 Note-Velocity_98 Note-On_71 Note-Duration_1 Note-Velocity_98 Position_13 Note-On_74 Note-Duration_1 Note-Velocity_90 Note-On_71 Note-Duration_1 Note-Velocity_98 Position_15 Note-On_74 Note-Duration_1 Note-Velocity_98 Note-On_71 Note-Duration_1 Note-Velocity_94 Bar-End Bar-Start Position_0 Note-On_74 Note-Duration_1 Note-Velocity_98 Note-On_69 Note-Duration_1 Note-Velocity_94 Position_1 Note-On_74 Note-Duration_1 Note-Velocity_94 Note-On_69 Note-Duration_1 Note-Velocity_94 Position_3 Note-On_74 Note-Duration_1 Note-Velocity_96 Note-On_69 Note-Duration_1 Note-Velocity_96 Position_4 Note-On_74 Note-Duration_1 Note-Velocity_94 Note-On_69 Note-Duration_1 Note-Velocity_94 Position_5 Note-On_74 Note-Duration_1 Note-Velocity_93 Note-On_69 Note-Duration_1 Note-Velocity_93 Position_7 Note-On_74 Note-Duration_1 Note-Velocity_98 Note-On_69 Note-Duration_1 Note-Velocity_94 Position_8 Note-On_74 Note-Duration_1 Note-Velocity_94 Note-On_71 Note-Duration_1 Note-Velocity_94 Position_9 Note-On_74 Note-Duration_1 Note-Velocity_96 Note-On_71 Note-Duration_1 Note-Velocity_96 Position_11 Note-On_74 Note-Duration_1 Note-Velocity_98 Note-On_71 Note-Duration_1 Note-Velocity_98 Position_12 Note-On_74 Note-Duration_1 Note-Velocity_98 Note-On_71 Note-Duration_1 Note-Velocity_98 Position_13 Note-On_74 Note-Duration_1 Note-Velocity_90 Note-On_71 Note-Duration_1 Note-Velocity_98 Position_15 Note-On_74 Note-Duration_1 Note-Velocity_98 Note-On_71 Note-Duration_1 Note-Velocity_94 Bar-End Bar-Start Bar-End Track-End Track-Start Inst_73 Bar-Start Bar-End Bar-Start Bar-End Bar-Start Bar-End Bar-Start Bar-End Bar-Start Bar-End Bar-Start Bar-End Bar-Start Bar-End Bar-Start Bar-End Bar-Start Bar-End Bar-Start Bar-End Bar-Start Bar-End Bar-Start Bar-End Bar-Start Bar-End Bar-Start Bar-End Bar-Start Bar-End Bar-Start Bar-End Bar-Start Bar-End Bar-Start Bar-End Bar-Start Bar-End Bar-Start Bar-End Bar-Start Bar-End Bar-Start Bar-End Bar-Start Bar-End Bar-Start Bar-End Bar-Start Bar-End Bar-Start Bar-End Bar-Start Bar-End Bar-Start Bar-End Bar-Start Bar-End Bar-Start Bar-End Bar-Start Bar-End Bar-Start Bar-End Bar-Start Bar-End Bar-Start Bar-End Bar-Start Bar-End Bar-Start Bar-End Bar-Start Bar-End Bar-Start Bar-End Bar-Start Bar-End Bar-Start Bar-End Bar-Start Bar-End Bar-Start Bar-End Bar-Start Bar-End Bar-Start Bar-End Bar-Start Bar-End Bar-Start Bar-End Bar-Start Bar-End Bar-Start Bar-End Bar-Start Bar-End Bar-Start Bar-End Bar-Start Bar-End Bar-Start Bar-End Bar-Start Bar-End Bar-Start Bar-End Bar-Start Bar-End Bar-Start Bar-End Bar-Start Bar-End Bar-Start Bar-End Bar-Start Bar-End Bar-Start Bar-End Bar-Start Bar-End Bar-Start Bar-End Bar-Start Bar-End Bar-Start Bar-End Bar-Start Bar-End Bar-Start Bar-End Bar-Start Bar-End Bar-Start Bar-End Bar-Start Bar-End Bar-Start Bar-End Bar-Start Bar-End Bar-Start Bar-End Bar-Start Bar-End Bar-Start Bar-End Bar-Start Bar-End Bar-Start Bar-End Bar-Start Bar-End Bar-Start Bar-End Bar-Start Bar-End Bar-Start Bar-End Bar-Start Bar-End Bar-Start Bar-End Bar-Start Bar-End Bar-Start Bar-End Bar-Start Bar-End Bar-Start Bar-End Bar-Start Position_0 Note-On_74 Note-Duration_5 Note-Velocity_95 Note-On_69 Note-Duration_5 Note-Velocity_95 Note-On_66 Note-Duration_5 Note-Velocity_95 Position_8 Note-On_74 Note-Duration_1 Note-Velocity_95 Note-On_69 Note-Duration_1 Note-Velocity_95 Note-On_66 Note-Duration_1 Note-Velocity_95 Bar-End Bar-Start Bar-End Bar-Start Position_0 Note-On_74 Note-Duration_5 Note-Velocity_95 Note-On_69 Note-Duration_5 Note-Velocity_95 Note-On_66 Note-Duration_5 Note-Velocity_95 Position_8 Note-On_74 Note-Duration_1 Note-Velocity_95 Note-On_69 Note-Duration_1 Note-Velocity_95 Note-On_66 Note-Duration_1 Note-Velocity_95 Bar-End Bar-Start Bar-End Bar-Start Bar-End Bar-Start Bar-End Bar-Start Bar-End Bar-Start Bar-End Bar-Start Bar-End Bar-Start Bar-End Bar-Start Bar-End Bar-Start Bar-End Bar-Start Bar-End Bar-Start Bar-End Bar-Start Bar-End Bar-Start Bar-End Bar-Start Bar-End Bar-Start Bar-End Bar-Start Bar-End Bar-Start Bar-End Bar-Start Bar-End Bar-Start Bar-End Bar-Start Bar-End Bar-Start Bar-End Bar-Start Bar-End Bar-Start Bar-End Bar-Start Bar-End Bar-Start Bar-End Bar-Start Bar-End Bar-Start Bar-End Bar-Start Bar-End Bar-Start Bar-End Bar-Start Bar-End Track-End Track-Start Inst_30 Bar-Start Bar-End Bar-Start Position_0 Note-On_59 Note-Duration_1 Note-Velocity_112 Note-On_55 Note-Duration_1 Note-Velocity_112 Note-On_52 Note-Duration_1 Note-Velocity_115 Position_4 Note-On_59 Note-Duration_1 Note-Velocity_108 Note-On_55 Note-Duration_1 Note-Velocity_115 Note-On_52 Note-Duration_1 Note-Velocity_112 Bar-End Bar-Start Position_0 Note-On_59 Note-Duration_1 Note-Velocity_104 Note-On_57 Note-Duration_1 Note-Velocity_104 Note-On_52 Note-Duration_1 Note-Velocity_115 Position_4 Note-On_59 Note-Duration_1 Note-Velocity_102 Note-On_57 Note-Duration_1 Note-Velocity_104 Note-On_52 Note-Duration_1 Note-Velocity_115 Bar-End Bar-Start Position_0 Note-On_59 Note-Duration_1 Note-Velocity_104 Note-On_55 Note-Duration_1 Note-Velocity_106 Note-On_52 Note-Duration_1 Note-Velocity_115 Position_4 Note-On_59 Note-Duration_1 Note-Velocity_102 Note-On_55 Note-Duration_1 Note-Velocity_115 Note-On_52 Note-Duration_1 Note-Velocity_110 Bar-End Bar-Start Position_0 Note-On_59 Note-Duration_1 Note-Velocity_112 Note-On_57 Note-Duration_1 Note-Velocity_108 Note-On_52 Note-Duration_1 Note-Velocity_115 Position_4 Note-On_59 Note-Duration_1 Note-Velocity_108 Note-On_57 Note-Duration_1 Note-Velocity_112 Note-On_52 Note-Duration_1 Note-Velocity_108 Bar-End Bar-Start Position_0 Note-On_59 Note-Duration_1 Note-Velocity_110 Note-On_55 Note-Duration_1 Note-Velocity_108 Note-On_52 Note-Duration_1 Note-Velocity_110 Position_4 Note-On_59 Note-Duration_1 Note-Velocity_112 Note-On_55 Note-Duration_1 Note-Velocity_112 Note-On_52 Note-Duration_1 Note-Velocity_110 Bar-End Bar-Start Position_0 Note-On_59 Note-Duration_1 Note-Velocity_106 Note-On_55 Note-Duration_1 Note-Velocity_104 Note-On_52 Note-Duration_1 Note-Velocity_115 Position_4 Note-On_59 Note-Duration_1 Note-Velocity_110 Note-On_55 Note-Duration_1 Note-Velocity_104 Note-On_52 Note-Duration_1 Note-Velocity_110 Bar-End Bar-Start Position_0 Note-On_59 Note-Duration_1 Note-Velocity_115 Note-On_55 Note-Duration_1 Note-Velocity_115 Note-On_52 Note-Duration_1 Note-Velocity_115 Position_4 Note-On_59 Note-Duration_1 Note-Velocity_115 Note-On_55 Note-Duration_1 Note-Velocity_108 Note-On_52 Note-Duration_1 Note-Velocity_112 Bar-End Bar-Start Position_0 Note-On_59 Note-Duration_1 Note-Velocity_104 Note-On_57 Note-Duration_1 Note-Velocity_108 Note-On_52 Note-Duration_1 Note-Velocity_115 Position_4 Note-On_59 Note-Duration_1 Note-Velocity_108 Note-On_57 Note-Duration_1 Note-Velocity_112 Note-On_52 Note-Duration_1 Note-Velocity_115 Bar-End Bar-Start Position_0 Note-On_59 Note-Duration_1 Note-Velocity_106 Note-On_57 Note-Duration_1 Note-Velocity_108 Note-On_52 Note-Duration_1 Note-Velocity_115 Position_4 Note-On_59 Note-Duration_1 Note-Velocity_108 Note-On_57 Note-Duration_1 Note-Velocity_106 Note-On_52 Note-Duration_1 Note-Velocity_115 Bar-End Bar-Start Position_0 Note-On_59 Note-Duration_1 Note-Velocity_112 Note-On_55 Note-Duration_1 Note-Velocity_110 Note-On_52 Note-Duration_1 Note-Velocity_110 Position_4 Note-On_59 Note-Duration_1 Note-Velocity_112 Note-On_55 Note-Duration_1 Note-Velocity_110 Note-On_52 Note-Duration_1 Note-Velocity_115 Bar-End Bar-Start Position_0 Note-On_59 Note-Duration_1 Note-Velocity_112 Note-On_55 Note-Duration_1 Note-Velocity_112 Note-On_52 Note-Duration_1 Note-Velocity_115 Position_4 Note-On_59 Note-Duration_1 Note-Velocity_112 Note-On_55 Note-Duration_1 Note-Velocity_104 Note-On_52 Note-Duration_1 Note-Velocity_115 Bar-End Bar-Start Position_0 Note-On_59 Note-Duration_1 Note-Velocity_115 Note-On_57 Note-Duration_1 Note-Velocity_112 Note-On_54 Note-Duration_1 Note-Velocity_110 Position_4 Note-On_59 Note-Duration_1 Note-Velocity_106 Note-On_57 Note-Duration_1 Note-Velocity_112 Note-On_54 Note-Duration_1 Note-Velocity_104 Position_8 Note-On_59 Note-Duration_1 Note-Velocity_104 Note-On_57 Note-Duration_1 Note-Velocity_108 Note-On_54 Note-Duration_1 Note-Velocity_104 Position_12 Note-On_59 Note-Duration_1 Note-Velocity_104 Note-On_57 Note-Duration_1 Note-Velocity_104 Note-On_54 Note-Duration_1 Note-Velocity_102 Bar-End Bar-Start Position_0 Note-On_59 Note-Duration_1 Note-Velocity_106 Note-On_57 Note-Duration_1 Note-Velocity_110 Note-On_54 Note-Duration_1 Note-Velocity_108 Position_4 Note-On_59 Note-Duration_1 Note-Velocity_110 Note-On_57 Note-Duration_1 Note-Velocity_110 Note-On_54 Note-Duration_1 Note-Velocity_106 Position_8 Note-On_59 Note-Duration_1 Note-Velocity_104 Note-On_57 Note-Duration_1 Note-Velocity_108 Note-On_54 Note-Duration_1 Note-Velocity_100 Position_12 Note-On_59 Note-Duration_1 Note-Velocity_106 Note-On_57 Note-Duration_1 Note-Velocity_106 Note-On_54 Note-Duration_1 Note-Velocity_110 Bar-End Bar-Start Position_0 Note-On_64 Note-Duration_1 Note-Velocity_104 Note-On_60 Note-Duration_1 Note-Velocity_115 Note-On_57 Note-Duration_1 Note-Velocity_112 Note-On_55 Note-Duration_1 Note-Velocity_104 Position_4 Note-On_64 Note-Duration_1 Note-Velocity_104 Note-On_60 Note-Duration_1 Note-Velocity_112 Note-On_57 Note-Duration_1 Note-Velocity_104 Note-On_55 Note-Duration_1 Note-Velocity_112 Position_8 Note-On_64 Note-Duration_1 Note-Velocity_100 Note-On_60 Note-Duration_1 Note-Velocity_108 Note-On_57 Note-Duration_1 Note-Velocity_104 Note-On_55 Note-Duration_1 Note-Velocity_102 Position_12 Note-On_64 Note-Duration_1 Note-Velocity_100 Note-On_60 Note-Duration_1 Note-Velocity_104 Note-On_57 Note-Duration_1 Note-Velocity_104 Note-On_55 Note-Duration_1 Note-Velocity_106 Bar-End Bar-Start Position_0 Note-On_62 Note-Duration_1 Note-Velocity_104 Note-On_59 Note-Duration_1 Note-Velocity_108 Note-On_55 Note-Duration_1 Note-Velocity_104 Position_4 Note-On_62 Note-Duration_1 Note-Velocity_102 Note-On_59 Note-Duration_1 Note-Velocity_104 Note-On_55 Note-Duration_1 Note-Velocity_100 Position_8 Note-On_62 Note-Duration_1 Note-Velocity_108 Note-On_59 Note-Duration_1 Note-Velocity_106 Note-On_55 Note-Duration_1 Note-Velocity_100 Position_12 Note-On_62 Note-Duration_1 Note-Velocity_106 Note-On_59 Note-Duration_1 Note-Velocity_102 Note-On_55 Note-Duration_1 Note-Velocity_104 Bar-End Bar-Start Position_0 Note-On_59 Note-Duration_1 Note-Velocity_104 Note-On_55 Note-Duration_1 Note-Velocity_104 Note-On_52 Note-Duration_1 Note-Velocity_110 Position_4 Note-On_59 Note-Duration_1 Note-Velocity_102 Note-On_55 Note-Duration_1 Note-Velocity_100 Note-On_52 Note-Duration_1 Note-Velocity_100 Position_8 Note-On_59 Note-Duration_1 Note-Velocity_102 Note-On_55 Note-Duration_1 Note-Velocity_104 Note-On_52 Note-Duration_1 Note-Velocity_102 Position_12 Note-On_59 Note-Duration_1 Note-Velocity_104 Note-On_55 Note-Duration_1 Note-Velocity_110 Note-On_52 Note-Duration_1 Note-Velocity_110 Bar-End Bar-Start Position_0 Note-On_59 Note-Duration_1 Note-Velocity_104 Note-On_55 Note-Duration_1 Note-Velocity_110 Note-On_52 Note-Duration_1 Note-Velocity_110 Position_4 Note-On_59 Note-Duration_1 Note-Velocity_104 Note-On_55 Note-Duration_1 Note-Velocity_104 Note-On_52 Note-Duration_1 Note-Velocity_115 Bar-End Bar-Start Position_0 Note-On_59 Note-Duration_1 Note-Velocity_115 Note-On_55 Note-Duration_1 Note-Velocity_115 Note-On_52 Note-Duration_1 Note-Velocity_115 Position_4 Note-On_59 Note-Duration_1 Note-Velocity_115 Note-On_55 Note-Duration_1 Note-Velocity_115 Note-On_52 Note-Duration_1 Note-Velocity_115 Bar-End Bar-Start Position_0 Note-On_59 Note-Duration_1 Note-Velocity_115 Note-On_55 Note-Duration_1 Note-Velocity_115 Note-On_52 Note-Duration_1 Note-Velocity_115 Position_4 Note-On_59 Note-Duration_1 Note-Velocity_115 Note-On_55 Note-Duration_1 Note-Velocity_115 Note-On_52 Note-Duration_1 Note-Velocity_115 Bar-End Bar-Start Position_0 Note-On_59 Note-Duration_1 Note-Velocity_115 Note-On_55 Note-Duration_1 Note-Velocity_115 Note-On_52 Note-Duration_1 Note-Velocity_115 Position_4 Note-On_59 Note-Duration_1 Note-Velocity_115 Note-On_55 Note-Duration_1 Note-Velocity_115 Note-On_52 Note-Duration_1 Note-Velocity_115 Bar-End Bar-Start Position_0 Note-On_59 Note-Duration_1 Note-Velocity_115 Note-On_57 Note-Duration_1 Note-Velocity_115 Note-On_54 Note-Duration_1 Note-Velocity_115 Position_4 Note-On_59 Note-Duration_1 Note-Velocity_115 Note-On_57 Note-Duration_1 Note-Velocity_115 Note-On_54 Note-Duration_1 Note-Velocity_115 Position_8 Note-On_59 Note-Duration_1 Note-Velocity_115 Note-On_57 Note-Duration_1 Note-Velocity_115 Note-On_54 Note-Duration_1 Note-Velocity_115 Position_12 Note-On_59 Note-Duration_1 Note-Velocity_115 Note-On_57 Note-Duration_1 Note-Velocity_115 Note-On_54 Note-Duration_1 Note-Velocity_115 Bar-End Bar-Start Position_0 Note-On_59 Note-Duration_1 Note-Velocity_115 Note-On_57 Note-Duration_1 Note-Velocity_115 Note-On_54 Note-Duration_1 Note-Velocity_115 Position_4 Note-On_59 Note-Duration_1 Note-Velocity_115 Note-On_57 Note-Duration_1 Note-Velocity_115 Note-On_54 Note-Duration_1 Note-Velocity_115 Position_8 Note-On_59 Note-Duration_1 Note-Velocity_115 Note-On_57 Note-Duration_1 Note-Velocity_115 Note-On_54 Note-Duration_1 Note-Velocity_115 Position_12 Note-On_59 Note-Duration_1 Note-Velocity_115 Note-On_57 Note-Duration_1 Note-Velocity_115 Note-On_54 Note-Duration_1 Note-Velocity_115 Bar-End Bar-Start Position_0 Note-On_64 Note-Duration_1 Note-Velocity_104 Note-On_60 Note-Duration_1 Note-Velocity_115 Note-On_57 Note-Duration_1 Note-Velocity_112 Note-On_55 Note-Duration_1 Note-Velocity_108 Position_4 Note-On_64 Note-Duration_1 Note-Velocity_104 Note-On_60 Note-Duration_1 Note-Velocity_115 Note-On_57 Note-Duration_1 Note-Velocity_115 Note-On_55 Note-Duration_1 Note-Velocity_115 Position_8 Note-On_64 Note-Duration_1 Note-Velocity_92 Note-On_60 Note-Duration_1 Note-Velocity_102 Note-On_57 Note-Duration_1 Note-Velocity_104 Note-On_55 Note-Duration_1 Note-Velocity_88 Position_12 Note-On_64 Note-Duration_1 Note-Velocity_88 Note-On_60 Note-Duration_1 Note-Velocity_98 Note-On_57 Note-Duration_1 Note-Velocity_102 Note-On_55 Note-Duration_1 Note-Velocity_98 Bar-End Bar-Start Position_0 Note-On_62 Note-Duration_1 Note-Velocity_94 Note-On_59 Note-Duration_1 Note-Velocity_102 Note-On_55 Note-Duration_1 Note-Velocity_94 Position_4 Note-On_62 Note-Duration_1 Note-Velocity_102 Note-On_59 Note-Duration_1 Note-Velocity_106 Note-On_55 Note-Duration_1 Note-Velocity_102 Position_8 Note-On_62 Note-Duration_1 Note-Velocity_102 Note-On_59 Note-Duration_1 Note-Velocity_104 Note-On_55 Note-Duration_1 Note-Velocity_92 Position_12 Note-On_62 Note-Duration_1 Note-Velocity_102 Note-On_59 Note-Duration_1 Note-Velocity_102 Note-On_55 Note-Duration_1 Note-Velocity_98 Bar-End Bar-Start Position_0 Note-On_59 Note-Duration_1 Note-Velocity_100 Note-On_55 Note-Duration_1 Note-Velocity_100 Note-On_52 Note-Duration_1 Note-Velocity_100 Position_4 Note-On_59 Note-Duration_1 Note-Velocity_102 Note-On_55 Note-Duration_1 Note-Velocity_104 Note-On_52 Note-Duration_1 Note-Velocity_100 Position_8 Note-On_59 Note-Duration_1 Note-Velocity_100 Note-On_55 Note-Duration_1 Note-Velocity_100 Note-On_52 Note-Duration_1 Note-Velocity_100 Position_12 Note-On_59 Note-Duration_1 Note-Velocity_102 Note-On_55 Note-Duration_1 Note-Velocity_106 Note-On_52 Note-Duration_1 Note-Velocity_98 Bar-End Bar-Start Position_0 Note-On_59 Note-Duration_1 Note-Velocity_98 Note-On_55 Note-Duration_1 Note-Velocity_100 Note-On_52 Note-Duration_1 Note-Velocity_98 Position_4 Note-On_59 Note-Duration_1 Note-Velocity_102 Note-On_55 Note-Duration_1 Note-Velocity_106 Note-On_52 Note-Duration_1 Note-Velocity_102 Position_8 Note-On_59 Note-Duration_1 Note-Velocity_104 Note-On_55 Note-Duration_1 Note-Velocity_106 Note-On_52 Note-Duration_1 Note-Velocity_94 Position_12 Note-On_59 Note-Duration_1 Note-Velocity_104 Note-On_55 Note-Duration_1 Note-Velocity_106 Note-On_52 Note-Duration_1 Note-Velocity_100 Bar-End Bar-Start Position_0 Note-On_59 Note-Duration_1 Note-Velocity_106 Note-On_57 Note-Duration_1 Note-Velocity_115 Note-On_54 Note-Duration_1 Note-Velocity_115 Position_4 Note-On_59 Note-Duration_1 Note-Velocity_102 Note-On_57 Note-Duration_1 Note-Velocity_115 Note-On_54 Note-Duration_1 Note-Velocity_115 Position_8 Note-On_59 Note-Duration_1 Note-Velocity_100 Note-On_57 Note-Duration_1 Note-Velocity_104 Note-On_54 Note-Duration_1 Note-Velocity_104 Position_12 Note-On_59 Note-Duration_1 Note-Velocity_102 Note-On_57 Note-Duration_1 Note-Velocity_102 Note-On_54 Note-Duration_1 Note-Velocity_104 Bar-End Bar-Start Position_0 Note-On_59 Note-Duration_1 Note-Velocity_98 Note-On_57 Note-Duration_1 Note-Velocity_100 Note-On_54 Note-Duration_1 Note-Velocity_100 Position_4 Note-On_59 Note-Duration_1 Note-Velocity_98 Note-On_57 Note-Duration_1 Note-Velocity_104 Note-On_54 Note-Duration_1 Note-Velocity_100 Position_8 Note-On_59 Note-Duration_1 Note-Velocity_100 Note-On_57 Note-Duration_1 Note-Velocity_104 Note-On_54 Note-Duration_1 Note-Velocity_100 Position_12 Note-On_59 Note-Duration_1 Note-Velocity_104 Note-On_57 Note-Duration_1 Note-Velocity_106 Note-On_54 Note-Duration_1 Note-Velocity_102 Bar-End Bar-Start Position_0 Note-On_64 Note-Duration_1 Note-Velocity_104 Note-On_60 Note-Duration_1 Note-Velocity_115 Note-On_57 Note-Duration_1 Note-Velocity_115 Note-On_55 Note-Duration_1 Note-Velocity_115 Position_4 Note-On_64 Note-Duration_1 Note-Velocity_106 Note-On_60 Note-Duration_1 Note-Velocity_115 Note-On_57 Note-Duration_1 Note-Velocity_106 Note-On_55 Note-Duration_1 Note-Velocity_100 Position_8 Note-On_64 Note-Duration_1 Note-Velocity_90 Note-On_60 Note-Duration_1 Note-Velocity_102 Note-On_57 Note-Duration_1 Note-Velocity_104 Note-On_55 Note-Duration_1 Note-Velocity_98 Position_12 Note-On_64 Note-Duration_1 Note-Velocity_88 Note-On_60 Note-Duration_1 Note-Velocity_98 Note-On_57 Note-Duration_1 Note-Velocity_104 Note-On_55 Note-Duration_1 Note-Velocity_94 Bar-End Bar-Start Position_0 Note-On_62 Note-Duration_1 Note-Velocity_98 Note-On_59 Note-Duration_1 Note-Velocity_98 Note-On_55 Note-Duration_1 Note-Velocity_98 Position_4 Note-On_62 Note-Duration_1 Note-Velocity_102 Note-On_59 Note-Duration_1 Note-Velocity_104 Note-On_55 Note-Duration_1 Note-Velocity_104 Position_8 Note-On_62 Note-Duration_1 Note-Velocity_98 Note-On_59 Note-Duration_1 Note-Velocity_100 Note-On_55 Note-Duration_1 Note-Velocity_100 Position_12 Note-On_62 Note-Duration_1 Note-Velocity_104 Note-On_59 Note-Duration_1 Note-Velocity_104 Note-On_55 Note-Duration_1 Note-Velocity_102 Bar-End Bar-Start Position_0 Note-On_59 Note-Duration_1 Note-Velocity_100 Note-On_55 Note-Duration_1 Note-Velocity_100 Note-On_52 Note-Duration_1 Note-Velocity_102 Position_4 Note-On_59 Note-Duration_1 Note-Velocity_98 Note-On_55 Note-Duration_1 Note-Velocity_98 Note-On_52 Note-Duration_1 Note-Velocity_100 Position_8 Note-On_59 Note-Duration_1 Note-Velocity_102 Note-On_55 Note-Duration_1 Note-Velocity_98 Note-On_52 Note-Duration_1 Note-Velocity_100 Position_12 Note-On_59 Note-Duration_1 Note-Velocity_102 Note-On_55 Note-Duration_1 Note-Velocity_100 Note-On_52 Note-Duration_1 Note-Velocity_100 Bar-End Bar-Start Position_0 Note-On_59 Note-Duration_1 Note-Velocity_98 Note-On_55 Note-Duration_1 Note-Velocity_98 Note-On_52 Note-Duration_1 Note-Velocity_98 Position_4 Note-On_59 Note-Duration_1 Note-Velocity_100 Note-On_55 Note-Duration_1 Note-Velocity_94 Note-On_52 Note-Duration_1 Note-Velocity_98 Position_8 Note-On_59 Note-Duration_1 Note-Velocity_98 Note-On_55 Note-Duration_1 Note-Velocity_94 Note-On_52 Note-Duration_1 Note-Velocity_98 Position_12 Note-On_59 Note-Duration_1 Note-Velocity_98 Note-On_55 Note-Duration_1 Note-Velocity_100 Note-On_52 Note-Duration_1 Note-Velocity_94 Bar-End Bar-Start Position_0 Note-On_59 Note-Duration_1 Note-Velocity_104 Note-On_55 Note-Duration_1 Note-Velocity_112 Note-On_52 Note-Duration_1 Note-Velocity_112 Position_4 Note-On_59 Note-Duration_1 Note-Velocity_98 Note-On_55 Note-Duration_1 Note-Velocity_100 Note-On_52 Note-Duration_1 Note-Velocity_98 Position_8 Note-On_59 Note-Duration_1 Note-Velocity_102 Note-On_55 Note-Duration_1 Note-Velocity_106 Note-On_52 Note-Duration_1 Note-Velocity_94 Position_12 Note-On_59 Note-Duration_1 Note-Velocity_102 Note-On_55 Note-Duration_1 Note-Velocity_106 Note-On_52 Note-Duration_1 Note-Velocity_106 Bar-End Bar-Start Position_0 Note-On_64 Note-Duration_1 Note-Velocity_102 Note-On_60 Note-Duration_1 Note-Velocity_115 Note-On_57 Note-Duration_1 Note-Velocity_115 Note-On_55 Note-Duration_1 Note-Velocity_106 Position_4 Note-On_64 Note-Duration_1 Note-Velocity_92 Note-On_60 Note-Duration_1 Note-Velocity_102 Note-On_57 Note-Duration_1 Note-Velocity_102 Note-On_55 Note-Duration_1 Note-Velocity_102 Position_8 Note-On_64 Note-Duration_1 Note-Velocity_94 Note-On_60 Note-Duration_1 Note-Velocity_102 Note-On_57 Note-Duration_1 Note-Velocity_104 Note-On_55 Note-Duration_1 Note-Velocity_94 Position_12 Note-On_64 Note-Duration_1 Note-Velocity_94 Note-On_60 Note-Duration_1 Note-Velocity_100 Note-On_57 Note-Duration_1 Note-Velocity_102 Note-On_55 Note-Duration_1 Note-Velocity_92 Bar-End Bar-Start Position_0 Note-On_62 Note-Duration_1 Note-Velocity_98 Note-On_59 Note-Duration_1 Note-Velocity_104 Note-On_55 Note-Duration_1 Note-Velocity_94 Position_4 Note-On_62 Note-Duration_1 Note-Velocity_92 Note-On_59 Note-Duration_1 Note-Velocity_94 Note-On_55 Note-Duration_1 Note-Velocity_92 Position_8 Note-On_62 Note-Duration_1 Note-Velocity_86 Note-On_59 Note-Duration_1 Note-Velocity_86 Note-On_55 Note-Duration_1 Note-Velocity_86 Position_12 Note-On_62 Note-Duration_1 Note-Velocity_90 Note-On_59 Note-Duration_1 Note-Velocity_90 Note-On_55 Note-Duration_1 Note-Velocity_90 Bar-End Bar-Start Position_0 Note-On_59 Note-Duration_1 Note-Velocity_102 Note-On_55 Note-Duration_1 Note-Velocity_106 Note-On_52 Note-Duration_1 Note-Velocity_92 Position_4 Note-On_59 Note-Duration_1 Note-Velocity_102 Note-On_55 Note-Duration_1 Note-Velocity_112 Note-On_52 Note-Duration_1 Note-Velocity_96 Position_8 Note-On_59 Note-Duration_1 Note-Velocity_104 Note-On_55 Note-Duration_1 Note-Velocity_112 Note-On_52 Note-Duration_1 Note-Velocity_94 Position_12 Note-On_59 Note-Duration_1 Note-Velocity_102 Note-On_55 Note-Duration_1 Note-Velocity_100 Note-On_52 Note-Duration_1 Note-Velocity_94 Bar-End Bar-Start Position_0 Note-On_59 Note-Duration_1 Note-Velocity_102 Note-On_55 Note-Duration_1 Note-Velocity_115 Note-On_52 Note-Duration_1 Note-Velocity_112 Position_4 Note-On_59 Note-Duration_1 Note-Velocity_104 Note-On_55 Note-Duration_1 Note-Velocity_115 Note-On_52 Note-Duration_1 Note-Velocity_92 Position_8 Note-On_59 Note-Duration_1 Note-Velocity_104 Note-On_55 Note-Duration_1 Note-Velocity_112 Note-On_52 Note-Duration_1 Note-Velocity_90 Position_12 Note-On_59 Note-Duration_1 Note-Velocity_104 Note-On_55 Note-Duration_1 Note-Velocity_112 Note-On_52 Note-Duration_1 Note-Velocity_98 Bar-End Bar-Start Position_0 Note-On_59 Note-Duration_1 Note-Velocity_102 Note-On_57 Note-Duration_1 Note-Velocity_115 Note-On_54 Note-Duration_1 Note-Velocity_115 Position_4 Note-On_59 Note-Duration_1 Note-Velocity_115 Note-On_57 Note-Duration_1 Note-Velocity_115 Note-On_54 Note-Duration_1 Note-Velocity_115 Position_8 Note-On_59 Note-Duration_1 Note-Velocity_115 Note-On_57 Note-Duration_1 Note-Velocity_115 Note-On_54 Note-Duration_1 Note-Velocity_115 Position_12 Note-On_59 Note-Duration_1 Note-Velocity_115 Note-On_57 Note-Duration_1 Note-Velocity_115 Note-On_54 Note-Duration_1 Note-Velocity_115 Bar-End Bar-Start Position_0 Note-On_59 Note-Duration_1 Note-Velocity_115 Note-On_57 Note-Duration_1 Note-Velocity_115 Note-On_54 Note-Duration_1 Note-Velocity_115 Position_4 Note-On_59 Note-Duration_1 Note-Velocity_115 Note-On_57 Note-Duration_1 Note-Velocity_115 Note-On_54 Note-Duration_1 Note-Velocity_115 Position_8 Note-On_59 Note-Duration_1 Note-Velocity_115 Note-On_57 Note-Duration_1 Note-Velocity_115 Note-On_54 Note-Duration_1 Note-Velocity_115 Position_12 Note-On_59 Note-Duration_1 Note-Velocity_115 Note-On_57 Note-Duration_1 Note-Velocity_115 Note-On_54 Note-Duration_1 Note-Velocity_115 Bar-End Bar-Start Position_0 Note-On_64 Note-Duration_1 Note-Velocity_104 Note-On_60 Note-Duration_1 Note-Velocity_115 Note-On_57 Note-Duration_1 Note-Velocity_115 Note-On_55 Note-Duration_1 Note-Velocity_115 Position_4 Note-On_64 Note-Duration_1 Note-Velocity_92 Note-On_60 Note-Duration_1 Note-Velocity_102 Note-On_57 Note-Duration_1 Note-Velocity_102 Note-On_55 Note-Duration_1 Note-Velocity_102 Position_8 Note-On_64 Note-Duration_1 Note-Velocity_94 Note-On_60 Note-Duration_1 Note-Velocity_102 Note-On_57 Note-Duration_1 Note-Velocity_104 Note-On_55 Note-Duration_1 Note-Velocity_94 Position_12 Note-On_64 Note-Duration_1 Note-Velocity_94 Note-On_60 Note-Duration_1 Note-Velocity_100 Note-On_57 Note-Duration_1 Note-Velocity_102 Note-On_55 Note-Duration_1 Note-Velocity_92 Bar-End Bar-Start Position_0 Note-On_62 Note-Duration_1 Note-Velocity_98 Note-On_59 Note-Duration_1 Note-Velocity_98 Note-On_55 Note-Duration_1 Note-Velocity_98 Position_4 Note-On_62 Note-Duration_1 Note-Velocity_102 Note-On_59 Note-Duration_1 Note-Velocity_104 Note-On_55 Note-Duration_1 Note-Velocity_104 Position_8 Note-On_62 Note-Duration_1 Note-Velocity_98 Note-On_59 Note-Duration_1 Note-Velocity_100 Note-On_55 Note-Duration_1 Note-Velocity_100 Position_12 Note-On_62 Note-Duration_1 Note-Velocity_104 Note-On_59 Note-Duration_1 Note-Velocity_104 Note-On_55 Note-Duration_1 Note-Velocity_102 Bar-End Bar-Start Position_0 Note-On_59 Note-Duration_1 Note-Velocity_100 Note-On_55 Note-Duration_1 Note-Velocity_100 Note-On_52 Note-Duration_1 Note-Velocity_102 Position_4 Note-On_59 Note-Duration_1 Note-Velocity_98 Note-On_55 Note-Duration_1 Note-Velocity_98 Note-On_52 Note-Duration_1 Note-Velocity_100 Position_8 Note-On_59 Note-Duration_1 Note-Velocity_102 Note-On_55 Note-Duration_1 Note-Velocity_98 Note-On_52 Note-Duration_1 Note-Velocity_100 Position_12 Note-On_59 Note-Duration_1 Note-Velocity_102 Note-On_55 Note-Duration_1 Note-Velocity_100 Note-On_52 Note-Duration_1 Note-Velocity_100 Bar-End Bar-Start Position_0 Note-On_59 Note-Duration_1 Note-Velocity_98 Note-On_55 Note-Duration_1 Note-Velocity_98 Note-On_52 Note-Duration_1 Note-Velocity_98 Position_4 Note-On_59 Note-Duration_1 Note-Velocity_102 Note-On_55 Note-Duration_1 Note-Velocity_106 Note-On_52 Note-Duration_1 Note-Velocity_102 Position_8 Note-On_59 Note-Duration_1 Note-Velocity_104 Note-On_55 Note-Duration_1 Note-Velocity_106 Note-On_52 Note-Duration_1 Note-Velocity_94 Position_12 Note-On_59 Note-Duration_1 Note-Velocity_104 Note-On_55 Note-Duration_1 Note-Velocity_106 Note-On_52 Note-Duration_1 Note-Velocity_100 Bar-End Bar-Start Position_0 Note-On_59 Note-Duration_1 Note-Velocity_106 Note-On_57 Note-Duration_1 Note-Velocity_115 Note-On_54 Note-Duration_1 Note-Velocity_115 Position_4 Note-On_59 Note-Duration_1 Note-Velocity_102 Note-On_57 Note-Duration_1 Note-Velocity_115 Note-On_54 Note-Duration_1 Note-Velocity_115 Position_8 Note-On_59 Note-Duration_1 Note-Velocity_100 Note-On_57 Note-Duration_1 Note-Velocity_104 Note-On_54 Note-Duration_1 Note-Velocity_104 Position_12 Note-On_59 Note-Duration_1 Note-Velocity_102 Note-On_57 Note-Duration_1 Note-Velocity_102 Note-On_54 Note-Duration_1 Note-Velocity_104 Bar-End Bar-Start Position_0 Note-On_59 Note-Duration_1 Note-Velocity_98 Note-On_57 Note-Duration_1 Note-Velocity_100 Note-On_54 Note-Duration_1 Note-Velocity_100 Position_4 Note-On_59 Note-Duration_1 Note-Velocity_98 Note-On_57 Note-Duration_1 Note-Velocity_104 Note-On_54 Note-Duration_1 Note-Velocity_100 Position_8 Note-On_59 Note-Duration_1 Note-Velocity_100 Note-On_57 Note-Duration_1 Note-Velocity_104 Note-On_54 Note-Duration_1 Note-Velocity_100 Position_12 Note-On_59 Note-Duration_1 Note-Velocity_104 Note-On_57 Note-Duration_1 Note-Velocity_106 Note-On_54 Note-Duration_1 Note-Velocity_102 Bar-End Bar-Start Position_0 Note-On_64 Note-Duration_1 Note-Velocity_104 Note-On_60 Note-Duration_1 Note-Velocity_115 Note-On_57 Note-Duration_1 Note-Velocity_115 Note-On_55 Note-Duration_1 Note-Velocity_115 Position_4 Note-On_64 Note-Duration_1 Note-Velocity_106 Note-On_60 Note-Duration_1 Note-Velocity_115 Note-On_57 Note-Duration_1 Note-Velocity_106 Note-On_55 Note-Duration_1 Note-Velocity_100 Position_8 Note-On_64 Note-Duration_1 Note-Velocity_90 Note-On_60 Note-Duration_1 Note-Velocity_102 Note-On_57 Note-Duration_1 Note-Velocity_104 Note-On_55 Note-Duration_1 Note-Velocity_98 Position_12 Note-On_64 Note-Duration_1 Note-Velocity_88 Note-On_60 Note-Duration_1 Note-Velocity_98 Note-On_57 Note-Duration_1 Note-Velocity_102 Note-On_55 Note-Duration_1 Note-Velocity_98 Bar-End Bar-Start Position_0 Note-On_62 Note-Duration_1 Note-Velocity_94 Note-On_59 Note-Duration_1 Note-Velocity_102 Note-On_55 Note-Duration_1 Note-Velocity_94 Position_4 Note-On_62 Note-Duration_1 Note-Velocity_102 Note-On_59 Note-Duration_1 Note-Velocity_106 Note-On_55 Note-Duration_1 Note-Velocity_102 Position_8 Note-On_62 Note-Duration_1 Note-Velocity_102 Note-On_59 Note-Duration_1 Note-Velocity_104 Note-On_55 Note-Duration_1 Note-Velocity_92 Position_12 Note-On_62 Note-Duration_1 Note-Velocity_102 Note-On_59 Note-Duration_1 Note-Velocity_102 Note-On_55 Note-Duration_1 Note-Velocity_98 Bar-End Bar-Start Position_0 Note-On_59 Note-Duration_1 Note-Velocity_100 Note-On_55 Note-Duration_1 Note-Velocity_100 Note-On_52 Note-Duration_1 Note-Velocity_102 Position_4 Note-On_59 Note-Duration_1 Note-Velocity_98 Note-On_55 Note-Duration_1 Note-Velocity_98 Note-On_52 Note-Duration_1 Note-Velocity_100 Position_8 Note-On_59 Note-Duration_1 Note-Velocity_102 Note-On_55 Note-Duration_1 Note-Velocity_98 Note-On_52 Note-Duration_1 Note-Velocity_100 Position_12 Note-On_59 Note-Duration_1 Note-Velocity_102 Note-On_55 Note-Duration_1 Note-Velocity_100 Note-On_52 Note-Duration_1 Note-Velocity_100 Bar-End Bar-Start Position_0 Note-On_59 Note-Duration_1 Note-Velocity_98 Note-On_55 Note-Duration_1 Note-Velocity_98 Note-On_52 Note-Duration_1 Note-Velocity_98 Position_4 Note-On_59 Note-Duration_1 Note-Velocity_102 Note-On_55 Note-Duration_1 Note-Velocity_106 Note-On_52 Note-Duration_1 Note-Velocity_102 Position_8 Note-On_59 Note-Duration_1 Note-Velocity_104 Note-On_55 Note-Duration_1 Note-Velocity_106 Note-On_52 Note-Duration_1 Note-Velocity_94 Position_12 Note-On_59 Note-Duration_1 Note-Velocity_104 Note-On_55 Note-Duration_1 Note-Velocity_106 Note-On_52 Note-Duration_1 Note-Velocity_100 Bar-End Bar-Start Position_0 Note-On_59 Note-Duration_1 Note-Velocity_106 Note-On_57 Note-Duration_1 Note-Velocity_115 Note-On_54 Note-Duration_1 Note-Velocity_115 Position_4 Note-On_59 Note-Duration_1 Note-Velocity_102 Note-On_57 Note-Duration_1 Note-Velocity_115 Note-On_54 Note-Duration_1 Note-Velocity_115 Position_8 Note-On_59 Note-Duration_1 Note-Velocity_115 Note-On_57 Note-Duration_1 Note-Velocity_115 Note-On_54 Note-Duration_1 Note-Velocity_115 Position_12 Note-On_59 Note-Duration_1 Note-Velocity_115 Note-On_57 Note-Duration_1 Note-Velocity_115 Note-On_54 Note-Duration_1 Note-Velocity_115 Bar-End Bar-Start Position_0 Note-On_59 Note-Duration_1 Note-Velocity_115 Note-On_57 Note-Duration_1 Note-Velocity_115 Note-On_54 Note-Duration_1 Note-Velocity_115 Position_4 Note-On_59 Note-Duration_1 Note-Velocity_115 Note-On_57 Note-Duration_1 Note-Velocity_115 Note-On_54 Note-Duration_1 Note-Velocity_115 Position_8 Note-On_59 Note-Duration_1 Note-Velocity_115 Note-On_57 Note-Duration_1 Note-Velocity_115 Note-On_54 Note-Duration_1 Note-Velocity_115 Position_12 Note-On_59 Note-Duration_1 Note-Velocity_115 Note-On_57 Note-Duration_1 Note-Velocity_115 Note-On_54 Note-Duration_1 Note-Velocity_115 Bar-End Bar-Start Position_0 Note-On_64 Note-Duration_1 Note-Velocity_104 Note-On_60 Note-Duration_1 Note-Velocity_115 Note-On_57 Note-Duration_1 Note-Velocity_115 Note-On_55 Note-Duration_1 Note-Velocity_115 Position_4 Note-On_64 Note-Duration_1 Note-Velocity_92 Note-On_60 Note-Duration_1 Note-Velocity_102 Note-On_57 Note-Duration_1 Note-Velocity_102 Note-On_55 Note-Duration_1 Note-Velocity_102 Position_8 Note-On_64 Note-Duration_1 Note-Velocity_94 Note-On_60 Note-Duration_1 Note-Velocity_102 Note-On_57 Note-Duration_1 Note-Velocity_104 Note-On_55 Note-Duration_1 Note-Velocity_94 Position_12 Note-On_64 Note-Duration_1 Note-Velocity_94 Note-On_60 Note-Duration_1 Note-Velocity_100 Note-On_57 Note-Duration_1 Note-Velocity_102 Note-On_55 Note-Duration_1 Note-Velocity_92 Bar-End Bar-Start Position_0 Note-On_62 Note-Duration_1 Note-Velocity_98 Note-On_59 Note-Duration_1 Note-Velocity_98 Note-On_55 Note-Duration_1 Note-Velocity_98 Position_4 Note-On_62 Note-Duration_1 Note-Velocity_102 Note-On_59 Note-Duration_1 Note-Velocity_104 Note-On_55 Note-Duration_1 Note-Velocity_104 Position_8 Note-On_62 Note-Duration_1 Note-Velocity_98 Note-On_59 Note-Duration_1 Note-Velocity_100 Note-On_55 Note-Duration_1 Note-Velocity_100 Position_12 Note-On_62 Note-Duration_1 Note-Velocity_104 Note-On_59 Note-Duration_1 Note-Velocity_104 Note-On_55 Note-Duration_1 Note-Velocity_102 Bar-End Bar-Start Position_0 Note-On_59 Note-Duration_1 Note-Velocity_100 Note-On_55 Note-Duration_1 Note-Velocity_100 Note-On_52 Note-Duration_1 Note-Velocity_102 Position_4 Note-On_59 Note-Duration_1 Note-Velocity_98 Note-On_55 Note-Duration_1 Note-Velocity_98 Note-On_52 Note-Duration_1 Note-Velocity_100 Position_8 Note-On_59 Note-Duration_1 Note-Velocity_102 Note-On_55 Note-Duration_1 Note-Velocity_98 Note-On_52 Note-Duration_1 Note-Velocity_100 Position_12 Note-On_59 Note-Duration_1 Note-Velocity_102 Note-On_55 Note-Duration_1 Note-Velocity_100 Note-On_52 Note-Duration_1 Note-Velocity_100 Bar-End Bar-Start Position_0 Note-On_59 Note-Duration_1 Note-Velocity_98 Note-On_55 Note-Duration_1 Note-Velocity_98 Note-On_52 Note-Duration_1 Note-Velocity_98 Position_4 Note-On_59 Note-Duration_1 Note-Velocity_102 Note-On_55 Note-Duration_1 Note-Velocity_106 Note-On_52 Note-Duration_1 Note-Velocity_102 Position_8 Note-On_59 Note-Duration_1 Note-Velocity_104 Note-On_55 Note-Duration_1 Note-Velocity_106 Note-On_52 Note-Duration_1 Note-Velocity_94 Position_12 Note-On_59 Note-Duration_1 Note-Velocity_104 Note-On_55 Note-Duration_1 Note-Velocity_106 Note-On_52 Note-Duration_1 Note-Velocity_100 Bar-End Bar-Start Position_0 Note-On_59 Note-Duration_1 Note-Velocity_106 Note-On_57 Note-Duration_1 Note-Velocity_115 Note-On_54 Note-Duration_1 Note-Velocity_115 Position_4 Note-On_59 Note-Duration_1 Note-Velocity_102 Note-On_57 Note-Duration_1 Note-Velocity_115 Note-On_54 Note-Duration_1 Note-Velocity_115 Position_8 Note-On_59 Note-Duration_1 Note-Velocity_115 Note-On_57 Note-Duration_1 Note-Velocity_115 Note-On_54 Note-Duration_1 Note-Velocity_115 Position_12 Note-On_59 Note-Duration_1 Note-Velocity_115 Note-On_57 Note-Duration_1 Note-Velocity_115 Note-On_54 Note-Duration_1 Note-Velocity_115 Bar-End Bar-Start Position_0 Note-On_59 Note-Duration_1 Note-Velocity_115 Note-On_57 Note-Duration_1 Note-Velocity_115 Note-On_54 Note-Duration_1 Note-Velocity_115 Position_4 Note-On_59 Note-Duration_1 Note-Velocity_115 Note-On_57 Note-Duration_1 Note-Velocity_115 Note-On_54 Note-Duration_1 Note-Velocity_115 Position_8 Note-On_59 Note-Duration_1 Note-Velocity_115 Note-On_57 Note-Duration_1 Note-Velocity_115 Note-On_54 Note-Duration_1 Note-Velocity_115 Position_12 Note-On_59 Note-Duration_1 Note-Velocity_115 Note-On_57 Note-Duration_1 Note-Velocity_115 Note-On_54 Note-Duration_1 Note-Velocity_115 Bar-End Bar-Start Position_0 Note-On_64 Note-Duration_1 Note-Velocity_104 Note-On_60 Note-Duration_1 Note-Velocity_115 Note-On_57 Note-Duration_1 Note-Velocity_115 Note-On_55 Note-Duration_1 Note-Velocity_115 Position_4 Note-On_64 Note-Duration_1 Note-Velocity_92 Note-On_60 Note-Duration_1 Note-Velocity_102 Note-On_57 Note-Duration_1 Note-Velocity_102 Note-On_55 Note-Duration_1 Note-Velocity_102 Position_8 Note-On_64 Note-Duration_1 Note-Velocity_94 Note-On_60 Note-Duration_1 Note-Velocity_102 Note-On_57 Note-Duration_1 Note-Velocity_104 Note-On_55 Note-Duration_1 Note-Velocity_94 Position_12 Note-On_64 Note-Duration_1 Note-Velocity_94 Note-On_60 Note-Duration_1 Note-Velocity_100 Note-On_57 Note-Duration_1 Note-Velocity_102 Note-On_55 Note-Duration_1 Note-Velocity_92 Bar-End Bar-Start Position_0 Note-On_62 Note-Duration_1 Note-Velocity_98 Note-On_59 Note-Duration_1 Note-Velocity_98 Note-On_55 Note-Duration_1 Note-Velocity_98 Position_4 Note-On_62 Note-Duration_1 Note-Velocity_102 Note-On_59 Note-Duration_1 Note-Velocity_104 Note-On_55 Note-Duration_1 Note-Velocity_104 Position_8 Note-On_62 Note-Duration_1 Note-Velocity_98 Note-On_59 Note-Duration_1 Note-Velocity_100 Note-On_55 Note-Duration_1 Note-Velocity_100 Position_12 Note-On_62 Note-Duration_1 Note-Velocity_104 Note-On_59 Note-Duration_1 Note-Velocity_104 Note-On_55 Note-Duration_1 Note-Velocity_102 Bar-End Bar-Start Position_0 Note-On_59 Note-Duration_1 Note-Velocity_100 Note-On_55 Note-Duration_1 Note-Velocity_100 Note-On_52 Note-Duration_1 Note-Velocity_102 Position_4 Note-On_59 Note-Duration_1 Note-Velocity_98 Note-On_55 Note-Duration_1 Note-Velocity_98 Note-On_52 Note-Duration_1 Note-Velocity_100 Position_8 Note-On_59 Note-Duration_1 Note-Velocity_102 Note-On_55 Note-Duration_1 Note-Velocity_98 Note-On_52 Note-Duration_1 Note-Velocity_100 Position_12 Note-On_59 Note-Duration_1 Note-Velocity_102 Note-On_55 Note-Duration_1 Note-Velocity_100 Note-On_52 Note-Duration_1 Note-Velocity_100 Bar-End Bar-Start Position_0 Note-On_59 Note-Duration_1 Note-Velocity_98 Note-On_55 Note-Duration_1 Note-Velocity_98 Note-On_52 Note-Duration_1 Note-Velocity_98 Position_4 Note-On_59 Note-Duration_1 Note-Velocity_102 Note-On_55 Note-Duration_1 Note-Velocity_106 Note-On_52 Note-Duration_1 Note-Velocity_102 Position_8 Note-On_59 Note-Duration_1 Note-Velocity_104 Note-On_55 Note-Duration_1 Note-Velocity_106 Note-On_52 Note-Duration_1 Note-Velocity_94 Position_12 Note-On_59 Note-Duration_1 Note-Velocity_104 Note-On_55 Note-Duration_1 Note-Velocity_106 Note-On_52 Note-Duration_1 Note-Velocity_100 Bar-End Bar-Start Position_0 Note-On_59 Note-Duration_1 Note-Velocity_106 Note-On_57 Note-Duration_1 Note-Velocity_115 Note-On_54 Note-Duration_1 Note-Velocity_115 Position_4 Note-On_59 Note-Duration_1 Note-Velocity_102 Note-On_57 Note-Duration_1 Note-Velocity_115 Note-On_54 Note-Duration_1 Note-Velocity_115 Position_8 Note-On_59 Note-Duration_1 Note-Velocity_115 Note-On_57 Note-Duration_1 Note-Velocity_115 Note-On_54 Note-Duration_1 Note-Velocity_115 Position_12 Note-On_59 Note-Duration_1 Note-Velocity_115 Note-On_57 Note-Duration_1 Note-Velocity_115 Note-On_54 Note-Duration_1 Note-Velocity_115 Bar-End Bar-Start Position_0 Note-On_59 Note-Duration_1 Note-Velocity_115 Note-On_57 Note-Duration_1 Note-Velocity_115 Note-On_54 Note-Duration_1 Note-Velocity_115 Position_4 Note-On_59 Note-Duration_1 Note-Velocity_115 Note-On_57 Note-Duration_1 Note-Velocity_115 Note-On_54 Note-Duration_1 Note-Velocity_115 Position_8 Note-On_59 Note-Duration_1 Note-Velocity_115 Note-On_57 Note-Duration_1 Note-Velocity_115 Note-On_54 Note-Duration_1 Note-Velocity_115 Position_12 Note-On_59 Note-Duration_1 Note-Velocity_115 Note-On_57 Note-Duration_1 Note-Velocity_115 Note-On_54 Note-Duration_1 Note-Velocity_115 Bar-End Bar-Start Position_0 Note-On_64 Note-Duration_1 Note-Velocity_104 Note-On_60 Note-Duration_1 Note-Velocity_115 Note-On_57 Note-Duration_1 Note-Velocity_115 Note-On_55 Note-Duration_1 Note-Velocity_115 Position_4 Note-On_64 Note-Duration_1 Note-Velocity_92 Note-On_60 Note-Duration_1 Note-Velocity_102 Note-On_57 Note-Duration_1 Note-Velocity_102 Note-On_55 Note-Duration_1 Note-Velocity_102 Position_8 Note-On_64 Note-Duration_1 Note-Velocity_94 Note-On_60 Note-Duration_1 Note-Velocity_102 Note-On_57 Note-Duration_1 Note-Velocity_104 Note-On_55 Note-Duration_1 Note-Velocity_94 Position_12 Note-On_64 Note-Duration_1 Note-Velocity_94 Note-On_60 Note-Duration_1 Note-Velocity_100 Note-On_57 Note-Duration_1 Note-Velocity_102 Note-On_55 Note-Duration_1 Note-Velocity_92 Bar-End Bar-Start Position_0 Note-On_62 Note-Duration_1 Note-Velocity_98 Note-On_59 Note-Duration_1 Note-Velocity_98 Note-On_55 Note-Duration_1 Note-Velocity_98 Position_4 Note-On_62 Note-Duration_1 Note-Velocity_102 Note-On_59 Note-Duration_1 Note-Velocity_104 Note-On_55 Note-Duration_1 Note-Velocity_104 Position_8 Note-On_62 Note-Duration_1 Note-Velocity_98 Note-On_59 Note-Duration_1 Note-Velocity_100 Note-On_55 Note-Duration_1 Note-Velocity_100 Position_12 Note-On_62 Note-Duration_1 Note-Velocity_104 Note-On_59 Note-Duration_1 Note-Velocity_104 Note-On_55 Note-Duration_1 Note-Velocity_102 Bar-End Bar-Start Position_0 Note-On_59 Note-Duration_1 Note-Velocity_100 Note-On_55 Note-Duration_1 Note-Velocity_100 Note-On_52 Note-Duration_1 Note-Velocity_102 Position_4 Note-On_59 Note-Duration_1 Note-Velocity_98 Note-On_55 Note-Duration_1 Note-Velocity_98 Note-On_52 Note-Duration_1 Note-Velocity_100 Position_8 Note-On_59 Note-Duration_1 Note-Velocity_102 Note-On_55 Note-Duration_1 Note-Velocity_98 Note-On_52 Note-Duration_1 Note-Velocity_100 Position_12 Note-On_59 Note-Duration_1 Note-Velocity_102 Note-On_55 Note-Duration_1 Note-Velocity_100 Note-On_52 Note-Duration_1 Note-Velocity_100 Bar-End Bar-Start Position_0 Note-On_59 Note-Duration_1 Note-Velocity_98 Note-On_55 Note-Duration_1 Note-Velocity_98 Note-On_52 Note-Duration_1 Note-Velocity_98 Position_4 Note-On_59 Note-Duration_1 Note-Velocity_102 Note-On_55 Note-Duration_1 Note-Velocity_106 Note-On_52 Note-Duration_1 Note-Velocity_102 Position_8 Note-On_59 Note-Duration_1 Note-Velocity_104 Note-On_55 Note-Duration_1 Note-Velocity_106 Note-On_52 Note-Duration_1 Note-Velocity_94 Position_12 Note-On_59 Note-Duration_1 Note-Velocity_104 Note-On_55 Note-Duration_1 Note-Velocity_106 Note-On_52 Note-Duration_1 Note-Velocity_100 Bar-End Bar-Start Position_0 Note-On_59 Note-Duration_1 Note-Velocity_106 Note-On_57 Note-Duration_1 Note-Velocity_115 Note-On_54 Note-Duration_1 Note-Velocity_115 Position_4 Note-On_59 Note-Duration_1 Note-Velocity_102 Note-On_57 Note-Duration_1 Note-Velocity_115 Note-On_54 Note-Duration_1 Note-Velocity_115 Position_8 Note-On_59 Note-Duration_1 Note-Velocity_115 Note-On_57 Note-Duration_1 Note-Velocity_115 Note-On_54 Note-Duration_1 Note-Velocity_115 Position_12 Note-On_59 Note-Duration_1 Note-Velocity_115 Note-On_57 Note-Duration_1 Note-Velocity_115 Note-On_54 Note-Duration_1 Note-Velocity_115 Bar-End Bar-Start Position_0 Note-On_59 Note-Duration_1 Note-Velocity_115 Note-On_57 Note-Duration_1 Note-Velocity_115 Note-On_54 Note-Duration_1 Note-Velocity_115 Position_4 Note-On_59 Note-Duration_1 Note-Velocity_115 Note-On_57 Note-Duration_1 Note-Velocity_115 Note-On_54 Note-Duration_1 Note-Velocity_115 Position_8 Note-On_59 Note-Duration_1 Note-Velocity_115 Note-On_57 Note-Duration_1 Note-Velocity_115 Note-On_54 Note-Duration_1 Note-Velocity_115 Position_12 Note-On_59 Note-Duration_1 Note-Velocity_115 Note-On_57 Note-Duration_1 Note-Velocity_115 Note-On_54 Note-Duration_1 Note-Velocity_115 Bar-End Bar-Start Position_0 Note-On_64 Note-Duration_1 Note-Velocity_104 Note-On_60 Note-Duration_1 Note-Velocity_115 Note-On_57 Note-Duration_1 Note-Velocity_115 Note-On_55 Note-Duration_1 Note-Velocity_115 Position_4 Note-On_64 Note-Duration_1 Note-Velocity_92 Note-On_60 Note-Duration_1 Note-Velocity_102 Note-On_57 Note-Duration_1 Note-Velocity_102 Note-On_55 Note-Duration_1 Note-Velocity_102 Position_8 Note-On_64 Note-Duration_1 Note-Velocity_94 Note-On_60 Note-Duration_1 Note-Velocity_102 Note-On_57 Note-Duration_1 Note-Velocity_104 Note-On_55 Note-Duration_1 Note-Velocity_94 Position_12 Note-On_64 Note-Duration_1 Note-Velocity_94 Note-On_60 Note-Duration_1 Note-Velocity_100 Note-On_57 Note-Duration_1 Note-Velocity_102 Note-On_55 Note-Duration_1 Note-Velocity_92 Bar-End Bar-Start Position_0 Note-On_62 Note-Duration_1 Note-Velocity_98 Note-On_59 Note-Duration_1 Note-Velocity_98 Note-On_55 Note-Duration_1 Note-Velocity_98 Position_4 Note-On_62 Note-Duration_1 Note-Velocity_102 Note-On_59 Note-Duration_1 Note-Velocity_104 Note-On_55 Note-Duration_1 Note-Velocity_104 Position_8 Note-On_62 Note-Duration_1 Note-Velocity_98 Note-On_59 Note-Duration_1 Note-Velocity_100 Note-On_55 Note-Duration_1 Note-Velocity_100 Position_12 Note-On_62 Note-Duration_1 Note-Velocity_104 Note-On_59 Note-Duration_1 Note-Velocity_104 Note-On_55 Note-Duration_1 Note-Velocity_102 Bar-End Bar-Start Position_0 Note-On_59 Note-Duration_1 Note-Velocity_100 Note-On_55 Note-Duration_1 Note-Velocity_100 Note-On_52 Note-Duration_1 Note-Velocity_102 Position_4 Note-On_59 Note-Duration_1 Note-Velocity_98 Note-On_55 Note-Duration_1 Note-Velocity_98 Note-On_52 Note-Duration_1 Note-Velocity_100 Position_8 Note-On_59 Note-Duration_1 Note-Velocity_102 Note-On_55 Note-Duration_1 Note-Velocity_98 Note-On_52 Note-Duration_1 Note-Velocity_100 Position_12 Note-On_59 Note-Duration_1 Note-Velocity_102 Note-On_55 Note-Duration_1 Note-Velocity_100 Note-On_52 Note-Duration_1 Note-Velocity_100 Bar-End Bar-Start Position_0 Note-On_59 Note-Duration_1 Note-Velocity_98 Note-On_55 Note-Duration_1 Note-Velocity_98 Note-On_52 Note-Duration_1 Note-Velocity_98 Position_4 Note-On_59 Note-Duration_1 Note-Velocity_102 Note-On_55 Note-Duration_1 Note-Velocity_106 Note-On_52 Note-Duration_1 Note-Velocity_102 Position_8 Note-On_59 Note-Duration_1 Note-Velocity_104 Note-On_55 Note-Duration_1 Note-Velocity_106 Note-On_52 Note-Duration_1 Note-Velocity_94 Position_12 Note-On_59 Note-Duration_1 Note-Velocity_104 Note-On_55 Note-Duration_1 Note-Velocity_106 Note-On_52 Note-Duration_1 Note-Velocity_100 Bar-End Bar-Start Position_0 Note-On_59 Note-Duration_1 Note-Velocity_106 Note-On_57 Note-Duration_1 Note-Velocity_115 Note-On_54 Note-Duration_1 Note-Velocity_115 Position_4 Note-On_59 Note-Duration_1 Note-Velocity_102 Note-On_57 Note-Duration_1 Note-Velocity_115 Note-On_54 Note-Duration_1 Note-Velocity_115 Position_8 Note-On_59 Note-Duration_1 Note-Velocity_115 Note-On_57 Note-Duration_1 Note-Velocity_115 Note-On_54 Note-Duration_1 Note-Velocity_115 Position_12 Note-On_59 Note-Duration_1 Note-Velocity_115 Note-On_57 Note-Duration_1 Note-Velocity_115 Note-On_54 Note-Duration_1 Note-Velocity_115 Bar-End Bar-Start Position_0 Note-On_59 Note-Duration_1 Note-Velocity_115 Note-On_57 Note-Duration_1 Note-Velocity_115 Note-On_54 Note-Duration_1 Note-Velocity_115 Position_4 Note-On_59 Note-Duration_1 Note-Velocity_115 Note-On_57 Note-Duration_1 Note-Velocity_115 Note-On_54 Note-Duration_1 Note-Velocity_115 Position_8 Note-On_59 Note-Duration_1 Note-Velocity_115 Note-On_57 Note-Duration_1 Note-Velocity_115 Note-On_54 Note-Duration_1 Note-Velocity_115 Position_12 Note-On_59 Note-Duration_1 Note-Velocity_115 Note-On_57 Note-Duration_1 Note-Velocity_115 Note-On_54 Note-Duration_1 Note-Velocity_115 Bar-End Bar-Start Position_0 Note-On_64 Note-Duration_1 Note-Velocity_104 Note-On_60 Note-Duration_1 Note-Velocity_115 Note-On_57 Note-Duration_1 Note-Velocity_115 Note-On_55 Note-Duration_1 Note-Velocity_115 Position_4 Note-On_64 Note-Duration_1 Note-Velocity_92 Note-On_60 Note-Duration_1 Note-Velocity_102 Note-On_57 Note-Duration_1 Note-Velocity_102 Note-On_55 Note-Duration_1 Note-Velocity_102 Position_8 Note-On_64 Note-Duration_1 Note-Velocity_94 Note-On_60 Note-Duration_1 Note-Velocity_102 Note-On_57 Note-Duration_1 Note-Velocity_104 Note-On_55 Note-Duration_1 Note-Velocity_94 Position_12 Note-On_64 Note-Duration_1 Note-Velocity_94 Note-On_60 Note-Duration_1 Note-Velocity_100 Note-On_57 Note-Duration_1 Note-Velocity_102 Note-On_55 Note-Duration_1 Note-Velocity_92 Bar-End Bar-Start Position_0 Note-On_62 Note-Duration_1 Note-Velocity_98 Note-On_59 Note-Duration_1 Note-Velocity_98 Note-On_55 Note-Duration_1 Note-Velocity_98 Position_4 Note-On_62 Note-Duration_1 Note-Velocity_102 Note-On_59 Note-Duration_1 Note-Velocity_104 Note-On_55 Note-Duration_1 Note-Velocity_104 Position_8 Note-On_62 Note-Duration_1 Note-Velocity_98 Note-On_59 Note-Duration_1 Note-Velocity_100 Note-On_55 Note-Duration_1 Note-Velocity_100 Position_12 Note-On_62 Note-Duration_1 Note-Velocity_104 Note-On_59 Note-Duration_1 Note-Velocity_104 Note-On_55 Note-Duration_1 Note-Velocity_102 Bar-End Bar-Start Position_0 Note-On_59 Note-Duration_1 Note-Velocity_100 Note-On_55 Note-Duration_1 Note-Velocity_100 Note-On_52 Note-Duration_1 Note-Velocity_102 Position_4 Note-On_59 Note-Duration_1 Note-Velocity_98 Note-On_55 Note-Duration_1 Note-Velocity_98 Note-On_52 Note-Duration_1 Note-Velocity_100 Position_8 Note-On_59 Note-Duration_1 Note-Velocity_102 Note-On_55 Note-Duration_1 Note-Velocity_98 Note-On_52 Note-Duration_1 Note-Velocity_100 Position_12 Note-On_59 Note-Duration_1 Note-Velocity_102 Note-On_55 Note-Duration_1 Note-Velocity_100 Note-On_52 Note-Duration_1 Note-Velocity_100 Bar-End Bar-Start Position_0 Note-On_59 Note-Duration_1 Note-Velocity_98 Note-On_55 Note-Duration_1 Note-Velocity_98 Note-On_52 Note-Duration_1 Note-Velocity_98 Position_4 Note-On_59 Note-Duration_1 Note-Velocity_102 Note-On_55 Note-Duration_1 Note-Velocity_106 Note-On_52 Note-Duration_1 Note-Velocity_102 Position_8 Note-On_59 Note-Duration_1 Note-Velocity_104 Note-On_55 Note-Duration_1 Note-Velocity_106 Note-On_52 Note-Duration_1 Note-Velocity_94 Position_12 Note-On_59 Note-Duration_1 Note-Velocity_104 Note-On_55 Note-Duration_1 Note-Velocity_106 Note-On_52 Note-Duration_1 Note-Velocity_100 Bar-End Bar-Start Position_0 Note-On_59 Note-Duration_1 Note-Velocity_106 Note-On_57 Note-Duration_1 Note-Velocity_115 Note-On_54 Note-Duration_1 Note-Velocity_115 Position_4 Note-On_59 Note-Duration_1 Note-Velocity_102 Note-On_57 Note-Duration_1 Note-Velocity_115 Note-On_54 Note-Duration_1 Note-Velocity_115 Position_8 Note-On_59 Note-Duration_1 Note-Velocity_115 Note-On_57 Note-Duration_1 Note-Velocity_115 Note-On_54 Note-Duration_1 Note-Velocity_115 Position_12 Note-On_59 Note-Duration_1 Note-Velocity_115 Note-On_57 Note-Duration_1 Note-Velocity_115 Note-On_54 Note-Duration_1 Note-Velocity_115 Bar-End Bar-Start Position_0 Note-On_59 Note-Duration_1 Note-Velocity_115 Note-On_57 Note-Duration_1 Note-Velocity_115 Note-On_54 Note-Duration_1 Note-Velocity_115 Position_4 Note-On_59 Note-Duration_1 Note-Velocity_115 Note-On_57 Note-Duration_1 Note-Velocity_115 Note-On_54 Note-Duration_1 Note-Velocity_115 Position_8 Note-On_59 Note-Duration_1 Note-Velocity_115 Note-On_57 Note-Duration_1 Note-Velocity_115 Note-On_54 Note-Duration_1 Note-Velocity_115 Position_12 Note-On_59 Note-Duration_1 Note-Velocity_115 Note-On_57 Note-Duration_1 Note-Velocity_115 Note-On_54 Note-Duration_1 Note-Velocity_115 Bar-End Bar-Start Position_0 Note-On_64 Note-Duration_1 Note-Velocity_104 Note-On_60 Note-Duration_1 Note-Velocity_115 Note-On_57 Note-Duration_1 Note-Velocity_115 Note-On_55 Note-Duration_1 Note-Velocity_115 Position_4 Note-On_64 Note-Duration_1 Note-Velocity_92 Note-On_60 Note-Duration_1 Note-Velocity_102 Note-On_57 Note-Duration_1 Note-Velocity_102 Note-On_55 Note-Duration_1 Note-Velocity_102 Position_8 Note-On_64 Note-Duration_1 Note-Velocity_94 Note-On_60 Note-Duration_1 Note-Velocity_102 Note-On_57 Note-Duration_1 Note-Velocity_104 Note-On_55 Note-Duration_1 Note-Velocity_94 Position_12 Note-On_64 Note-Duration_1 Note-Velocity_94 Note-On_60 Note-Duration_1 Note-Velocity_100 Note-On_57 Note-Duration_1 Note-Velocity_102 Note-On_55 Note-Duration_1 Note-Velocity_92 Bar-End Bar-Start Position_0 Note-On_62 Note-Duration_1 Note-Velocity_98 Note-On_59 Note-Duration_1 Note-Velocity_98 Note-On_55 Note-Duration_1 Note-Velocity_98 Position_4 Note-On_62 Note-Duration_1 Note-Velocity_102 Note-On_59 Note-Duration_1 Note-Velocity_104 Note-On_55 Note-Duration_1 Note-Velocity_104 Position_8 Note-On_62 Note-Duration_1 Note-Velocity_98 Note-On_59 Note-Duration_1 Note-Velocity_100 Note-On_55 Note-Duration_1 Note-Velocity_100 Position_12 Note-On_62 Note-Duration_1 Note-Velocity_104 Note-On_59 Note-Duration_1 Note-Velocity_104 Note-On_55 Note-Duration_1 Note-Velocity_102 Bar-End Bar-Start Position_0 Note-On_59 Note-Duration_1 Note-Velocity_100 Note-On_55 Note-Duration_1 Note-Velocity_100 Note-On_52 Note-Duration_1 Note-Velocity_102 Position_4 Note-On_59 Note-Duration_1 Note-Velocity_98 Note-On_55 Note-Duration_1 Note-Velocity_98 Note-On_52 Note-Duration_1 Note-Velocity_100 Position_8 Note-On_59 Note-Duration_1 Note-Velocity_102 Note-On_55 Note-Duration_1 Note-Velocity_98 Note-On_52 Note-Duration_1 Note-Velocity_100 Position_12 Note-On_59 Note-Duration_1 Note-Velocity_102 Note-On_55 Note-Duration_1 Note-Velocity_100 Note-On_52 Note-Duration_1 Note-Velocity_100 Bar-End Bar-Start Position_0 Note-On_59 Note-Duration_1 Note-Velocity_98 Note-On_55 Note-Duration_1 Note-Velocity_98 Note-On_52 Note-Duration_1 Note-Velocity_98 Position_4 Note-On_59 Note-Duration_1 Note-Velocity_102 Note-On_55 Note-Duration_1 Note-Velocity_106 Note-On_52 Note-Duration_1 Note-Velocity_102 Position_8 Note-On_59 Note-Duration_1 Note-Velocity_104 Note-On_55 Note-Duration_1 Note-Velocity_106 Note-On_52 Note-Duration_1 Note-Velocity_94 Position_12 Note-On_59 Note-Duration_1 Note-Velocity_104 Note-On_55 Note-Duration_1 Note-Velocity_106 Note-On_52 Note-Duration_1 Note-Velocity_100 Bar-End Bar-Start Position_0 Note-On_59 Note-Duration_1 Note-Velocity_106 Note-On_57 Note-Duration_1 Note-Velocity_115 Note-On_54 Note-Duration_1 Note-Velocity_115 Position_4 Note-On_59 Note-Duration_1 Note-Velocity_102 Note-On_57 Note-Duration_1 Note-Velocity_115 Note-On_54 Note-Duration_1 Note-Velocity_115 Position_8 Note-On_59 Note-Duration_1 Note-Velocity_115 Note-On_57 Note-Duration_1 Note-Velocity_115 Note-On_54 Note-Duration_1 Note-Velocity_115 Position_12 Note-On_59 Note-Duration_1 Note-Velocity_115 Note-On_57 Note-Duration_1 Note-Velocity_115 Note-On_54 Note-Duration_1 Note-Velocity_115 Bar-End Bar-Start Position_0 Note-On_59 Note-Duration_1 Note-Velocity_115 Note-On_57 Note-Duration_1 Note-Velocity_115 Note-On_54 Note-Duration_1 Note-Velocity_115 Position_4 Note-On_59 Note-Duration_1 Note-Velocity_115 Note-On_57 Note-Duration_1 Note-Velocity_115 Note-On_54 Note-Duration_1 Note-Velocity_115 Position_8 Note-On_59 Note-Duration_1 Note-Velocity_115 Note-On_57 Note-Duration_1 Note-Velocity_115 Note-On_54 Note-Duration_1 Note-Velocity_115 Position_12 Note-On_59 Note-Duration_1 Note-Velocity_115 Note-On_57 Note-Duration_1 Note-Velocity_115 Note-On_54 Note-Duration_1 Note-Velocity_115 Bar-End Bar-Start Position_0 Note-On_64 Note-Duration_1 Note-Velocity_104 Note-On_60 Note-Duration_1 Note-Velocity_115 Note-On_57 Note-Duration_1 Note-Velocity_115 Note-On_55 Note-Duration_1 Note-Velocity_115 Position_4 Note-On_64 Note-Duration_1 Note-Velocity_92 Note-On_60 Note-Duration_1 Note-Velocity_102 Note-On_57 Note-Duration_1 Note-Velocity_102 Note-On_55 Note-Duration_1 Note-Velocity_102 Position_8 Note-On_64 Note-Duration_1 Note-Velocity_94 Note-On_60 Note-Duration_1 Note-Velocity_102 Note-On_57 Note-Duration_1 Note-Velocity_104 Note-On_55 Note-Duration_1 Note-Velocity_94 Position_12 Note-On_64 Note-Duration_1 Note-Velocity_94 Note-On_60 Note-Duration_1 Note-Velocity_100 Note-On_57 Note-Duration_1 Note-Velocity_102 Note-On_55 Note-Duration_1 Note-Velocity_92 Bar-End Bar-Start Position_0 Note-On_62 Note-Duration_1 Note-Velocity_98 Note-On_59 Note-Duration_1 Note-Velocity_98 Note-On_55 Note-Duration_1 Note-Velocity_98 Position_4 Note-On_62 Note-Duration_1 Note-Velocity_102 Note-On_59 Note-Duration_1 Note-Velocity_104 Note-On_55 Note-Duration_1 Note-Velocity_104 Position_8 Note-On_62 Note-Duration_1 Note-Velocity_98 Note-On_59 Note-Duration_1 Note-Velocity_100 Note-On_55 Note-Duration_1 Note-Velocity_100 Position_12 Note-On_62 Note-Duration_1 Note-Velocity_104 Note-On_59 Note-Duration_1 Note-Velocity_104 Note-On_55 Note-Duration_1 Note-Velocity_102 Bar-End Bar-Start Position_0 Note-On_59 Note-Duration_1 Note-Velocity_100 Note-On_55 Note-Duration_1 Note-Velocity_100 Note-On_52 Note-Duration_1 Note-Velocity_102 Position_4 Note-On_59 Note-Duration_1 Note-Velocity_98 Note-On_55 Note-Duration_1 Note-Velocity_98 Note-On_52 Note-Duration_1 Note-Velocity_100 Position_8 Note-On_59 Note-Duration_1 Note-Velocity_102 Note-On_55 Note-Duration_1 Note-Velocity_98 Note-On_52 Note-Duration_1 Note-Velocity_100 Position_12 Note-On_59 Note-Duration_1 Note-Velocity_102 Note-On_55 Note-Duration_1 Note-Velocity_100 Note-On_52 Note-Duration_1 Note-Velocity_100 Bar-End Bar-Start Position_0 Note-On_59 Note-Duration_1 Note-Velocity_98 Note-On_55 Note-Duration_1 Note-Velocity_98 Note-On_52 Note-Duration_1 Note-Velocity_98 Position_4 Note-On_59 Note-Duration_1 Note-Velocity_102 Note-On_55 Note-Duration_1 Note-Velocity_106 Note-On_52 Note-Duration_1 Note-Velocity_102 Position_8 Note-On_59 Note-Duration_1 Note-Velocity_104 Note-On_55 Note-Duration_1 Note-Velocity_106 Note-On_52 Note-Duration_1 Note-Velocity_94 Position_12 Note-On_59 Note-Duration_1 Note-Velocity_104 Note-On_55 Note-Duration_1 Note-Velocity_106 Note-On_52 Note-Duration_1 Note-Velocity_100 Bar-End Bar-Start Position_0 Note-On_59 Note-Duration_1 Note-Velocity_106 Note-On_57 Note-Duration_1 Note-Velocity_115 Note-On_54 Note-Duration_1 Note-Velocity_115 Position_4 Note-On_59 Note-Duration_1 Note-Velocity_102 Note-On_57 Note-Duration_1 Note-Velocity_115 Note-On_54 Note-Duration_1 Note-Velocity_115 Position_8 Note-On_59 Note-Duration_1 Note-Velocity_115 Note-On_57 Note-Duration_1 Note-Velocity_115 Note-On_54 Note-Duration_1 Note-Velocity_115 Position_12 Note-On_59 Note-Duration_1 Note-Velocity_115 Note-On_57 Note-Duration_1 Note-Velocity_115 Note-On_54 Note-Duration_1 Note-Velocity_115 Bar-End Bar-Start Position_0 Note-On_59 Note-Duration_1 Note-Velocity_115 Note-On_57 Note-Duration_1 Note-Velocity_115 Note-On_54 Note-Duration_1 Note-Velocity_115 Position_4 Note-On_59 Note-Duration_1 Note-Velocity_115 Note-On_57 Note-Duration_1 Note-Velocity_115 Note-On_54 Note-Duration_1 Note-Velocity_115 Position_8 Note-On_59 Note-Duration_1 Note-Velocity_115 Note-On_57 Note-Duration_1 Note-Velocity_115 Note-On_54 Note-Duration_1 Note-Velocity_115 Position_12 Note-On_59 Note-Duration_1 Note-Velocity_115 Note-On_57 Note-Duration_1 Note-Velocity_115 Note-On_54 Note-Duration_1 Note-Velocity_115 Bar-End Bar-Start Position_0 Note-On_64 Note-Duration_1 Note-Velocity_104 Note-On_60 Note-Duration_1 Note-Velocity_115 Note-On_57 Note-Duration_1 Note-Velocity_115 Note-On_55 Note-Duration_1 Note-Velocity_115 Position_4 Note-On_64 Note-Duration_1 Note-Velocity_92 Note-On_60 Note-Duration_1 Note-Velocity_102 Note-On_57 Note-Duration_1 Note-Velocity_102 Note-On_55 Note-Duration_1 Note-Velocity_102 Position_8 Note-On_64 Note-Duration_1 Note-Velocity_94 Note-On_60 Note-Duration_1 Note-Velocity_102 Note-On_57 Note-Duration_1 Note-Velocity_104 Note-On_55 Note-Duration_1 Note-Velocity_94 Position_12 Note-On_64 Note-Duration_1 Note-Velocity_94 Note-On_60 Note-Duration_1 Note-Velocity_100 Note-On_57 Note-Duration_1 Note-Velocity_102 Note-On_55 Note-Duration_1 Note-Velocity_92 Bar-End Bar-Start Position_0 Note-On_62 Note-Duration_1 Note-Velocity_98 Note-On_59 Note-Duration_1 Note-Velocity_98 Note-On_55 Note-Duration_1 Note-Velocity_98 Position_4 Note-On_62 Note-Duration_1 Note-Velocity_102 Note-On_59 Note-Duration_1 Note-Velocity_104 Note-On_55 Note-Duration_1 Note-Velocity_104 Position_8 Note-On_62 Note-Duration_1 Note-Velocity_98 Note-On_59 Note-Duration_1 Note-Velocity_100 Note-On_55 Note-Duration_1 Note-Velocity_100 Position_12 Note-On_62 Note-Duration_1 Note-Velocity_104 Note-On_59 Note-Duration_1 Note-Velocity_104 Note-On_55 Note-Duration_1 Note-Velocity_102 Bar-End Bar-Start Position_0 Note-On_59 Note-Duration_1 Note-Velocity_100 Note-On_55 Note-Duration_1 Note-Velocity_100 Note-On_52 Note-Duration_1 Note-Velocity_102 Position_4 Note-On_59 Note-Duration_1 Note-Velocity_98 Note-On_55 Note-Duration_1 Note-Velocity_98 Note-On_52 Note-Duration_1 Note-Velocity_100 Position_8 Note-On_59 Note-Duration_1 Note-Velocity_102 Note-On_55 Note-Duration_1 Note-Velocity_98 Note-On_52 Note-Duration_1 Note-Velocity_100 Position_12 Note-On_59 Note-Duration_1 Note-Velocity_102 Note-On_55 Note-Duration_1 Note-Velocity_100 Note-On_52 Note-Duration_1 Note-Velocity_100 Bar-End Bar-Start Position_0 Note-On_59 Note-Duration_1 Note-Velocity_98 Note-On_55 Note-Duration_1 Note-Velocity_98 Note-On_52 Note-Duration_1 Note-Velocity_98 Position_4 Note-On_59 Note-Duration_1 Note-Velocity_102 Note-On_55 Note-Duration_1 Note-Velocity_106 Note-On_52 Note-Duration_1 Note-Velocity_102 Position_8 Note-On_59 Note-Duration_1 Note-Velocity_104 Note-On_55 Note-Duration_1 Note-Velocity_106 Note-On_52 Note-Duration_1 Note-Velocity_94 Position_12 Note-On_59 Note-Duration_1 Note-Velocity_104 Note-On_55 Note-Duration_1 Note-Velocity_106 Note-On_52 Note-Duration_1 Note-Velocity_100 Bar-End Bar-Start Position_0 Note-On_59 Note-Duration_1 Note-Velocity_106 Note-On_57 Note-Duration_1 Note-Velocity_115 Note-On_54 Note-Duration_1 Note-Velocity_115 Position_4 Note-On_59 Note-Duration_1 Note-Velocity_102 Note-On_57 Note-Duration_1 Note-Velocity_115 Note-On_54 Note-Duration_1 Note-Velocity_115 Position_8 Note-On_59 Note-Duration_1 Note-Velocity_115 Note-On_57 Note-Duration_1 Note-Velocity_115 Note-On_54 Note-Duration_1 Note-Velocity_115 Position_12 Note-On_59 Note-Duration_1 Note-Velocity_115 Note-On_57 Note-Duration_1 Note-Velocity_115 Note-On_54 Note-Duration_1 Note-Velocity_115 Bar-End Bar-Start Position_0 Note-On_59 Note-Duration_1 Note-Velocity_115 Note-On_57 Note-Duration_1 Note-Velocity_115 Note-On_54 Note-Duration_1 Note-Velocity_115 Position_4 Note-On_59 Note-Duration_1 Note-Velocity_115 Note-On_57 Note-Duration_1 Note-Velocity_115 Note-On_54 Note-Duration_1 Note-Velocity_115 Position_8 Note-On_59 Note-Duration_1 Note-Velocity_115 Note-On_57 Note-Duration_1 Note-Velocity_115 Note-On_54 Note-Duration_1 Note-Velocity_115 Position_12 Note-On_59 Note-Duration_1 Note-Velocity_115 Note-On_57 Note-Duration_1 Note-Velocity_115 Note-On_54 Note-Duration_1 Note-Velocity_115 Bar-End Bar-Start Position_0 Note-On_64 Note-Duration_1 Note-Velocity_104 Note-On_60 Note-Duration_1 Note-Velocity_115 Note-On_57 Note-Duration_1 Note-Velocity_115 Note-On_55 Note-Duration_1 Note-Velocity_115 Position_4 Note-On_64 Note-Duration_1 Note-Velocity_92 Note-On_60 Note-Duration_1 Note-Velocity_102 Note-On_57 Note-Duration_1 Note-Velocity_102 Note-On_55 Note-Duration_1 Note-Velocity_102 Position_8 Note-On_64 Note-Duration_1 Note-Velocity_94 Note-On_60 Note-Duration_1 Note-Velocity_102 Note-On_57 Note-Duration_1 Note-Velocity_104 Note-On_55 Note-Duration_1 Note-Velocity_94 Position_12 Note-On_64 Note-Duration_1 Note-Velocity_94 Note-On_60 Note-Duration_1 Note-Velocity_100 Note-On_57 Note-Duration_1 Note-Velocity_102 Note-On_55 Note-Duration_1 Note-Velocity_92 Bar-End Bar-Start Position_0 Note-On_62 Note-Duration_1 Note-Velocity_98 Note-On_59 Note-Duration_1 Note-Velocity_98 Note-On_55 Note-Duration_1 Note-Velocity_98 Position_4 Note-On_62 Note-Duration_1 Note-Velocity_102 Note-On_59 Note-Duration_1 Note-Velocity_104 Note-On_55 Note-Duration_1 Note-Velocity_104 Position_8 Note-On_62 Note-Duration_1 Note-Velocity_98 Note-On_59 Note-Duration_1 Note-Velocity_100 Note-On_55 Note-Duration_1 Note-Velocity_100 Position_12 Note-On_62 Note-Duration_1 Note-Velocity_104 Note-On_59 Note-Duration_1 Note-Velocity_104 Note-On_55 Note-Duration_1 Note-Velocity_102 Bar-End Bar-Start Position_0 Note-On_59 Note-Duration_1 Note-Velocity_100 Note-On_55 Note-Duration_1 Note-Velocity_100 Note-On_52 Note-Duration_1 Note-Velocity_102 Position_4 Note-On_59 Note-Duration_1 Note-Velocity_98 Note-On_55 Note-Duration_1 Note-Velocity_98 Note-On_52 Note-Duration_1 Note-Velocity_100 Position_8 Note-On_59 Note-Duration_1 Note-Velocity_102 Note-On_55 Note-Duration_1 Note-Velocity_98 Note-On_52 Note-Duration_1 Note-Velocity_100 Position_12 Note-On_59 Note-Duration_1 Note-Velocity_102 Note-On_55 Note-Duration_1 Note-Velocity_100 Note-On_52 Note-Duration_1 Note-Velocity_100 Bar-End Bar-Start Position_0 Note-On_59 Note-Duration_1 Note-Velocity_98 Note-On_55 Note-Duration_1 Note-Velocity_98 Note-On_52 Note-Duration_1 Note-Velocity_98 Position_4 Note-On_59 Note-Duration_1 Note-Velocity_102 Note-On_55 Note-Duration_1 Note-Velocity_106 Note-On_52 Note-Duration_1 Note-Velocity_102 Position_8 Note-On_59 Note-Duration_1 Note-Velocity_104 Note-On_55 Note-Duration_1 Note-Velocity_106 Note-On_52 Note-Duration_1 Note-Velocity_94 Position_12 Note-On_59 Note-Duration_1 Note-Velocity_104 Note-On_55 Note-Duration_1 Note-Velocity_106 Note-On_52 Note-Duration_1 Note-Velocity_100 Bar-End Bar-Start Position_0 Note-On_59 Note-Duration_1 Note-Velocity_106 Note-On_57 Note-Duration_1 Note-Velocity_115 Note-On_54 Note-Duration_1 Note-Velocity_115 Position_4 Note-On_59 Note-Duration_1 Note-Velocity_102 Note-On_57 Note-Duration_1 Note-Velocity_115 Note-On_54 Note-Duration_1 Note-Velocity_115 Position_8 Note-On_59 Note-Duration_1 Note-Velocity_115 Note-On_57 Note-Duration_1 Note-Velocity_115 Note-On_54 Note-Duration_1 Note-Velocity_115 Position_12 Note-On_59 Note-Duration_1 Note-Velocity_115 Note-On_57 Note-Duration_1 Note-Velocity_115 Note-On_54 Note-Duration_1 Note-Velocity_115 Bar-End Bar-Start Position_0 Note-On_59 Note-Duration_1 Note-Velocity_115 Note-On_57 Note-Duration_1 Note-Velocity_115 Note-On_54 Note-Duration_1 Note-Velocity_115 Position_4 Note-On_59 Note-Duration_1 Note-Velocity_115 Note-On_57 Note-Duration_1 Note-Velocity_115 Note-On_54 Note-Duration_1 Note-Velocity_115 Position_8 Note-On_59 Note-Duration_1 Note-Velocity_115 Note-On_57 Note-Duration_1 Note-Velocity_115 Note-On_54 Note-Duration_1 Note-Velocity_115 Position_12 Note-On_59 Note-Duration_1 Note-Velocity_115 Note-On_57 Note-Duration_1 Note-Velocity_115 Note-On_54 Note-Duration_1 Note-Velocity_115 Bar-End Bar-Start Position_0 Note-On_64 Note-Duration_1 Note-Velocity_104 Note-On_60 Note-Duration_1 Note-Velocity_115 Note-On_57 Note-Duration_1 Note-Velocity_115 Note-On_55 Note-Duration_1 Note-Velocity_115 Position_4 Note-On_64 Note-Duration_1 Note-Velocity_92 Note-On_60 Note-Duration_1 Note-Velocity_102 Note-On_57 Note-Duration_1 Note-Velocity_102 Note-On_55 Note-Duration_1 Note-Velocity_102 Position_8 Note-On_64 Note-Duration_1 Note-Velocity_94 Note-On_60 Note-Duration_1 Note-Velocity_102 Note-On_57 Note-Duration_1 Note-Velocity_104 Note-On_55 Note-Duration_1 Note-Velocity_94 Position_12 Note-On_64 Note-Duration_1 Note-Velocity_94 Note-On_60 Note-Duration_1 Note-Velocity_100 Note-On_57 Note-Duration_1 Note-Velocity_102 Note-On_55 Note-Duration_1 Note-Velocity_92 Bar-End Bar-Start Position_0 Note-On_62 Note-Duration_1 Note-Velocity_98 Note-On_59 Note-Duration_1 Note-Velocity_98 Note-On_55 Note-Duration_1 Note-Velocity_98 Position_4 Note-On_62 Note-Duration_1 Note-Velocity_102 Note-On_59 Note-Duration_1 Note-Velocity_104 Note-On_55 Note-Duration_1 Note-Velocity_104 Position_8 Note-On_62 Note-Duration_1 Note-Velocity_98 Note-On_59 Note-Duration_1 Note-Velocity_100 Note-On_55 Note-Duration_1 Note-Velocity_100 Position_12 Note-On_62 Note-Duration_1 Note-Velocity_104 Note-On_59 Note-Duration_1 Note-Velocity_104 Note-On_55 Note-Duration_1 Note-Velocity_102 Bar-End Bar-Start Position_0 Note-On_59 Note-Duration_1 Note-Velocity_100 Note-On_55 Note-Duration_1 Note-Velocity_100 Note-On_52 Note-Duration_1 Note-Velocity_102 Position_4 Note-On_59 Note-Duration_1 Note-Velocity_98 Note-On_55 Note-Duration_1 Note-Velocity_98 Note-On_52 Note-Duration_1 Note-Velocity_100 Position_8 Note-On_59 Note-Duration_1 Note-Velocity_102 Note-On_55 Note-Duration_1 Note-Velocity_98 Note-On_52 Note-Duration_1 Note-Velocity_100 Position_12 Note-On_59 Note-Duration_1 Note-Velocity_102 Note-On_55 Note-Duration_1 Note-Velocity_100 Note-On_52 Note-Duration_1 Note-Velocity_100 Bar-End Bar-Start Position_0 Note-On_59 Note-Duration_1 Note-Velocity_98 Note-On_55 Note-Duration_1 Note-Velocity_98 Note-On_52 Note-Duration_1 Note-Velocity_98 Position_4 Note-On_59 Note-Duration_1 Note-Velocity_102 Note-On_55 Note-Duration_1 Note-Velocity_106 Note-On_52 Note-Duration_1 Note-Velocity_102 Position_8 Note-On_59 Note-Duration_1 Note-Velocity_104 Note-On_55 Note-Duration_1 Note-Velocity_106 Note-On_52 Note-Duration_1 Note-Velocity_94 Position_12 Note-On_59 Note-Duration_1 Note-Velocity_104 Note-On_55 Note-Duration_1 Note-Velocity_106 Note-On_52 Note-Duration_1 Note-Velocity_100 Bar-End Bar-Start Position_0 Note-On_59 Note-Duration_1 Note-Velocity_106 Note-On_57 Note-Duration_1 Note-Velocity_115 Note-On_54 Note-Duration_1 Note-Velocity_115 Position_4 Note-On_59 Note-Duration_1 Note-Velocity_102 Note-On_57 Note-Duration_1 Note-Velocity_115 Note-On_54 Note-Duration_1 Note-Velocity_115 Position_8 Note-On_59 Note-Duration_1 Note-Velocity_115 Note-On_57 Note-Duration_1 Note-Velocity_115 Note-On_54 Note-Duration_1 Note-Velocity_115 Position_12 Note-On_59 Note-Duration_1 Note-Velocity_115 Note-On_57 Note-Duration_1 Note-Velocity_115 Note-On_54 Note-Duration_1 Note-Velocity_115 Bar-End Bar-Start Position_0 Note-On_59 Note-Duration_1 Note-Velocity_115 Note-On_57 Note-Duration_1 Note-Velocity_115 Note-On_54 Note-Duration_1 Note-Velocity_115 Position_4 Note-On_59 Note-Duration_1 Note-Velocity_115 Note-On_57 Note-Duration_1 Note-Velocity_115 Note-On_54 Note-Duration_1 Note-Velocity_115 Position_8 Note-On_59 Note-Duration_1 Note-Velocity_115 Note-On_57 Note-Duration_1 Note-Velocity_115 Note-On_54 Note-Duration_1 Note-Velocity_115 Position_12 Note-On_59 Note-Duration_1 Note-Velocity_115 Note-On_57 Note-Duration_1 Note-Velocity_115 Note-On_54 Note-Duration_1 Note-Velocity_115 Bar-End Bar-Start Position_0 Note-On_64 Note-Duration_1 Note-Velocity_104 Note-On_60 Note-Duration_1 Note-Velocity_115 Note-On_57 Note-Duration_1 Note-Velocity_115 Note-On_55 Note-Duration_1 Note-Velocity_115 Position_4 Note-On_64 Note-Duration_1 Note-Velocity_92 Note-On_60 Note-Duration_1 Note-Velocity_102 Note-On_57 Note-Duration_1 Note-Velocity_102 Note-On_55 Note-Duration_1 Note-Velocity_102 Position_8 Note-On_64 Note-Duration_1 Note-Velocity_94 Note-On_60 Note-Duration_1 Note-Velocity_102 Note-On_57 Note-Duration_1 Note-Velocity_104 Note-On_55 Note-Duration_1 Note-Velocity_94 Position_12 Note-On_64 Note-Duration_1 Note-Velocity_94 Note-On_60 Note-Duration_1 Note-Velocity_100 Note-On_57 Note-Duration_1 Note-Velocity_102 Note-On_55 Note-Duration_1 Note-Velocity_92 Bar-End Bar-Start Position_0 Note-On_62 Note-Duration_1 Note-Velocity_98 Note-On_59 Note-Duration_1 Note-Velocity_98 Note-On_55 Note-Duration_1 Note-Velocity_98 Position_4 Note-On_62 Note-Duration_1 Note-Velocity_102 Note-On_59 Note-Duration_1 Note-Velocity_104 Note-On_55 Note-Duration_1 Note-Velocity_104 Position_8 Note-On_62 Note-Duration_1 Note-Velocity_98 Note-On_59 Note-Duration_1 Note-Velocity_100 Note-On_55 Note-Duration_1 Note-Velocity_100 Position_12 Note-On_62 Note-Duration_1 Note-Velocity_104 Note-On_59 Note-Duration_1 Note-Velocity_104 Note-On_55 Note-Duration_1 Note-Velocity_102 Bar-End Bar-Start Position_0 Note-On_59 Note-Duration_1 Note-Velocity_100 Note-On_55 Note-Duration_1 Note-Velocity_100 Note-On_52 Note-Duration_1 Note-Velocity_102 Position_4 Note-On_59 Note-Duration_1 Note-Velocity_98 Note-On_55 Note-Duration_1 Note-Velocity_98 Note-On_52 Note-Duration_1 Note-Velocity_100 Position_8 Note-On_59 Note-Duration_1 Note-Velocity_102 Note-On_55 Note-Duration_1 Note-Velocity_98 Note-On_52 Note-Duration_1 Note-Velocity_100 Position_12 Note-On_59 Note-Duration_1 Note-Velocity_102 Note-On_55 Note-Duration_1 Note-Velocity_100 Note-On_52 Note-Duration_1 Note-Velocity_100 Bar-End Bar-Start Position_0 Note-On_59 Note-Duration_1 Note-Velocity_98 Note-On_55 Note-Duration_1 Note-Velocity_98 Note-On_52 Note-Duration_1 Note-Velocity_98 Position_4 Note-On_59 Note-Duration_1 Note-Velocity_102 Note-On_55 Note-Duration_1 Note-Velocity_106 Note-On_52 Note-Duration_1 Note-Velocity_102 Position_8 Note-On_59 Note-Duration_1 Note-Velocity_104 Note-On_55 Note-Duration_1 Note-Velocity_106 Note-On_52 Note-Duration_1 Note-Velocity_94 Position_12 Note-On_59 Note-Duration_1 Note-Velocity_104 Note-On_55 Note-Duration_1 Note-Velocity_106 Note-On_52 Note-Duration_1 Note-Velocity_100 Bar-End Bar-Start Position_0 Note-On_59 Note-Duration_1 Note-Velocity_106 Note-On_57 Note-Duration_1 Note-Velocity_115 Note-On_54 Note-Duration_1 Note-Velocity_115 Position_4 Note-On_59 Note-Duration_1 Note-Velocity_102 Note-On_57 Note-Duration_1 Note-Velocity_115 Note-On_54 Note-Duration_1 Note-Velocity_115 Position_8 Note-On_59 Note-Duration_1 Note-Velocity_115 Note-On_57 Note-Duration_1 Note-Velocity_115 Note-On_54 Note-Duration_1 Note-Velocity_115 Position_12 Note-On_59 Note-Duration_1 Note-Velocity_115 Note-On_57 Note-Duration_1 Note-Velocity_115 Note-On_54 Note-Duration_1 Note-Velocity_115 Bar-End Bar-Start Position_0 Note-On_59 Note-Duration_1 Note-Velocity_115 Note-On_57 Note-Duration_1 Note-Velocity_115 Note-On_54 Note-Duration_1 Note-Velocity_115 Position_4 Note-On_59 Note-Duration_1 Note-Velocity_115 Note-On_57 Note-Duration_1 Note-Velocity_115 Note-On_54 Note-Duration_1 Note-Velocity_115 Position_8 Note-On_59 Note-Duration_1 Note-Velocity_115 Note-On_57 Note-Duration_1 Note-Velocity_115 Note-On_54 Note-Duration_1 Note-Velocity_115 Position_12 Note-On_59 Note-Duration_1 Note-Velocity_115 Note-On_57 Note-Duration_1 Note-Velocity_115 Note-On_54 Note-Duration_1 Note-Velocity_115 Bar-End Bar-Start Position_0 Note-On_64 Note-Duration_1 Note-Velocity_104 Note-On_60 Note-Duration_1 Note-Velocity_115 Note-On_57 Note-Duration_1 Note-Velocity_115 Note-On_55 Note-Duration_1 Note-Velocity_115 Position_4 Note-On_64 Note-Duration_1 Note-Velocity_92 Note-On_60 Note-Duration_1 Note-Velocity_102 Note-On_57 Note-Duration_1 Note-Velocity_102 Note-On_55 Note-Duration_1 Note-Velocity_102 Position_8 Note-On_64 Note-Duration_1 Note-Velocity_94 Note-On_60 Note-Duration_1 Note-Velocity_102 Note-On_57 Note-Duration_1 Note-Velocity_104 Note-On_55 Note-Duration_1 Note-Velocity_94 Position_12 Note-On_64 Note-Duration_1 Note-Velocity_94 Note-On_60 Note-Duration_1 Note-Velocity_100 Note-On_57 Note-Duration_1 Note-Velocity_102 Note-On_55 Note-Duration_1 Note-Velocity_92 Bar-End Track-End Track-Start Inst_4 Bar-Start Bar-End Bar-Start Bar-End Bar-Start Position_0 Note-On_71 Note-Duration_5 Note-Velocity_106 Note-On_67 Note-Duration_5 Note-Velocity_92 Note-On_64 Note-Duration_5 Note-Velocity_82 Note-On_52 Note-Duration_8 Note-Velocity_98 Position_8 Note-On_76 Note-Duration_8 Note-Velocity_114 Note-On_71 Note-Duration_4 Note-Velocity_98 Note-On_67 Note-Duration_3 Note-Velocity_74 Note-On_64 Note-Duration_3 Note-Velocity_78 Note-On_40 Note-Duration_4 Note-Velocity_94 Position_12 Note-On_67 Note-Duration_4 Note-Velocity_96 Note-On_64 Note-Duration_3 Note-Velocity_106 Note-On_40 Note-Duration_4 Note-Velocity_94 Bar-End Bar-Start Position_0 Note-On_74 Note-Duration_3 Note-Velocity_106 Note-On_67 Note-Duration_3 Note-Velocity_104 Note-On_64 Note-Duration_3 Note-Velocity_108 Note-On_40 Note-Duration_11 Note-Velocity_102 Position_4 Note-On_74 Note-Duration_3 Note-Velocity_106 Note-On_67 Note-Duration_3 Note-Velocity_92 Note-On_64 Note-Duration_3 Note-Velocity_94 Position_8 Note-On_72 Note-Duration_4 Note-Velocity_110 Note-On_69 Note-Duration_4 Note-Velocity_98 Note-On_64 Note-Duration_3 Note-Velocity_96 Note-On_45 Note-Duration_7 Note-Velocity_92 Position_12 Note-On_72 Note-Duration_3 Note-Velocity_104 Note-On_69 Note-Duration_3 Note-Velocity_106 Note-On_64 Note-Duration_3 Note-Velocity_100 Bar-End Bar-Start Position_0 Note-On_71 Note-Duration_8 Note-Velocity_96 Note-On_67 Note-Duration_8 Note-Velocity_108 Note-On_64 Note-Duration_8 Note-Velocity_94 Note-On_59 Note-Duration_9 Note-Velocity_94 Note-On_52 Note-Duration_8 Note-Velocity_110 Position_8 Note-On_76 Note-Duration_7 Note-Velocity_106 Note-On_71 Note-Duration_6 Note-Velocity_96 Note-On_67 Note-Duration_7 Note-Velocity_88 Note-On_64 Note-Duration_7 Note-Velocity_96 Note-On_40 Note-Duration_8 Note-Velocity_96 Bar-End Bar-Start Position_0 Note-On_74 Note-Duration_5 Note-Velocity_100 Note-On_69 Note-Duration_6 Note-Velocity_98 Note-On_67 Note-Duration_6 Note-Velocity_102 Note-On_62 Note-Duration_6 Note-Velocity_92 Note-On_52 Note-Duration_11 Note-Velocity_88 Position_8 Note-On_72 Note-Duration_8 Note-Velocity_96 Note-On_69 Note-Duration_7 Note-Velocity_86 Note-On_64 Note-Duration_7 Note-Velocity_84 Note-On_57 Note-Duration_4 Note-Velocity_71 Position_12 Note-On_57 Note-Duration_3 Note-Velocity_80 Bar-End Bar-Start Position_0 Note-On_71 Note-Duration_9 Note-Velocity_98 Note-On_67 Note-Duration_9 Note-Velocity_102 Note-On_64 Note-Duration_9 Note-Velocity_86 Note-On_59 Note-Duration_9 Note-Velocity_76 Note-On_52 Note-Duration_10 Note-Velocity_88 Position_12 Note-On_71 Note-Duration_3 Note-Velocity_100 Note-On_67 Note-Duration_3 Note-Velocity_102 Note-On_64 Note-Duration_3 Note-Velocity_86 Note-On_40 Note-Duration_3 Note-Velocity_86 Bar-End Bar-Start Position_0 Note-On_71 Note-Duration_15 Note-Velocity_98 Note-On_67 Note-Duration_14 Note-Velocity_96 Note-On_64 Note-Duration_14 Note-Velocity_92 Note-On_40 Note-Duration_11 Note-Velocity_98 Position_12 Note-On_52 Note-Duration_4 Note-Velocity_84 Bar-End Bar-Start Position_0 Note-On_69 Note-Duration_5 Note-Velocity_86 Note-On_66 Note-Duration_6 Note-Velocity_92 Note-On_62 Note-Duration_6 Note-Velocity_82 Note-On_50 Note-Duration_9 Note-Velocity_86 Position_8 Note-On_72 Note-Duration_7 Note-Velocity_98 Note-On_69 Note-Duration_7 Note-Velocity_88 Note-On_66 Note-Duration_7 Note-Velocity_78 Note-On_62 Note-Duration_7 Note-Velocity_78 Position_12 Note-On_50 Note-Duration_4 Note-Velocity_76 Bar-End Bar-Start Position_0 Note-On_71 Note-Duration_9 Note-Velocity_94 Note-On_67 Note-Duration_9 Note-Velocity_92 Note-On_64 Note-Duration_9 Note-Velocity_88 Note-On_59 Note-Duration_9 Note-Velocity_73 Note-On_52 Note-Duration_9 Note-Velocity_92 Position_12 Note-On_71 Note-Duration_3 Note-Velocity_96 Note-On_67 Note-Duration_3 Note-Velocity_96 Note-On_64 Note-Duration_3 Note-Velocity_86 Note-On_40 Note-Duration_4 Note-Velocity_90 Bar-End Bar-Start Position_0 Note-On_69 Note-Duration_5 Note-Velocity_92 Note-On_64 Note-Duration_5 Note-Velocity_94 Note-On_61 Note-Duration_6 Note-Velocity_96 Note-On_45 Note-Duration_9 Note-Velocity_84 Position_8 Note-On_69 Note-Duration_8 Note-Velocity_106 Note-On_64 Note-Duration_8 Note-Velocity_102 Note-On_61 Note-Duration_7 Note-Velocity_100 Position_12 Note-On_45 Note-Duration_4 Note-Velocity_80 Bar-End Bar-Start Position_0 Note-On_64 Note-Duration_10 Note-Velocity_92 Note-On_61 Note-Duration_10 Note-Velocity_80 Note-On_57 Note-Duration_11 Note-Velocity_92 Note-On_45 Note-Duration_12 Note-Velocity_84 Position_12 Note-On_64 Note-Duration_3 Note-Velocity_88 Note-On_61 Note-Duration_3 Note-Velocity_96 Note-On_57 Note-Duration_3 Note-Velocity_88 Note-On_45 Note-Duration_4 Note-Velocity_86 Bar-End Bar-Start Position_0 Note-On_71 Note-Duration_9 Note-Velocity_94 Note-On_67 Note-Duration_9 Note-Velocity_92 Note-On_64 Note-Duration_9 Note-Velocity_86 Note-On_52 Note-Duration_9 Note-Velocity_96 Position_12 Note-On_71 Note-Duration_3 Note-Velocity_98 Note-On_67 Note-Duration_3 Note-Velocity_94 Note-On_64 Note-Duration_3 Note-Velocity_88 Note-On_52 Note-Duration_4 Note-Velocity_84 Bar-End Bar-Start Position_0 Note-On_69 Note-Duration_5 Note-Velocity_90 Note-On_66 Note-Duration_5 Note-Velocity_96 Note-On_62 Note-Duration_5 Note-Velocity_90 Note-On_50 Note-Duration_8 Note-Velocity_92 Position_8 Note-On_72 Note-Duration_7 Note-Velocity_94 Note-On_69 Note-Duration_7 Note-Velocity_94 Note-On_66 Note-Duration_7 Note-Velocity_80 Note-On_62 Note-Duration_7 Note-Velocity_80 Note-On_50 Note-Duration_4 Note-Velocity_90 Position_12 Note-On_50 Note-Duration_4 Note-Velocity_82 Bar-End Bar-Start Position_0 Note-On_71 Note-Duration_11 Note-Velocity_96 Note-On_67 Note-Duration_11 Note-Velocity_98 Note-On_64 Note-Duration_11 Note-Velocity_90 Note-On_52 Note-Duration_9 Note-Velocity_86 Position_12 Note-On_71 Note-Duration_3 Note-Velocity_94 Note-On_67 Note-Duration_3 Note-Velocity_94 Note-On_64 Note-Duration_3 Note-Velocity_86 Note-On_40 Note-Duration_4 Note-Velocity_86 Bar-End Bar-Start Position_0 Note-On_69 Note-Duration_5 Note-Velocity_94 Note-On_64 Note-Duration_6 Note-Velocity_94 Note-On_61 Note-Duration_6 Note-Velocity_90 Note-On_45 Note-Duration_7 Note-Velocity_92 Position_8 Note-On_69 Note-Duration_7 Note-Velocity_90 Note-On_64 Note-Duration_6 Note-Velocity_94 Note-On_61 Note-Duration_7 Note-Velocity_96 Note-On_45 Note-Duration_5 Note-Velocity_76 Position_12 Note-On_45 Note-Duration_3 Note-Velocity_86 Bar-End Bar-Start Position_0 Note-On_67 Note-Duration_11 Note-Velocity_92 Note-On_64 Note-Duration_10 Note-Velocity_94 Note-On_60 Note-Duration_9 Note-Velocity_94 Note-On_48 Note-Duration_9 Note-Velocity_84 Position_12 Note-On_67 Note-Duration_3 Note-Velocity_96 Note-On_64 Note-Duration_3 Note-Velocity_92 Note-On_60 Note-Duration_3 Note-Velocity_88 Note-On_48 Note-Duration_4 Note-Velocity_86 Bar-End Bar-Start Position_0 Note-On_71 Note-Duration_8 Note-Velocity_88 Note-On_67 Note-Duration_8 Note-Velocity_86 Note-On_64 Note-Duration_7 Note-Velocity_86 Note-On_52 Note-Duration_15 Note-Velocity_90 Position_8 Note-On_71 Note-Duration_8 Note-Velocity_80 Note-On_67 Note-Duration_7 Note-Velocity_82 Note-On_64 Note-Duration_6 Note-Velocity_68 Bar-End Bar-Start Position_0 Note-On_71 Note-Duration_8 Note-Velocity_96 Note-On_67 Note-Duration_8 Note-Velocity_94 Note-On_64 Note-Duration_7 Note-Velocity_86 Position_8 Note-On_71 Note-Duration_7 Note-Velocity_100 Note-On_67 Note-Duration_7 Note-Velocity_102 Note-On_64 Note-Duration_7 Note-Velocity_94 Position_12 Note-On_52 Note-Duration_4 Note-Velocity_88 Bar-End Bar-Start Position_0 Note-On_64 Note-Duration_9 Note-Velocity_94 Note-On_61 Note-Duration_7 Note-Velocity_92 Note-On_57 Note-Duration_7 Note-Velocity_84 Note-On_45 Note-Duration_7 Note-Velocity_90 Position_8 Note-On_61 Note-Duration_3 Note-Velocity_68 Note-On_57 Note-Duration_3 Note-Velocity_58 Note-On_45 Note-Duration_4 Note-Velocity_62 Position_12 Note-On_64 Note-Duration_3 Note-Velocity_82 Note-On_61 Note-Duration_4 Note-Velocity_78 Note-On_57 Note-Duration_3 Note-Velocity_74 Note-On_45 Note-Duration_4 Note-Velocity_82 Bar-End Bar-Start Position_0 Note-On_67 Note-Duration_10 Note-Velocity_90 Note-On_64 Note-Duration_11 Note-Velocity_86 Note-On_61 Note-Duration_11 Note-Velocity_74 Note-On_57 Note-Duration_11 Note-Velocity_84 Note-On_45 Note-Duration_11 Note-Velocity_90 Position_12 Note-On_67 Note-Duration_3 Note-Velocity_88 Note-On_64 Note-Duration_3 Note-Velocity_88 Note-On_61 Note-Duration_3 Note-Velocity_82 Note-On_45 Note-Duration_3 Note-Velocity_86 Bar-End Bar-Start Position_0 Note-On_66 Note-Duration_7 Note-Velocity_86 Note-On_62 Note-Duration_7 Note-Velocity_86 Note-On_59 Note-Duration_7 Note-Velocity_84 Note-On_47 Note-Duration_15 Note-Velocity_90 Position_8 Note-On_66 Note-Duration_7 Note-Velocity_82 Note-On_62 Note-Duration_7 Note-Velocity_76 Note-On_59 Note-Duration_7 Note-Velocity_76 Bar-End Bar-Start Position_0 Note-On_66 Note-Duration_6 Note-Velocity_88 Note-On_62 Note-Duration_6 Note-Velocity_92 Note-On_59 Note-Duration_7 Note-Velocity_80 Note-On_47 Note-Duration_10 Note-Velocity_80 Position_8 Note-On_66 Note-Duration_7 Note-Velocity_74 Note-On_62 Note-Duration_7 Note-Velocity_82 Note-On_59 Note-Duration_7 Note-Velocity_82 Position_12 Note-On_47 Note-Duration_3 Note-Velocity_94 Bar-End Bar-Start Position_0 Note-On_67 Note-Duration_10 Note-Velocity_90 Note-On_62 Note-Duration_11 Note-Velocity_84 Note-On_59 Note-Duration_11 Note-Velocity_76 Note-On_40 Note-Duration_11 Note-Velocity_88 Position_12 Note-On_67 Note-Duration_3 Note-Velocity_96 Note-On_62 Note-Duration_3 Note-Velocity_90 Note-On_59 Note-Duration_3 Note-Velocity_90 Note-On_40 Note-Duration_3 Note-Velocity_90 Bar-End Bar-Start Position_0 Note-On_64 Note-Duration_11 Note-Velocity_96 Note-On_61 Note-Duration_11 Note-Velocity_94 Note-On_57 Note-Duration_10 Note-Velocity_90 Note-On_45 Note-Duration_15 Note-Velocity_96 Position_12 Note-On_64 Note-Duration_3 Note-Velocity_84 Note-On_61 Note-Duration_3 Note-Velocity_84 Note-On_57 Note-Duration_2 Note-Velocity_80 Bar-End Bar-Start Position_0 Note-On_66 Note-Duration_5 Note-Velocity_90 Note-On_62 Note-Duration_6 Note-Velocity_90 Note-On_57 Note-Duration_6 Note-Velocity_82 Note-On_50 Note-Duration_8 Note-Velocity_94 Position_8 Note-On_66 Note-Duration_7 Note-Velocity_80 Note-On_62 Note-Duration_7 Note-Velocity_82 Note-On_57 Note-Duration_7 Note-Velocity_80 Position_12 Note-On_50 Note-Duration_4 Note-Velocity_84 Bar-End Bar-Start Position_0 Note-On_64 Note-Duration_9 Note-Velocity_98 Note-On_60 Note-Duration_9 Note-Velocity_100 Note-On_55 Note-Duration_9 Note-Velocity_96 Note-On_48 Note-Duration_9 Note-Velocity_90 Position_12 Note-On_64 Note-Duration_3 Note-Velocity_92 Note-On_60 Note-Duration_3 Note-Velocity_96 Note-On_55 Note-Duration_3 Note-Velocity_84 Note-On_48 Note-Duration_4 Note-Velocity_86 Bar-End Bar-Start Position_0 Note-On_71 Note-Duration_8 Note-Velocity_88 Note-On_67 Note-Duration_8 Note-Velocity_84 Note-On_64 Note-Duration_7 Note-Velocity_82 Note-On_52 Note-Duration_7 Note-Velocity_90 Position_8 Note-On_71 Note-Duration_6 Note-Velocity_86 Note-On_67 Note-Duration_6 Note-Velocity_84 Note-On_64 Note-Duration_6 Note-Velocity_84 Note-On_52 Note-Duration_7 Note-Velocity_82 Bar-End Bar-Start Position_0 Note-On_64 Note-Duration_7 Note-Velocity_94 Note-On_60 Note-Duration_7 Note-Velocity_94 Note-On_57 Note-Duration_7 Note-Velocity_80 Note-On_55 Note-Duration_8 Note-Velocity_82 Note-On_45 Note-Duration_7 Note-Velocity_94 Position_8 Note-On_64 Note-Duration_6 Note-Velocity_92 Note-On_60 Note-Duration_7 Note-Velocity_94 Note-On_57 Note-Duration_7 Note-Velocity_90 Note-On_55 Note-Duration_6 Note-Velocity_80 Note-On_45 Note-Duration_7 Note-Velocity_88 Bar-End Bar-Start Position_0 Note-On_71 Note-Duration_7 Note-Velocity_96 Note-On_67 Note-Duration_7 Note-Velocity_94 Note-On_64 Note-Duration_7 Note-Velocity_84 Note-On_52 Note-Duration_8 Note-Velocity_94 Position_8 Note-On_71 Note-Duration_6 Note-Velocity_92 Note-On_67 Note-Duration_6 Note-Velocity_92 Note-On_64 Note-Duration_6 Note-Velocity_84 Note-On_52 Note-Duration_7 Note-Velocity_82 Bar-End Bar-Start Position_0 Note-On_71 Note-Duration_7 Note-Velocity_96 Note-On_67 Note-Duration_7 Note-Velocity_92 Note-On_64 Note-Duration_7 Note-Velocity_90 Note-On_52 Note-Duration_9 Note-Velocity_84 Position_8 Note-On_71 Note-Duration_7 Note-Velocity_100 Note-On_67 Note-Duration_7 Note-Velocity_94 Note-On_64 Note-Duration_7 Note-Velocity_92 Position_12 Note-On_52 Note-Duration_4 Note-Velocity_84 Bar-End Bar-Start Position_0 Note-On_64 Note-Duration_7 Note-Velocity_94 Note-On_60 Note-Duration_7 Note-Velocity_88 Note-On_57 Note-Duration_7 Note-Velocity_84 Note-On_45 Note-Duration_7 Note-Velocity_90 Position_8 Note-On_64 Note-Duration_7 Note-Velocity_96 Note-On_60 Note-Duration_7 Note-Velocity_100 Note-On_57 Note-Duration_7 Note-Velocity_94 Note-On_55 Note-Duration_7 Note-Velocity_84 Note-On_45 Note-Duration_7 Note-Velocity_94 Bar-End Bar-Start Position_0 Note-On_71 Note-Duration_7 Note-Velocity_88 Note-On_67 Note-Duration_7 Note-Velocity_84 Note-On_64 Note-Duration_7 Note-Velocity_80 Note-On_52 Note-Duration_8 Note-Velocity_94 Position_8 Note-On_71 Note-Duration_7 Note-Velocity_94 Note-On_67 Note-Duration_7 Note-Velocity_90 Note-On_64 Note-Duration_7 Note-Velocity_84 Note-On_52 Note-Duration_7 Note-Velocity_90 Bar-End Bar-Start Position_0 Note-On_71 Note-Duration_6 Note-Velocity_94 Note-On_67 Note-Duration_6 Note-Velocity_94 Note-On_64 Note-Duration_7 Note-Velocity_88 Note-On_52 Note-Duration_7 Note-Velocity_94 Position_8 Note-On_71 Note-Duration_7 Note-Velocity_88 Note-On_67 Note-Duration_7 Note-Velocity_94 Note-On_64 Note-Duration_7 Note-Velocity_84 Note-On_52 Note-Duration_8 Note-Velocity_90 Bar-End Bar-Start Position_0 Note-On_64 Note-Duration_7 Note-Velocity_94 Note-On_60 Note-Duration_7 Note-Velocity_86 Note-On_57 Note-Duration_7 Note-Velocity_78 Note-On_55 Note-Duration_8 Note-Velocity_86 Note-On_45 Note-Duration_7 Note-Velocity_94 Position_8 Note-On_64 Note-Duration_6 Note-Velocity_88 Note-On_60 Note-Duration_7 Note-Velocity_94 Note-On_57 Note-Duration_7 Note-Velocity_92 Note-On_55 Note-Duration_7 Note-Velocity_82 Note-On_45 Note-Duration_7 Note-Velocity_90 Bar-End Bar-Start Position_0 Note-On_71 Note-Duration_7 Note-Velocity_96 Note-On_67 Note-Duration_7 Note-Velocity_88 Note-On_64 Note-Duration_7 Note-Velocity_82 Note-On_52 Note-Duration_8 Note-Velocity_96 Position_8 Note-On_71 Note-Duration_6 Note-Velocity_90 Note-On_67 Note-Duration_6 Note-Velocity_88 Note-On_64 Note-Duration_6 Note-Velocity_84 Note-On_52 Note-Duration_6 Note-Velocity_90 Bar-End Bar-Start Position_0 Note-On_71 Note-Duration_5 Note-Velocity_92 Note-On_67 Note-Duration_6 Note-Velocity_84 Note-On_64 Note-Duration_6 Note-Velocity_86 Note-On_52 Note-Duration_7 Note-Velocity_86 Position_8 Note-On_71 Note-Duration_5 Note-Velocity_92 Note-On_67 Note-Duration_5 Note-Velocity_90 Note-On_64 Note-Duration_5 Note-Velocity_88 Note-On_52 Note-Duration_7 Note-Velocity_84 Bar-End Bar-Start Position_0 Note-On_64 Note-Duration_7 Note-Velocity_94 Note-On_60 Note-Duration_7 Note-Velocity_88 Note-On_57 Note-Duration_7 Note-Velocity_80 Note-On_55 Note-Duration_8 Note-Velocity_76 Note-On_45 Note-Duration_7 Note-Velocity_86 Position_8 Note-On_64 Note-Duration_7 Note-Velocity_86 Note-On_60 Note-Duration_7 Note-Velocity_90 Note-On_57 Note-Duration_7 Note-Velocity_88 Note-On_55 Note-Duration_7 Note-Velocity_82 Note-On_45 Note-Duration_7 Note-Velocity_90 Bar-End Bar-Start Position_0 Note-On_71 Note-Duration_5 Note-Velocity_90 Note-On_67 Note-Duration_5 Note-Velocity_92 Note-On_64 Note-Duration_5 Note-Velocity_78 Note-On_52 Note-Duration_7 Note-Velocity_92 Position_8 Note-On_71 Note-Duration_5 Note-Velocity_92 Note-On_67 Note-Duration_6 Note-Velocity_90 Note-On_64 Note-Duration_6 Note-Velocity_84 Note-On_52 Note-Duration_7 Note-Velocity_88 Bar-End Bar-Start Position_0 Note-On_71 Note-Duration_5 Note-Velocity_94 Note-On_67 Note-Duration_6 Note-Velocity_92 Note-On_64 Note-Duration_6 Note-Velocity_90 Note-On_52 Note-Duration_7 Note-Velocity_94 Position_8 Note-On_71 Note-Duration_6 Note-Velocity_90 Note-On_67 Note-Duration_6 Note-Velocity_92 Note-On_64 Note-Duration_6 Note-Velocity_80 Note-On_52 Note-Duration_7 Note-Velocity_86 Bar-End Bar-Start Position_0 Note-On_71 Note-Duration_7 Note-Velocity_90 Note-On_67 Note-Duration_7 Note-Velocity_96 Note-On_64 Note-Duration_7 Note-Velocity_84 Note-On_52 Note-Duration_8 Note-Velocity_94 Position_8 Note-On_71 Note-Duration_6 Note-Velocity_92 Note-On_67 Note-Duration_6 Note-Velocity_90 Note-On_64 Note-Duration_6 Note-Velocity_88 Note-On_52 Note-Duration_6 Note-Velocity_84 Bar-End Bar-Start Position_0 Note-On_71 Note-Duration_7 Note-Velocity_86 Note-On_67 Note-Duration_7 Note-Velocity_94 Note-On_64 Note-Duration_7 Note-Velocity_86 Note-On_52 Note-Duration_9 Note-Velocity_92 Position_8 Note-On_71 Note-Duration_6 Note-Velocity_92 Note-On_67 Note-Duration_6 Note-Velocity_86 Note-On_64 Note-Duration_6 Note-Velocity_84 Note-On_52 Note-Duration_6 Note-Velocity_86 Bar-End Bar-Start Position_0 Note-On_64 Note-Duration_9 Note-Velocity_94 Note-On_60 Note-Duration_9 Note-Velocity_88 Note-On_55 Note-Duration_9 Note-Velocity_88 Note-On_48 Note-Duration_9 Note-Velocity_88 Position_12 Note-On_64 Note-Duration_3 Note-Velocity_94 Note-On_60 Note-Duration_3 Note-Velocity_92 Note-On_55 Note-Duration_3 Note-Velocity_90 Note-On_48 Note-Duration_3 Note-Velocity_90 Bar-End Bar-Start Position_0 Note-On_71 Note-Duration_5 Note-Velocity_90 Note-On_67 Note-Duration_5 Note-Velocity_86 Note-On_64 Note-Duration_5 Note-Velocity_84 Note-On_52 Note-Duration_9 Note-Velocity_90 Position_8 Note-On_71 Note-Duration_5 Note-Velocity_94 Note-On_67 Note-Duration_5 Note-Velocity_92 Note-On_64 Note-Duration_5 Note-Velocity_78 Position_12 Note-On_52 Note-Duration_3 Note-Velocity_90 Bar-End Bar-Start Position_0 Note-On_64 Note-Duration_7 Note-Velocity_92 Note-On_60 Note-Duration_7 Note-Velocity_86 Note-On_57 Note-Duration_7 Note-Velocity_78 Note-On_45 Note-Duration_9 Note-Velocity_88 Position_8 Note-On_64 Note-Duration_7 Note-Velocity_84 Note-On_60 Note-Duration_7 Note-Velocity_92 Note-On_57 Note-Duration_7 Note-Velocity_84 Position_12 Note-On_45 Note-Duration_3 Note-Velocity_86 Bar-End Bar-Start Position_0 Note-On_64 Note-Duration_9 Note-Velocity_90 Note-On_61 Note-Duration_8 Note-Velocity_80 Note-On_57 Note-Duration_9 Note-Velocity_80 Note-On_45 Note-Duration_9 Note-Velocity_84 Position_12 Note-On_64 Note-Duration_3 Note-Velocity_84 Note-On_61 Note-Duration_3 Note-Velocity_80 Note-On_57 Note-Duration_3 Note-Velocity_80 Note-On_45 Note-Duration_3 Note-Velocity_86 Bar-End Bar-Start Position_0 Note-On_71 Note-Duration_8 Note-Velocity_94 Note-On_67 Note-Duration_8 Note-Velocity_90 Note-On_64 Note-Duration_9 Note-Velocity_88 Note-On_52 Note-Duration_9 Note-Velocity_94 Position_12 Note-On_71 Note-Duration_3 Note-Velocity_96 Note-On_67 Note-Duration_3 Note-Velocity_88 Note-On_64 Note-Duration_3 Note-Velocity_88 Note-On_52 Note-Duration_4 Note-Velocity_94 Bar-End Bar-Start Position_0 Note-On_69 Note-Duration_7 Note-Velocity_86 Note-On_66 Note-Duration_7 Note-Velocity_94 Note-On_62 Note-Duration_7 Note-Velocity_86 Note-On_50 Note-Duration_8 Note-Velocity_90 Position_8 Note-On_72 Note-Duration_7 Note-Velocity_86 Note-On_69 Note-Duration_7 Note-Velocity_88 Note-On_66 Note-Duration_7 Note-Velocity_84 Note-On_62 Note-Duration_7 Note-Velocity_76 Note-On_50 Note-Duration_5 Note-Velocity_86 Position_12 Note-On_50 Note-Duration_3 Note-Velocity_94 Bar-End Bar-Start Position_0 Note-On_71 Note-Duration_11 Note-Velocity_94 Note-On_67 Note-Duration_11 Note-Velocity_94 Note-On_64 Note-Duration_11 Note-Velocity_82 Note-On_52 Note-Duration_10 Note-Velocity_90 Position_12 Note-On_71 Note-Duration_3 Note-Velocity_96 Note-On_67 Note-Duration_3 Note-Velocity_88 Note-On_64 Note-Duration_3 Note-Velocity_84 Note-On_52 Note-Duration_3 Note-Velocity_92 Bar-End Bar-Start Position_0 Note-On_64 Note-Duration_6 Note-Velocity_86 Note-On_60 Note-Duration_6 Note-Velocity_84 Note-On_57 Note-Duration_6 Note-Velocity_76 Note-On_45 Note-Duration_7 Note-Velocity_92 Position_8 Note-On_64 Note-Duration_6 Note-Velocity_82 Note-On_60 Note-Duration_6 Note-Velocity_90 Note-On_57 Note-Duration_6 Note-Velocity_84 Note-On_45 Note-Duration_7 Note-Velocity_80 Bar-End Bar-Start Position_0 Note-On_71 Note-Duration_8 Note-Velocity_92 Note-On_67 Note-Duration_8 Note-Velocity_94 Note-On_64 Note-Duration_9 Note-Velocity_86 Note-On_52 Note-Duration_9 Note-Velocity_90 Position_12 Note-On_71 Note-Duration_3 Note-Velocity_92 Note-On_67 Note-Duration_3 Note-Velocity_86 Note-On_64 Note-Duration_3 Note-Velocity_90 Note-On_52 Note-Duration_4 Note-Velocity_96 Bar-End Bar-Start Position_0 Note-On_69 Note-Duration_7 Note-Velocity_84 Note-On_66 Note-Duration_7 Note-Velocity_86 Note-On_62 Note-Duration_7 Note-Velocity_90 Note-On_50 Note-Duration_8 Note-Velocity_86 Position_8 Note-On_72 Note-Duration_7 Note-Velocity_86 Note-On_69 Note-Duration_7 Note-Velocity_88 Note-On_66 Note-Duration_7 Note-Velocity_92 Note-On_62 Note-Duration_7 Note-Velocity_86 Note-On_50 Note-Duration_5 Note-Velocity_84 Position_12 Note-On_50 Note-Duration_3 Note-Velocity_94 Bar-End Bar-Start Position_0 Note-On_71 Note-Duration_7 Note-Velocity_96 Note-On_67 Note-Duration_7 Note-Velocity_86 Note-On_64 Note-Duration_7 Note-Velocity_90 Note-On_52 Note-Duration_9 Note-Velocity_90 Position_8 Note-On_71 Note-Duration_5 Note-Velocity_94 Note-On_67 Note-Duration_5 Note-Velocity_92 Note-On_64 Note-Duration_5 Note-Velocity_84 Position_12 Note-On_52 Note-Duration_3 Note-Velocity_94 Bar-End Bar-Start Position_0 Note-On_64 Note-Duration_7 Note-Velocity_96 Note-On_60 Note-Duration_7 Note-Velocity_90 Note-On_57 Note-Duration_7 Note-Velocity_82 Note-On_45 Note-Duration_9 Note-Velocity_86 Position_8 Note-On_64 Note-Duration_6 Note-Velocity_88 Note-On_60 Note-Duration_6 Note-Velocity_90 Note-On_57 Note-Duration_6 Note-Velocity_86 Position_12 Note-On_45 Note-Duration_4 Note-Velocity_94 Bar-End Bar-Start Position_0 Note-On_71 Note-Duration_15 Note-Velocity_90 Note-On_67 Note-Duration_15 Note-Velocity_90 Note-On_64 Note-Duration_15 Note-Velocity_86 Note-On_52 Note-Duration_15 Note-Velocity_94 Bar-End Bar-Start Bar-End Bar-Start Bar-End Bar-Start Bar-End Bar-Start Position_0 Note-On_64 Note-Duration_7 Note-Velocity_88 Note-On_60 Note-Duration_7 Note-Velocity_96 Note-On_57 Note-Duration_7 Note-Velocity_80 Note-On_55 Note-Duration_7 Note-Velocity_74 Note-On_45 Note-Duration_8 Note-Velocity_90 Position_8 Note-On_64 Note-Duration_7 Note-Velocity_86 Note-On_60 Note-Duration_7 Note-Velocity_96 Note-On_57 Note-Duration_7 Note-Velocity_90 Note-On_55 Note-Duration_7 Note-Velocity_76 Note-On_45 Note-Duration_8 Note-Velocity_88 Bar-End Bar-Start Position_0 Note-On_71 Note-Duration_7 Note-Velocity_94 Note-On_67 Note-Duration_7 Note-Velocity_94 Note-On_64 Note-Duration_7 Note-Velocity_88 Note-On_52 Note-Duration_7 Note-Velocity_90 Position_8 Note-On_71 Note-Duration_5 Note-Velocity_86 Note-On_67 Note-Duration_5 Note-Velocity_84 Note-On_64 Note-Duration_6 Note-Velocity_86 Note-On_52 Note-Duration_7 Note-Velocity_78 Bar-End Bar-Start Position_0 Note-On_71 Note-Duration_6 Note-Velocity_92 Note-On_67 Note-Duration_6 Note-Velocity_90 Note-On_64 Note-Duration_6 Note-Velocity_92 Note-On_52 Note-Duration_6 Note-Velocity_84 Position_8 Note-On_71 Note-Duration_7 Note-Velocity_90 Note-On_67 Note-Duration_7 Note-Velocity_96 Note-On_64 Note-Duration_7 Note-Velocity_88 Note-On_52 Note-Duration_7 Note-Velocity_82 Bar-End Bar-Start Position_0 Note-On_64 Note-Duration_7 Note-Velocity_94 Note-On_60 Note-Duration_7 Note-Velocity_88 Note-On_57 Note-Duration_7 Note-Velocity_88 Note-On_55 Note-Duration_8 Note-Velocity_78 Note-On_45 Note-Duration_8 Note-Velocity_92 Position_8 Note-On_64 Note-Duration_7 Note-Velocity_88 Note-On_60 Note-Duration_7 Note-Velocity_94 Note-On_57 Note-Duration_7 Note-Velocity_90 Note-On_55 Note-Duration_7 Note-Velocity_78 Note-On_45 Note-Duration_7 Note-Velocity_84 Bar-End Bar-Start Position_0 Note-On_71 Note-Duration_7 Note-Velocity_92 Note-On_67 Note-Duration_7 Note-Velocity_88 Note-On_64 Note-Duration_7 Note-Velocity_82 Note-On_52 Note-Duration_8 Note-Velocity_92 Position_8 Note-On_71 Note-Duration_7 Note-Velocity_90 Note-On_67 Note-Duration_7 Note-Velocity_84 Note-On_64 Note-Duration_7 Note-Velocity_88 Note-On_52 Note-Duration_7 Note-Velocity_90 Bar-End Bar-Start Position_0 Note-On_71 Note-Duration_7 Note-Velocity_86 Note-On_67 Note-Duration_7 Note-Velocity_92 Note-On_64 Note-Duration_7 Note-Velocity_90 Note-On_52 Note-Duration_9 Note-Velocity_84 Position_8 Note-On_71 Note-Duration_7 Note-Velocity_94 Note-On_67 Note-Duration_7 Note-Velocity_88 Note-On_64 Note-Duration_7 Note-Velocity_84 Note-On_52 Note-Duration_8 Note-Velocity_86 Bar-End Bar-Start Position_0 Note-On_71 Note-Duration_8 Note-Velocity_86 Note-On_67 Note-Duration_8 Note-Velocity_94 Note-On_64 Note-Duration_7 Note-Velocity_88 Note-On_52 Note-Duration_7 Note-Velocity_92 Position_8 Note-On_71 Note-Duration_7 Note-Velocity_94 Note-On_67 Note-Duration_7 Note-Velocity_92 Note-On_64 Note-Duration_7 Note-Velocity_90 Note-On_52 Note-Duration_9 Note-Velocity_86 Bar-End Bar-Start Position_0 Note-On_71 Note-Duration_6 Note-Velocity_84 Note-On_67 Note-Duration_6 Note-Velocity_90 Note-On_64 Note-Duration_6 Note-Velocity_90 Note-On_52 Note-Duration_7 Note-Velocity_86 Position_8 Note-On_71 Note-Duration_7 Note-Velocity_92 Note-On_67 Note-Duration_7 Note-Velocity_92 Note-On_64 Note-Duration_7 Note-Velocity_84 Note-On_52 Note-Duration_8 Note-Velocity_86 Bar-End Bar-Start Position_0 Note-On_64 Note-Duration_8 Note-Velocity_86 Note-On_60 Note-Duration_7 Note-Velocity_82 Note-On_57 Note-Duration_8 Note-Velocity_72 Note-On_55 Note-Duration_7 Note-Velocity_74 Note-On_45 Note-Duration_8 Note-Velocity_84 Position_8 Note-On_64 Note-Duration_7 Note-Velocity_86 Note-On_60 Note-Duration_7 Note-Velocity_94 Note-On_57 Note-Duration_7 Note-Velocity_84 Note-On_55 Note-Duration_7 Note-Velocity_72 Note-On_45 Note-Duration_9 Note-Velocity_76 Bar-End Bar-Start Position_0 Note-On_71 Note-Duration_8 Note-Velocity_92 Note-On_67 Note-Duration_7 Note-Velocity_84 Note-On_64 Note-Duration_7 Note-Velocity_84 Note-On_52 Note-Duration_9 Note-Velocity_84 Position_8 Note-On_71 Note-Duration_7 Note-Velocity_88 Note-On_67 Note-Duration_7 Note-Velocity_88 Note-On_64 Note-Duration_7 Note-Velocity_86 Note-On_52 Note-Duration_9 Note-Velocity_84 Bar-End Bar-Start Position_0 Note-On_71 Note-Duration_7 Note-Velocity_86 Note-On_67 Note-Duration_7 Note-Velocity_96 Note-On_64 Note-Duration_7 Note-Velocity_92 Note-On_52 Note-Duration_9 Note-Velocity_86 Position_8 Note-On_71 Note-Duration_7 Note-Velocity_94 Note-On_67 Note-Duration_7 Note-Velocity_92 Note-On_64 Note-Duration_7 Note-Velocity_84 Note-On_52 Note-Duration_9 Note-Velocity_90 Bar-End Bar-Start Position_0 Note-On_71 Note-Duration_7 Note-Velocity_94 Note-On_67 Note-Duration_7 Note-Velocity_88 Note-On_64 Note-Duration_7 Note-Velocity_90 Note-On_52 Note-Duration_9 Note-Velocity_90 Position_8 Note-On_71 Note-Duration_7 Note-Velocity_92 Note-On_67 Note-Duration_7 Note-Velocity_84 Note-On_64 Note-Duration_7 Note-Velocity_82 Note-On_52 Note-Duration_7 Note-Velocity_84 Bar-End Bar-Start Position_0 Note-On_64 Note-Duration_7 Note-Velocity_86 Note-On_60 Note-Duration_7 Note-Velocity_90 Note-On_57 Note-Duration_7 Note-Velocity_78 Note-On_55 Note-Duration_8 Note-Velocity_86 Note-On_45 Note-Duration_7 Note-Velocity_80 Position_8 Note-On_64 Note-Duration_7 Note-Velocity_90 Note-On_60 Note-Duration_7 Note-Velocity_92 Note-On_57 Note-Duration_7 Note-Velocity_84 Note-On_55 Note-Duration_7 Note-Velocity_82 Note-On_45 Note-Duration_9 Note-Velocity_82 Bar-End Bar-Start Position_0 Note-On_71 Note-Duration_8 Note-Velocity_86 Note-On_67 Note-Duration_8 Note-Velocity_84 Note-On_64 Note-Duration_7 Note-Velocity_84 Note-On_52 Note-Duration_9 Note-Velocity_84 Position_8 Note-On_71 Note-Duration_7 Note-Velocity_90 Note-On_67 Note-Duration_7 Note-Velocity_90 Note-On_64 Note-Duration_7 Note-Velocity_82 Note-On_52 Note-Duration_9 Note-Velocity_84 Bar-End Bar-Start Position_0 Note-On_71 Note-Duration_7 Note-Velocity_92 Note-On_67 Note-Duration_7 Note-Velocity_94 Note-On_64 Note-Duration_7 Note-Velocity_82 Note-On_52 Note-Duration_8 Note-Velocity_86 Position_8 Note-On_71 Note-Duration_7 Note-Velocity_88 Note-On_67 Note-Duration_7 Note-Velocity_92 Note-On_64 Note-Duration_7 Note-Velocity_82 Note-On_52 Note-Duration_8 Note-Velocity_82 Bar-End Bar-Start Position_0 Note-On_71 Note-Duration_7 Note-Velocity_94 Note-On_67 Note-Duration_7 Note-Velocity_90 Note-On_64 Note-Duration_7 Note-Velocity_82 Note-On_52 Note-Duration_9 Note-Velocity_86 Position_8 Note-On_71 Note-Duration_7 Note-Velocity_94 Note-On_67 Note-Duration_7 Note-Velocity_94 Note-On_64 Note-Duration_7 Note-Velocity_86 Note-On_52 Note-Duration_9 Note-Velocity_84 Bar-End Bar-Start Position_0 Note-On_71 Note-Duration_7 Note-Velocity_84 Note-On_67 Note-Duration_7 Note-Velocity_88 Note-On_64 Note-Duration_7 Note-Velocity_84 Note-On_52 Note-Duration_8 Note-Velocity_80 Position_8 Note-On_71 Note-Duration_7 Note-Velocity_84 Note-On_67 Note-Duration_7 Note-Velocity_90 Note-On_64 Note-Duration_7 Note-Velocity_84 Note-On_52 Note-Duration_8 Note-Velocity_84 Bar-End Bar-Start Position_0 Note-On_71 Note-Duration_7 Note-Velocity_88 Note-On_67 Note-Duration_7 Note-Velocity_88 Note-On_64 Note-Duration_7 Note-Velocity_84 Note-On_52 Note-Duration_9 Note-Velocity_80 Position_8 Note-On_71 Note-Duration_6 Note-Velocity_94 Note-On_67 Note-Duration_6 Note-Velocity_92 Note-On_64 Note-Duration_6 Note-Velocity_86 Note-On_52 Note-Duration_6 Note-Velocity_86 Bar-End Bar-Start Position_0 Note-On_71 Note-Duration_7 Note-Velocity_86 Note-On_67 Note-Duration_7 Note-Velocity_84 Note-On_64 Note-Duration_7 Note-Velocity_88 Note-On_52 Note-Duration_9 Note-Velocity_86 Position_8 Note-On_71 Note-Duration_7 Note-Velocity_84 Note-On_67 Note-Duration_7 Note-Velocity_88 Note-On_64 Note-Duration_7 Note-Velocity_88 Note-On_52 Note-Duration_8 Note-Velocity_86 Bar-End Bar-Start Position_0 Note-On_64 Note-Duration_7 Note-Velocity_84 Note-On_60 Note-Duration_7 Note-Velocity_88 Note-On_57 Note-Duration_7 Note-Velocity_76 Note-On_55 Note-Duration_7 Note-Velocity_72 Note-On_45 Note-Duration_9 Note-Velocity_74 Position_8 Note-On_64 Note-Duration_7 Note-Velocity_84 Note-On_60 Note-Duration_7 Note-Velocity_88 Note-On_57 Note-Duration_7 Note-Velocity_86 Note-On_55 Note-Duration_7 Note-Velocity_80 Note-On_45 Note-Duration_9 Note-Velocity_76 Bar-End Bar-Start Position_0 Note-On_71 Note-Duration_8 Note-Velocity_92 Note-On_67 Note-Duration_7 Note-Velocity_86 Note-On_64 Note-Duration_7 Note-Velocity_88 Note-On_52 Note-Duration_9 Note-Velocity_84 Position_8 Note-On_71 Note-Duration_7 Note-Velocity_86 Note-On_67 Note-Duration_7 Note-Velocity_84 Note-On_64 Note-Duration_7 Note-Velocity_84 Position_12 Note-On_52 Note-Duration_3 Note-Velocity_84 Bar-End Bar-Start Position_0 Note-On_64 Note-Duration_9 Note-Velocity_94 Note-On_60 Note-Duration_9 Note-Velocity_86 Note-On_57 Note-Duration_9 Note-Velocity_82 Note-On_45 Note-Duration_9 Note-Velocity_84 Position_12 Note-On_64 Note-Duration_3 Note-Velocity_88 Note-On_60 Note-Duration_3 Note-Velocity_84 Note-On_57 Note-Duration_3 Note-Velocity_88 Note-On_45 Note-Duration_3 Note-Velocity_84 Bar-End Bar-Start Position_0 Note-On_71 Note-Duration_8 Note-Velocity_92 Note-On_67 Note-Duration_7 Note-Velocity_90 Note-On_64 Note-Duration_9 Note-Velocity_88 Note-On_52 Note-Duration_9 Note-Velocity_84 Position_8 Note-On_71 Note-Duration_7 Note-Velocity_94 Note-On_67 Note-Duration_7 Note-Velocity_94 Position_12 Note-On_52 Note-Duration_4 Note-Velocity_88 Bar-End Bar-Start Position_0 Note-On_69 Note-Duration_8 Note-Velocity_94 Note-On_66 Note-Duration_8 Note-Velocity_88 Note-On_62 Note-Duration_8 Note-Velocity_90 Note-On_50 Note-Duration_9 Note-Velocity_82 Position_8 Note-On_72 Note-Duration_7 Note-Velocity_92 Note-On_69 Note-Duration_7 Note-Velocity_88 Note-On_66 Note-Duration_7 Note-Velocity_86 Note-On_62 Note-Duration_7 Note-Velocity_86 Note-On_50 Note-Duration_9 Note-Velocity_80 Bar-End Bar-Start Position_0 Note-On_71 Note-Duration_7 Note-Velocity_90 Note-On_67 Note-Duration_7 Note-Velocity_86 Note-On_64 Note-Duration_7 Note-Velocity_88 Note-On_52 Note-Duration_10 Note-Velocity_84 Position_8 Note-On_71 Note-Duration_6 Note-Velocity_92 Note-On_67 Note-Duration_6 Note-Velocity_86 Note-On_64 Note-Duration_6 Note-Velocity_92 Position_12 Note-On_52 Note-Duration_3 Note-Velocity_84 Bar-End Bar-Start Position_0 Note-On_64 Note-Duration_7 Note-Velocity_84 Note-On_60 Note-Duration_7 Note-Velocity_88 Note-On_57 Note-Duration_8 Note-Velocity_76 Note-On_55 Note-Duration_8 Note-Velocity_72 Note-On_45 Note-Duration_8 Note-Velocity_72 Position_8 Note-On_64 Note-Duration_7 Note-Velocity_82 Note-On_60 Note-Duration_7 Note-Velocity_88 Note-On_57 Note-Duration_7 Note-Velocity_82 Note-On_55 Note-Duration_7 Note-Velocity_78 Note-On_45 Note-Duration_9 Note-Velocity_78 Bar-End Bar-Start Position_0 Note-On_71 Note-Duration_7 Note-Velocity_88 Note-On_67 Note-Duration_7 Note-Velocity_92 Note-On_64 Note-Duration_7 Note-Velocity_86 Note-On_52 Note-Duration_8 Note-Velocity_82 Position_8 Note-On_71 Note-Duration_7 Note-Velocity_94 Note-On_67 Note-Duration_7 Note-Velocity_90 Note-On_64 Note-Duration_7 Note-Velocity_86 Note-On_52 Note-Duration_8 Note-Velocity_82 Bar-End Bar-Start Position_0 Note-On_71 Note-Duration_7 Note-Velocity_94 Note-On_67 Note-Duration_7 Note-Velocity_86 Note-On_64 Note-Duration_7 Note-Velocity_90 Note-On_52 Note-Duration_9 Note-Velocity_78 Position_8 Note-On_71 Note-Duration_5 Note-Velocity_90 Note-On_67 Note-Duration_5 Note-Velocity_90 Note-On_64 Note-Duration_5 Note-Velocity_94 Note-On_52 Note-Duration_7 Note-Velocity_78 Bar-End Bar-Start Position_0 Note-On_64 Note-Duration_7 Note-Velocity_92 Note-On_60 Note-Duration_7 Note-Velocity_94 Note-On_57 Note-Duration_7 Note-Velocity_80 Note-On_45 Note-Duration_9 Note-Velocity_84 Position_8 Note-On_64 Note-Duration_6 Note-Velocity_88 Note-On_60 Note-Duration_6 Note-Velocity_94 Note-On_57 Note-Duration_6 Note-Velocity_92 Position_12 Note-On_45 Note-Duration_3 Note-Velocity_84 Bar-End Bar-Start Position_0 Note-On_71 Note-Duration_15 Note-Velocity_94 Note-On_67 Note-Duration_15 Note-Velocity_84 Note-On_64 Note-Duration_15 Note-Velocity_92 Note-On_52 Note-Duration_15 Note-Velocity_90 Bar-End Bar-Start Bar-End Track-End Track-Start Inst_62 Bar-Start Bar-End Bar-Start Position_0 Note-On_71 Note-Duration_4 Note-Velocity_92 Note-On_67 Note-Duration_4 Note-Velocity_94 Note-On_64 Note-Duration_4 Note-Velocity_94 Note-On_40 Note-Duration_8 Note-Velocity_88 Note-On_28 Note-Duration_4 Note-Velocity_102 Position_4 Note-On_71 Note-Duration_4 Note-Velocity_94 Note-On_67 Note-Duration_4 Note-Velocity_90 Note-On_64 Note-Duration_4 Note-Velocity_94 Note-On_40 Note-Duration_9 Note-Velocity_92 Note-On_28 Note-Duration_4 Note-Velocity_96 Position_8 Note-On_71 Note-Duration_4 Note-Velocity_88 Note-On_67 Note-Duration_4 Note-Velocity_84 Note-On_64 Note-Duration_4 Note-Velocity_94 Note-On_40 Note-Duration_8 Note-Velocity_88 Note-On_28 Note-Duration_4 Note-Velocity_96 Position_12 Note-On_71 Note-Duration_4 Note-Velocity_88 Note-On_67 Note-Duration_4 Note-Velocity_88 Note-On_64 Note-Duration_4 Note-Velocity_84 Bar-End Bar-Start Position_0 Note-On_69 Note-Duration_4 Note-Velocity_88 Note-On_64 Note-Duration_4 Note-Velocity_92 Note-On_60 Note-Duration_4 Note-Velocity_86 Note-On_45 Note-Duration_9 Note-Velocity_84 Note-On_33 Note-Duration_13 Note-Velocity_94 Position_4 Note-On_69 Note-Duration_4 Note-Velocity_94 Note-On_64 Note-Duration_4 Note-Velocity_94 Note-On_60 Note-Duration_4 Note-Velocity_90 Note-On_57 Note-Duration_5 Note-Velocity_90 Position_8 Note-On_69 Note-Duration_4 Note-Velocity_96 Note-On_64 Note-Duration_4 Note-Velocity_84 Note-On_60 Note-Duration_4 Note-Velocity_92 Note-On_55 Note-Duration_4 Note-Velocity_94 Position_12 Note-On_69 Note-Duration_4 Note-Velocity_84 Note-On_64 Note-Duration_4 Note-Velocity_92 Note-On_60 Note-Duration_4 Note-Velocity_94 Note-On_55 Note-Duration_4 Note-Velocity_94 Bar-End Bar-Start Position_0 Note-On_67 Note-Duration_4 Note-Velocity_88 Note-On_64 Note-Duration_4 Note-Velocity_92 Note-On_60 Note-Duration_4 Note-Velocity_94 Note-On_36 Note-Duration_9 Note-Velocity_96 Note-On_24 Note-Duration_8 Note-Velocity_90 Position_4 Note-On_67 Note-Duration_4 Note-Velocity_90 Note-On_64 Note-Duration_4 Note-Velocity_94 Note-On_60 Note-Duration_4 Note-Velocity_94 Position_8 Note-On_67 Note-Duration_4 Note-Velocity_92 Note-On_64 Note-Duration_4 Note-Velocity_92 Note-On_60 Note-Duration_4 Note-Velocity_92 Note-On_36 Note-Duration_8 Note-Velocity_88 Note-On_24 Note-Duration_4 Note-Velocity_92 Position_12 Note-On_67 Note-Duration_4 Note-Velocity_90 Note-On_64 Note-Duration_4 Note-Velocity_92 Note-On_60 Note-Duration_4 Note-Velocity_90 Bar-End Bar-Start Position_0 Note-On_71 Note-Duration_4 Note-Velocity_90 Note-On_67 Note-Duration_4 Note-Velocity_90 Note-On_64 Note-Duration_4 Note-Velocity_94 Note-On_40 Note-Duration_8 Note-Velocity_96 Note-On_28 Note-Duration_9 Note-Velocity_98 Position_4 Note-On_71 Note-Duration_4 Note-Velocity_90 Note-On_67 Note-Duration_4 Note-Velocity_94 Note-On_64 Note-Duration_4 Note-Velocity_92 Position_8 Note-On_71 Note-Duration_4 Note-Velocity_90 Note-On_67 Note-Duration_4 Note-Velocity_94 Note-On_64 Note-Duration_4 Note-Velocity_92 Note-On_40 Note-Duration_8 Note-Velocity_88 Note-On_28 Note-Duration_4 Note-Velocity_96 Position_12 Note-On_71 Note-Duration_4 Note-Velocity_88 Note-On_67 Note-Duration_4 Note-Velocity_94 Note-On_64 Note-Duration_4 Note-Velocity_94 Bar-End Bar-Start Position_0 Note-On_69 Note-Duration_4 Note-Velocity_90 Note-On_64 Note-Duration_4 Note-Velocity_92 Note-On_60 Note-Duration_4 Note-Velocity_88 Note-On_45 Note-Duration_9 Note-Velocity_86 Note-On_33 Note-Duration_9 Note-Velocity_94 Position_4 Note-On_69 Note-Duration_4 Note-Velocity_96 Note-On_64 Note-Duration_4 Note-Velocity_92 Note-On_60 Note-Duration_4 Note-Velocity_88 Position_8 Note-On_69 Note-Duration_4 Note-Velocity_88 Note-On_64 Note-Duration_4 Note-Velocity_92 Note-On_60 Note-Duration_4 Note-Velocity_94 Note-On_55 Note-Duration_8 Note-Velocity_84 Note-On_36 Note-Duration_9 Note-Velocity_90 Position_12 Note-On_69 Note-Duration_4 Note-Velocity_88 Note-On_64 Note-Duration_4 Note-Velocity_92 Note-On_60 Note-Duration_4 Note-Velocity_84 Bar-End Bar-Start Position_0 Note-On_71 Note-Duration_4 Note-Velocity_88 Note-On_67 Note-Duration_4 Note-Velocity_92 Note-On_64 Note-Duration_4 Note-Velocity_94 Note-On_40 Note-Duration_9 Note-Velocity_90 Note-On_28 Note-Duration_15 Note-Velocity_94 Position_4 Note-On_71 Note-Duration_4 Note-Velocity_92 Note-On_67 Note-Duration_4 Note-Velocity_90 Note-On_64 Note-Duration_4 Note-Velocity_92 Position_8 Note-On_71 Note-Duration_4 Note-Velocity_90 Note-On_67 Note-Duration_4 Note-Velocity_90 Note-On_64 Note-Duration_4 Note-Velocity_90 Position_12 Note-On_71 Note-Duration_4 Note-Velocity_92 Note-On_67 Note-Duration_4 Note-Velocity_88 Note-On_64 Note-Duration_4 Note-Velocity_94 Note-On_59 Note-Duration_4 Note-Velocity_90 Bar-End Bar-Start Position_0 Note-On_71 Note-Duration_4 Note-Velocity_94 Note-On_69 Note-Duration_4 Note-Velocity_94 Note-On_65 Note-Duration_4 Note-Velocity_94 Note-On_41 Note-Duration_12 Note-Velocity_94 Note-On_29 Note-Duration_15 Note-Velocity_94 Position_4 Note-On_71 Note-Duration_4 Note-Velocity_94 Note-On_69 Note-Duration_4 Note-Velocity_94 Note-On_65 Note-Duration_4 Note-Velocity_92 Position_8 Note-On_71 Note-Duration_4 Note-Velocity_92 Note-On_69 Note-Duration_4 Note-Velocity_92 Note-On_65 Note-Duration_4 Note-Velocity_96 Position_12 Note-On_71 Note-Duration_4 Note-Velocity_92 Note-On_69 Note-Duration_4 Note-Velocity_92 Note-On_65 Note-Duration_4 Note-Velocity_84 Bar-End Bar-Start Position_0 Note-On_72 Note-Duration_4 Note-Velocity_88 Note-On_69 Note-Duration_4 Note-Velocity_92 Note-On_66 Note-Duration_4 Note-Velocity_92 Note-On_38 Note-Duration_8 Note-Velocity_92 Note-On_26 Note-Duration_8 Note-Velocity_94 Position_4 Note-On_72 Note-Duration_4 Note-Velocity_94 Note-On_69 Note-Duration_4 Note-Velocity_92 Note-On_66 Note-Duration_4 Note-Velocity_84 Position_8 Note-On_72 Note-Duration_4 Note-Velocity_90 Note-On_69 Note-Duration_4 Note-Velocity_90 Note-On_66 Note-Duration_4 Note-Velocity_86 Note-On_38 Note-Duration_7 Note-Velocity_90 Note-On_26 Note-Duration_7 Note-Velocity_94 Position_12 Note-On_72 Note-Duration_4 Note-Velocity_96 Note-On_69 Note-Duration_4 Note-Velocity_92 Note-On_66 Note-Duration_4 Note-Velocity_90 Bar-End Bar-Start Position_0 Note-On_71 Note-Duration_4 Note-Velocity_92 Note-On_67 Note-Duration_4 Note-Velocity_94 Note-On_64 Note-Duration_4 Note-Velocity_92 Note-On_40 Note-Duration_9 Note-Velocity_90 Note-On_28 Note-Duration_9 Note-Velocity_86 Position_4 Note-On_71 Note-Duration_4 Note-Velocity_96 Note-On_67 Note-Duration_4 Note-Velocity_90 Note-On_64 Note-Duration_4 Note-Velocity_84 Position_8 Note-On_71 Note-Duration_4 Note-Velocity_94 Note-On_67 Note-Duration_4 Note-Velocity_92 Note-On_64 Note-Duration_4 Note-Velocity_92 Note-On_38 Note-Duration_8 Note-Velocity_90 Note-On_26 Note-Duration_8 Note-Velocity_90 Position_12 Note-On_71 Note-Duration_4 Note-Velocity_96 Note-On_67 Note-Duration_4 Note-Velocity_92 Note-On_64 Note-Duration_4 Note-Velocity_86 Bar-End Bar-Start Position_0 Note-On_71 Note-Duration_4 Note-Velocity_92 Note-On_67 Note-Duration_4 Note-Velocity_94 Note-On_64 Note-Duration_4 Note-Velocity_90 Note-On_40 Note-Duration_8 Note-Velocity_88 Note-On_28 Note-Duration_8 Note-Velocity_96 Position_4 Note-On_71 Note-Duration_4 Note-Velocity_90 Note-On_67 Note-Duration_4 Note-Velocity_92 Note-On_64 Note-Duration_4 Note-Velocity_86 Position_8 Note-On_71 Note-Duration_4 Note-Velocity_94 Note-On_67 Note-Duration_4 Note-Velocity_94 Note-On_64 Note-Duration_4 Note-Velocity_90 Note-On_40 Note-Duration_4 Note-Velocity_88 Note-On_28 Note-Duration_4 Note-Velocity_94 Position_12 Note-On_71 Note-Duration_4 Note-Velocity_92 Note-On_67 Note-Duration_4 Note-Velocity_92 Note-On_64 Note-Duration_4 Note-Velocity_94 Note-On_43 Note-Duration_4 Note-Velocity_94 Note-On_31 Note-Duration_4 Note-Velocity_94 Bar-End Bar-Start Position_0 Note-On_72 Note-Duration_4 Note-Velocity_88 Note-On_69 Note-Duration_4 Note-Velocity_94 Note-On_67 Note-Duration_4 Note-Velocity_94 Note-On_64 Note-Duration_4 Note-Velocity_84 Note-On_45 Note-Duration_8 Note-Velocity_94 Note-On_33 Note-Duration_8 Note-Velocity_94 Position_4 Note-On_72 Note-Duration_4 Note-Velocity_92 Note-On_69 Note-Duration_4 Note-Velocity_90 Note-On_67 Note-Duration_4 Note-Velocity_92 Note-On_64 Note-Duration_4 Note-Velocity_84 Position_8 Note-On_72 Note-Duration_4 Note-Velocity_86 Note-On_69 Note-Duration_4 Note-Velocity_92 Note-On_66 Note-Duration_4 Note-Velocity_94 Note-On_38 Note-Duration_8 Note-Velocity_90 Note-On_26 Note-Duration_8 Note-Velocity_90 Position_12 Note-On_72 Note-Duration_4 Note-Velocity_88 Note-On_69 Note-Duration_4 Note-Velocity_88 Note-On_66 Note-Duration_4 Note-Velocity_86 Bar-End Bar-Start Position_0 Note-On_71 Note-Duration_4 Note-Velocity_86 Note-On_69 Note-Duration_4 Note-Velocity_92 Note-On_66 Note-Duration_4 Note-Velocity_84 Note-On_62 Note-Duration_4 Note-Velocity_88 Note-On_47 Note-Duration_8 Note-Velocity_88 Note-On_35 Note-Duration_8 Note-Velocity_90 Position_4 Note-On_71 Note-Duration_4 Note-Velocity_92 Note-On_69 Note-Duration_4 Note-Velocity_94 Note-On_66 Note-Duration_4 Note-Velocity_86 Note-On_62 Note-Duration_4 Note-Velocity_88 Position_8 Note-On_71 Note-Duration_4 Note-Velocity_94 Note-On_69 Note-Duration_4 Note-Velocity_88 Note-On_66 Note-Duration_4 Note-Velocity_86 Note-On_62 Note-Duration_4 Note-Velocity_84 Note-On_45 Note-Duration_4 Note-Velocity_92 Note-On_33 Note-Duration_8 Note-Velocity_94 Position_12 Note-On_71 Note-Duration_4 Note-Velocity_94 Note-On_69 Note-Duration_4 Note-Velocity_94 Note-On_66 Note-Duration_4 Note-Velocity_88 Note-On_62 Note-Duration_4 Note-Velocity_84 Bar-End Bar-Start Position_0 Note-On_72 Note-Duration_4 Note-Velocity_88 Note-On_69 Note-Duration_4 Note-Velocity_94 Note-On_66 Note-Duration_4 Note-Velocity_92 Note-On_38 Note-Duration_9 Note-Velocity_94 Note-On_26 Note-Duration_8 Note-Velocity_94 Position_4 Note-On_72 Note-Duration_4 Note-Velocity_94 Note-On_69 Note-Duration_4 Note-Velocity_86 Note-On_66 Note-Duration_4 Note-Velocity_86 Position_8 Note-On_72 Note-Duration_4 Note-Velocity_92 Note-On_69 Note-Duration_4 Note-Velocity_88 Note-On_66 Note-Duration_4 Note-Velocity_88 Note-On_38 Note-Duration_8 Note-Velocity_92 Note-On_26 Note-Duration_8 Note-Velocity_88 Position_12 Note-On_72 Note-Duration_4 Note-Velocity_94 Note-On_69 Note-Duration_4 Note-Velocity_88 Note-On_66 Note-Duration_4 Note-Velocity_90 Bar-End Bar-Start Position_0 Note-On_71 Note-Duration_4 Note-Velocity_84 Note-On_67 Note-Duration_4 Note-Velocity_90 Note-On_64 Note-Duration_4 Note-Velocity_90 Note-On_40 Note-Duration_9 Note-Velocity_88 Note-On_28 Note-Duration_9 Note-Velocity_88 Position_4 Note-On_71 Note-Duration_4 Note-Velocity_92 Note-On_67 Note-Duration_4 Note-Velocity_94 Note-On_64 Note-Duration_4 Note-Velocity_84 Position_8 Note-On_71 Note-Duration_4 Note-Velocity_88 Note-On_67 Note-Duration_4 Note-Velocity_90 Note-On_64 Note-Duration_4 Note-Velocity_84 Position_12 Note-On_71 Note-Duration_4 Note-Velocity_90 Note-On_67 Note-Duration_4 Note-Velocity_90 Note-On_64 Note-Duration_4 Note-Velocity_84 Note-On_40 Note-Duration_3 Note-Velocity_88 Note-On_28 Note-Duration_4 Note-Velocity_86 Bar-End Bar-Start Position_0 Note-On_71 Note-Duration_4 Note-Velocity_86 Note-On_69 Note-Duration_4 Note-Velocity_88 Note-On_65 Note-Duration_4 Note-Velocity_90 Note-On_41 Note-Duration_9 Note-Velocity_88 Note-On_29 Note-Duration_9 Note-Velocity_94 Position_4 Note-On_71 Note-Duration_4 Note-Velocity_88 Note-On_69 Note-Duration_4 Note-Velocity_92 Note-On_65 Note-Duration_4 Note-Velocity_90 Position_8 Note-On_71 Note-Duration_4 Note-Velocity_84 Note-On_69 Note-Duration_4 Note-Velocity_84 Note-On_65 Note-Duration_4 Note-Velocity_84 Note-On_41 Note-Duration_8 Note-Velocity_94 Note-On_29 Note-Duration_8 Note-Velocity_88 Position_12 Note-On_71 Note-Duration_4 Note-Velocity_88 Note-On_69 Note-Duration_4 Note-Velocity_88 Note-On_65 Note-Duration_4 Note-Velocity_84 Bar-End Bar-Start Position_0 Note-On_72 Note-Duration_4 Note-Velocity_94 Note-On_69 Note-Duration_4 Note-Velocity_90 Note-On_66 Note-Duration_4 Note-Velocity_84 Note-On_38 Note-Duration_8 Note-Velocity_84 Note-On_26 Note-Duration_9 Note-Velocity_94 Position_4 Note-On_72 Note-Duration_4 Note-Velocity_92 Note-On_69 Note-Duration_4 Note-Velocity_92 Note-On_66 Note-Duration_4 Note-Velocity_86 Position_8 Note-On_72 Note-Duration_4 Note-Velocity_88 Note-On_69 Note-Duration_4 Note-Velocity_92 Note-On_66 Note-Duration_4 Note-Velocity_84 Note-On_38 Note-Duration_7 Note-Velocity_92 Note-On_26 Note-Duration_7 Note-Velocity_88 Position_12 Note-On_72 Note-Duration_4 Note-Velocity_90 Note-On_69 Note-Duration_4 Note-Velocity_90 Note-On_66 Note-Duration_4 Note-Velocity_90 Bar-End Bar-Start Position_0 Note-On_71 Note-Duration_4 Note-Velocity_86 Note-On_69 Note-Duration_4 Note-Velocity_94 Note-On_66 Note-Duration_4 Note-Velocity_84 Note-On_62 Note-Duration_4 Note-Velocity_88 Note-On_47 Note-Duration_9 Note-Velocity_84 Note-On_35 Note-Duration_9 Note-Velocity_88 Position_4 Note-On_71 Note-Duration_4 Note-Velocity_94 Note-On_69 Note-Duration_4 Note-Velocity_94 Note-On_66 Note-Duration_4 Note-Velocity_84 Note-On_62 Note-Duration_4 Note-Velocity_86 Position_8 Note-On_71 Note-Duration_4 Note-Velocity_94 Note-On_69 Note-Duration_4 Note-Velocity_94 Note-On_66 Note-Duration_4 Note-Velocity_88 Note-On_62 Note-Duration_4 Note-Velocity_86 Note-On_35 Note-Duration_8 Note-Velocity_88 Position_12 Note-On_71 Note-Duration_4 Note-Velocity_90 Note-On_69 Note-Duration_4 Note-Velocity_92 Note-On_66 Note-Duration_4 Note-Velocity_88 Note-On_62 Note-Duration_4 Note-Velocity_86 Bar-End Bar-Start Position_0 Note-On_71 Note-Duration_4 Note-Velocity_94 Note-On_69 Note-Duration_4 Note-Velocity_94 Note-On_66 Note-Duration_4 Note-Velocity_94 Note-On_62 Note-Duration_4 Note-Velocity_92 Note-On_45 Note-Duration_9 Note-Velocity_92 Note-On_33 Note-Duration_9 Note-Velocity_86 Position_4 Note-On_71 Note-Duration_4 Note-Velocity_88 Note-On_69 Note-Duration_4 Note-Velocity_88 Note-On_66 Note-Duration_4 Note-Velocity_88 Note-On_62 Note-Duration_4 Note-Velocity_86 Position_8 Note-On_71 Note-Duration_4 Note-Velocity_88 Note-On_69 Note-Duration_4 Note-Velocity_92 Note-On_66 Note-Duration_4 Note-Velocity_86 Note-On_62 Note-Duration_4 Note-Velocity_88 Note-On_35 Note-Duration_4 Note-Velocity_94 Position_12 Note-On_71 Note-Duration_4 Note-Velocity_88 Note-On_69 Note-Duration_4 Note-Velocity_88 Note-On_66 Note-Duration_4 Note-Velocity_86 Note-On_62 Note-Duration_4 Note-Velocity_86 Note-On_47 Note-Duration_4 Note-Velocity_94 Note-On_35 Note-Duration_4 Note-Velocity_86 Bar-End Bar-Start Position_0 Note-On_71 Note-Duration_4 Note-Velocity_94 Note-On_69 Note-Duration_4 Note-Velocity_94 Note-On_66 Note-Duration_4 Note-Velocity_88 Note-On_62 Note-Duration_4 Note-Velocity_88 Note-On_47 Note-Duration_9 Note-Velocity_94 Note-On_35 Note-Duration_9 Note-Velocity_90 Position_4 Note-On_71 Note-Duration_4 Note-Velocity_94 Note-On_69 Note-Duration_4 Note-Velocity_86 Note-On_66 Note-Duration_4 Note-Velocity_86 Note-On_62 Note-Duration_4 Note-Velocity_84 Position_8 Note-On_71 Note-Duration_4 Note-Velocity_92 Note-On_69 Note-Duration_4 Note-Velocity_92 Note-On_66 Note-Duration_4 Note-Velocity_92 Note-On_62 Note-Duration_4 Note-Velocity_88 Note-On_35 Note-Duration_9 Note-Velocity_88 Position_12 Note-On_71 Note-Duration_4 Note-Velocity_88 Note-On_69 Note-Duration_4 Note-Velocity_90 Note-On_66 Note-Duration_4 Note-Velocity_86 Note-On_62 Note-Duration_4 Note-Velocity_88 Bar-End Bar-Start Position_0 Note-On_72 Note-Duration_4 Note-Velocity_88 Note-On_69 Note-Duration_4 Note-Velocity_94 Note-On_66 Note-Duration_4 Note-Velocity_86 Note-On_38 Note-Duration_9 Note-Velocity_92 Note-On_26 Note-Duration_9 Note-Velocity_88 Position_4 Note-On_72 Note-Duration_4 Note-Velocity_92 Note-On_69 Note-Duration_4 Note-Velocity_92 Note-On_66 Note-Duration_4 Note-Velocity_94 Position_8 Note-On_72 Note-Duration_4 Note-Velocity_94 Note-On_69 Note-Duration_4 Note-Velocity_94 Note-On_66 Note-Duration_4 Note-Velocity_94 Note-On_38 Note-Duration_8 Note-Velocity_90 Note-On_26 Note-Duration_8 Note-Velocity_92 Position_12 Note-On_72 Note-Duration_4 Note-Velocity_96 Note-On_69 Note-Duration_4 Note-Velocity_92 Note-On_66 Note-Duration_4 Note-Velocity_92 Bar-End Bar-Start Position_0 Note-On_71 Note-Duration_4 Note-Velocity_94 Note-On_67 Note-Duration_4 Note-Velocity_88 Note-On_64 Note-Duration_4 Note-Velocity_90 Note-On_40 Note-Duration_9 Note-Velocity_88 Note-On_28 Note-Duration_9 Note-Velocity_92 Position_4 Note-On_71 Note-Duration_4 Note-Velocity_94 Note-On_67 Note-Duration_4 Note-Velocity_92 Note-On_64 Note-Duration_4 Note-Velocity_92 Position_8 Note-On_71 Note-Duration_4 Note-Velocity_94 Note-On_67 Note-Duration_4 Note-Velocity_94 Note-On_64 Note-Duration_4 Note-Velocity_94 Note-On_47 Note-Duration_8 Note-Velocity_94 Note-On_35 Note-Duration_8 Note-Velocity_94 Position_12 Note-On_71 Note-Duration_4 Note-Velocity_96 Note-On_67 Note-Duration_4 Note-Velocity_94 Note-On_64 Note-Duration_4 Note-Velocity_84 Bar-End Bar-Start Position_0 Note-On_71 Note-Duration_4 Note-Velocity_94 Note-On_67 Note-Duration_4 Note-Velocity_94 Note-On_64 Note-Duration_4 Note-Velocity_94 Note-On_40 Note-Duration_9 Note-Velocity_84 Note-On_28 Note-Duration_9 Note-Velocity_86 Position_4 Note-On_71 Note-Duration_4 Note-Velocity_94 Note-On_67 Note-Duration_4 Note-Velocity_88 Note-On_64 Note-Duration_4 Note-Velocity_88 Position_8 Note-On_71 Note-Duration_4 Note-Velocity_92 Note-On_67 Note-Duration_4 Note-Velocity_92 Note-On_64 Note-Duration_4 Note-Velocity_92 Note-On_52 Note-Duration_4 Note-Velocity_88 Note-On_40 Note-Duration_4 Note-Velocity_88 Position_12 Note-On_71 Note-Duration_4 Note-Velocity_94 Note-On_67 Note-Duration_4 Note-Velocity_92 Note-On_64 Note-Duration_4 Note-Velocity_88 Note-On_43 Note-Duration_4 Note-Velocity_94 Note-On_31 Note-Duration_4 Note-Velocity_90 Bar-End Bar-Start Position_0 Note-On_72 Note-Duration_4 Note-Velocity_92 Note-On_69 Note-Duration_4 Note-Velocity_94 Note-On_67 Note-Duration_4 Note-Velocity_88 Note-On_64 Note-Duration_4 Note-Velocity_88 Note-On_45 Note-Duration_8 Note-Velocity_86 Note-On_33 Note-Duration_8 Note-Velocity_84 Position_4 Note-On_72 Note-Duration_4 Note-Velocity_88 Note-On_69 Note-Duration_4 Note-Velocity_88 Note-On_67 Note-Duration_4 Note-Velocity_86 Note-On_64 Note-Duration_4 Note-Velocity_84 Position_8 Note-On_72 Note-Duration_4 Note-Velocity_86 Note-On_69 Note-Duration_4 Note-Velocity_90 Note-On_67 Note-Duration_4 Note-Velocity_84 Note-On_64 Note-Duration_4 Note-Velocity_86 Note-On_45 Note-Duration_8 Note-Velocity_86 Note-On_33 Note-Duration_8 Note-Velocity_88 Position_12 Note-On_72 Note-Duration_4 Note-Velocity_88 Note-On_69 Note-Duration_4 Note-Velocity_88 Note-On_67 Note-Duration_4 Note-Velocity_86 Note-On_64 Note-Duration_4 Note-Velocity_86 Bar-End Bar-Start Position_0 Note-On_72 Note-Duration_4 Note-Velocity_92 Note-On_69 Note-Duration_4 Note-Velocity_94 Note-On_67 Note-Duration_4 Note-Velocity_94 Note-On_64 Note-Duration_4 Note-Velocity_88 Note-On_45 Note-Duration_8 Note-Velocity_86 Note-On_33 Note-Duration_9 Note-Velocity_88 Position_4 Note-On_72 Note-Duration_4 Note-Velocity_86 Note-On_69 Note-Duration_4 Note-Velocity_84 Note-On_67 Note-Duration_4 Note-Velocity_86 Note-On_64 Note-Duration_4 Note-Velocity_84 Position_8 Note-On_72 Note-Duration_4 Note-Velocity_86 Note-On_69 Note-Duration_4 Note-Velocity_92 Note-On_67 Note-Duration_4 Note-Velocity_84 Note-On_64 Note-Duration_4 Note-Velocity_90 Note-On_45 Note-Duration_8 Note-Velocity_92 Note-On_33 Note-Duration_8 Note-Velocity_88 Position_12 Note-On_72 Note-Duration_4 Note-Velocity_88 Note-On_69 Note-Duration_4 Note-Velocity_86 Note-On_67 Note-Duration_4 Note-Velocity_90 Note-On_64 Note-Duration_4 Note-Velocity_84 Bar-End Bar-Start Position_0 Note-On_74 Note-Duration_4 Note-Velocity_90 Note-On_71 Note-Duration_4 Note-Velocity_92 Note-On_69 Note-Duration_4 Note-Velocity_94 Note-On_66 Note-Duration_4 Note-Velocity_86 Note-On_43 Note-Duration_9 Note-Velocity_88 Note-On_31 Note-Duration_9 Note-Velocity_90 Position_4 Note-On_74 Note-Duration_4 Note-Velocity_92 Note-On_71 Note-Duration_4 Note-Velocity_92 Note-On_69 Note-Duration_4 Note-Velocity_84 Note-On_66 Note-Duration_4 Note-Velocity_84 Position_8 Note-On_74 Note-Duration_4 Note-Velocity_94 Note-On_71 Note-Duration_4 Note-Velocity_94 Note-On_69 Note-Duration_4 Note-Velocity_90 Note-On_66 Note-Duration_4 Note-Velocity_86 Note-On_43 Note-Duration_9 Note-Velocity_84 Note-On_31 Note-Duration_9 Note-Velocity_86 Position_12 Note-On_74 Note-Duration_4 Note-Velocity_92 Note-On_71 Note-Duration_4 Note-Velocity_94 Note-On_69 Note-Duration_4 Note-Velocity_84 Note-On_66 Note-Duration_4 Note-Velocity_84 Bar-End Bar-Start Position_0 Note-On_74 Note-Duration_4 Note-Velocity_94 Note-On_71 Note-Duration_4 Note-Velocity_88 Note-On_69 Note-Duration_4 Note-Velocity_84 Note-On_66 Note-Duration_4 Note-Velocity_88 Note-On_43 Note-Duration_9 Note-Velocity_86 Note-On_31 Note-Duration_9 Note-Velocity_84 Position_4 Note-On_74 Note-Duration_4 Note-Velocity_94 Note-On_71 Note-Duration_4 Note-Velocity_94 Note-On_69 Note-Duration_4 Note-Velocity_94 Note-On_66 Note-Duration_4 Note-Velocity_86 Position_8 Note-On_74 Note-Duration_4 Note-Velocity_88 Note-On_71 Note-Duration_4 Note-Velocity_88 Note-On_69 Note-Duration_4 Note-Velocity_84 Note-On_66 Note-Duration_4 Note-Velocity_84 Note-On_43 Note-Duration_7 Note-Velocity_92 Note-On_31 Note-Duration_7 Note-Velocity_86 Position_12 Note-On_74 Note-Duration_4 Note-Velocity_92 Note-On_71 Note-Duration_4 Note-Velocity_94 Note-On_69 Note-Duration_4 Note-Velocity_92 Note-On_66 Note-Duration_4 Note-Velocity_84 Bar-End Bar-Start Position_0 Note-On_72 Note-Duration_4 Note-Velocity_86 Note-On_71 Note-Duration_4 Note-Velocity_84 Note-On_67 Note-Duration_4 Note-Velocity_84 Note-On_64 Note-Duration_4 Note-Velocity_88 Note-On_48 Note-Duration_7 Note-Velocity_84 Note-On_36 Note-Duration_7 Note-Velocity_94 Position_4 Note-On_72 Note-Duration_4 Note-Velocity_94 Note-On_71 Note-Duration_4 Note-Velocity_92 Note-On_67 Note-Duration_4 Note-Velocity_84 Note-On_64 Note-Duration_4 Note-Velocity_88 Position_8 Note-On_72 Note-Duration_4 Note-Velocity_94 Note-On_71 Note-Duration_4 Note-Velocity_94 Note-On_67 Note-Duration_4 Note-Velocity_88 Note-On_64 Note-Duration_4 Note-Velocity_88 Note-On_48 Note-Duration_7 Note-Velocity_88 Note-On_36 Note-Duration_7 Note-Velocity_94 Position_12 Note-On_72 Note-Duration_4 Note-Velocity_88 Note-On_71 Note-Duration_4 Note-Velocity_94 Note-On_67 Note-Duration_4 Note-Velocity_88 Note-On_64 Note-Duration_4 Note-Velocity_84 Bar-End Bar-Start Position_0 Note-On_72 Note-Duration_4 Note-Velocity_84 Note-On_69 Note-Duration_4 Note-Velocity_92 Note-On_67 Note-Duration_4 Note-Velocity_86 Note-On_64 Note-Duration_4 Note-Velocity_86 Note-On_45 Note-Duration_9 Note-Velocity_88 Note-On_33 Note-Duration_9 Note-Velocity_84 Position_4 Note-On_72 Note-Duration_4 Note-Velocity_86 Note-On_69 Note-Duration_4 Note-Velocity_84 Note-On_67 Note-Duration_4 Note-Velocity_86 Note-On_64 Note-Duration_4 Note-Velocity_84 Position_8 Note-On_72 Note-Duration_4 Note-Velocity_86 Note-On_69 Note-Duration_4 Note-Velocity_94 Note-On_67 Note-Duration_4 Note-Velocity_84 Note-On_64 Note-Duration_4 Note-Velocity_86 Note-On_45 Note-Duration_9 Note-Velocity_88 Note-On_33 Note-Duration_8 Note-Velocity_86 Position_12 Note-On_72 Note-Duration_4 Note-Velocity_86 Note-On_69 Note-Duration_4 Note-Velocity_94 Note-On_67 Note-Duration_4 Note-Velocity_86 Note-On_64 Note-Duration_4 Note-Velocity_86 Bar-End Bar-Start Position_0 Note-On_72 Note-Duration_4 Note-Velocity_90 Note-On_69 Note-Duration_4 Note-Velocity_92 Note-On_67 Note-Duration_4 Note-Velocity_92 Note-On_64 Note-Duration_4 Note-Velocity_88 Note-On_45 Note-Duration_8 Note-Velocity_86 Note-On_33 Note-Duration_8 Note-Velocity_90 Position_4 Note-On_72 Note-Duration_4 Note-Velocity_88 Note-On_69 Note-Duration_4 Note-Velocity_84 Note-On_67 Note-Duration_4 Note-Velocity_86 Note-On_64 Note-Duration_4 Note-Velocity_84 Position_8 Note-On_72 Note-Duration_4 Note-Velocity_84 Note-On_69 Note-Duration_4 Note-Velocity_86 Note-On_67 Note-Duration_4 Note-Velocity_86 Note-On_64 Note-Duration_4 Note-Velocity_84 Note-On_45 Note-Duration_7 Note-Velocity_88 Note-On_33 Note-Duration_7 Note-Velocity_86 Position_12 Note-On_72 Note-Duration_4 Note-Velocity_90 Note-On_69 Note-Duration_4 Note-Velocity_88 Note-On_67 Note-Duration_4 Note-Velocity_86 Note-On_64 Note-Duration_4 Note-Velocity_84 Bar-End Bar-Start Position_0 Note-On_72 Note-Duration_4 Note-Velocity_86 Note-On_69 Note-Duration_4 Note-Velocity_94 Note-On_67 Note-Duration_4 Note-Velocity_88 Note-On_64 Note-Duration_4 Note-Velocity_86 Note-On_45 Note-Duration_8 Note-Velocity_86 Note-On_33 Note-Duration_8 Note-Velocity_84 Position_4 Note-On_72 Note-Duration_4 Note-Velocity_94 Note-On_69 Note-Duration_4 Note-Velocity_86 Note-On_67 Note-Duration_4 Note-Velocity_90 Note-On_64 Note-Duration_4 Note-Velocity_86 Position_8 Note-On_72 Note-Duration_4 Note-Velocity_88 Note-On_69 Note-Duration_4 Note-Velocity_86 Note-On_67 Note-Duration_4 Note-Velocity_88 Note-On_64 Note-Duration_4 Note-Velocity_84 Note-On_45 Note-Duration_9 Note-Velocity_88 Note-On_33 Note-Duration_9 Note-Velocity_84 Position_12 Note-On_72 Note-Duration_4 Note-Velocity_86 Note-On_69 Note-Duration_4 Note-Velocity_84 Note-On_67 Note-Duration_4 Note-Velocity_86 Note-On_64 Note-Duration_4 Note-Velocity_88 Bar-End Bar-Start Position_0 Note-On_72 Note-Duration_4 Note-Velocity_92 Note-On_69 Note-Duration_4 Note-Velocity_94 Note-On_67 Note-Duration_4 Note-Velocity_86 Note-On_64 Note-Duration_4 Note-Velocity_86 Note-On_45 Note-Duration_8 Note-Velocity_88 Note-On_33 Note-Duration_8 Note-Velocity_84 Position_4 Note-On_72 Note-Duration_4 Note-Velocity_94 Note-On_69 Note-Duration_4 Note-Velocity_90 Note-On_67 Note-Duration_4 Note-Velocity_84 Note-On_64 Note-Duration_4 Note-Velocity_84 Position_8 Note-On_72 Note-Duration_4 Note-Velocity_84 Note-On_69 Note-Duration_4 Note-Velocity_88 Note-On_67 Note-Duration_4 Note-Velocity_86 Note-On_64 Note-Duration_4 Note-Velocity_86 Note-On_45 Note-Duration_7 Note-Velocity_94 Note-On_33 Note-Duration_7 Note-Velocity_88 Position_12 Note-On_72 Note-Duration_4 Note-Velocity_90 Note-On_69 Note-Duration_4 Note-Velocity_88 Note-On_67 Note-Duration_4 Note-Velocity_86 Note-On_64 Note-Duration_4 Note-Velocity_84 Bar-End Bar-Start Position_0 Note-On_74 Note-Duration_4 Note-Velocity_88 Note-On_71 Note-Duration_4 Note-Velocity_90 Note-On_69 Note-Duration_4 Note-Velocity_84 Note-On_66 Note-Duration_4 Note-Velocity_86 Note-On_43 Note-Duration_9 Note-Velocity_84 Note-On_31 Note-Duration_9 Note-Velocity_86 Position_4 Note-On_74 Note-Duration_4 Note-Velocity_88 Note-On_71 Note-Duration_4 Note-Velocity_84 Note-On_69 Note-Duration_4 Note-Velocity_84 Note-On_66 Note-Duration_4 Note-Velocity_86 Position_8 Note-On_74 Note-Duration_4 Note-Velocity_88 Note-On_71 Note-Duration_4 Note-Velocity_86 Note-On_69 Note-Duration_4 Note-Velocity_86 Note-On_66 Note-Duration_4 Note-Velocity_84 Note-On_43 Note-Duration_8 Note-Velocity_90 Note-On_31 Note-Duration_8 Note-Velocity_86 Position_12 Note-On_74 Note-Duration_4 Note-Velocity_90 Note-On_71 Note-Duration_4 Note-Velocity_84 Note-On_69 Note-Duration_4 Note-Velocity_84 Note-On_66 Note-Duration_4 Note-Velocity_88 Bar-End Bar-Start Position_0 Note-On_74 Note-Duration_4 Note-Velocity_90 Note-On_71 Note-Duration_4 Note-Velocity_86 Note-On_69 Note-Duration_4 Note-Velocity_88 Note-On_66 Note-Duration_4 Note-Velocity_84 Note-On_43 Note-Duration_9 Note-Velocity_84 Note-On_31 Note-Duration_9 Note-Velocity_86 Position_4 Note-On_74 Note-Duration_4 Note-Velocity_86 Note-On_71 Note-Duration_4 Note-Velocity_84 Note-On_69 Note-Duration_4 Note-Velocity_86 Note-On_66 Note-Duration_4 Note-Velocity_84 Position_8 Note-On_74 Note-Duration_4 Note-Velocity_86 Note-On_71 Note-Duration_4 Note-Velocity_86 Note-On_69 Note-Duration_4 Note-Velocity_86 Note-On_66 Note-Duration_4 Note-Velocity_84 Note-On_43 Note-Duration_8 Note-Velocity_86 Note-On_31 Note-Duration_8 Note-Velocity_86 Position_12 Note-On_74 Note-Duration_4 Note-Velocity_86 Note-On_71 Note-Duration_4 Note-Velocity_84 Note-On_69 Note-Duration_4 Note-Velocity_86 Note-On_66 Note-Duration_4 Note-Velocity_88 Bar-End Bar-Start Position_0 Note-On_72 Note-Duration_4 Note-Velocity_94 Note-On_71 Note-Duration_4 Note-Velocity_90 Note-On_69 Note-Duration_4 Note-Velocity_88 Note-On_66 Note-Duration_4 Note-Velocity_86 Note-On_50 Note-Duration_7 Note-Velocity_88 Note-On_38 Note-Duration_7 Note-Velocity_86 Position_4 Note-On_72 Note-Duration_4 Note-Velocity_86 Note-On_71 Note-Duration_4 Note-Velocity_88 Note-On_69 Note-Duration_4 Note-Velocity_86 Note-On_66 Note-Duration_4 Note-Velocity_84 Position_8 Note-On_72 Note-Duration_4 Note-Velocity_88 Note-On_71 Note-Duration_4 Note-Velocity_90 Note-On_69 Note-Duration_4 Note-Velocity_86 Note-On_66 Note-Duration_4 Note-Velocity_86 Note-On_50 Note-Duration_8 Note-Velocity_86 Note-On_38 Note-Duration_8 Note-Velocity_90 Position_12 Note-On_72 Note-Duration_4 Note-Velocity_86 Note-On_71 Note-Duration_4 Note-Velocity_90 Note-On_69 Note-Duration_4 Note-Velocity_84 Note-On_66 Note-Duration_4 Note-Velocity_84 Bar-End Bar-Start Position_0 Note-On_72 Note-Duration_4 Note-Velocity_84 Note-On_71 Note-Duration_4 Note-Velocity_84 Note-On_69 Note-Duration_4 Note-Velocity_86 Note-On_66 Note-Duration_4 Note-Velocity_84 Note-On_50 Note-Duration_8 Note-Velocity_88 Note-On_38 Note-Duration_8 Note-Velocity_94 Position_4 Note-On_72 Note-Duration_4 Note-Velocity_88 Note-On_71 Note-Duration_4 Note-Velocity_90 Note-On_69 Note-Duration_4 Note-Velocity_88 Note-On_66 Note-Duration_4 Note-Velocity_84 Position_8 Note-On_72 Note-Duration_4 Note-Velocity_88 Note-On_71 Note-Duration_4 Note-Velocity_90 Note-On_69 Note-Duration_4 Note-Velocity_88 Note-On_66 Note-Duration_4 Note-Velocity_84 Note-On_50 Note-Duration_8 Note-Velocity_86 Note-On_38 Note-Duration_8 Note-Velocity_86 Position_12 Note-On_72 Note-Duration_4 Note-Velocity_84 Note-On_71 Note-Duration_4 Note-Velocity_90 Note-On_69 Note-Duration_4 Note-Velocity_88 Note-On_66 Note-Duration_4 Note-Velocity_84 Bar-End Bar-Start Position_0 Note-On_72 Note-Duration_4 Note-Velocity_84 Note-On_69 Note-Duration_4 Note-Velocity_90 Note-On_66 Note-Duration_4 Note-Velocity_86 Note-On_62 Note-Duration_4 Note-Velocity_94 Note-On_47 Note-Duration_9 Note-Velocity_88 Note-On_35 Note-Duration_9 Note-Velocity_92 Position_4 Note-On_72 Note-Duration_4 Note-Velocity_84 Note-On_69 Note-Duration_4 Note-Velocity_84 Note-On_66 Note-Duration_4 Note-Velocity_86 Note-On_62 Note-Duration_4 Note-Velocity_84 Position_8 Note-On_72 Note-Duration_4 Note-Velocity_88 Note-On_69 Note-Duration_4 Note-Velocity_86 Note-On_66 Note-Duration_4 Note-Velocity_88 Note-On_62 Note-Duration_4 Note-Velocity_88 Note-On_47 Note-Duration_9 Note-Velocity_84 Note-On_35 Note-Duration_9 Note-Velocity_92 Position_12 Note-On_72 Note-Duration_4 Note-Velocity_84 Note-On_69 Note-Duration_4 Note-Velocity_84 Note-On_66 Note-Duration_4 Note-Velocity_84 Note-On_62 Note-Duration_4 Note-Velocity_92 Bar-End Bar-Start Position_0 Note-On_72 Note-Duration_4 Note-Velocity_84 Note-On_69 Note-Duration_4 Note-Velocity_86 Note-On_66 Note-Duration_4 Note-Velocity_86 Note-On_62 Note-Duration_4 Note-Velocity_88 Note-On_47 Note-Duration_8 Note-Velocity_92 Note-On_35 Note-Duration_8 Note-Velocity_94 Position_4 Note-On_72 Note-Duration_4 Note-Velocity_88 Note-On_69 Note-Duration_4 Note-Velocity_84 Note-On_66 Note-Duration_4 Note-Velocity_84 Note-On_62 Note-Duration_4 Note-Velocity_84 Position_8 Note-On_72 Note-Duration_4 Note-Velocity_84 Note-On_69 Note-Duration_4 Note-Velocity_88 Note-On_66 Note-Duration_4 Note-Velocity_86 Note-On_62 Note-Duration_4 Note-Velocity_90 Note-On_47 Note-Duration_9 Note-Velocity_90 Note-On_35 Note-Duration_9 Note-Velocity_94 Position_12 Note-On_72 Note-Duration_4 Note-Velocity_84 Note-On_69 Note-Duration_4 Note-Velocity_86 Note-On_66 Note-Duration_4 Note-Velocity_84 Note-On_62 Note-Duration_4 Note-Velocity_84 Bar-End Bar-Start Position_0 Note-On_72 Note-Duration_4 Note-Velocity_86 Note-On_69 Note-Duration_4 Note-Velocity_94 Note-On_66 Note-Duration_4 Note-Velocity_86 Note-On_62 Note-Duration_4 Note-Velocity_88 Note-On_47 Note-Duration_8 Note-Velocity_92 Note-On_35 Note-Duration_8 Note-Velocity_94 Position_4 Note-On_72 Note-Duration_4 Note-Velocity_90 Note-On_69 Note-Duration_4 Note-Velocity_88 Note-On_66 Note-Duration_4 Note-Velocity_86 Note-On_62 Note-Duration_4 Note-Velocity_84 Position_8 Note-On_72 Note-Duration_4 Note-Velocity_84 Note-On_69 Note-Duration_4 Note-Velocity_86 Note-On_66 Note-Duration_4 Note-Velocity_86 Note-On_62 Note-Duration_4 Note-Velocity_84 Note-On_47 Note-Duration_8 Note-Velocity_92 Note-On_35 Note-Duration_8 Note-Velocity_84 Position_12 Note-On_72 Note-Duration_4 Note-Velocity_86 Note-On_69 Note-Duration_4 Note-Velocity_86 Note-On_66 Note-Duration_4 Note-Velocity_84 Note-On_62 Note-Duration_4 Note-Velocity_84 Bar-End Bar-Start Position_0 Note-On_72 Note-Duration_4 Note-Velocity_84 Note-On_69 Note-Duration_4 Note-Velocity_84 Note-On_66 Note-Duration_4 Note-Velocity_86 Note-On_62 Note-Duration_4 Note-Velocity_94 Note-On_50 Note-Duration_15 Note-Velocity_94 Note-On_38 Note-Duration_15 Note-Velocity_84 Position_4 Note-On_72 Note-Duration_4 Note-Velocity_84 Note-On_69 Note-Duration_4 Note-Velocity_88 Note-On_66 Note-Duration_4 Note-Velocity_86 Note-On_62 Note-Duration_4 Note-Velocity_84 Position_8 Note-On_72 Note-Duration_4 Note-Velocity_84 Note-On_69 Note-Duration_4 Note-Velocity_90 Note-On_66 Note-Duration_4 Note-Velocity_88 Note-On_62 Note-Duration_4 Note-Velocity_86 Position_12 Note-On_72 Note-Duration_4 Note-Velocity_84 Note-On_69 Note-Duration_4 Note-Velocity_86 Note-On_66 Note-Duration_4 Note-Velocity_86 Note-On_62 Note-Duration_4 Note-Velocity_88 Bar-End Bar-Start Position_0 Note-On_72 Note-Duration_4 Note-Velocity_84 Note-On_69 Note-Duration_4 Note-Velocity_94 Note-On_66 Note-Duration_4 Note-Velocity_84 Note-On_62 Note-Duration_4 Note-Velocity_86 Note-On_48 Note-Duration_9 Note-Velocity_88 Note-On_36 Note-Duration_9 Note-Velocity_94 Position_4 Note-On_72 Note-Duration_4 Note-Velocity_84 Note-On_69 Note-Duration_4 Note-Velocity_84 Note-On_66 Note-Duration_4 Note-Velocity_86 Note-On_62 Note-Duration_4 Note-Velocity_84 Position_8 Note-On_72 Note-Duration_4 Note-Velocity_88 Note-On_69 Note-Duration_4 Note-Velocity_86 Note-On_66 Note-Duration_4 Note-Velocity_90 Note-On_62 Note-Duration_4 Note-Velocity_90 Note-On_48 Note-Duration_4 Note-Velocity_92 Note-On_36 Note-Duration_4 Note-Velocity_90 Position_12 Note-On_72 Note-Duration_4 Note-Velocity_86 Note-On_69 Note-Duration_4 Note-Velocity_88 Note-On_66 Note-Duration_4 Note-Velocity_88 Note-On_62 Note-Duration_4 Note-Velocity_86 Note-On_48 Note-Duration_9 Note-Velocity_94 Note-On_36 Note-Duration_9 Note-Velocity_92 Bar-End Bar-Start Position_0 Note-On_72 Note-Duration_4 Note-Velocity_88 Note-On_69 Note-Duration_4 Note-Velocity_94 Note-On_66 Note-Duration_4 Note-Velocity_86 Note-On_62 Note-Duration_4 Note-Velocity_84 Position_4 Note-On_72 Note-Duration_4 Note-Velocity_84 Note-On_69 Note-Duration_4 Note-Velocity_84 Note-On_66 Note-Duration_4 Note-Velocity_84 Note-On_62 Note-Duration_4 Note-Velocity_86 Note-On_48 Note-Duration_8 Note-Velocity_94 Note-On_36 Note-Duration_8 Note-Velocity_88 Position_8 Note-On_72 Note-Duration_4 Note-Velocity_86 Note-On_69 Note-Duration_4 Note-Velocity_88 Note-On_66 Note-Duration_4 Note-Velocity_86 Note-On_62 Note-Duration_4 Note-Velocity_88 Position_12 Note-On_72 Note-Duration_4 Note-Velocity_86 Note-On_69 Note-Duration_4 Note-Velocity_88 Note-On_66 Note-Duration_4 Note-Velocity_84 Note-On_62 Note-Duration_4 Note-Velocity_84 Note-On_48 Note-Duration_9 Note-Velocity_90 Note-On_36 Note-Duration_9 Note-Velocity_84 Bar-End Bar-Start Position_0 Note-On_72 Note-Duration_4 Note-Velocity_86 Note-On_69 Note-Duration_4 Note-Velocity_84 Note-On_66 Note-Duration_4 Note-Velocity_84 Note-On_62 Note-Duration_4 Note-Velocity_88 Position_4 Note-On_72 Note-Duration_4 Note-Velocity_86 Note-On_69 Note-Duration_4 Note-Velocity_84 Note-On_66 Note-Duration_4 Note-Velocity_88 Note-On_62 Note-Duration_4 Note-Velocity_90 Note-On_48 Note-Duration_4 Note-Velocity_92 Note-On_36 Note-Duration_4 Note-Velocity_86 Position_8 Note-On_72 Note-Duration_4 Note-Velocity_86 Note-On_69 Note-Duration_4 Note-Velocity_86 Note-On_66 Note-Duration_4 Note-Velocity_88 Note-On_62 Note-Duration_4 Note-Velocity_92 Note-On_48 Note-Duration_7 Note-Velocity_84 Note-On_36 Note-Duration_7 Note-Velocity_84 Position_12 Note-On_72 Note-Duration_4 Note-Velocity_88 Note-On_69 Note-Duration_4 Note-Velocity_86 Note-On_66 Note-Duration_4 Note-Velocity_86 Note-On_62 Note-Duration_4 Note-Velocity_84 Bar-End Bar-Start Position_0 Note-On_72 Note-Duration_4 Note-Velocity_86 Note-On_69 Note-Duration_4 Note-Velocity_86 Note-On_66 Note-Duration_4 Note-Velocity_86 Note-On_62 Note-Duration_4 Note-Velocity_84 Note-On_48 Note-Duration_9 Note-Velocity_88 Note-On_36 Note-Duration_9 Note-Velocity_90 Position_4 Note-On_72 Note-Duration_4 Note-Velocity_84 Note-On_69 Note-Duration_4 Note-Velocity_86 Note-On_66 Note-Duration_4 Note-Velocity_88 Note-On_62 Note-Duration_4 Note-Velocity_88 Position_8 Note-On_72 Note-Duration_4 Note-Velocity_88 Note-On_69 Note-Duration_4 Note-Velocity_90 Note-On_66 Note-Duration_4 Note-Velocity_86 Note-On_62 Note-Duration_4 Note-Velocity_84 Note-On_48 Note-Duration_8 Note-Velocity_86 Note-On_36 Note-Duration_8 Note-Velocity_90 Position_12 Note-On_72 Note-Duration_4 Note-Velocity_88 Note-On_69 Note-Duration_4 Note-Velocity_86 Note-On_66 Note-Duration_4 Note-Velocity_86 Note-On_62 Note-Duration_4 Note-Velocity_84 Bar-End Bar-Start Position_0 Note-On_72 Note-Duration_4 Note-Velocity_84 Note-On_69 Note-Duration_4 Note-Velocity_88 Note-On_66 Note-Duration_4 Note-Velocity_86 Note-On_62 Note-Duration_4 Note-Velocity_84 Note-On_48 Note-Duration_9 Note-Velocity_84 Note-On_36 Note-Duration_9 Note-Velocity_88 Position_4 Note-On_72 Note-Duration_4 Note-Velocity_84 Note-On_69 Note-Duration_4 Note-Velocity_86 Note-On_66 Note-Duration_4 Note-Velocity_86 Note-On_62 Note-Duration_4 Note-Velocity_84 Position_8 Note-On_72 Note-Duration_4 Note-Velocity_88 Note-On_69 Note-Duration_4 Note-Velocity_84 Note-On_66 Note-Duration_4 Note-Velocity_86 Note-On_62 Note-Duration_4 Note-Velocity_86 Note-On_48 Note-Duration_8 Note-Velocity_84 Note-On_36 Note-Duration_8 Note-Velocity_86 Position_12 Note-On_72 Note-Duration_4 Note-Velocity_84 Note-On_69 Note-Duration_4 Note-Velocity_88 Note-On_66 Note-Duration_4 Note-Velocity_84 Note-On_62 Note-Duration_4 Note-Velocity_84 Bar-End Bar-Start Position_0 Note-On_74 Note-Duration_4 Note-Velocity_88 Note-On_71 Note-Duration_4 Note-Velocity_88 Note-On_69 Note-Duration_4 Note-Velocity_86 Note-On_66 Note-Duration_4 Note-Velocity_84 Note-On_43 Note-Duration_9 Note-Velocity_94 Note-On_31 Note-Duration_9 Note-Velocity_94 Position_4 Note-On_74 Note-Duration_4 Note-Velocity_84 Note-On_71 Note-Duration_4 Note-Velocity_84 Note-On_69 Note-Duration_4 Note-Velocity_88 Note-On_66 Note-Duration_4 Note-Velocity_84 Position_8 Note-On_74 Note-Duration_4 Note-Velocity_86 Note-On_71 Note-Duration_4 Note-Velocity_86 Note-On_69 Note-Duration_4 Note-Velocity_88 Note-On_66 Note-Duration_4 Note-Velocity_84 Note-On_43 Note-Duration_7 Note-Velocity_88 Note-On_31 Note-Duration_7 Note-Velocity_90 Position_12 Note-On_74 Note-Duration_4 Note-Velocity_84 Note-On_71 Note-Duration_4 Note-Velocity_88 Note-On_69 Note-Duration_4 Note-Velocity_86 Note-On_66 Note-Duration_4 Note-Velocity_84 Bar-End Bar-Start Position_0 Note-On_74 Note-Duration_4 Note-Velocity_90 Note-On_71 Note-Duration_4 Note-Velocity_86 Note-On_69 Note-Duration_4 Note-Velocity_88 Note-On_66 Note-Duration_4 Note-Velocity_84 Note-On_43 Note-Duration_9 Note-Velocity_94 Note-On_31 Note-Duration_9 Note-Velocity_94 Position_4 Note-On_74 Note-Duration_4 Note-Velocity_84 Note-On_71 Note-Duration_4 Note-Velocity_84 Note-On_69 Note-Duration_4 Note-Velocity_88 Note-On_66 Note-Duration_4 Note-Velocity_84 Position_8 Note-On_74 Note-Duration_4 Note-Velocity_88 Note-On_71 Note-Duration_4 Note-Velocity_90 Note-On_69 Note-Duration_4 Note-Velocity_84 Note-On_66 Note-Duration_4 Note-Velocity_84 Note-On_43 Note-Duration_7 Note-Velocity_94 Note-On_31 Note-Duration_7 Note-Velocity_94 Position_12 Note-On_74 Note-Duration_4 Note-Velocity_84 Note-On_71 Note-Duration_4 Note-Velocity_86 Note-On_69 Note-Duration_4 Note-Velocity_88 Note-On_66 Note-Duration_4 Note-Velocity_86 Bar-End Bar-Start Position_0 Note-On_74 Note-Duration_4 Note-Velocity_88 Note-On_71 Note-Duration_4 Note-Velocity_90 Note-On_69 Note-Duration_4 Note-Velocity_86 Note-On_66 Note-Duration_4 Note-Velocity_86 Note-On_43 Note-Duration_9 Note-Velocity_88 Note-On_31 Note-Duration_9 Note-Velocity_84 Position_4 Note-On_74 Note-Duration_4 Note-Velocity_86 Note-On_71 Note-Duration_4 Note-Velocity_86 Note-On_69 Note-Duration_4 Note-Velocity_86 Note-On_66 Note-Duration_4 Note-Velocity_84 Position_8 Note-On_74 Note-Duration_4 Note-Velocity_86 Note-On_71 Note-Duration_4 Note-Velocity_84 Note-On_69 Note-Duration_4 Note-Velocity_86 Note-On_66 Note-Duration_4 Note-Velocity_86 Note-On_43 Note-Duration_9 Note-Velocity_92 Note-On_31 Note-Duration_9 Note-Velocity_90 Position_12 Note-On_74 Note-Duration_4 Note-Velocity_86 Note-On_71 Note-Duration_4 Note-Velocity_86 Note-On_69 Note-Duration_4 Note-Velocity_86 Note-On_66 Note-Duration_4 Note-Velocity_84 Bar-End Bar-Start Position_0 Note-On_74 Note-Duration_4 Note-Velocity_88 Note-On_71 Note-Duration_4 Note-Velocity_86 Note-On_69 Note-Duration_4 Note-Velocity_84 Note-On_66 Note-Duration_4 Note-Velocity_86 Note-On_43 Note-Duration_7 Note-Velocity_92 Note-On_31 Note-Duration_7 Note-Velocity_88 Position_4 Note-On_74 Note-Duration_4 Note-Velocity_86 Note-On_71 Note-Duration_4 Note-Velocity_86 Note-On_69 Note-Duration_4 Note-Velocity_86 Note-On_66 Note-Duration_4 Note-Velocity_86 Position_8 Note-On_74 Note-Duration_4 Note-Velocity_88 Note-On_71 Note-Duration_4 Note-Velocity_86 Note-On_69 Note-Duration_4 Note-Velocity_86 Note-On_66 Note-Duration_4 Note-Velocity_86 Note-On_43 Note-Duration_5 Note-Velocity_84 Note-On_31 Note-Duration_5 Note-Velocity_88 Position_12 Note-On_74 Note-Duration_4 Note-Velocity_86 Note-On_71 Note-Duration_4 Note-Velocity_86 Note-On_69 Note-Duration_4 Note-Velocity_84 Note-On_66 Note-Duration_4 Note-Velocity_88 Bar-End Bar-Start Position_0 Note-On_74 Note-Duration_4 Note-Velocity_88 Note-On_71 Note-Duration_4 Note-Velocity_88 Note-On_69 Note-Duration_4 Note-Velocity_86 Note-On_66 Note-Duration_4 Note-Velocity_84 Note-On_43 Note-Duration_9 Note-Velocity_88 Note-On_31 Note-Duration_9 Note-Velocity_94 Position_4 Note-On_74 Note-Duration_4 Note-Velocity_86 Note-On_71 Note-Duration_4 Note-Velocity_86 Note-On_69 Note-Duration_4 Note-Velocity_86 Note-On_66 Note-Duration_4 Note-Velocity_84 Position_8 Note-On_74 Note-Duration_4 Note-Velocity_86 Note-On_71 Note-Duration_4 Note-Velocity_86 Note-On_69 Note-Duration_4 Note-Velocity_84 Note-On_66 Note-Duration_4 Note-Velocity_84 Note-On_43 Note-Duration_4 Note-Velocity_88 Note-On_31 Note-Duration_4 Note-Velocity_88 Position_12 Note-On_74 Note-Duration_4 Note-Velocity_86 Note-On_71 Note-Duration_4 Note-Velocity_86 Note-On_69 Note-Duration_4 Note-Velocity_84 Note-On_66 Note-Duration_4 Note-Velocity_88 Note-On_43 Note-Duration_4 Note-Velocity_94 Note-On_31 Note-Duration_4 Note-Velocity_86 Bar-End Bar-Start Position_0 Note-On_72 Note-Duration_4 Note-Velocity_86 Note-On_69 Note-Duration_4 Note-Velocity_86 Note-On_66 Note-Duration_4 Note-Velocity_86 Note-On_62 Note-Duration_4 Note-Velocity_88 Note-On_48 Note-Duration_9 Note-Velocity_88 Note-On_36 Note-Duration_9 Note-Velocity_88 Position_4 Note-On_72 Note-Duration_4 Note-Velocity_86 Note-On_69 Note-Duration_4 Note-Velocity_86 Note-On_66 Note-Duration_4 Note-Velocity_86 Note-On_62 Note-Duration_4 Note-Velocity_84 Position_8 Note-On_72 Note-Duration_4 Note-Velocity_84 Note-On_69 Note-Duration_4 Note-Velocity_86 Note-On_66 Note-Duration_4 Note-Velocity_88 Note-On_62 Note-Duration_4 Note-Velocity_86 Note-On_48 Note-Duration_8 Note-Velocity_88 Note-On_36 Note-Duration_8 Note-Velocity_86 Position_12 Note-On_72 Note-Duration_4 Note-Velocity_86 Note-On_69 Note-Duration_4 Note-Velocity_84 Note-On_66 Note-Duration_4 Note-Velocity_86 Note-On_62 Note-Duration_4 Note-Velocity_90 Bar-End Bar-Start Position_0 Note-On_72 Note-Duration_4 Note-Velocity_84 Note-On_69 Note-Duration_4 Note-Velocity_88 Note-On_66 Note-Duration_4 Note-Velocity_84 Note-On_62 Note-Duration_4 Note-Velocity_86 Note-On_48 Note-Duration_9 Note-Velocity_84 Note-On_36 Note-Duration_9 Note-Velocity_94 Position_4 Note-On_72 Note-Duration_4 Note-Velocity_86 Note-On_69 Note-Duration_4 Note-Velocity_86 Note-On_66 Note-Duration_4 Note-Velocity_86 Note-On_62 Note-Duration_4 Note-Velocity_88 Position_8 Note-On_72 Note-Duration_4 Note-Velocity_86 Note-On_69 Note-Duration_4 Note-Velocity_88 Note-On_66 Note-Duration_4 Note-Velocity_84 Note-On_62 Note-Duration_4 Note-Velocity_84 Note-On_48 Note-Duration_9 Note-Velocity_84 Note-On_36 Note-Duration_9 Note-Velocity_86 Position_12 Note-On_72 Note-Duration_4 Note-Velocity_86 Note-On_69 Note-Duration_4 Note-Velocity_86 Note-On_66 Note-Duration_4 Note-Velocity_86 Note-On_62 Note-Duration_4 Note-Velocity_84 Bar-End Bar-Start Position_0 Note-On_72 Note-Duration_4 Note-Velocity_86 Note-On_69 Note-Duration_4 Note-Velocity_86 Note-On_66 Note-Duration_4 Note-Velocity_84 Note-On_62 Note-Duration_4 Note-Velocity_84 Note-On_48 Note-Duration_9 Note-Velocity_84 Note-On_36 Note-Duration_9 Note-Velocity_86 Position_4 Note-On_72 Note-Duration_4 Note-Velocity_84 Note-On_69 Note-Duration_4 Note-Velocity_88 Note-On_66 Note-Duration_4 Note-Velocity_86 Note-On_62 Note-Duration_4 Note-Velocity_88 Position_8 Note-On_72 Note-Duration_4 Note-Velocity_88 Note-On_69 Note-Duration_4 Note-Velocity_90 Note-On_66 Note-Duration_4 Note-Velocity_86 Note-On_62 Note-Duration_4 Note-Velocity_88 Note-On_48 Note-Duration_4 Note-Velocity_92 Note-On_36 Note-Duration_4 Note-Velocity_88 Position_12 Note-On_72 Note-Duration_4 Note-Velocity_88 Note-On_69 Note-Duration_4 Note-Velocity_88 Note-On_66 Note-Duration_4 Note-Velocity_88 Note-On_62 Note-Duration_4 Note-Velocity_84 Note-On_48 Note-Duration_9 Note-Velocity_86 Note-On_36 Note-Duration_9 Note-Velocity_86 Bar-End Bar-Start Position_0 Note-On_72 Note-Duration_4 Note-Velocity_90 Note-On_69 Note-Duration_4 Note-Velocity_88 Note-On_66 Note-Duration_4 Note-Velocity_86 Note-On_62 Note-Duration_4 Note-Velocity_86 Position_4 Note-On_72 Note-Duration_4 Note-Velocity_84 Note-On_69 Note-Duration_4 Note-Velocity_88 Note-On_66 Note-Duration_4 Note-Velocity_86 Note-On_62 Note-Duration_4 Note-Velocity_84 Note-On_48 Note-Duration_8 Note-Velocity_86 Note-On_36 Note-Duration_8 Note-Velocity_86 Position_8 Note-On_72 Note-Duration_4 Note-Velocity_84 Note-On_69 Note-Duration_4 Note-Velocity_88 Note-On_66 Note-Duration_4 Note-Velocity_86 Note-On_62 Note-Duration_4 Note-Velocity_84 Position_12 Note-On_72 Note-Duration_4 Note-Velocity_86 Note-On_69 Note-Duration_4 Note-Velocity_90 Note-On_66 Note-Duration_4 Note-Velocity_84 Note-On_62 Note-Duration_4 Note-Velocity_84 Note-On_48 Note-Duration_9 Note-Velocity_88 Note-On_36 Note-Duration_9 Note-Velocity_90 Bar-End Bar-Start Position_0 Note-On_72 Note-Duration_4 Note-Velocity_90 Note-On_69 Note-Duration_4 Note-Velocity_88 Note-On_66 Note-Duration_4 Note-Velocity_86 Note-On_62 Note-Duration_4 Note-Velocity_86 Position_4 Note-On_72 Note-Duration_4 Note-Velocity_84 Note-On_69 Note-Duration_4 Note-Velocity_88 Note-On_66 Note-Duration_4 Note-Velocity_86 Note-On_62 Note-Duration_4 Note-Velocity_84 Note-On_48 Note-Duration_8 Note-Velocity_84 Note-On_36 Note-Duration_8 Note-Velocity_90 Position_8 Note-On_72 Note-Duration_4 Note-Velocity_88 Note-On_69 Note-Duration_4 Note-Velocity_86 Note-On_66 Note-Duration_4 Note-Velocity_84 Note-On_62 Note-Duration_4 Note-Velocity_84 Position_12 Note-On_72 Note-Duration_4 Note-Velocity_86 Note-On_69 Note-Duration_4 Note-Velocity_84 Note-On_66 Note-Duration_4 Note-Velocity_88 Note-On_62 Note-Duration_4 Note-Velocity_86 Note-On_48 Note-Duration_5 Note-Velocity_90 Note-On_36 Note-Duration_5 Note-Velocity_86 Bar-End Bar-Start Position_0 Note-On_67 Note-Duration_4 Note-Velocity_88 Note-On_62 Note-Duration_4 Note-Velocity_88 Note-On_59 Note-Duration_4 Note-Velocity_88 Note-On_43 Note-Duration_9 Note-Velocity_94 Note-On_31 Note-Duration_9 Note-Velocity_90 Position_4 Note-On_67 Note-Duration_4 Note-Velocity_84 Note-On_62 Note-Duration_4 Note-Velocity_84 Note-On_59 Note-Duration_4 Note-Velocity_88 Position_8 Note-On_67 Note-Duration_4 Note-Velocity_86 Note-On_62 Note-Duration_4 Note-Velocity_90 Note-On_59 Note-Duration_4 Note-Velocity_88 Note-On_43 Note-Duration_9 Note-Velocity_82 Note-On_31 Note-Duration_9 Note-Velocity_86 Position_12 Note-On_67 Note-Duration_4 Note-Velocity_84 Note-On_62 Note-Duration_4 Note-Velocity_84 Note-On_59 Note-Duration_4 Note-Velocity_90 Bar-End Bar-Start Position_0 Note-On_67 Note-Duration_4 Note-Velocity_90 Note-On_62 Note-Duration_4 Note-Velocity_84 Note-On_59 Note-Duration_4 Note-Velocity_90 Note-On_43 Note-Duration_5 Note-Velocity_84 Note-On_31 Note-Duration_5 Note-Velocity_84 Position_4 Note-On_67 Note-Duration_3 Note-Velocity_84 Note-On_62 Note-Duration_3 Note-Velocity_84 Note-On_59 Note-Duration_3 Note-Velocity_90 Position_6 Note-On_43 Note-Duration_9 Note-Velocity_80 Note-On_31 Note-Duration_9 Note-Velocity_80 Position_8 Note-On_67 Note-Duration_4 Note-Velocity_84 Note-On_62 Note-Duration_4 Note-Velocity_84 Note-On_59 Note-Duration_4 Note-Velocity_90 Position_12 Note-On_67 Note-Duration_3 Note-Velocity_86 Note-On_62 Note-Duration_3 Note-Velocity_88 Note-On_59 Note-Duration_3 Note-Velocity_84 Bar-End Bar-Start Position_0 Note-On_67 Note-Duration_4 Note-Velocity_88 Note-On_64 Note-Duration_4 Note-Velocity_88 Note-On_60 Note-Duration_4 Note-Velocity_88 Note-On_48 Note-Duration_8 Note-Velocity_76 Note-On_36 Note-Duration_8 Note-Velocity_90 Position_4 Note-On_67 Note-Duration_4 Note-Velocity_86 Note-On_64 Note-Duration_4 Note-Velocity_90 Note-On_60 Note-Duration_4 Note-Velocity_84 Position_8 Note-On_67 Note-Duration_4 Note-Velocity_88 Note-On_62 Note-Duration_4 Note-Velocity_88 Note-On_59 Note-Duration_4 Note-Velocity_84 Note-On_43 Note-Duration_8 Note-Velocity_82 Note-On_31 Note-Duration_8 Note-Velocity_94 Position_12 Note-On_67 Note-Duration_4 Note-Velocity_86 Note-On_62 Note-Duration_4 Note-Velocity_86 Note-On_59 Note-Duration_4 Note-Velocity_88 Bar-End Bar-Start Position_0 Note-On_67 Note-Duration_4 Note-Velocity_84 Note-On_64 Note-Duration_4 Note-Velocity_90 Note-On_60 Note-Duration_4 Note-Velocity_88 Note-On_48 Note-Duration_9 Note-Velocity_84 Note-On_36 Note-Duration_9 Note-Velocity_90 Position_4 Note-On_67 Note-Duration_4 Note-Velocity_86 Note-On_64 Note-Duration_4 Note-Velocity_90 Note-On_60 Note-Duration_4 Note-Velocity_88 Position_8 Note-On_67 Note-Duration_4 Note-Velocity_86 Note-On_62 Note-Duration_4 Note-Velocity_88 Note-On_59 Note-Duration_4 Note-Velocity_84 Note-On_43 Note-Duration_9 Note-Velocity_94 Note-On_31 Note-Duration_9 Note-Velocity_90 Position_12 Note-On_67 Note-Duration_4 Note-Velocity_86 Note-On_62 Note-Duration_4 Note-Velocity_86 Note-On_59 Note-Duration_4 Note-Velocity_86 Bar-End Bar-Start Position_0 Note-On_67 Note-Duration_4 Note-Velocity_84 Note-On_64 Note-Duration_4 Note-Velocity_88 Note-On_60 Note-Duration_4 Note-Velocity_88 Note-On_48 Note-Duration_9 Note-Velocity_84 Note-On_36 Note-Duration_9 Note-Velocity_88 Position_4 Note-On_67 Note-Duration_4 Note-Velocity_86 Note-On_64 Note-Duration_4 Note-Velocity_86 Note-On_60 Note-Duration_4 Note-Velocity_84 Position_8 Note-On_67 Note-Duration_4 Note-Velocity_88 Note-On_62 Note-Duration_4 Note-Velocity_88 Note-On_59 Note-Duration_4 Note-Velocity_84 Note-On_43 Note-Duration_9 Note-Velocity_84 Note-On_31 Note-Duration_9 Note-Velocity_84 Position_12 Note-On_67 Note-Duration_4 Note-Velocity_84 Note-On_62 Note-Duration_4 Note-Velocity_84 Note-On_59 Note-Duration_4 Note-Velocity_84 Bar-End Bar-Start Position_0 Note-On_67 Note-Duration_4 Note-Velocity_84 Note-On_64 Note-Duration_4 Note-Velocity_90 Note-On_60 Note-Duration_4 Note-Velocity_84 Note-On_48 Note-Duration_9 Note-Velocity_88 Note-On_36 Note-Duration_9 Note-Velocity_90 Position_4 Note-On_67 Note-Duration_4 Note-Velocity_84 Note-On_64 Note-Duration_4 Note-Velocity_88 Note-On_60 Note-Duration_4 Note-Velocity_86 Position_8 Note-On_67 Note-Duration_4 Note-Velocity_86 Note-On_62 Note-Duration_4 Note-Velocity_88 Note-On_59 Note-Duration_4 Note-Velocity_84 Note-On_43 Note-Duration_9 Note-Velocity_84 Note-On_31 Note-Duration_9 Note-Velocity_84 Position_12 Note-On_67 Note-Duration_4 Note-Velocity_84 Note-On_62 Note-Duration_4 Note-Velocity_84 Note-On_59 Note-Duration_4 Note-Velocity_88 Bar-End Bar-Start Position_0 Note-On_67 Note-Duration_4 Note-Velocity_84 Note-On_64 Note-Duration_4 Note-Velocity_88 Note-On_60 Note-Duration_4 Note-Velocity_88 Note-On_48 Note-Duration_8 Note-Velocity_80 Note-On_36 Note-Duration_8 Note-Velocity_86 Position_4 Note-On_67 Note-Duration_4 Note-Velocity_84 Note-On_64 Note-Duration_4 Note-Velocity_88 Note-On_60 Note-Duration_4 Note-Velocity_84 Position_8 Note-On_67 Note-Duration_4 Note-Velocity_86 Note-On_62 Note-Duration_4 Note-Velocity_88 Note-On_59 Note-Duration_4 Note-Velocity_84 Note-On_43 Note-Duration_9 Note-Velocity_94 Note-On_31 Note-Duration_9 Note-Velocity_86 Position_12 Note-On_67 Note-Duration_4 Note-Velocity_84 Note-On_62 Note-Duration_4 Note-Velocity_88 Note-On_59 Note-Duration_4 Note-Velocity_88 Bar-End Bar-Start Position_0 Note-On_67 Note-Duration_4 Note-Velocity_84 Note-On_64 Note-Duration_4 Note-Velocity_84 Note-On_60 Note-Duration_4 Note-Velocity_90 Note-On_48 Note-Duration_9 Note-Velocity_84 Note-On_36 Note-Duration_9 Note-Velocity_88 Position_4 Note-On_67 Note-Duration_4 Note-Velocity_86 Note-On_64 Note-Duration_4 Note-Velocity_86 Note-On_60 Note-Duration_4 Note-Velocity_88 Position_8 Note-On_67 Note-Duration_4 Note-Velocity_86 Note-On_62 Note-Duration_4 Note-Velocity_84 Note-On_59 Note-Duration_4 Note-Velocity_84 Note-On_43 Note-Duration_9 Note-Velocity_84 Note-On_31 Note-Duration_9 Note-Velocity_84 Position_12 Note-On_67 Note-Duration_4 Note-Velocity_84 Note-On_62 Note-Duration_4 Note-Velocity_88 Note-On_59 Note-Duration_4 Note-Velocity_86 Bar-End Bar-Start Position_0 Note-On_67 Note-Duration_4 Note-Velocity_86 Note-On_64 Note-Duration_4 Note-Velocity_86 Note-On_60 Note-Duration_4 Note-Velocity_88 Note-On_48 Note-Duration_8 Note-Velocity_73 Note-On_36 Note-Duration_8 Note-Velocity_86 Position_4 Note-On_67 Note-Duration_4 Note-Velocity_86 Note-On_64 Note-Duration_4 Note-Velocity_86 Note-On_60 Note-Duration_4 Note-Velocity_88 Position_8 Note-On_67 Note-Duration_4 Note-Velocity_88 Note-On_62 Note-Duration_4 Note-Velocity_90 Note-On_59 Note-Duration_4 Note-Velocity_84 Note-On_43 Note-Duration_9 Note-Velocity_86 Note-On_31 Note-Duration_9 Note-Velocity_86 Position_12 Note-On_67 Note-Duration_4 Note-Velocity_88 Note-On_62 Note-Duration_4 Note-Velocity_84 Note-On_59 Note-Duration_4 Note-Velocity_88 Bar-End Bar-Start Position_0 Note-On_67 Note-Duration_4 Note-Velocity_86 Note-On_64 Note-Duration_4 Note-Velocity_88 Note-On_60 Note-Duration_4 Note-Velocity_84 Note-On_48 Note-Duration_9 Note-Velocity_84 Note-On_36 Note-Duration_9 Note-Velocity_84 Position_4 Note-On_67 Note-Duration_4 Note-Velocity_86 Note-On_64 Note-Duration_4 Note-Velocity_86 Note-On_60 Note-Duration_4 Note-Velocity_88 Position_8 Note-On_67 Note-Duration_4 Note-Velocity_88 Note-On_62 Note-Duration_4 Note-Velocity_84 Note-On_59 Note-Duration_4 Note-Velocity_88 Note-On_43 Note-Duration_9 Note-Velocity_84 Note-On_31 Note-Duration_9 Note-Velocity_84 Position_12 Note-On_67 Note-Duration_4 Note-Velocity_86 Note-On_62 Note-Duration_4 Note-Velocity_86 Note-On_59 Note-Duration_4 Note-Velocity_88 Bar-End Bar-Start Position_0 Note-On_67 Note-Duration_4 Note-Velocity_88 Note-On_64 Note-Duration_4 Note-Velocity_88 Note-On_60 Note-Duration_4 Note-Velocity_88 Note-On_48 Note-Duration_9 Note-Velocity_86 Note-On_36 Note-Duration_9 Note-Velocity_90 Position_4 Note-On_67 Note-Duration_4 Note-Velocity_84 Note-On_64 Note-Duration_4 Note-Velocity_86 Note-On_60 Note-Duration_4 Note-Velocity_86 Position_8 Note-On_67 Note-Duration_4 Note-Velocity_84 Note-On_62 Note-Duration_4 Note-Velocity_84 Note-On_59 Note-Duration_4 Note-Velocity_84 Note-On_43 Note-Duration_9 Note-Velocity_90 Note-On_31 Note-Duration_9 Note-Velocity_88 Position_12 Note-On_67 Note-Duration_4 Note-Velocity_86 Note-On_62 Note-Duration_4 Note-Velocity_86 Note-On_59 Note-Duration_4 Note-Velocity_88 Bar-End Bar-Start Position_0 Note-On_67 Note-Duration_4 Note-Velocity_84 Note-On_64 Note-Duration_4 Note-Velocity_88 Note-On_60 Note-Duration_4 Note-Velocity_88 Note-On_48 Note-Duration_9 Note-Velocity_86 Note-On_36 Note-Duration_9 Note-Velocity_88 Position_4 Note-On_67 Note-Duration_4 Note-Velocity_86 Note-On_64 Note-Duration_4 Note-Velocity_86 Note-On_60 Note-Duration_4 Note-Velocity_84 Position_8 Note-On_67 Note-Duration_4 Note-Velocity_86 Note-On_62 Note-Duration_4 Note-Velocity_84 Note-On_59 Note-Duration_4 Note-Velocity_86 Note-On_43 Note-Duration_8 Note-Velocity_92 Note-On_31 Note-Duration_9 Note-Velocity_90 Position_12 Note-On_67 Note-Duration_4 Note-Velocity_84 Note-On_62 Note-Duration_4 Note-Velocity_86 Note-On_59 Note-Duration_4 Note-Velocity_90 Bar-End Bar-Start Position_0 Note-On_67 Note-Duration_4 Note-Velocity_90 Note-On_64 Note-Duration_4 Note-Velocity_88 Note-On_60 Note-Duration_4 Note-Velocity_88 Note-On_48 Note-Duration_9 Note-Velocity_92 Note-On_36 Note-Duration_9 Note-Velocity_84 Position_4 Note-On_67 Note-Duration_4 Note-Velocity_86 Note-On_64 Note-Duration_4 Note-Velocity_86 Note-On_60 Note-Duration_4 Note-Velocity_88 Position_8 Note-On_67 Note-Duration_4 Note-Velocity_88 Note-On_62 Note-Duration_4 Note-Velocity_88 Note-On_59 Note-Duration_4 Note-Velocity_86 Note-On_43 Note-Duration_9 Note-Velocity_84 Note-On_31 Note-Duration_9 Note-Velocity_88 Position_12 Note-On_67 Note-Duration_4 Note-Velocity_84 Note-On_62 Note-Duration_4 Note-Velocity_88 Note-On_59 Note-Duration_4 Note-Velocity_88 Bar-End Bar-Start Position_0 Note-On_67 Note-Duration_4 Note-Velocity_88 Note-On_64 Note-Duration_4 Note-Velocity_90 Note-On_60 Note-Duration_4 Note-Velocity_88 Note-On_48 Note-Duration_9 Note-Velocity_82 Note-On_36 Note-Duration_9 Note-Velocity_84 Position_4 Note-On_67 Note-Duration_4 Note-Velocity_84 Note-On_64 Note-Duration_4 Note-Velocity_88 Note-On_60 Note-Duration_4 Note-Velocity_84 Position_8 Note-On_67 Note-Duration_4 Note-Velocity_86 Note-On_62 Note-Duration_4 Note-Velocity_88 Note-On_59 Note-Duration_4 Note-Velocity_86 Note-On_43 Note-Duration_9 Note-Velocity_94 Note-On_31 Note-Duration_9 Note-Velocity_90 Position_12 Note-On_67 Note-Duration_4 Note-Velocity_84 Note-On_62 Note-Duration_4 Note-Velocity_88 Note-On_59 Note-Duration_4 Note-Velocity_88 Bar-End Bar-Start Position_0 Note-On_67 Note-Duration_4 Note-Velocity_88 Note-On_64 Note-Duration_4 Note-Velocity_88 Note-On_60 Note-Duration_4 Note-Velocity_90 Note-On_48 Note-Duration_9 Note-Velocity_86 Note-On_36 Note-Duration_9 Note-Velocity_84 Position_4 Note-On_67 Note-Duration_4 Note-Velocity_88 Note-On_64 Note-Duration_4 Note-Velocity_88 Note-On_60 Note-Duration_4 Note-Velocity_88 Position_8 Note-On_67 Note-Duration_4 Note-Velocity_88 Note-On_62 Note-Duration_4 Note-Velocity_88 Note-On_59 Note-Duration_4 Note-Velocity_84 Note-On_43 Note-Duration_9 Note-Velocity_92 Note-On_31 Note-Duration_9 Note-Velocity_88 Position_12 Note-On_67 Note-Duration_4 Note-Velocity_88 Note-On_62 Note-Duration_4 Note-Velocity_88 Note-On_59 Note-Duration_4 Note-Velocity_86 Bar-End Bar-Start Position_0 Note-On_67 Note-Duration_4 Note-Velocity_86 Note-On_64 Note-Duration_4 Note-Velocity_88 Note-On_60 Note-Duration_4 Note-Velocity_88 Note-On_48 Note-Duration_9 Note-Velocity_82 Note-On_36 Note-Duration_9 Note-Velocity_88 Position_4 Note-On_67 Note-Duration_4 Note-Velocity_86 Note-On_64 Note-Duration_4 Note-Velocity_86 Note-On_60 Note-Duration_4 Note-Velocity_84 Position_8 Note-On_67 Note-Duration_4 Note-Velocity_88 Note-On_62 Note-Duration_4 Note-Velocity_88 Note-On_59 Note-Duration_4 Note-Velocity_84 Note-On_43 Note-Duration_9 Note-Velocity_90 Note-On_31 Note-Duration_9 Note-Velocity_88 Position_12 Note-On_67 Note-Duration_4 Note-Velocity_84 Note-On_62 Note-Duration_4 Note-Velocity_88 Note-On_59 Note-Duration_4 Note-Velocity_88 Bar-End Bar-Start Position_0 Note-On_67 Note-Duration_4 Note-Velocity_84 Note-On_64 Note-Duration_4 Note-Velocity_88 Note-On_60 Note-Duration_4 Note-Velocity_86 Note-On_48 Note-Duration_9 Note-Velocity_86 Note-On_36 Note-Duration_9 Note-Velocity_90 Position_4 Note-On_67 Note-Duration_4 Note-Velocity_84 Note-On_64 Note-Duration_4 Note-Velocity_86 Note-On_60 Note-Duration_4 Note-Velocity_88 Position_8 Note-On_67 Note-Duration_4 Note-Velocity_84 Note-On_62 Note-Duration_4 Note-Velocity_86 Note-On_59 Note-Duration_4 Note-Velocity_88 Note-On_43 Note-Duration_9 Note-Velocity_86 Note-On_31 Note-Duration_9 Note-Velocity_86 Position_12 Note-On_67 Note-Duration_4 Note-Velocity_84 Note-On_62 Note-Duration_4 Note-Velocity_86 Note-On_59 Note-Duration_4 Note-Velocity_88 Bar-End Bar-Start Position_0 Note-On_67 Note-Duration_4 Note-Velocity_84 Note-On_64 Note-Duration_4 Note-Velocity_88 Note-On_60 Note-Duration_4 Note-Velocity_86 Note-On_48 Note-Duration_9 Note-Velocity_84 Note-On_36 Note-Duration_9 Note-Velocity_86 Position_4 Note-On_67 Note-Duration_4 Note-Velocity_86 Note-On_64 Note-Duration_4 Note-Velocity_86 Note-On_60 Note-Duration_4 Note-Velocity_84 Position_8 Note-On_67 Note-Duration_4 Note-Velocity_86 Note-On_62 Note-Duration_4 Note-Velocity_84 Note-On_59 Note-Duration_4 Note-Velocity_86 Note-On_43 Note-Duration_9 Note-Velocity_88 Note-On_31 Note-Duration_9 Note-Velocity_84 Position_12 Note-On_67 Note-Duration_4 Note-Velocity_84 Note-On_62 Note-Duration_4 Note-Velocity_84 Note-On_59 Note-Duration_4 Note-Velocity_86 Bar-End Bar-Start Position_0 Note-On_67 Note-Duration_4 Note-Velocity_88 Note-On_64 Note-Duration_4 Note-Velocity_88 Note-On_60 Note-Duration_4 Note-Velocity_86 Note-On_48 Note-Duration_9 Note-Velocity_84 Note-On_36 Note-Duration_9 Note-Velocity_88 Position_4 Note-On_67 Note-Duration_4 Note-Velocity_86 Note-On_64 Note-Duration_4 Note-Velocity_84 Note-On_60 Note-Duration_4 Note-Velocity_86 Position_8 Note-On_67 Note-Duration_4 Note-Velocity_86 Note-On_62 Note-Duration_4 Note-Velocity_88 Note-On_59 Note-Duration_4 Note-Velocity_84 Note-On_43 Note-Duration_9 Note-Velocity_90 Note-On_31 Note-Duration_9 Note-Velocity_88 Position_12 Note-On_67 Note-Duration_4 Note-Velocity_84 Note-On_62 Note-Duration_4 Note-Velocity_88 Note-On_59 Note-Duration_4 Note-Velocity_88 Bar-End Bar-Start Position_0 Note-On_67 Note-Duration_4 Note-Velocity_84 Note-On_64 Note-Duration_4 Note-Velocity_88 Note-On_60 Note-Duration_4 Note-Velocity_88 Note-On_48 Note-Duration_9 Note-Velocity_84 Note-On_36 Note-Duration_9 Note-Velocity_84 Position_4 Note-On_67 Note-Duration_4 Note-Velocity_86 Note-On_64 Note-Duration_4 Note-Velocity_84 Note-On_60 Note-Duration_4 Note-Velocity_86 Position_8 Note-On_67 Note-Duration_4 Note-Velocity_84 Note-On_62 Note-Duration_4 Note-Velocity_84 Note-On_59 Note-Duration_4 Note-Velocity_86 Note-On_43 Note-Duration_9 Note-Velocity_88 Note-On_31 Note-Duration_9 Note-Velocity_86 Position_12 Note-On_67 Note-Duration_4 Note-Velocity_84 Note-On_62 Note-Duration_4 Note-Velocity_86 Note-On_59 Note-Duration_4 Note-Velocity_88 Bar-End Bar-Start Position_0 Note-On_67 Note-Duration_4 Note-Velocity_84 Note-On_64 Note-Duration_4 Note-Velocity_84 Note-On_60 Note-Duration_4 Note-Velocity_90 Note-On_48 Note-Duration_9 Note-Velocity_94 Note-On_36 Note-Duration_9 Note-Velocity_84 Position_4 Note-On_67 Note-Duration_4 Note-Velocity_86 Note-On_64 Note-Duration_4 Note-Velocity_86 Note-On_60 Note-Duration_4 Note-Velocity_86 Position_8 Note-On_67 Note-Duration_4 Note-Velocity_90 Note-On_62 Note-Duration_4 Note-Velocity_84 Note-On_59 Note-Duration_4 Note-Velocity_86 Note-On_43 Note-Duration_9 Note-Velocity_86 Note-On_31 Note-Duration_9 Note-Velocity_84 Position_12 Note-On_67 Note-Duration_4 Note-Velocity_86 Note-On_62 Note-Duration_4 Note-Velocity_88 Note-On_59 Note-Duration_4 Note-Velocity_90 Bar-End Bar-Start Position_0 Note-On_67 Note-Duration_4 Note-Velocity_88 Note-On_64 Note-Duration_4 Note-Velocity_88 Note-On_60 Note-Duration_4 Note-Velocity_88 Note-On_48 Note-Duration_8 Note-Velocity_92 Note-On_36 Note-Duration_9 Note-Velocity_84 Position_4 Note-On_67 Note-Duration_4 Note-Velocity_84 Note-On_64 Note-Duration_4 Note-Velocity_88 Note-On_60 Note-Duration_4 Note-Velocity_90 Position_8 Note-On_67 Note-Duration_4 Note-Velocity_86 Note-On_62 Note-Duration_4 Note-Velocity_88 Note-On_59 Note-Duration_4 Note-Velocity_88 Note-On_43 Note-Duration_8 Note-Velocity_86 Note-On_31 Note-Duration_8 Note-Velocity_84 Position_12 Note-On_67 Note-Duration_4 Note-Velocity_86 Note-On_62 Note-Duration_4 Note-Velocity_88 Note-On_59 Note-Duration_4 Note-Velocity_90 Bar-End Bar-Start Position_0 Note-On_67 Note-Duration_4 Note-Velocity_86 Note-On_64 Note-Duration_4 Note-Velocity_84 Note-On_60 Note-Duration_4 Note-Velocity_88 Note-On_48 Note-Duration_9 Note-Velocity_92 Note-On_36 Note-Duration_9 Note-Velocity_84 Position_4 Note-On_67 Note-Duration_4 Note-Velocity_86 Note-On_64 Note-Duration_4 Note-Velocity_86 Note-On_60 Note-Duration_4 Note-Velocity_88 Position_8 Note-On_67 Note-Duration_4 Note-Velocity_86 Note-On_62 Note-Duration_4 Note-Velocity_90 Note-On_59 Note-Duration_4 Note-Velocity_88 Note-On_43 Note-Duration_9 Note-Velocity_86 Note-On_31 Note-Duration_9 Note-Velocity_84 Position_12 Note-On_67 Note-Duration_4 Note-Velocity_84 Note-On_62 Note-Duration_4 Note-Velocity_86 Note-On_59 Note-Duration_4 Note-Velocity_88 Bar-End Bar-Start Position_0 Note-On_67 Note-Duration_4 Note-Velocity_84 Note-On_64 Note-Duration_4 Note-Velocity_84 Note-On_60 Note-Duration_4 Note-Velocity_88 Note-On_48 Note-Duration_9 Note-Velocity_90 Note-On_36 Note-Duration_9 Note-Velocity_84 Position_4 Note-On_67 Note-Duration_4 Note-Velocity_86 Note-On_64 Note-Duration_4 Note-Velocity_86 Note-On_60 Note-Duration_4 Note-Velocity_88 Position_8 Note-On_67 Note-Duration_4 Note-Velocity_88 Note-On_62 Note-Duration_4 Note-Velocity_88 Note-On_59 Note-Duration_4 Note-Velocity_86 Note-On_43 Note-Duration_9 Note-Velocity_84 Note-On_31 Note-Duration_9 Note-Velocity_88 Position_12 Note-On_67 Note-Duration_4 Note-Velocity_84 Note-On_62 Note-Duration_4 Note-Velocity_88 Note-On_59 Note-Duration_4 Note-Velocity_90 Bar-End Bar-Start Position_0 Note-On_67 Note-Duration_4 Note-Velocity_86 Note-On_64 Note-Duration_4 Note-Velocity_84 Note-On_60 Note-Duration_4 Note-Velocity_88 Note-On_48 Note-Duration_9 Note-Velocity_82 Note-On_36 Note-Duration_9 Note-Velocity_86 Position_4 Note-On_67 Note-Duration_4 Note-Velocity_84 Note-On_64 Note-Duration_4 Note-Velocity_86 Note-On_60 Note-Duration_4 Note-Velocity_86 Position_8 Note-On_67 Note-Duration_4 Note-Velocity_86 Note-On_62 Note-Duration_4 Note-Velocity_88 Note-On_59 Note-Duration_4 Note-Velocity_88 Note-On_43 Note-Duration_9 Note-Velocity_84 Note-On_31 Note-Duration_9 Note-Velocity_84 Position_12 Note-On_67 Note-Duration_4 Note-Velocity_84 Note-On_62 Note-Duration_4 Note-Velocity_84 Note-On_59 Note-Duration_4 Note-Velocity_86 Bar-End Bar-Start Position_0 Note-On_67 Note-Duration_4 Note-Velocity_84 Note-On_64 Note-Duration_4 Note-Velocity_84 Note-On_60 Note-Duration_4 Note-Velocity_90 Note-On_48 Note-Duration_9 Note-Velocity_84 Note-On_36 Note-Duration_9 Note-Velocity_86 Position_4 Note-On_67 Note-Duration_4 Note-Velocity_84 Note-On_64 Note-Duration_4 Note-Velocity_86 Note-On_60 Note-Duration_4 Note-Velocity_86 Position_8 Note-On_67 Note-Duration_4 Note-Velocity_84 Note-On_62 Note-Duration_4 Note-Velocity_86 Note-On_59 Note-Duration_4 Note-Velocity_88 Note-On_43 Note-Duration_9 Note-Velocity_84 Note-On_31 Note-Duration_9 Note-Velocity_90 Position_12 Note-On_67 Note-Duration_4 Note-Velocity_84 Note-On_62 Note-Duration_4 Note-Velocity_86 Note-On_59 Note-Duration_4 Note-Velocity_88 Bar-End Bar-Start Position_0 Note-On_67 Note-Duration_4 Note-Velocity_86 Note-On_64 Note-Duration_4 Note-Velocity_88 Note-On_60 Note-Duration_4 Note-Velocity_90 Note-On_48 Note-Duration_8 Note-Velocity_70 Note-On_36 Note-Duration_8 Note-Velocity_84 Position_4 Note-On_67 Note-Duration_4 Note-Velocity_84 Note-On_64 Note-Duration_4 Note-Velocity_88 Note-On_60 Note-Duration_4 Note-Velocity_86 Position_8 Note-On_67 Note-Duration_4 Note-Velocity_84 Note-On_62 Note-Duration_4 Note-Velocity_84 Note-On_59 Note-Duration_4 Note-Velocity_86 Note-On_43 Note-Duration_9 Note-Velocity_80 Note-On_31 Note-Duration_9 Note-Velocity_84 Position_12 Note-On_67 Note-Duration_4 Note-Velocity_86 Note-On_62 Note-Duration_4 Note-Velocity_86 Note-On_59 Note-Duration_4 Note-Velocity_88 Bar-End Bar-Start Position_0 Note-On_67 Note-Duration_4 Note-Velocity_86 Note-On_64 Note-Duration_4 Note-Velocity_84 Note-On_60 Note-Duration_4 Note-Velocity_90 Note-On_48 Note-Duration_9 Note-Velocity_94 Note-On_36 Note-Duration_9 Note-Velocity_86 Position_4 Note-On_67 Note-Duration_4 Note-Velocity_86 Note-On_64 Note-Duration_4 Note-Velocity_88 Note-On_60 Note-Duration_4 Note-Velocity_86 Position_8 Note-On_67 Note-Duration_4 Note-Velocity_86 Note-On_62 Note-Duration_4 Note-Velocity_88 Note-On_59 Note-Duration_4 Note-Velocity_86 Note-On_43 Note-Duration_9 Note-Velocity_90 Note-On_31 Note-Duration_9 Note-Velocity_86 Position_12 Note-On_67 Note-Duration_4 Note-Velocity_86 Note-On_62 Note-Duration_4 Note-Velocity_88 Note-On_59 Note-Duration_4 Note-Velocity_88 Bar-End Bar-Start Position_0 Note-On_67 Note-Duration_4 Note-Velocity_86 Note-On_64 Note-Duration_4 Note-Velocity_86 Note-On_60 Note-Duration_4 Note-Velocity_90 Note-On_48 Note-Duration_9 Note-Velocity_84 Note-On_36 Note-Duration_9 Note-Velocity_90 Position_4 Note-On_67 Note-Duration_4 Note-Velocity_86 Note-On_64 Note-Duration_4 Note-Velocity_86 Note-On_60 Note-Duration_4 Note-Velocity_88 Position_8 Note-On_67 Note-Duration_4 Note-Velocity_86 Note-On_62 Note-Duration_4 Note-Velocity_88 Note-On_59 Note-Duration_4 Note-Velocity_86 Note-On_43 Note-Duration_9 Note-Velocity_86 Note-On_31 Note-Duration_9 Note-Velocity_86 Position_12 Note-On_67 Note-Duration_4 Note-Velocity_86 Note-On_62 Note-Duration_4 Note-Velocity_88 Note-On_59 Note-Duration_4 Note-Velocity_88 Bar-End Bar-Start Position_0 Note-On_67 Note-Duration_4 Note-Velocity_86 Note-On_64 Note-Duration_4 Note-Velocity_84 Note-On_60 Note-Duration_4 Note-Velocity_88 Note-On_48 Note-Duration_9 Note-Velocity_84 Note-On_36 Note-Duration_9 Note-Velocity_84 Position_4 Note-On_67 Note-Duration_4 Note-Velocity_86 Note-On_64 Note-Duration_4 Note-Velocity_84 Note-On_60 Note-Duration_4 Note-Velocity_86 Position_8 Note-On_67 Note-Duration_4 Note-Velocity_84 Note-On_62 Note-Duration_4 Note-Velocity_86 Note-On_59 Note-Duration_4 Note-Velocity_86 Note-On_43 Note-Duration_9 Note-Velocity_84 Note-On_31 Note-Duration_9 Note-Velocity_84 Position_12 Note-On_67 Note-Duration_4 Note-Velocity_86 Note-On_62 Note-Duration_4 Note-Velocity_88 Note-On_59 Note-Duration_4 Note-Velocity_88 Bar-End Bar-Start Position_0 Note-On_67 Note-Duration_4 Note-Velocity_86 Note-On_64 Note-Duration_4 Note-Velocity_88 Note-On_60 Note-Duration_4 Note-Velocity_88 Note-On_48 Note-Duration_9 Note-Velocity_84 Note-On_36 Note-Duration_9 Note-Velocity_84 Position_4 Note-On_67 Note-Duration_4 Note-Velocity_86 Note-On_64 Note-Duration_4 Note-Velocity_86 Note-On_60 Note-Duration_4 Note-Velocity_84 Position_8 Note-On_67 Note-Duration_4 Note-Velocity_86 Note-On_62 Note-Duration_4 Note-Velocity_86 Note-On_59 Note-Duration_4 Note-Velocity_88 Note-On_43 Note-Duration_9 Note-Velocity_86 Note-On_31 Note-Duration_9 Note-Velocity_86 Position_12 Note-On_67 Note-Duration_4 Note-Velocity_86 Note-On_62 Note-Duration_4 Note-Velocity_88 Note-On_59 Note-Duration_4 Note-Velocity_88 Bar-End Bar-Start Position_0 Note-On_67 Note-Duration_4 Note-Velocity_84 Note-On_64 Note-Duration_4 Note-Velocity_88 Note-On_60 Note-Duration_4 Note-Velocity_88 Note-On_48 Note-Duration_9 Note-Velocity_84 Note-On_36 Note-Duration_9 Note-Velocity_84 Position_4 Note-On_67 Note-Duration_4 Note-Velocity_86 Note-On_64 Note-Duration_4 Note-Velocity_88 Note-On_60 Note-Duration_4 Note-Velocity_88 Position_8 Note-On_67 Note-Duration_4 Note-Velocity_86 Note-On_62 Note-Duration_4 Note-Velocity_88 Note-On_59 Note-Duration_4 Note-Velocity_88 Note-On_43 Note-Duration_9 Note-Velocity_86 Note-On_31 Note-Duration_9 Note-Velocity_86 Position_12 Note-On_67 Note-Duration_4 Note-Velocity_86 Note-On_62 Note-Duration_4 Note-Velocity_88 Note-On_59 Note-Duration_4 Note-Velocity_88 Bar-End Bar-Start Position_0 Note-On_67 Note-Duration_4 Note-Velocity_84 Note-On_64 Note-Duration_4 Note-Velocity_88 Note-On_60 Note-Duration_4 Note-Velocity_88 Note-On_48 Note-Duration_8 Note-Velocity_90 Note-On_36 Note-Duration_8 Note-Velocity_86 Position_4 Note-On_67 Note-Duration_4 Note-Velocity_84 Note-On_64 Note-Duration_4 Note-Velocity_86 Note-On_60 Note-Duration_4 Note-Velocity_86 Position_8 Note-On_67 Note-Duration_4 Note-Velocity_88 Note-On_62 Note-Duration_4 Note-Velocity_88 Note-On_59 Note-Duration_4 Note-Velocity_88 Note-On_43 Note-Duration_9 Note-Velocity_84 Note-On_31 Note-Duration_9 Note-Velocity_84 Position_12 Note-On_67 Note-Duration_4 Note-Velocity_84 Note-On_62 Note-Duration_4 Note-Velocity_88 Note-On_59 Note-Duration_4 Note-Velocity_84 Bar-End Bar-Start Position_0 Note-On_67 Note-Duration_4 Note-Velocity_86 Note-On_64 Note-Duration_4 Note-Velocity_90 Note-On_60 Note-Duration_4 Note-Velocity_90 Note-On_48 Note-Duration_9 Note-Velocity_90 Note-On_36 Note-Duration_9 Note-Velocity_88 Position_4 Note-On_67 Note-Duration_4 Note-Velocity_90 Note-On_64 Note-Duration_4 Note-Velocity_86 Note-On_60 Note-Duration_4 Note-Velocity_88 Position_8 Note-On_67 Note-Duration_4 Note-Velocity_88 Note-On_62 Note-Duration_4 Note-Velocity_88 Note-On_59 Note-Duration_4 Note-Velocity_86 Note-On_43 Note-Duration_8 Note-Velocity_84 Note-On_31 Note-Duration_8 Note-Velocity_88 Position_12 Note-On_67 Note-Duration_4 Note-Velocity_88 Note-On_62 Note-Duration_4 Note-Velocity_88 Note-On_59 Note-Duration_4 Note-Velocity_88 Bar-End Bar-Start Position_0 Note-On_67 Note-Duration_4 Note-Velocity_86 Note-On_64 Note-Duration_4 Note-Velocity_84 Note-On_60 Note-Duration_4 Note-Velocity_88 Note-On_48 Note-Duration_9 Note-Velocity_86 Note-On_36 Note-Duration_9 Note-Velocity_84 Position_4 Note-On_67 Note-Duration_4 Note-Velocity_88 Note-On_64 Note-Duration_4 Note-Velocity_86 Note-On_60 Note-Duration_4 Note-Velocity_88 Position_8 Note-On_67 Note-Duration_4 Note-Velocity_86 Note-On_62 Note-Duration_4 Note-Velocity_88 Note-On_59 Note-Duration_4 Note-Velocity_84 Note-On_43 Note-Duration_9 Note-Velocity_84 Note-On_31 Note-Duration_9 Note-Velocity_86 Position_12 Note-On_67 Note-Duration_4 Note-Velocity_86 Note-On_62 Note-Duration_4 Note-Velocity_88 Note-On_59 Note-Duration_4 Note-Velocity_88 Bar-End Bar-Start Position_0 Note-On_67 Note-Duration_4 Note-Velocity_84 Note-On_64 Note-Duration_4 Note-Velocity_88 Note-On_60 Note-Duration_4 Note-Velocity_88 Note-On_48 Note-Duration_9 Note-Velocity_90 Note-On_36 Note-Duration_9 Note-Velocity_84 Position_4 Note-On_67 Note-Duration_4 Note-Velocity_86 Note-On_64 Note-Duration_4 Note-Velocity_86 Note-On_60 Note-Duration_4 Note-Velocity_88 Position_8 Note-On_67 Note-Duration_4 Note-Velocity_86 Note-On_62 Note-Duration_4 Note-Velocity_84 Note-On_59 Note-Duration_4 Note-Velocity_90 Note-On_43 Note-Duration_9 Note-Velocity_88 Note-On_31 Note-Duration_9 Note-Velocity_84 Position_12 Note-On_67 Note-Duration_4 Note-Velocity_86 Note-On_62 Note-Duration_4 Note-Velocity_88 Note-On_59 Note-Duration_4 Note-Velocity_84 Bar-End Bar-Start Position_0 Note-On_67 Note-Duration_4 Note-Velocity_84 Note-On_64 Note-Duration_4 Note-Velocity_84 Note-On_60 Note-Duration_4 Note-Velocity_88 Note-On_48 Note-Duration_9 Note-Velocity_90 Note-On_36 Note-Duration_9 Note-Velocity_84 Position_4 Note-On_67 Note-Duration_4 Note-Velocity_86 Note-On_64 Note-Duration_4 Note-Velocity_88 Note-On_60 Note-Duration_4 Note-Velocity_84 Position_8 Note-On_67 Note-Duration_4 Note-Velocity_86 Note-On_62 Note-Duration_4 Note-Velocity_88 Note-On_59 Note-Duration_4 Note-Velocity_86 Note-On_43 Note-Duration_8 Note-Velocity_88 Note-On_31 Note-Duration_8 Note-Velocity_86 Position_12 Note-On_67 Note-Duration_4 Note-Velocity_86 Note-On_62 Note-Duration_4 Note-Velocity_88 Note-On_59 Note-Duration_4 Note-Velocity_88 Bar-End Bar-Start Position_0 Note-On_67 Note-Duration_4 Note-Velocity_86 Note-On_64 Note-Duration_4 Note-Velocity_84 Note-On_60 Note-Duration_4 Note-Velocity_86 Note-On_48 Note-Duration_9 Note-Velocity_84 Note-On_36 Note-Duration_9 Note-Velocity_84 Position_4 Note-On_67 Note-Duration_4 Note-Velocity_86 Note-On_64 Note-Duration_4 Note-Velocity_84 Note-On_60 Note-Duration_4 Note-Velocity_86 Position_8 Note-On_67 Note-Duration_4 Note-Velocity_84 Note-On_62 Note-Duration_4 Note-Velocity_86 Note-On_59 Note-Duration_4 Note-Velocity_84 Note-On_43 Note-Duration_9 Note-Velocity_88 Note-On_31 Note-Duration_9 Note-Velocity_84 Position_12 Note-On_67 Note-Duration_4 Note-Velocity_86 Note-On_62 Note-Duration_4 Note-Velocity_88 Note-On_59 Note-Duration_4 Note-Velocity_88 Bar-End Bar-Start Position_0 Note-On_67 Note-Duration_4 Note-Velocity_86 Note-On_64 Note-Duration_4 Note-Velocity_84 Note-On_60 Note-Duration_4 Note-Velocity_90 Note-On_48 Note-Duration_9 Note-Velocity_84 Note-On_36 Note-Duration_9 Note-Velocity_84 Position_4 Note-On_67 Note-Duration_4 Note-Velocity_86 Note-On_64 Note-Duration_4 Note-Velocity_84 Note-On_60 Note-Duration_4 Note-Velocity_86 Position_8 Note-On_67 Note-Duration_4 Note-Velocity_88 Note-On_62 Note-Duration_4 Note-Velocity_88 Note-On_59 Note-Duration_4 Note-Velocity_86 Note-On_43 Note-Duration_9 Note-Velocity_84 Note-On_31 Note-Duration_9 Note-Velocity_84 Position_12 Note-On_67 Note-Duration_4 Note-Velocity_86 Note-On_62 Note-Duration_4 Note-Velocity_84 Note-On_59 Note-Duration_4 Note-Velocity_86 Bar-End Bar-Start Position_0 Note-On_67 Note-Duration_4 Note-Velocity_86 Note-On_64 Note-Duration_4 Note-Velocity_88 Note-On_60 Note-Duration_4 Note-Velocity_90 Note-On_48 Note-Duration_9 Note-Velocity_86 Note-On_36 Note-Duration_9 Note-Velocity_84 Position_4 Note-On_67 Note-Duration_4 Note-Velocity_86 Note-On_64 Note-Duration_4 Note-Velocity_88 Note-On_60 Note-Duration_4 Note-Velocity_84 Position_8 Note-On_67 Note-Duration_4 Note-Velocity_86 Note-On_62 Note-Duration_4 Note-Velocity_88 Note-On_59 Note-Duration_4 Note-Velocity_88 Note-On_43 Note-Duration_8 Note-Velocity_84 Note-On_31 Note-Duration_8 Note-Velocity_84 Position_12 Note-On_67 Note-Duration_4 Note-Velocity_84 Note-On_62 Note-Duration_4 Note-Velocity_84 Note-On_59 Note-Duration_4 Note-Velocity_86 Bar-End Bar-Start Position_0 Note-On_67 Note-Duration_4 Note-Velocity_84 Note-On_64 Note-Duration_4 Note-Velocity_86 Note-On_60 Note-Duration_4 Note-Velocity_88 Note-On_48 Note-Duration_9 Note-Velocity_84 Note-On_36 Note-Duration_9 Note-Velocity_86 Position_4 Note-On_67 Note-Duration_4 Note-Velocity_86 Note-On_64 Note-Duration_4 Note-Velocity_88 Note-On_60 Note-Duration_4 Note-Velocity_86 Position_8 Note-On_67 Note-Duration_4 Note-Velocity_86 Note-On_62 Note-Duration_4 Note-Velocity_90 Note-On_59 Note-Duration_4 Note-Velocity_88 Note-On_43 Note-Duration_9 Note-Velocity_86 Note-On_31 Note-Duration_9 Note-Velocity_86 Position_12 Note-On_67 Note-Duration_4 Note-Velocity_86 Note-On_62 Note-Duration_4 Note-Velocity_88 Note-On_59 Note-Duration_4 Note-Velocity_88 Bar-End Bar-Start Position_0 Note-On_67 Note-Duration_4 Note-Velocity_86 Note-On_64 Note-Duration_4 Note-Velocity_84 Note-On_60 Note-Duration_4 Note-Velocity_90 Note-On_48 Note-Duration_9 Note-Velocity_84 Note-On_36 Note-Duration_9 Note-Velocity_84 Position_4 Note-On_67 Note-Duration_4 Note-Velocity_86 Note-On_64 Note-Duration_4 Note-Velocity_86 Note-On_60 Note-Duration_4 Note-Velocity_84 Position_8 Note-On_67 Note-Duration_4 Note-Velocity_86 Note-On_62 Note-Duration_4 Note-Velocity_88 Note-On_59 Note-Duration_4 Note-Velocity_88 Note-On_43 Note-Duration_9 Note-Velocity_84 Note-On_31 Note-Duration_9 Note-Velocity_88 Position_12 Note-On_67 Note-Duration_4 Note-Velocity_84 Note-On_62 Note-Duration_4 Note-Velocity_84 Note-On_59 Note-Duration_4 Note-Velocity_86 Bar-End Bar-Start Position_0 Note-On_67 Note-Duration_4 Note-Velocity_86 Note-On_64 Note-Duration_4 Note-Velocity_88 Note-On_60 Note-Duration_4 Note-Velocity_86 Note-On_48 Note-Duration_9 Note-Velocity_84 Note-On_36 Note-Duration_9 Note-Velocity_84 Position_4 Note-On_67 Note-Duration_4 Note-Velocity_86 Note-On_64 Note-Duration_4 Note-Velocity_86 Note-On_60 Note-Duration_4 Note-Velocity_84 Position_8 Note-On_67 Note-Duration_4 Note-Velocity_88 Note-On_62 Note-Duration_4 Note-Velocity_86 Note-On_59 Note-Duration_4 Note-Velocity_88 Note-On_43 Note-Duration_9 Note-Velocity_86 Note-On_31 Note-Duration_9 Note-Velocity_86 Position_12 Note-On_67 Note-Duration_4 Note-Velocity_86 Note-On_62 Note-Duration_4 Note-Velocity_88 Note-On_59 Note-Duration_4 Note-Velocity_88 Bar-End Bar-Start Position_0 Note-On_67 Note-Duration_4 Note-Velocity_86 Note-On_64 Note-Duration_4 Note-Velocity_88 Note-On_60 Note-Duration_4 Note-Velocity_88 Note-On_48 Note-Duration_8 Note-Velocity_86 Note-On_36 Note-Duration_8 Note-Velocity_86 Position_4 Note-On_67 Note-Duration_4 Note-Velocity_86 Note-On_64 Note-Duration_4 Note-Velocity_88 Note-On_60 Note-Duration_4 Note-Velocity_86 Position_8 Note-On_67 Note-Duration_4 Note-Velocity_86 Note-On_62 Note-Duration_4 Note-Velocity_88 Note-On_59 Note-Duration_4 Note-Velocity_88 Note-On_43 Note-Duration_9 Note-Velocity_86 Note-On_31 Note-Duration_9 Note-Velocity_86 Position_12 Note-On_67 Note-Duration_4 Note-Velocity_86 Note-On_62 Note-Duration_4 Note-Velocity_88 Note-On_59 Note-Duration_4 Note-Velocity_88 Bar-End Bar-Start Position_0 Note-On_67 Note-Duration_4 Note-Velocity_84 Note-On_64 Note-Duration_4 Note-Velocity_86 Note-On_60 Note-Duration_4 Note-Velocity_88 Note-On_48 Note-Duration_9 Note-Velocity_84 Note-On_36 Note-Duration_9 Note-Velocity_84 Position_4 Note-On_67 Note-Duration_4 Note-Velocity_86 Note-On_64 Note-Duration_4 Note-Velocity_86 Note-On_60 Note-Duration_4 Note-Velocity_84 Position_8 Note-On_67 Note-Duration_4 Note-Velocity_86 Note-On_62 Note-Duration_4 Note-Velocity_88 Note-On_59 Note-Duration_4 Note-Velocity_88 Note-On_43 Note-Duration_8 Note-Velocity_86 Note-On_31 Note-Duration_8 Note-Velocity_86 Position_12 Note-On_67 Note-Duration_4 Note-Velocity_88 Note-On_62 Note-Duration_4 Note-Velocity_88 Note-On_59 Note-Duration_4 Note-Velocity_88 Bar-End Bar-Start Position_0 Note-On_67 Note-Duration_4 Note-Velocity_86 Note-On_64 Note-Duration_4 Note-Velocity_84 Note-On_60 Note-Duration_4 Note-Velocity_88 Note-On_48 Note-Duration_9 Note-Velocity_84 Note-On_36 Note-Duration_9 Note-Velocity_84 Position_4 Note-On_67 Note-Duration_4 Note-Velocity_86 Note-On_64 Note-Duration_4 Note-Velocity_86 Note-On_60 Note-Duration_4 Note-Velocity_84 Position_8 Note-On_67 Note-Duration_4 Note-Velocity_84 Note-On_62 Note-Duration_4 Note-Velocity_86 Note-On_59 Note-Duration_4 Note-Velocity_86 Note-On_43 Note-Duration_9 Note-Velocity_84 Note-On_31 Note-Duration_9 Note-Velocity_84 Position_12 Note-On_67 Note-Duration_4 Note-Velocity_86 Note-On_62 Note-Duration_4 Note-Velocity_88 Note-On_59 Note-Duration_4 Note-Velocity_88 Bar-End Bar-Start Position_0 Note-On_67 Note-Duration_4 Note-Velocity_86 Note-On_64 Note-Duration_4 Note-Velocity_88 Note-On_60 Note-Duration_4 Note-Velocity_88 Note-On_48 Note-Duration_9 Note-Velocity_84 Note-On_36 Note-Duration_9 Note-Velocity_84 Position_4 Note-On_67 Note-Duration_4 Note-Velocity_86 Note-On_64 Note-Duration_4 Note-Velocity_86 Note-On_60 Note-Duration_4 Note-Velocity_84 Position_8 Note-On_67 Note-Duration_4 Note-Velocity_86 Note-On_62 Note-Duration_4 Note-Velocity_88 Note-On_59 Note-Duration_4 Note-Velocity_88 Note-On_43 Note-Duration_9 Note-Velocity_84 Note-On_31 Note-Duration_9 Note-Velocity_86 Position_12 Note-On_67 Note-Duration_4 Note-Velocity_86 Note-On_62 Note-Duration_4 Note-Velocity_88 Note-On_59 Note-Duration_4 Note-Velocity_88 Bar-End Bar-Start Position_0 Note-On_67 Note-Duration_4 Note-Velocity_84 Note-On_64 Note-Duration_4 Note-Velocity_88 Note-On_60 Note-Duration_4 Note-Velocity_88 Note-On_48 Note-Duration_9 Note-Velocity_84 Note-On_36 Note-Duration_9 Note-Velocity_86 Position_4 Note-On_67 Note-Duration_4 Note-Velocity_86 Note-On_64 Note-Duration_4 Note-Velocity_88 Note-On_60 Note-Duration_4 Note-Velocity_84 Position_8 Note-On_67 Note-Duration_4 Note-Velocity_86 Note-On_62 Note-Duration_4 Note-Velocity_88 Note-On_59 Note-Duration_4 Note-Velocity_86 Note-On_43 Note-Duration_9 Note-Velocity_84 Note-On_31 Note-Duration_9 Note-Velocity_86 Position_12 Note-On_67 Note-Duration_4 Note-Velocity_88 Note-On_62 Note-Duration_4 Note-Velocity_88 Note-On_59 Note-Duration_4 Note-Velocity_88 Bar-End Bar-Start Position_0 Note-On_67 Note-Duration_4 Note-Velocity_84 Note-On_64 Note-Duration_4 Note-Velocity_88 Note-On_60 Note-Duration_4 Note-Velocity_88 Note-On_48 Note-Duration_9 Note-Velocity_86 Note-On_36 Note-Duration_9 Note-Velocity_84 Position_4 Note-On_67 Note-Duration_4 Note-Velocity_86 Note-On_64 Note-Duration_4 Note-Velocity_88 Note-On_60 Note-Duration_4 Note-Velocity_84 Position_8 Note-On_67 Note-Duration_4 Note-Velocity_86 Note-On_62 Note-Duration_4 Note-Velocity_88 Note-On_59 Note-Duration_4 Note-Velocity_86 Note-On_43 Note-Duration_9 Note-Velocity_84 Note-On_31 Note-Duration_9 Note-Velocity_86 Position_12 Note-On_67 Note-Duration_4 Note-Velocity_88 Note-On_62 Note-Duration_4 Note-Velocity_88 Note-On_59 Note-Duration_4 Note-Velocity_88 Bar-End Bar-Start Position_0 Note-On_67 Note-Duration_4 Note-Velocity_84 Note-On_64 Note-Duration_4 Note-Velocity_88 Note-On_60 Note-Duration_4 Note-Velocity_88 Note-On_48 Note-Duration_8 Note-Velocity_90 Note-On_36 Note-Duration_9 Note-Velocity_88 Position_4 Note-On_67 Note-Duration_4 Note-Velocity_86 Note-On_64 Note-Duration_4 Note-Velocity_88 Note-On_60 Note-Duration_4 Note-Velocity_84 Position_8 Note-On_67 Note-Duration_4 Note-Velocity_86 Note-On_62 Note-Duration_4 Note-Velocity_88 Note-On_59 Note-Duration_4 Note-Velocity_88 Note-On_43 Note-Duration_8 Note-Velocity_92 Note-On_31 Note-Duration_8 Note-Velocity_84 Position_12 Note-On_67 Note-Duration_4 Note-Velocity_88 Note-On_62 Note-Duration_4 Note-Velocity_88 Note-On_59 Note-Duration_4 Note-Velocity_86 Bar-End Bar-Start Position_0 Note-On_67 Note-Duration_4 Note-Velocity_86 Note-On_64 Note-Duration_4 Note-Velocity_88 Note-On_60 Note-Duration_4 Note-Velocity_88 Note-On_48 Note-Duration_9 Note-Velocity_92 Note-On_36 Note-Duration_9 Note-Velocity_84 Position_4 Note-On_67 Note-Duration_4 Note-Velocity_86 Note-On_64 Note-Duration_4 Note-Velocity_86 Note-On_60 Note-Duration_4 Note-Velocity_84 Position_8 Note-On_67 Note-Duration_4 Note-Velocity_86 Note-On_62 Note-Duration_4 Note-Velocity_88 Note-On_59 Note-Duration_4 Note-Velocity_86 Note-On_43 Note-Duration_9 Note-Velocity_88 Note-On_31 Note-Duration_9 Note-Velocity_88 Position_12 Note-On_67 Note-Duration_4 Note-Velocity_84 Note-On_62 Note-Duration_4 Note-Velocity_86 Note-On_59 Note-Duration_4 Note-Velocity_84 Bar-End Bar-Start Position_0 Note-On_67 Note-Duration_4 Note-Velocity_86 Note-On_64 Note-Duration_4 Note-Velocity_88 Note-On_60 Note-Duration_4 Note-Velocity_88 Note-On_48 Note-Duration_9 Note-Velocity_88 Note-On_36 Note-Duration_9 Note-Velocity_84 Position_4 Note-On_67 Note-Duration_4 Note-Velocity_88 Note-On_64 Note-Duration_4 Note-Velocity_86 Note-On_60 Note-Duration_4 Note-Velocity_84 Position_8 Note-On_67 Note-Duration_4 Note-Velocity_86 Note-On_62 Note-Duration_4 Note-Velocity_84 Note-On_59 Note-Duration_4 Note-Velocity_86 Note-On_43 Note-Duration_9 Note-Velocity_84 Note-On_31 Note-Duration_9 Note-Velocity_86 Position_12 Note-On_67 Note-Duration_4 Note-Velocity_88 Note-On_62 Note-Duration_4 Note-Velocity_88 Note-On_59 Note-Duration_4 Note-Velocity_86 Bar-End Bar-Start Position_0 Note-On_67 Note-Duration_4 Note-Velocity_86 Note-On_64 Note-Duration_4 Note-Velocity_84 Note-On_60 Note-Duration_4 Note-Velocity_90 Note-On_48 Note-Duration_9 Note-Velocity_84 Note-On_36 Note-Duration_9 Note-Velocity_86 Position_4 Note-On_67 Note-Duration_4 Note-Velocity_86 Note-On_64 Note-Duration_4 Note-Velocity_86 Note-On_60 Note-Duration_4 Note-Velocity_84 Position_8 Note-On_67 Note-Duration_4 Note-Velocity_86 Note-On_62 Note-Duration_4 Note-Velocity_88 Note-On_59 Note-Duration_4 Note-Velocity_86 Note-On_43 Note-Duration_9 Note-Velocity_84 Note-On_31 Note-Duration_9 Note-Velocity_88 Position_12 Note-On_67 Note-Duration_4 Note-Velocity_86 Note-On_62 Note-Duration_4 Note-Velocity_88 Note-On_59 Note-Duration_4 Note-Velocity_88 Bar-End Bar-Start Position_0 Note-On_67 Note-Duration_4 Note-Velocity_86 Note-On_64 Note-Duration_4 Note-Velocity_84 Note-On_60 Note-Duration_4 Note-Velocity_90 Note-On_48 Note-Duration_9 Note-Velocity_84 Note-On_36 Note-Duration_9 Note-Velocity_84 Position_4 Note-On_67 Note-Duration_4 Note-Velocity_86 Note-On_64 Note-Duration_4 Note-Velocity_86 Note-On_60 Note-Duration_4 Note-Velocity_84 Position_8 Note-On_67 Note-Duration_4 Note-Velocity_88 Note-On_62 Note-Duration_4 Note-Velocity_88 Note-On_59 Note-Duration_4 Note-Velocity_88 Note-On_43 Note-Duration_9 Note-Velocity_86 Note-On_31 Note-Duration_9 Note-Velocity_86 Position_12 Note-On_67 Note-Duration_4 Note-Velocity_86 Note-On_62 Note-Duration_4 Note-Velocity_88 Note-On_59 Note-Duration_4 Note-Velocity_88 Bar-End Bar-Start Position_0 Note-On_67 Note-Duration_4 Note-Velocity_88 Note-On_64 Note-Duration_4 Note-Velocity_86 Note-On_60 Note-Duration_4 Note-Velocity_88 Note-On_48 Note-Duration_9 Note-Velocity_86 Note-On_36 Note-Duration_9 Note-Velocity_86 Position_4 Note-On_67 Note-Duration_4 Note-Velocity_86 Note-On_64 Note-Duration_4 Note-Velocity_88 Note-On_60 Note-Duration_4 Note-Velocity_84 Position_8 Note-On_67 Note-Duration_4 Note-Velocity_88 Note-On_62 Note-Duration_4 Note-Velocity_86 Note-On_59 Note-Duration_4 Note-Velocity_88 Note-On_43 Note-Duration_9 Note-Velocity_84 Note-On_31 Note-Duration_9 Note-Velocity_86 Position_12 Note-On_67 Note-Duration_4 Note-Velocity_84 Note-On_62 Note-Duration_4 Note-Velocity_86 Note-On_59 Note-Duration_4 Note-Velocity_86 Bar-End Bar-Start Position_0 Note-On_67 Note-Duration_4 Note-Velocity_84 Note-On_64 Note-Duration_4 Note-Velocity_86 Note-On_60 Note-Duration_4 Note-Velocity_88 Note-On_48 Note-Duration_8 Note-Velocity_86 Note-On_36 Note-Duration_8 Note-Velocity_86 Position_4 Note-On_67 Note-Duration_4 Note-Velocity_88 Note-On_64 Note-Duration_4 Note-Velocity_86 Note-On_60 Note-Duration_4 Note-Velocity_84 Position_8 Note-On_67 Note-Duration_4 Note-Velocity_86 Note-On_62 Note-Duration_4 Note-Velocity_84 Note-On_59 Note-Duration_4 Note-Velocity_86 Note-On_43 Note-Duration_9 Note-Velocity_84 Note-On_31 Note-Duration_9 Note-Velocity_86 Position_12 Note-On_67 Note-Duration_4 Note-Velocity_88 Note-On_62 Note-Duration_4 Note-Velocity_88 Note-On_59 Note-Duration_4 Note-Velocity_88 Bar-End Bar-Start Position_0 Note-On_67 Note-Duration_4 Note-Velocity_88 Note-On_64 Note-Duration_4 Note-Velocity_86 Note-On_60 Note-Duration_4 Note-Velocity_84 Note-On_48 Note-Duration_8 Note-Velocity_84 Note-On_36 Note-Duration_9 Note-Velocity_84 Position_4 Note-On_67 Note-Duration_4 Note-Velocity_86 Note-On_64 Note-Duration_4 Note-Velocity_86 Note-On_60 Note-Duration_4 Note-Velocity_84 Position_8 Note-On_67 Note-Duration_4 Note-Velocity_86 Note-On_62 Note-Duration_4 Note-Velocity_84 Note-On_59 Note-Duration_4 Note-Velocity_86 Note-On_43 Note-Duration_9 Note-Velocity_84 Note-On_31 Note-Duration_9 Note-Velocity_86 Position_12 Note-On_67 Note-Duration_4 Note-Velocity_86 Note-On_62 Note-Duration_4 Note-Velocity_84 Note-On_59 Note-Duration_4 Note-Velocity_86 Bar-End Bar-Start Position_0 Note-On_67 Note-Duration_4 Note-Velocity_86 Note-On_64 Note-Duration_4 Note-Velocity_88 Note-On_60 Note-Duration_4 Note-Velocity_88 Note-On_48 Note-Duration_9 Note-Velocity_88 Note-On_36 Note-Duration_9 Note-Velocity_84 Position_4 Note-On_67 Note-Duration_4 Note-Velocity_88 Note-On_64 Note-Duration_4 Note-Velocity_88 Note-On_60 Note-Duration_4 Note-Velocity_84 Position_8 Note-On_67 Note-Duration_4 Note-Velocity_86 Note-On_62 Note-Duration_4 Note-Velocity_86 Note-On_59 Note-Duration_4 Note-Velocity_86 Note-On_43 Note-Duration_9 Note-Velocity_84 Note-On_31 Note-Duration_9 Note-Velocity_86 Position_12 Note-On_67 Note-Duration_4 Note-Velocity_88 Note-On_62 Note-Duration_4 Note-Velocity_88 Note-On_59 Note-Duration_4 Note-Velocity_88 Bar-End Bar-Start Position_0 Note-On_67 Note-Duration_4 Note-Velocity_86 Note-On_64 Note-Duration_4 Note-Velocity_84 Note-On_60 Note-Duration_4 Note-Velocity_84 Note-On_48 Note-Duration_8 Note-Velocity_88 Note-On_36 Note-Duration_8 Note-Velocity_88 Position_4 Note-On_67 Note-Duration_4 Note-Velocity_86 Note-On_64 Note-Duration_4 Note-Velocity_84 Note-On_60 Note-Duration_4 Note-Velocity_86 Position_8 Note-On_67 Note-Duration_4 Note-Velocity_86 Note-On_62 Note-Duration_4 Note-Velocity_84 Note-On_59 Note-Duration_4 Note-Velocity_88 Note-On_43 Note-Duration_9 Note-Velocity_84 Note-On_31 Note-Duration_9 Note-Velocity_84 Position_12 Note-On_67 Note-Duration_4 Note-Velocity_86 Note-On_62 Note-Duration_4 Note-Velocity_84 Note-On_59 Note-Duration_4 Note-Velocity_88 Bar-End Bar-Start Position_0 Note-On_67 Note-Duration_4 Note-Velocity_84 Note-On_64 Note-Duration_4 Note-Velocity_86 Note-On_60 Note-Duration_4 Note-Velocity_88 Note-On_48 Note-Duration_9 Note-Velocity_84 Note-On_36 Note-Duration_9 Note-Velocity_86 Position_4 Note-On_67 Note-Duration_4 Note-Velocity_88 Note-On_64 Note-Duration_4 Note-Velocity_86 Note-On_60 Note-Duration_4 Note-Velocity_84 Position_8 Note-On_67 Note-Duration_4 Note-Velocity_86 Note-On_62 Note-Duration_4 Note-Velocity_84 Note-On_59 Note-Duration_4 Note-Velocity_86 Note-On_43 Note-Duration_9 Note-Velocity_84 Note-On_31 Note-Duration_9 Note-Velocity_86 Position_12 Note-On_67 Note-Duration_4 Note-Velocity_86 Note-On_62 Note-Duration_4 Note-Velocity_84 Note-On_59 Note-Duration_4 Note-Velocity_86 Bar-End Bar-Start Position_0 Note-On_67 Note-Duration_4 Note-Velocity_86 Note-On_64 Note-Duration_4 Note-Velocity_84 Note-On_60 Note-Duration_4 Note-Velocity_86 Note-On_48 Note-Duration_9 Note-Velocity_84 Note-On_36 Note-Duration_9 Note-Velocity_84 Position_4 Note-On_67 Note-Duration_4 Note-Velocity_86 Note-On_64 Note-Duration_4 Note-Velocity_84 Note-On_60 Note-Duration_4 Note-Velocity_86 Position_8 Note-On_67 Note-Duration_4 Note-Velocity_86 Note-On_62 Note-Duration_4 Note-Velocity_88 Note-On_59 Note-Duration_4 Note-Velocity_86 Note-On_43 Note-Duration_9 Note-Velocity_84 Note-On_31 Note-Duration_9 Note-Velocity_86 Position_12 Note-On_67 Note-Duration_4 Note-Velocity_86 Note-On_62 Note-Duration_4 Note-Velocity_84 Note-On_59 Note-Duration_4 Note-Velocity_86 Bar-End Bar-Start Position_0 Note-On_67 Note-Duration_4 Note-Velocity_84 Note-On_64 Note-Duration_4 Note-Velocity_88 Note-On_60 Note-Duration_4 Note-Velocity_88 Note-On_48 Note-Duration_9 Note-Velocity_84 Note-On_36 Note-Duration_9 Note-Velocity_86 Position_4 Note-On_67 Note-Duration_4 Note-Velocity_88 Note-On_64 Note-Duration_4 Note-Velocity_88 Note-On_60 Note-Duration_4 Note-Velocity_86 Position_8 Note-On_67 Note-Duration_4 Note-Velocity_86 Note-On_62 Note-Duration_4 Note-Velocity_86 Note-On_59 Note-Duration_4 Note-Velocity_86 Note-On_43 Note-Duration_9 Note-Velocity_84 Note-On_31 Note-Duration_9 Note-Velocity_86 Position_12 Note-On_67 Note-Duration_4 Note-Velocity_86 Note-On_62 Note-Duration_4 Note-Velocity_88 Note-On_59 Note-Duration_4 Note-Velocity_88 Bar-End Bar-Start Position_0 Note-On_67 Note-Duration_4 Note-Velocity_86 Note-On_64 Note-Duration_4 Note-Velocity_84 Note-On_60 Note-Duration_4 Note-Velocity_90 Note-On_48 Note-Duration_9 Note-Velocity_84 Note-On_36 Note-Duration_9 Note-Velocity_84 Position_4 Note-On_67 Note-Duration_4 Note-Velocity_86 Note-On_64 Note-Duration_4 Note-Velocity_86 Note-On_60 Note-Duration_4 Note-Velocity_84 Position_8 Note-On_67 Note-Duration_4 Note-Velocity_86 Note-On_62 Note-Duration_4 Note-Velocity_88 Note-On_59 Note-Duration_4 Note-Velocity_88 Note-On_43 Note-Duration_9 Note-Velocity_84 Note-On_31 Note-Duration_9 Note-Velocity_84 Position_12 Note-On_67 Note-Duration_4 Note-Velocity_86 Note-On_62 Note-Duration_4 Note-Velocity_84 Note-On_59 Note-Duration_4 Note-Velocity_86 Bar-End Bar-Start Position_0 Note-On_67 Note-Duration_4 Note-Velocity_86 Note-On_64 Note-Duration_4 Note-Velocity_88 Note-On_60 Note-Duration_4 Note-Velocity_88 Note-On_48 Note-Duration_9 Note-Velocity_84 Note-On_36 Note-Duration_9 Note-Velocity_88 Position_4 Note-On_67 Note-Duration_4 Note-Velocity_86 Note-On_64 Note-Duration_4 Note-Velocity_88 Note-On_60 Note-Duration_4 Note-Velocity_84 Position_8 Note-On_67 Note-Duration_4 Note-Velocity_88 Note-On_62 Note-Duration_4 Note-Velocity_86 Note-On_59 Note-Duration_4 Note-Velocity_86 Note-On_43 Note-Duration_9 Note-Velocity_84 Note-On_31 Note-Duration_9 Note-Velocity_86 Position_12 Note-On_67 Note-Duration_4 Note-Velocity_86 Note-On_62 Note-Duration_4 Note-Velocity_88 Note-On_59 Note-Duration_4 Note-Velocity_88 Bar-End Track-End Track-Start Inst_45 Bar-Start Bar-End Bar-Start Position_0 Note-On_55 Note-Duration_1 Note-Velocity_112 Position_1 Note-On_55 Note-Duration_1 Note-Velocity_112 Position_3 Note-On_55 Note-Duration_1 Note-Velocity_110 Position_4 Note-On_55 Note-Duration_1 Note-Velocity_110 Position_5 Note-On_55 Note-Duration_1 Note-Velocity_110 Position_7 Note-On_55 Note-Duration_1 Note-Velocity_112 Position_8 Note-On_55 Note-Duration_1 Note-Velocity_112 Position_9 Note-On_55 Note-Duration_1 Note-Velocity_113 Position_11 Note-On_55 Note-Duration_1 Note-Velocity_115 Position_12 Note-On_55 Note-Duration_1 Note-Velocity_115 Position_13 Note-On_55 Note-Duration_1 Note-Velocity_115 Position_15 Note-On_55 Note-Duration_1 Note-Velocity_115 Bar-End Bar-Start Position_0 Note-On_57 Note-Duration_1 Note-Velocity_112 Position_1 Note-On_57 Note-Duration_1 Note-Velocity_113 Position_3 Note-On_57 Note-Duration_1 Note-Velocity_111 Position_4 Note-On_57 Note-Duration_1 Note-Velocity_113 Position_5 Note-On_57 Note-Duration_1 Note-Velocity_113 Position_7 Note-On_57 Note-Duration_1 Note-Velocity_110 Position_8 Note-On_57 Note-Duration_1 Note-Velocity_109 Position_9 Note-On_57 Note-Duration_1 Note-Velocity_112 Position_11 Note-On_57 Note-Duration_1 Note-Velocity_113 Position_12 Note-On_57 Note-Duration_1 Note-Velocity_109 Position_13 Note-On_57 Note-Duration_1 Note-Velocity_112 Position_15 Note-On_57 Note-Duration_1 Note-Velocity_111 Bar-End Bar-Start Position_0 Note-On_55 Note-Duration_1 Note-Velocity_113 Position_1 Note-On_55 Note-Duration_1 Note-Velocity_111 Position_3 Note-On_55 Note-Duration_1 Note-Velocity_111 Position_4 Note-On_55 Note-Duration_1 Note-Velocity_110 Position_5 Note-On_55 Note-Duration_1 Note-Velocity_111 Position_7 Note-On_55 Note-Duration_1 Note-Velocity_110 Position_8 Note-On_55 Note-Duration_1 Note-Velocity_109 Position_9 Note-On_55 Note-Duration_1 Note-Velocity_109 Position_11 Note-On_55 Note-Duration_1 Note-Velocity_110 Position_12 Note-On_55 Note-Duration_1 Note-Velocity_109 Position_13 Note-On_55 Note-Duration_1 Note-Velocity_110 Position_15 Note-On_55 Note-Duration_1 Note-Velocity_115 Bar-End Bar-Start Position_0 Note-On_55 Note-Duration_1 Note-Velocity_111 Position_1 Note-On_55 Note-Duration_1 Note-Velocity_111 Position_3 Note-On_55 Note-Duration_1 Note-Velocity_110 Position_4 Note-On_55 Note-Duration_1 Note-Velocity_109 Position_5 Note-On_55 Note-Duration_1 Note-Velocity_110 Position_7 Note-On_55 Note-Duration_1 Note-Velocity_110 Position_8 Note-On_55 Note-Duration_1 Note-Velocity_115 Position_9 Note-On_55 Note-Duration_1 Note-Velocity_110 Position_11 Note-On_55 Note-Duration_1 Note-Velocity_110 Position_12 Note-On_55 Note-Duration_1 Note-Velocity_111 Position_13 Note-On_55 Note-Duration_1 Note-Velocity_111 Position_15 Note-On_55 Note-Duration_1 Note-Velocity_110 Bar-End Bar-Start Position_0 Note-On_57 Note-Duration_1 Note-Velocity_115 Position_1 Note-On_57 Note-Duration_1 Note-Velocity_110 Position_3 Note-On_57 Note-Duration_1 Note-Velocity_110 Position_4 Note-On_57 Note-Duration_1 Note-Velocity_111 Position_5 Note-On_57 Note-Duration_1 Note-Velocity_110 Position_7 Note-On_57 Note-Duration_1 Note-Velocity_111 Position_8 Note-On_57 Note-Duration_1 Note-Velocity_110 Position_9 Note-On_57 Note-Duration_1 Note-Velocity_110 Position_11 Note-On_57 Note-Duration_1 Note-Velocity_111 Position_12 Note-On_57 Note-Duration_1 Note-Velocity_110 Position_13 Note-On_57 Note-Duration_1 Note-Velocity_110 Position_15 Note-On_57 Note-Duration_1 Note-Velocity_111 Bar-End Bar-Start Position_0 Note-On_55 Note-Duration_1 Note-Velocity_112 Position_1 Note-On_55 Note-Duration_1 Note-Velocity_110 Position_3 Note-On_55 Note-Duration_1 Note-Velocity_111 Position_4 Note-On_55 Note-Duration_1 Note-Velocity_112 Position_5 Note-On_55 Note-Duration_1 Note-Velocity_110 Position_7 Note-On_55 Note-Duration_1 Note-Velocity_110 Position_8 Note-On_55 Note-Duration_1 Note-Velocity_110 Position_9 Note-On_55 Note-Duration_1 Note-Velocity_115 Position_11 Note-On_55 Note-Duration_1 Note-Velocity_112 Position_12 Note-On_55 Note-Duration_1 Note-Velocity_111 Position_13 Note-On_55 Note-Duration_1 Note-Velocity_111 Position_15 Note-On_55 Note-Duration_1 Note-Velocity_110 Bar-End Bar-Start Position_0 Note-On_55 Note-Duration_1 Note-Velocity_112 Position_1 Note-On_55 Note-Duration_1 Note-Velocity_109 Position_3 Note-On_55 Note-Duration_1 Note-Velocity_109 Position_4 Note-On_55 Note-Duration_1 Note-Velocity_111 Position_5 Note-On_55 Note-Duration_1 Note-Velocity_110 Position_7 Note-On_55 Note-Duration_1 Note-Velocity_111 Position_8 Note-On_55 Note-Duration_1 Note-Velocity_109 Position_9 Note-On_55 Note-Duration_1 Note-Velocity_111 Position_11 Note-On_55 Note-Duration_1 Note-Velocity_110 Position_12 Note-On_55 Note-Duration_1 Note-Velocity_109 Position_13 Note-On_55 Note-Duration_1 Note-Velocity_109 Position_15 Note-On_55 Note-Duration_1 Note-Velocity_110 Bar-End Bar-Start Position_0 Note-On_55 Note-Duration_1 Note-Velocity_110 Position_1 Note-On_55 Note-Duration_1 Note-Velocity_115 Position_3 Note-On_55 Note-Duration_1 Note-Velocity_115 Position_4 Note-On_55 Note-Duration_1 Note-Velocity_110 Position_5 Note-On_55 Note-Duration_1 Note-Velocity_111 Position_7 Note-On_55 Note-Duration_1 Note-Velocity_111 Position_8 Note-On_55 Note-Duration_1 Note-Velocity_111 Position_9 Note-On_55 Note-Duration_1 Note-Velocity_110 Position_11 Note-On_55 Note-Duration_1 Note-Velocity_109 Position_12 Note-On_55 Note-Duration_1 Note-Velocity_110 Position_13 Note-On_55 Note-Duration_1 Note-Velocity_110 Position_15 Note-On_55 Note-Duration_1 Note-Velocity_109 Bar-End Bar-Start Position_0 Note-On_55 Note-Duration_1 Note-Velocity_112 Position_1 Note-On_55 Note-Duration_1 Note-Velocity_110 Position_3 Note-On_55 Note-Duration_1 Note-Velocity_110 Position_4 Note-On_55 Note-Duration_1 Note-Velocity_110 Position_5 Note-On_55 Note-Duration_1 Note-Velocity_110 Position_7 Note-On_55 Note-Duration_1 Note-Velocity_110 Position_8 Note-On_55 Note-Duration_1 Note-Velocity_113 Position_9 Note-On_55 Note-Duration_1 Note-Velocity_110 Position_11 Note-On_55 Note-Duration_1 Note-Velocity_115 Position_12 Note-On_55 Note-Duration_1 Note-Velocity_109 Position_13 Note-On_55 Note-Duration_1 Note-Velocity_109 Position_15 Note-On_55 Note-Duration_1 Note-Velocity_110 Bar-End Bar-Start Position_0 Note-On_57 Note-Duration_1 Note-Velocity_109 Position_1 Note-On_57 Note-Duration_1 Note-Velocity_109 Position_3 Note-On_57 Note-Duration_1 Note-Velocity_110 Position_4 Note-On_57 Note-Duration_1 Note-Velocity_112 Position_5 Note-On_57 Note-Duration_1 Note-Velocity_110 Position_7 Note-On_57 Note-Duration_1 Note-Velocity_110 Position_8 Note-On_57 Note-Duration_1 Note-Velocity_113 Position_9 Note-On_57 Note-Duration_1 Note-Velocity_111 Position_11 Note-On_57 Note-Duration_1 Note-Velocity_111 Position_12 Note-On_57 Note-Duration_1 Note-Velocity_110 Position_13 Note-On_57 Note-Duration_1 Note-Velocity_110 Position_15 Note-On_57 Note-Duration_1 Note-Velocity_110 Bar-End Bar-Start Position_0 Note-On_55 Note-Duration_1 Note-Velocity_113 Position_1 Note-On_55 Note-Duration_1 Note-Velocity_110 Position_3 Note-On_55 Note-Duration_1 Note-Velocity_109 Position_4 Note-On_55 Note-Duration_1 Note-Velocity_109 Position_5 Note-On_55 Note-Duration_1 Note-Velocity_109 Position_7 Note-On_55 Note-Duration_1 Note-Velocity_110 Position_8 Note-On_55 Note-Duration_1 Note-Velocity_112 Position_9 Note-On_55 Note-Duration_1 Note-Velocity_109 Position_11 Note-On_55 Note-Duration_1 Note-Velocity_115 Position_12 Note-On_55 Note-Duration_1 Note-Velocity_113 Position_13 Note-On_55 Note-Duration_1 Note-Velocity_112 Position_15 Note-On_55 Note-Duration_1 Note-Velocity_110 Bar-End Bar-Start Position_0 Note-On_55 Note-Duration_1 Note-Velocity_113 Position_1 Note-On_55 Note-Duration_1 Note-Velocity_111 Position_3 Note-On_55 Note-Duration_1 Note-Velocity_112 Position_4 Note-On_55 Note-Duration_1 Note-Velocity_110 Position_5 Note-On_55 Note-Duration_1 Note-Velocity_110 Position_7 Note-On_55 Note-Duration_1 Note-Velocity_109 Position_8 Note-On_55 Note-Duration_1 Note-Velocity_115 Position_9 Note-On_55 Note-Duration_1 Note-Velocity_113 Position_11 Note-On_55 Note-Duration_1 Note-Velocity_113 Position_12 Note-On_55 Note-Duration_1 Note-Velocity_111 Position_13 Note-On_55 Note-Duration_1 Note-Velocity_109 Position_15 Note-On_55 Note-Duration_1 Note-Velocity_109 Bar-End Bar-Start Position_0 Note-On_55 Note-Duration_1 Note-Velocity_110 Position_1 Note-On_55 Note-Duration_1 Note-Velocity_111 Position_3 Note-On_55 Note-Duration_1 Note-Velocity_111 Position_4 Note-On_55 Note-Duration_1 Note-Velocity_110 Position_5 Note-On_55 Note-Duration_1 Note-Velocity_111 Position_7 Note-On_55 Note-Duration_1 Note-Velocity_112 Position_8 Note-On_55 Note-Duration_1 Note-Velocity_111 Position_9 Note-On_55 Note-Duration_1 Note-Velocity_110 Position_11 Note-On_55 Note-Duration_1 Note-Velocity_109 Position_12 Note-On_55 Note-Duration_1 Note-Velocity_115 Position_13 Note-On_55 Note-Duration_1 Note-Velocity_109 Position_15 Note-On_55 Note-Duration_1 Note-Velocity_111 Bar-End Bar-Start Position_0 Note-On_57 Note-Duration_1 Note-Velocity_112 Position_1 Note-On_57 Note-Duration_1 Note-Velocity_113 Position_3 Note-On_57 Note-Duration_1 Note-Velocity_109 Position_4 Note-On_57 Note-Duration_1 Note-Velocity_110 Position_5 Note-On_57 Note-Duration_1 Note-Velocity_113 Position_7 Note-On_57 Note-Duration_1 Note-Velocity_109 Position_8 Note-On_57 Note-Duration_1 Note-Velocity_112 Position_9 Note-On_57 Note-Duration_1 Note-Velocity_110 Position_11 Note-On_57 Note-Duration_1 Note-Velocity_113 Position_12 Note-On_57 Note-Duration_1 Note-Velocity_110 Position_13 Note-On_57 Note-Duration_1 Note-Velocity_112 Position_15 Note-On_57 Note-Duration_1 Note-Velocity_112 Bar-End Bar-Start Position_0 Note-On_55 Note-Duration_1 Note-Velocity_110 Position_1 Note-On_55 Note-Duration_1 Note-Velocity_111 Position_3 Note-On_55 Note-Duration_1 Note-Velocity_109 Position_4 Note-On_55 Note-Duration_1 Note-Velocity_110 Position_5 Note-On_55 Note-Duration_1 Note-Velocity_115 Position_7 Note-On_55 Note-Duration_1 Note-Velocity_109 Position_8 Note-On_55 Note-Duration_1 Note-Velocity_113 Position_9 Note-On_55 Note-Duration_1 Note-Velocity_111 Position_11 Note-On_55 Note-Duration_1 Note-Velocity_109 Position_12 Note-On_55 Note-Duration_1 Note-Velocity_110 Position_13 Note-On_55 Note-Duration_1 Note-Velocity_111 Position_15 Note-On_55 Note-Duration_1 Note-Velocity_111 Bar-End Bar-Start Position_0 Note-On_55 Note-Duration_1 Note-Velocity_110 Position_1 Note-On_55 Note-Duration_1 Note-Velocity_111 Position_3 Note-On_55 Note-Duration_1 Note-Velocity_109 Position_4 Note-On_55 Note-Duration_1 Note-Velocity_111 Position_5 Note-On_55 Note-Duration_1 Note-Velocity_110 Position_7 Note-On_55 Note-Duration_1 Note-Velocity_109 Position_8 Note-On_55 Note-Duration_1 Note-Velocity_113 Position_9 Note-On_55 Note-Duration_1 Note-Velocity_115 Position_11 Note-On_55 Note-Duration_1 Note-Velocity_111 Position_12 Note-On_55 Note-Duration_1 Note-Velocity_113 Position_13 Note-On_55 Note-Duration_1 Note-Velocity_112 Position_15 Note-On_55 Note-Duration_1 Note-Velocity_110 Bar-End Bar-Start Position_0 Note-On_55 Note-Duration_1 Note-Velocity_112 Position_1 Note-On_55 Note-Duration_1 Note-Velocity_113 Position_3 Note-On_55 Note-Duration_1 Note-Velocity_109 Position_4 Note-On_55 Note-Duration_1 Note-Velocity_112 Position_5 Note-On_55 Note-Duration_1 Note-Velocity_109 Position_7 Note-On_55 Note-Duration_1 Note-Velocity_111 Position_8 Note-On_55 Note-Duration_1 Note-Velocity_111 Position_9 Note-On_55 Note-Duration_1 Note-Velocity_111 Position_11 Note-On_55 Note-Duration_1 Note-Velocity_113 Position_12 Note-On_55 Note-Duration_1 Note-Velocity_115 Position_13 Note-On_55 Note-Duration_1 Note-Velocity_109 Position_15 Note-On_55 Note-Duration_1 Note-Velocity_113 Bar-End Bar-Start Position_0 Note-On_57 Note-Duration_1 Note-Velocity_113 Position_1 Note-On_57 Note-Duration_1 Note-Velocity_109 Position_3 Note-On_57 Note-Duration_1 Note-Velocity_109 Position_4 Note-On_57 Note-Duration_1 Note-Velocity_109 Position_5 Note-On_57 Note-Duration_1 Note-Velocity_111 Position_7 Note-On_57 Note-Duration_1 Note-Velocity_109 Position_8 Note-On_57 Note-Duration_1 Note-Velocity_112 Position_9 Note-On_57 Note-Duration_1 Note-Velocity_111 Position_11 Note-On_57 Note-Duration_1 Note-Velocity_109 Position_12 Note-On_57 Note-Duration_1 Note-Velocity_111 Position_13 Note-On_57 Note-Duration_1 Note-Velocity_110 Position_15 Note-On_57 Note-Duration_1 Note-Velocity_109 Bar-End Bar-Start Position_0 Note-On_55 Note-Duration_1 Note-Velocity_110 Position_1 Note-On_55 Note-Duration_1 Note-Velocity_110 Position_3 Note-On_55 Note-Duration_1 Note-Velocity_110 Position_4 Note-On_55 Note-Duration_1 Note-Velocity_113 Position_5 Note-On_55 Note-Duration_1 Note-Velocity_111 Position_7 Note-On_55 Note-Duration_1 Note-Velocity_115 Position_8 Note-On_55 Note-Duration_1 Note-Velocity_109 Position_9 Note-On_55 Note-Duration_1 Note-Velocity_110 Position_11 Note-On_55 Note-Duration_1 Note-Velocity_115 Position_12 Note-On_55 Note-Duration_1 Note-Velocity_113 Position_13 Note-On_55 Note-Duration_1 Note-Velocity_112 Position_15 Note-On_55 Note-Duration_1 Note-Velocity_115 Bar-End Bar-Start Position_0 Note-On_55 Note-Duration_1 Note-Velocity_113 Position_1 Note-On_55 Note-Duration_1 Note-Velocity_113 Position_3 Note-On_55 Note-Duration_1 Note-Velocity_112 Position_4 Note-On_55 Note-Duration_1 Note-Velocity_110 Position_5 Note-On_55 Note-Duration_1 Note-Velocity_110 Position_7 Note-On_55 Note-Duration_1 Note-Velocity_110 Position_8 Note-On_55 Note-Duration_1 Note-Velocity_112 Position_9 Note-On_55 Note-Duration_1 Note-Velocity_109 Position_11 Note-On_55 Note-Duration_1 Note-Velocity_110 Position_12 Note-On_55 Note-Duration_1 Note-Velocity_110 Position_13 Note-On_55 Note-Duration_1 Note-Velocity_110 Position_15 Note-On_55 Note-Duration_1 Note-Velocity_110 Bar-End Bar-Start Position_0 Note-On_55 Note-Duration_1 Note-Velocity_110 Position_1 Note-On_55 Note-Duration_1 Note-Velocity_109 Position_3 Note-On_55 Note-Duration_1 Note-Velocity_111 Position_4 Note-On_55 Note-Duration_1 Note-Velocity_111 Position_5 Note-On_55 Note-Duration_1 Note-Velocity_109 Position_7 Note-On_55 Note-Duration_1 Note-Velocity_112 Position_8 Note-On_55 Note-Duration_1 Note-Velocity_110 Position_9 Note-On_55 Note-Duration_1 Note-Velocity_113 Position_11 Note-On_55 Note-Duration_1 Note-Velocity_112 Position_12 Note-On_55 Note-Duration_1 Note-Velocity_109 Position_13 Note-On_55 Note-Duration_1 Note-Velocity_109 Position_15 Note-On_55 Note-Duration_1 Note-Velocity_109 Bar-End Bar-Start Position_0 Note-On_55 Note-Duration_1 Note-Velocity_115 Position_1 Note-On_55 Note-Duration_1 Note-Velocity_115 Position_3 Note-On_55 Note-Duration_1 Note-Velocity_112 Position_4 Note-On_55 Note-Duration_1 Note-Velocity_115 Position_5 Note-On_55 Note-Duration_1 Note-Velocity_115 Position_7 Note-On_55 Note-Duration_1 Note-Velocity_115 Position_8 Note-On_55 Note-Duration_1 Note-Velocity_110 Position_9 Note-On_55 Note-Duration_1 Note-Velocity_110 Position_11 Note-On_55 Note-Duration_1 Note-Velocity_115 Position_12 Note-On_55 Note-Duration_1 Note-Velocity_109 Position_13 Note-On_55 Note-Duration_1 Note-Velocity_113 Position_15 Note-On_55 Note-Duration_1 Note-Velocity_110 Bar-End Bar-Start Position_0 Note-On_55 Note-Duration_1 Note-Velocity_115 Position_1 Note-On_55 Note-Duration_1 Note-Velocity_112 Position_3 Note-On_55 Note-Duration_1 Note-Velocity_111 Position_4 Note-On_55 Note-Duration_1 Note-Velocity_112 Position_5 Note-On_55 Note-Duration_1 Note-Velocity_113 Position_7 Note-On_55 Note-Duration_1 Note-Velocity_110 Position_8 Note-On_55 Note-Duration_1 Note-Velocity_109 Position_9 Note-On_55 Note-Duration_1 Note-Velocity_109 Position_11 Note-On_55 Note-Duration_1 Note-Velocity_111 Position_12 Note-On_55 Note-Duration_1 Note-Velocity_110 Position_13 Note-On_55 Note-Duration_1 Note-Velocity_109 Position_15 Note-On_55 Note-Duration_1 Note-Velocity_110 Bar-End Bar-Start Position_0 Note-On_55 Note-Duration_1 Note-Velocity_109 Position_1 Note-On_55 Note-Duration_1 Note-Velocity_111 Position_3 Note-On_55 Note-Duration_1 Note-Velocity_111 Position_4 Note-On_55 Note-Duration_1 Note-Velocity_110 Position_5 Note-On_55 Note-Duration_1 Note-Velocity_110 Position_7 Note-On_55 Note-Duration_1 Note-Velocity_113 Position_8 Note-On_55 Note-Duration_1 Note-Velocity_115 Position_9 Note-On_55 Note-Duration_1 Note-Velocity_110 Position_11 Note-On_55 Note-Duration_1 Note-Velocity_110 Position_12 Note-On_55 Note-Duration_1 Note-Velocity_111 Position_13 Note-On_55 Note-Duration_1 Note-Velocity_109 Position_15 Note-On_55 Note-Duration_1 Note-Velocity_110 Bar-End Bar-Start Position_0 Note-On_57 Note-Duration_1 Note-Velocity_112 Position_1 Note-On_57 Note-Duration_1 Note-Velocity_111 Position_3 Note-On_57 Note-Duration_1 Note-Velocity_115 Position_4 Note-On_57 Note-Duration_1 Note-Velocity_110 Position_5 Note-On_57 Note-Duration_1 Note-Velocity_113 Position_7 Note-On_57 Note-Duration_1 Note-Velocity_109 Position_8 Note-On_57 Note-Duration_1 Note-Velocity_109 Position_9 Note-On_57 Note-Duration_1 Note-Velocity_110 Position_11 Note-On_57 Note-Duration_1 Note-Velocity_113 Position_12 Note-On_57 Note-Duration_1 Note-Velocity_111 Position_13 Note-On_57 Note-Duration_1 Note-Velocity_110 Position_15 Note-On_57 Note-Duration_1 Note-Velocity_110 Bar-End Bar-Start Position_0 Note-On_55 Note-Duration_1 Note-Velocity_111 Position_1 Note-On_55 Note-Duration_1 Note-Velocity_112 Position_3 Note-On_55 Note-Duration_1 Note-Velocity_110 Position_4 Note-On_55 Note-Duration_1 Note-Velocity_112 Position_5 Note-On_55 Note-Duration_1 Note-Velocity_109 Position_7 Note-On_55 Note-Duration_1 Note-Velocity_110 Position_8 Note-On_55 Note-Duration_1 Note-Velocity_109 Position_9 Note-On_55 Note-Duration_1 Note-Velocity_112 Position_11 Note-On_55 Note-Duration_1 Note-Velocity_115 Position_12 Note-On_55 Note-Duration_1 Note-Velocity_109 Position_13 Note-On_55 Note-Duration_1 Note-Velocity_109 Position_15 Note-On_55 Note-Duration_1 Note-Velocity_113 Bar-End Bar-Start Position_0 Note-On_55 Note-Duration_1 Note-Velocity_111 Position_1 Note-On_55 Note-Duration_1 Note-Velocity_110 Position_3 Note-On_55 Note-Duration_1 Note-Velocity_110 Position_4 Note-On_55 Note-Duration_1 Note-Velocity_109 Position_5 Note-On_55 Note-Duration_1 Note-Velocity_109 Position_7 Note-On_55 Note-Duration_1 Note-Velocity_111 Position_8 Note-On_55 Note-Duration_1 Note-Velocity_112 Position_9 Note-On_55 Note-Duration_1 Note-Velocity_111 Position_11 Note-On_55 Note-Duration_1 Note-Velocity_115 Position_12 Note-On_55 Note-Duration_1 Note-Velocity_113 Position_13 Note-On_55 Note-Duration_1 Note-Velocity_110 Position_15 Note-On_55 Note-Duration_1 Note-Velocity_110 Bar-End Bar-Start Position_0 Note-On_55 Note-Duration_1 Note-Velocity_110 Position_1 Note-On_55 Note-Duration_1 Note-Velocity_110 Position_3 Note-On_55 Note-Duration_1 Note-Velocity_110 Position_4 Note-On_55 Note-Duration_1 Note-Velocity_110 Position_5 Note-On_55 Note-Duration_1 Note-Velocity_113 Position_7 Note-On_55 Note-Duration_1 Note-Velocity_110 Position_8 Note-On_55 Note-Duration_1 Note-Velocity_109 Position_9 Note-On_55 Note-Duration_1 Note-Velocity_112 Position_11 Note-On_55 Note-Duration_1 Note-Velocity_113 Position_12 Note-On_55 Note-Duration_1 Note-Velocity_112 Position_13 Note-On_55 Note-Duration_1 Note-Velocity_112 Position_15 Note-On_55 Note-Duration_1 Note-Velocity_109 Bar-End Bar-Start Position_0 Note-On_57 Note-Duration_1 Note-Velocity_110 Position_1 Note-On_57 Note-Duration_1 Note-Velocity_110 Position_3 Note-On_57 Note-Duration_1 Note-Velocity_111 Position_4 Note-On_57 Note-Duration_1 Note-Velocity_111 Position_5 Note-On_57 Note-Duration_1 Note-Velocity_115 Position_7 Note-On_57 Note-Duration_1 Note-Velocity_109 Position_8 Note-On_57 Note-Duration_1 Note-Velocity_113 Position_9 Note-On_57 Note-Duration_1 Note-Velocity_109 Position_11 Note-On_57 Note-Duration_1 Note-Velocity_113 Position_12 Note-On_57 Note-Duration_1 Note-Velocity_112 Position_13 Note-On_57 Note-Duration_1 Note-Velocity_109 Position_15 Note-On_57 Note-Duration_1 Note-Velocity_111 Bar-End Bar-Start Position_0 Note-On_55 Note-Duration_1 Note-Velocity_110 Position_1 Note-On_55 Note-Duration_1 Note-Velocity_109 Position_3 Note-On_55 Note-Duration_1 Note-Velocity_110 Position_4 Note-On_55 Note-Duration_1 Note-Velocity_113 Position_5 Note-On_55 Note-Duration_1 Note-Velocity_111 Position_7 Note-On_55 Note-Duration_1 Note-Velocity_109 Position_8 Note-On_55 Note-Duration_1 Note-Velocity_111 Position_9 Note-On_55 Note-Duration_1 Note-Velocity_111 Position_11 Note-On_55 Note-Duration_1 Note-Velocity_111 Position_12 Note-On_55 Note-Duration_1 Note-Velocity_115 Position_13 Note-On_55 Note-Duration_1 Note-Velocity_110 Position_15 Note-On_55 Note-Duration_1 Note-Velocity_109 Bar-End Bar-Start Position_0 Note-On_55 Note-Duration_1 Note-Velocity_113 Position_1 Note-On_55 Note-Duration_1 Note-Velocity_109 Position_3 Note-On_55 Note-Duration_1 Note-Velocity_111 Position_4 Note-On_55 Note-Duration_1 Note-Velocity_111 Position_5 Note-On_55 Note-Duration_1 Note-Velocity_109 Position_7 Note-On_55 Note-Duration_1 Note-Velocity_113 Position_8 Note-On_55 Note-Duration_1 Note-Velocity_110 Position_9 Note-On_55 Note-Duration_1 Note-Velocity_109 Position_11 Note-On_55 Note-Duration_1 Note-Velocity_109 Position_12 Note-On_55 Note-Duration_1 Note-Velocity_109 Position_13 Note-On_55 Note-Duration_1 Note-Velocity_115 Position_15 Note-On_55 Note-Duration_1 Note-Velocity_115 Bar-End Bar-Start Position_0 Note-On_57 Note-Duration_1 Note-Velocity_113 Position_1 Note-On_57 Note-Duration_1 Note-Velocity_111 Position_3 Note-On_57 Note-Duration_1 Note-Velocity_110 Position_4 Note-On_57 Note-Duration_1 Note-Velocity_110 Position_5 Note-On_57 Note-Duration_1 Note-Velocity_111 Position_7 Note-On_57 Note-Duration_1 Note-Velocity_110 Position_8 Note-On_57 Note-Duration_1 Note-Velocity_111 Position_9 Note-On_57 Note-Duration_1 Note-Velocity_109 Position_11 Note-On_57 Note-Duration_1 Note-Velocity_110 Position_12 Note-On_57 Note-Duration_1 Note-Velocity_111 Position_13 Note-On_57 Note-Duration_1 Note-Velocity_109 Position_15 Note-On_57 Note-Duration_1 Note-Velocity_110 Bar-End Bar-Start Position_0 Note-On_55 Note-Duration_1 Note-Velocity_109 Position_1 Note-On_55 Note-Duration_1 Note-Velocity_113 Position_3 Note-On_55 Note-Duration_1 Note-Velocity_111 Position_4 Note-On_55 Note-Duration_1 Note-Velocity_110 Position_5 Note-On_55 Note-Duration_1 Note-Velocity_115 Position_7 Note-On_55 Note-Duration_1 Note-Velocity_110 Position_8 Note-On_55 Note-Duration_1 Note-Velocity_112 Position_9 Note-On_55 Note-Duration_1 Note-Velocity_111 Position_11 Note-On_55 Note-Duration_1 Note-Velocity_115 Position_12 Note-On_55 Note-Duration_1 Note-Velocity_110 Position_13 Note-On_55 Note-Duration_1 Note-Velocity_115 Position_15 Note-On_55 Note-Duration_1 Note-Velocity_111 Bar-End Bar-Start Position_0 Note-On_55 Note-Duration_1 Note-Velocity_113 Position_1 Note-On_55 Note-Duration_1 Note-Velocity_110 Position_3 Note-On_55 Note-Duration_1 Note-Velocity_113 Position_4 Note-On_55 Note-Duration_1 Note-Velocity_113 Position_5 Note-On_55 Note-Duration_1 Note-Velocity_111 Position_7 Note-On_55 Note-Duration_1 Note-Velocity_109 Position_8 Note-On_55 Note-Duration_1 Note-Velocity_110 Position_9 Note-On_55 Note-Duration_1 Note-Velocity_112 Position_11 Note-On_55 Note-Duration_1 Note-Velocity_113 Position_12 Note-On_55 Note-Duration_1 Note-Velocity_111 Position_13 Note-On_55 Note-Duration_1 Note-Velocity_110 Position_15 Note-On_55 Note-Duration_1 Note-Velocity_111 Bar-End Bar-Start Position_0 Note-On_57 Note-Duration_1 Note-Velocity_110 Position_1 Note-On_57 Note-Duration_1 Note-Velocity_112 Position_3 Note-On_57 Note-Duration_1 Note-Velocity_110 Position_4 Note-On_57 Note-Duration_1 Note-Velocity_109 Position_5 Note-On_57 Note-Duration_1 Note-Velocity_110 Position_7 Note-On_57 Note-Duration_1 Note-Velocity_109 Position_8 Note-On_57 Note-Duration_1 Note-Velocity_115 Position_9 Note-On_57 Note-Duration_1 Note-Velocity_115 Position_11 Note-On_57 Note-Duration_1 Note-Velocity_115 Position_12 Note-On_57 Note-Duration_1 Note-Velocity_115 Position_13 Note-On_57 Note-Duration_1 Note-Velocity_115 Position_15 Note-On_57 Note-Duration_1 Note-Velocity_110 Bar-End Bar-Start Position_0 Note-On_57 Note-Duration_1 Note-Velocity_112 Position_1 Note-On_57 Note-Duration_1 Note-Velocity_113 Position_3 Note-On_57 Note-Duration_1 Note-Velocity_112 Position_4 Note-On_57 Note-Duration_1 Note-Velocity_109 Position_5 Note-On_57 Note-Duration_1 Note-Velocity_111 Position_7 Note-On_57 Note-Duration_1 Note-Velocity_110 Position_8 Note-On_57 Note-Duration_1 Note-Velocity_110 Position_9 Note-On_57 Note-Duration_1 Note-Velocity_109 Position_11 Note-On_57 Note-Duration_1 Note-Velocity_112 Position_12 Note-On_57 Note-Duration_1 Note-Velocity_115 Position_13 Note-On_57 Note-Duration_1 Note-Velocity_115 Position_15 Note-On_57 Note-Duration_1 Note-Velocity_113 Bar-End Bar-Start Position_0 Note-On_57 Note-Duration_1 Note-Velocity_113 Position_1 Note-On_57 Note-Duration_1 Note-Velocity_110 Position_3 Note-On_57 Note-Duration_1 Note-Velocity_115 Position_4 Note-On_57 Note-Duration_1 Note-Velocity_111 Position_5 Note-On_57 Note-Duration_1 Note-Velocity_109 Position_7 Note-On_57 Note-Duration_1 Note-Velocity_109 Position_8 Note-On_57 Note-Duration_1 Note-Velocity_113 Position_9 Note-On_57 Note-Duration_1 Note-Velocity_111 Position_11 Note-On_57 Note-Duration_1 Note-Velocity_115 Position_12 Note-On_57 Note-Duration_1 Note-Velocity_111 Position_13 Note-On_57 Note-Duration_1 Note-Velocity_110 Position_15 Note-On_57 Note-Duration_1 Note-Velocity_111 Bar-End Bar-Start Position_0 Note-On_55 Note-Duration_1 Note-Velocity_113 Position_1 Note-On_55 Note-Duration_1 Note-Velocity_109 Position_3 Note-On_55 Note-Duration_1 Note-Velocity_115 Position_4 Note-On_55 Note-Duration_1 Note-Velocity_113 Position_5 Note-On_55 Note-Duration_1 Note-Velocity_115 Position_7 Note-On_55 Note-Duration_1 Note-Velocity_112 Position_8 Note-On_55 Note-Duration_1 Note-Velocity_109 Position_9 Note-On_55 Note-Duration_1 Note-Velocity_111 Position_11 Note-On_55 Note-Duration_1 Note-Velocity_113 Position_12 Note-On_55 Note-Duration_1 Note-Velocity_110 Position_13 Note-On_55 Note-Duration_1 Note-Velocity_111 Position_15 Note-On_55 Note-Duration_1 Note-Velocity_115 Bar-End Bar-Start Position_0 Note-On_55 Note-Duration_1 Note-Velocity_109 Position_1 Note-On_55 Note-Duration_1 Note-Velocity_112 Position_3 Note-On_55 Note-Duration_1 Note-Velocity_113 Position_4 Note-On_55 Note-Duration_1 Note-Velocity_110 Position_5 Note-On_55 Note-Duration_1 Note-Velocity_113 Position_7 Note-On_55 Note-Duration_1 Note-Velocity_110 Position_8 Note-On_55 Note-Duration_1 Note-Velocity_115 Position_9 Note-On_55 Note-Duration_1 Note-Velocity_113 Position_11 Note-On_55 Note-Duration_1 Note-Velocity_115 Position_12 Note-On_55 Note-Duration_1 Note-Velocity_115 Position_13 Note-On_55 Note-Duration_1 Note-Velocity_115 Position_15 Note-On_55 Note-Duration_1 Note-Velocity_111 Bar-End Bar-Start Position_0 Note-On_55 Note-Duration_1 Note-Velocity_109 Position_1 Note-On_55 Note-Duration_1 Note-Velocity_109 Position_3 Note-On_55 Note-Duration_1 Note-Velocity_111 Position_4 Note-On_55 Note-Duration_1 Note-Velocity_110 Position_5 Note-On_55 Note-Duration_1 Note-Velocity_109 Position_7 Note-On_55 Note-Duration_1 Note-Velocity_112 Position_8 Note-On_55 Note-Duration_1 Note-Velocity_112 Position_9 Note-On_55 Note-Duration_1 Note-Velocity_111 Position_11 Note-On_55 Note-Duration_1 Note-Velocity_111 Position_12 Note-On_55 Note-Duration_1 Note-Velocity_111 Position_13 Note-On_55 Note-Duration_1 Note-Velocity_110 Position_15 Note-On_55 Note-Duration_1 Note-Velocity_110 Bar-End Bar-Start Position_0 Note-On_57 Note-Duration_1 Note-Velocity_110 Position_1 Note-On_57 Note-Duration_1 Note-Velocity_109 Position_3 Note-On_57 Note-Duration_1 Note-Velocity_113 Position_4 Note-On_57 Note-Duration_1 Note-Velocity_112 Position_5 Note-On_57 Note-Duration_1 Note-Velocity_115 Position_7 Note-On_57 Note-Duration_1 Note-Velocity_113 Position_8 Note-On_57 Note-Duration_1 Note-Velocity_112 Position_9 Note-On_57 Note-Duration_1 Note-Velocity_115 Position_11 Note-On_57 Note-Duration_1 Note-Velocity_112 Position_12 Note-On_57 Note-Duration_1 Note-Velocity_113 Position_13 Note-On_57 Note-Duration_1 Note-Velocity_113 Position_15 Note-On_57 Note-Duration_1 Note-Velocity_112 Bar-End Bar-Start Position_0 Note-On_55 Note-Duration_1 Note-Velocity_112 Position_1 Note-On_55 Note-Duration_1 Note-Velocity_111 Position_3 Note-On_55 Note-Duration_1 Note-Velocity_110 Position_4 Note-On_55 Note-Duration_1 Note-Velocity_111 Position_5 Note-On_55 Note-Duration_1 Note-Velocity_111 Position_7 Note-On_55 Note-Duration_1 Note-Velocity_110 Position_8 Note-On_55 Note-Duration_1 Note-Velocity_112 Position_9 Note-On_55 Note-Duration_1 Note-Velocity_109 Position_11 Note-On_55 Note-Duration_1 Note-Velocity_110 Position_12 Note-On_55 Note-Duration_1 Note-Velocity_109 Position_13 Note-On_55 Note-Duration_1 Note-Velocity_109 Position_15 Note-On_55 Note-Duration_1 Note-Velocity_109 Bar-End Bar-Start Position_0 Note-On_55 Note-Duration_1 Note-Velocity_113 Position_1 Note-On_55 Note-Duration_1 Note-Velocity_109 Position_3 Note-On_55 Note-Duration_1 Note-Velocity_111 Position_4 Note-On_55 Note-Duration_1 Note-Velocity_111 Position_5 Note-On_55 Note-Duration_1 Note-Velocity_110 Position_7 Note-On_55 Note-Duration_1 Note-Velocity_113 Position_8 Note-On_55 Note-Duration_1 Note-Velocity_115 Position_9 Note-On_55 Note-Duration_1 Note-Velocity_115 Position_11 Note-On_55 Note-Duration_1 Note-Velocity_113 Position_12 Note-On_55 Note-Duration_1 Note-Velocity_112 Position_13 Note-On_55 Note-Duration_1 Note-Velocity_115 Position_15 Note-On_55 Note-Duration_1 Note-Velocity_115 Bar-End Bar-Start Position_0 Note-On_57 Note-Duration_1 Note-Velocity_110 Position_1 Note-On_57 Note-Duration_1 Note-Velocity_110 Position_3 Note-On_57 Note-Duration_1 Note-Velocity_115 Position_4 Note-On_57 Note-Duration_1 Note-Velocity_110 Position_5 Note-On_57 Note-Duration_1 Note-Velocity_112 Position_7 Note-On_57 Note-Duration_1 Note-Velocity_109 Position_8 Note-On_57 Note-Duration_1 Note-Velocity_112 Position_9 Note-On_57 Note-Duration_1 Note-Velocity_115 Position_11 Note-On_57 Note-Duration_1 Note-Velocity_110 Position_12 Note-On_57 Note-Duration_1 Note-Velocity_112 Position_13 Note-On_57 Note-Duration_1 Note-Velocity_110 Position_15 Note-On_57 Note-Duration_1 Note-Velocity_110 Bar-End Bar-Start Position_0 Note-On_55 Note-Duration_1 Note-Velocity_109 Position_1 Note-On_55 Note-Duration_1 Note-Velocity_109 Position_3 Note-On_55 Note-Duration_1 Note-Velocity_111 Position_4 Note-On_55 Note-Duration_1 Note-Velocity_109 Position_5 Note-On_55 Note-Duration_1 Note-Velocity_111 Position_7 Note-On_55 Note-Duration_1 Note-Velocity_113 Position_8 Note-On_55 Note-Duration_1 Note-Velocity_115 Position_9 Note-On_55 Note-Duration_1 Note-Velocity_115 Position_11 Note-On_55 Note-Duration_1 Note-Velocity_111 Position_12 Note-On_55 Note-Duration_1 Note-Velocity_109 Position_13 Note-On_55 Note-Duration_1 Note-Velocity_109 Position_15 Note-On_55 Note-Duration_1 Note-Velocity_111 Bar-End Bar-Start Position_0 Note-On_55 Note-Duration_1 Note-Velocity_110 Position_1 Note-On_55 Note-Duration_1 Note-Velocity_110 Position_3 Note-On_55 Note-Duration_1 Note-Velocity_115 Position_4 Note-On_55 Note-Duration_1 Note-Velocity_113 Position_5 Note-On_55 Note-Duration_1 Note-Velocity_110 Position_7 Note-On_55 Note-Duration_1 Note-Velocity_111 Position_8 Note-On_55 Note-Duration_1 Note-Velocity_111 Position_9 Note-On_55 Note-Duration_1 Note-Velocity_109 Position_11 Note-On_55 Note-Duration_1 Note-Velocity_111 Position_12 Note-On_55 Note-Duration_1 Note-Velocity_115 Position_13 Note-On_55 Note-Duration_1 Note-Velocity_111 Position_15 Note-On_55 Note-Duration_1 Note-Velocity_111 Bar-End Bar-Start Position_0 Note-On_57 Note-Duration_1 Note-Velocity_110 Position_1 Note-On_57 Note-Duration_1 Note-Velocity_111 Position_3 Note-On_57 Note-Duration_1 Note-Velocity_110 Position_4 Note-On_57 Note-Duration_1 Note-Velocity_110 Position_5 Note-On_57 Note-Duration_1 Note-Velocity_113 Position_7 Note-On_57 Note-Duration_1 Note-Velocity_110 Position_8 Note-On_57 Note-Duration_1 Note-Velocity_111 Position_9 Note-On_57 Note-Duration_1 Note-Velocity_112 Position_11 Note-On_57 Note-Duration_1 Note-Velocity_110 Position_12 Note-On_57 Note-Duration_1 Note-Velocity_111 Position_13 Note-On_57 Note-Duration_1 Note-Velocity_110 Position_15 Note-On_57 Note-Duration_1 Note-Velocity_111 Bar-End Bar-Start Position_0 Note-On_55 Note-Duration_1 Note-Velocity_110 Position_1 Note-On_55 Note-Duration_1 Note-Velocity_112 Position_3 Note-On_55 Note-Duration_1 Note-Velocity_112 Position_4 Note-On_55 Note-Duration_1 Note-Velocity_110 Position_5 Note-On_55 Note-Duration_1 Note-Velocity_113 Position_7 Note-On_55 Note-Duration_1 Note-Velocity_112 Position_8 Note-On_55 Note-Duration_1 Note-Velocity_113 Position_9 Note-On_55 Note-Duration_1 Note-Velocity_109 Position_11 Note-On_55 Note-Duration_1 Note-Velocity_111 Position_12 Note-On_55 Note-Duration_1 Note-Velocity_111 Position_13 Note-On_55 Note-Duration_1 Note-Velocity_110 Position_15 Note-On_55 Note-Duration_1 Note-Velocity_111 Bar-End Bar-Start Position_0 Note-On_55 Note-Duration_1 Note-Velocity_112 Position_1 Note-On_55 Note-Duration_1 Note-Velocity_110 Position_3 Note-On_55 Note-Duration_1 Note-Velocity_110 Position_4 Note-On_55 Note-Duration_1 Note-Velocity_111 Position_5 Note-On_55 Note-Duration_1 Note-Velocity_110 Position_7 Note-On_55 Note-Duration_1 Note-Velocity_111 Position_8 Note-On_55 Note-Duration_1 Note-Velocity_110 Position_9 Note-On_55 Note-Duration_1 Note-Velocity_110 Position_11 Note-On_55 Note-Duration_1 Note-Velocity_113 Position_12 Note-On_55 Note-Duration_1 Note-Velocity_109 Position_13 Note-On_55 Note-Duration_1 Note-Velocity_115 Position_15 Note-On_55 Note-Duration_1 Note-Velocity_112 Bar-End Bar-Start Position_0 Note-On_55 Note-Duration_1 Note-Velocity_110 Position_1 Note-On_55 Note-Duration_1 Note-Velocity_111 Position_3 Note-On_55 Note-Duration_1 Note-Velocity_115 Position_4 Note-On_55 Note-Duration_1 Note-Velocity_112 Position_5 Note-On_55 Note-Duration_1 Note-Velocity_115 Position_7 Note-On_55 Note-Duration_1 Note-Velocity_115 Position_8 Note-On_55 Note-Duration_1 Note-Velocity_112 Position_9 Note-On_55 Note-Duration_1 Note-Velocity_115 Position_11 Note-On_55 Note-Duration_1 Note-Velocity_110 Position_12 Note-On_55 Note-Duration_1 Note-Velocity_111 Position_13 Note-On_55 Note-Duration_1 Note-Velocity_113 Position_15 Note-On_55 Note-Duration_1 Note-Velocity_115 Bar-End Bar-Start Position_0 Note-On_55 Note-Duration_1 Note-Velocity_112 Position_1 Note-On_55 Note-Duration_1 Note-Velocity_113 Position_3 Note-On_55 Note-Duration_1 Note-Velocity_110 Position_4 Note-On_55 Note-Duration_1 Note-Velocity_112 Position_5 Note-On_55 Note-Duration_1 Note-Velocity_109 Position_7 Note-On_55 Note-Duration_1 Note-Velocity_112 Position_8 Note-On_55 Note-Duration_1 Note-Velocity_111 Position_9 Note-On_55 Note-Duration_1 Note-Velocity_113 Position_11 Note-On_55 Note-Duration_1 Note-Velocity_113 Position_12 Note-On_55 Note-Duration_1 Note-Velocity_113 Position_13 Note-On_55 Note-Duration_1 Note-Velocity_113 Position_15 Note-On_55 Note-Duration_1 Note-Velocity_110 Bar-End Bar-Start Position_0 Note-On_55 Note-Duration_1 Note-Velocity_112 Position_1 Note-On_55 Note-Duration_1 Note-Velocity_113 Position_3 Note-On_55 Note-Duration_1 Note-Velocity_113 Position_4 Note-On_55 Note-Duration_1 Note-Velocity_110 Position_5 Note-On_55 Note-Duration_1 Note-Velocity_110 Position_7 Note-On_55 Note-Duration_1 Note-Velocity_111 Position_8 Note-On_55 Note-Duration_1 Note-Velocity_112 Position_9 Note-On_55 Note-Duration_1 Note-Velocity_110 Position_11 Note-On_55 Note-Duration_1 Note-Velocity_110 Position_12 Note-On_55 Note-Duration_1 Note-Velocity_110 Position_13 Note-On_55 Note-Duration_1 Note-Velocity_115 Position_15 Note-On_55 Note-Duration_1 Note-Velocity_115 Bar-End Bar-Start Position_0 Note-On_55 Note-Duration_1 Note-Velocity_115 Position_1 Note-On_55 Note-Duration_1 Note-Velocity_113 Position_3 Note-On_55 Note-Duration_1 Note-Velocity_113 Position_4 Note-On_55 Note-Duration_1 Note-Velocity_112 Position_5 Note-On_55 Note-Duration_1 Note-Velocity_115 Position_7 Note-On_55 Note-Duration_1 Note-Velocity_112 Position_8 Note-On_55 Note-Duration_1 Note-Velocity_109 Position_9 Note-On_55 Note-Duration_1 Note-Velocity_109 Position_11 Note-On_55 Note-Duration_1 Note-Velocity_110 Position_12 Note-On_55 Note-Duration_1 Note-Velocity_112 Position_13 Note-On_55 Note-Duration_1 Note-Velocity_110 Position_15 Note-On_55 Note-Duration_1 Note-Velocity_109 Bar-End Bar-Start Position_0 Note-On_55 Note-Duration_1 Note-Velocity_109 Position_1 Note-On_55 Note-Duration_1 Note-Velocity_109 Position_3 Note-On_55 Note-Duration_1 Note-Velocity_110 Position_4 Note-On_55 Note-Duration_1 Note-Velocity_115 Position_5 Note-On_55 Note-Duration_1 Note-Velocity_111 Position_7 Note-On_55 Note-Duration_1 Note-Velocity_109 Position_8 Note-On_55 Note-Duration_1 Note-Velocity_110 Position_9 Note-On_55 Note-Duration_1 Note-Velocity_115 Position_11 Note-On_55 Note-Duration_1 Note-Velocity_112 Position_12 Note-On_55 Note-Duration_1 Note-Velocity_109 Position_13 Note-On_55 Note-Duration_1 Note-Velocity_115 Position_15 Note-On_55 Note-Duration_1 Note-Velocity_115 Bar-End Bar-Start Position_0 Note-On_57 Note-Duration_1 Note-Velocity_109 Position_1 Note-On_57 Note-Duration_1 Note-Velocity_109 Position_3 Note-On_57 Note-Duration_1 Note-Velocity_111 Position_4 Note-On_57 Note-Duration_1 Note-Velocity_111 Position_5 Note-On_57 Note-Duration_1 Note-Velocity_111 Position_7 Note-On_57 Note-Duration_1 Note-Velocity_110 Position_8 Note-On_57 Note-Duration_1 Note-Velocity_110 Position_9 Note-On_57 Note-Duration_1 Note-Velocity_112 Position_11 Note-On_57 Note-Duration_1 Note-Velocity_111 Position_12 Note-On_57 Note-Duration_1 Note-Velocity_109 Position_13 Note-On_57 Note-Duration_1 Note-Velocity_111 Position_15 Note-On_57 Note-Duration_1 Note-Velocity_110 Bar-End Bar-Start Position_0 Note-On_55 Note-Duration_1 Note-Velocity_109 Position_1 Note-On_55 Note-Duration_1 Note-Velocity_110 Position_3 Note-On_55 Note-Duration_1 Note-Velocity_110 Position_4 Note-On_55 Note-Duration_1 Note-Velocity_111 Position_5 Note-On_55 Note-Duration_1 Note-Velocity_110 Position_7 Note-On_55 Note-Duration_1 Note-Velocity_112 Position_8 Note-On_55 Note-Duration_1 Note-Velocity_109 Position_9 Note-On_55 Note-Duration_1 Note-Velocity_111 Position_11 Note-On_55 Note-Duration_1 Note-Velocity_110 Position_12 Note-On_55 Note-Duration_1 Note-Velocity_109 Position_13 Note-On_55 Note-Duration_1 Note-Velocity_112 Position_15 Note-On_55 Note-Duration_1 Note-Velocity_111 Bar-End Bar-Start Position_0 Note-On_55 Note-Duration_1 Note-Velocity_115 Position_1 Note-On_55 Note-Duration_1 Note-Velocity_112 Position_3 Note-On_55 Note-Duration_1 Note-Velocity_112 Position_4 Note-On_55 Note-Duration_1 Note-Velocity_113 Position_5 Note-On_55 Note-Duration_1 Note-Velocity_111 Position_7 Note-On_55 Note-Duration_1 Note-Velocity_109 Position_8 Note-On_55 Note-Duration_1 Note-Velocity_113 Position_9 Note-On_55 Note-Duration_1 Note-Velocity_110 Position_11 Note-On_55 Note-Duration_1 Note-Velocity_110 Position_12 Note-On_55 Note-Duration_1 Note-Velocity_109 Position_13 Note-On_55 Note-Duration_1 Note-Velocity_110 Position_15 Note-On_55 Note-Duration_1 Note-Velocity_111 Bar-End Bar-Start Position_0 Note-On_57 Note-Duration_1 Note-Velocity_110 Position_1 Note-On_57 Note-Duration_1 Note-Velocity_109 Position_3 Note-On_57 Note-Duration_1 Note-Velocity_109 Position_4 Note-On_57 Note-Duration_1 Note-Velocity_111 Position_5 Note-On_57 Note-Duration_1 Note-Velocity_111 Position_7 Note-On_57 Note-Duration_1 Note-Velocity_115 Position_8 Note-On_57 Note-Duration_1 Note-Velocity_115 Position_9 Note-On_57 Note-Duration_1 Note-Velocity_109 Position_11 Note-On_57 Note-Duration_1 Note-Velocity_113 Position_12 Note-On_57 Note-Duration_1 Note-Velocity_115 Position_13 Note-On_57 Note-Duration_1 Note-Velocity_109 Position_15 Note-On_57 Note-Duration_1 Note-Velocity_109 Bar-End Bar-Start Position_0 Note-On_55 Note-Duration_1 Note-Velocity_112 Position_1 Note-On_55 Note-Duration_1 Note-Velocity_113 Position_3 Note-On_55 Note-Duration_1 Note-Velocity_110 Position_4 Note-On_55 Note-Duration_1 Note-Velocity_113 Position_5 Note-On_55 Note-Duration_1 Note-Velocity_112 Position_7 Note-On_55 Note-Duration_1 Note-Velocity_112 Position_8 Note-On_55 Note-Duration_1 Note-Velocity_109 Position_9 Note-On_55 Note-Duration_1 Note-Velocity_110 Position_11 Note-On_55 Note-Duration_1 Note-Velocity_111 Position_12 Note-On_55 Note-Duration_1 Note-Velocity_115 Position_13 Note-On_55 Note-Duration_1 Note-Velocity_109 Position_15 Note-On_55 Note-Duration_1 Note-Velocity_110 Bar-End Bar-Start Position_0 Note-On_55 Note-Duration_1 Note-Velocity_111 Position_1 Note-On_55 Note-Duration_1 Note-Velocity_110 Position_3 Note-On_55 Note-Duration_1 Note-Velocity_110 Position_4 Note-On_55 Note-Duration_1 Note-Velocity_110 Position_5 Note-On_55 Note-Duration_1 Note-Velocity_110 Position_7 Note-On_55 Note-Duration_1 Note-Velocity_112 Position_8 Note-On_55 Note-Duration_1 Note-Velocity_110 Position_9 Note-On_55 Note-Duration_1 Note-Velocity_112 Position_11 Note-On_55 Note-Duration_1 Note-Velocity_112 Position_12 Note-On_55 Note-Duration_1 Note-Velocity_110 Position_13 Note-On_55 Note-Duration_1 Note-Velocity_109 Position_15 Note-On_55 Note-Duration_1 Note-Velocity_110 Bar-End Bar-Start Position_0 Note-On_55 Note-Duration_1 Note-Velocity_111 Position_1 Note-On_55 Note-Duration_1 Note-Velocity_111 Position_3 Note-On_55 Note-Duration_1 Note-Velocity_110 Position_4 Note-On_55 Note-Duration_1 Note-Velocity_110 Position_5 Note-On_55 Note-Duration_1 Note-Velocity_109 Position_7 Note-On_55 Note-Duration_1 Note-Velocity_112 Position_8 Note-On_55 Note-Duration_1 Note-Velocity_110 Position_9 Note-On_55 Note-Duration_1 Note-Velocity_113 Position_11 Note-On_55 Note-Duration_1 Note-Velocity_115 Position_12 Note-On_55 Note-Duration_1 Note-Velocity_110 Position_13 Note-On_55 Note-Duration_1 Note-Velocity_113 Position_15 Note-On_55 Note-Duration_1 Note-Velocity_109 Bar-End Bar-Start Position_0 Note-On_57 Note-Duration_1 Note-Velocity_113 Position_1 Note-On_57 Note-Duration_1 Note-Velocity_110 Position_3 Note-On_57 Note-Duration_1 Note-Velocity_110 Position_4 Note-On_57 Note-Duration_1 Note-Velocity_111 Position_5 Note-On_57 Note-Duration_1 Note-Velocity_113 Position_7 Note-On_57 Note-Duration_1 Note-Velocity_111 Position_8 Note-On_57 Note-Duration_1 Note-Velocity_115 Position_9 Note-On_57 Note-Duration_1 Note-Velocity_113 Position_11 Note-On_57 Note-Duration_1 Note-Velocity_113 Position_12 Note-On_57 Note-Duration_1 Note-Velocity_115 Position_13 Note-On_57 Note-Duration_1 Note-Velocity_110 Position_15 Note-On_57 Note-Duration_1 Note-Velocity_110 Bar-End Bar-Start Position_0 Note-On_57 Note-Duration_1 Note-Velocity_115 Position_1 Note-On_57 Note-Duration_1 Note-Velocity_111 Position_3 Note-On_57 Note-Duration_1 Note-Velocity_113 Position_4 Note-On_57 Note-Duration_1 Note-Velocity_112 Position_5 Note-On_57 Note-Duration_1 Note-Velocity_109 Position_7 Note-On_57 Note-Duration_1 Note-Velocity_115 Position_8 Note-On_57 Note-Duration_1 Note-Velocity_110 Position_9 Note-On_57 Note-Duration_1 Note-Velocity_112 Position_11 Note-On_57 Note-Duration_1 Note-Velocity_113 Position_12 Note-On_57 Note-Duration_1 Note-Velocity_115 Position_13 Note-On_57 Note-Duration_1 Note-Velocity_115 Position_15 Note-On_57 Note-Duration_1 Note-Velocity_115 Bar-End Bar-Start Position_0 Note-On_55 Note-Duration_1 Note-Velocity_113 Position_1 Note-On_55 Note-Duration_1 Note-Velocity_110 Position_3 Note-On_55 Note-Duration_1 Note-Velocity_112 Position_4 Note-On_55 Note-Duration_1 Note-Velocity_111 Position_5 Note-On_55 Note-Duration_1 Note-Velocity_113 Position_7 Note-On_55 Note-Duration_1 Note-Velocity_111 Position_8 Note-On_55 Note-Duration_1 Note-Velocity_111 Position_9 Note-On_55 Note-Duration_1 Note-Velocity_110 Position_11 Note-On_55 Note-Duration_1 Note-Velocity_113 Position_12 Note-On_55 Note-Duration_1 Note-Velocity_113 Position_13 Note-On_55 Note-Duration_1 Note-Velocity_109 Position_15 Note-On_55 Note-Duration_1 Note-Velocity_115 Bar-End Bar-Start Position_0 Note-On_55 Note-Duration_1 Note-Velocity_113 Position_1 Note-On_55 Note-Duration_1 Note-Velocity_110 Position_3 Note-On_55 Note-Duration_1 Note-Velocity_110 Position_4 Note-On_55 Note-Duration_1 Note-Velocity_112 Position_5 Note-On_55 Note-Duration_1 Note-Velocity_113 Position_7 Note-On_55 Note-Duration_1 Note-Velocity_115 Position_8 Note-On_55 Note-Duration_1 Note-Velocity_115 Position_9 Note-On_55 Note-Duration_1 Note-Velocity_110 Position_11 Note-On_55 Note-Duration_1 Note-Velocity_109 Position_12 Note-On_55 Note-Duration_1 Note-Velocity_110 Position_13 Note-On_55 Note-Duration_1 Note-Velocity_115 Position_15 Note-On_55 Note-Duration_1 Note-Velocity_110 Bar-End Bar-Start Position_0 Note-On_57 Note-Duration_1 Note-Velocity_111 Position_1 Note-On_57 Note-Duration_1 Note-Velocity_111 Position_3 Note-On_57 Note-Duration_1 Note-Velocity_110 Position_4 Note-On_57 Note-Duration_1 Note-Velocity_113 Position_5 Note-On_57 Note-Duration_1 Note-Velocity_109 Position_7 Note-On_57 Note-Duration_1 Note-Velocity_110 Position_8 Note-On_57 Note-Duration_1 Note-Velocity_110 Position_9 Note-On_57 Note-Duration_1 Note-Velocity_110 Position_11 Note-On_57 Note-Duration_1 Note-Velocity_111 Position_12 Note-On_57 Note-Duration_1 Note-Velocity_110 Position_13 Note-On_57 Note-Duration_1 Note-Velocity_112 Position_15 Note-On_57 Note-Duration_1 Note-Velocity_111 Bar-End Bar-Start Position_0 Note-On_55 Note-Duration_1 Note-Velocity_113 Position_1 Note-On_55 Note-Duration_1 Note-Velocity_110 Position_3 Note-On_55 Note-Duration_1 Note-Velocity_112 Position_4 Note-On_55 Note-Duration_1 Note-Velocity_112 Position_5 Note-On_55 Note-Duration_1 Note-Velocity_112 Position_7 Note-On_55 Note-Duration_1 Note-Velocity_109 Position_8 Note-On_55 Note-Duration_1 Note-Velocity_109 Position_9 Note-On_55 Note-Duration_1 Note-Velocity_110 Position_11 Note-On_55 Note-Duration_1 Note-Velocity_112 Position_12 Note-On_55 Note-Duration_1 Note-Velocity_113 Position_13 Note-On_55 Note-Duration_1 Note-Velocity_111 Position_15 Note-On_55 Note-Duration_1 Note-Velocity_110 Bar-End Bar-Start Position_0 Note-On_55 Note-Duration_1 Note-Velocity_109 Position_1 Note-On_55 Note-Duration_1 Note-Velocity_111 Position_3 Note-On_55 Note-Duration_1 Note-Velocity_112 Position_4 Note-On_55 Note-Duration_1 Note-Velocity_112 Position_5 Note-On_55 Note-Duration_1 Note-Velocity_110 Position_7 Note-On_55 Note-Duration_1 Note-Velocity_109 Position_8 Note-On_55 Note-Duration_1 Note-Velocity_111 Position_9 Note-On_55 Note-Duration_1 Note-Velocity_111 Position_11 Note-On_55 Note-Duration_1 Note-Velocity_109 Position_12 Note-On_55 Note-Duration_1 Note-Velocity_115 Position_13 Note-On_55 Note-Duration_1 Note-Velocity_110 Position_15 Note-On_55 Note-Duration_1 Note-Velocity_111 Bar-End Bar-Start Position_0 Note-On_57 Note-Duration_1 Note-Velocity_109 Position_1 Note-On_57 Note-Duration_1 Note-Velocity_110 Position_3 Note-On_57 Note-Duration_1 Note-Velocity_110 Position_4 Note-On_57 Note-Duration_1 Note-Velocity_110 Position_5 Note-On_57 Note-Duration_1 Note-Velocity_111 Position_7 Note-On_57 Note-Duration_1 Note-Velocity_115 Position_8 Note-On_57 Note-Duration_1 Note-Velocity_113 Position_9 Note-On_57 Note-Duration_1 Note-Velocity_109 Position_11 Note-On_57 Note-Duration_1 Note-Velocity_111 Position_12 Note-On_57 Note-Duration_1 Note-Velocity_115 Position_13 Note-On_57 Note-Duration_1 Note-Velocity_110 Position_15 Note-On_57 Note-Duration_1 Note-Velocity_111 Bar-End Bar-Start Position_0 Note-On_57 Note-Duration_1 Note-Velocity_109 Position_1 Note-On_57 Note-Duration_1 Note-Velocity_111 Position_3 Note-On_57 Note-Duration_1 Note-Velocity_110 Position_4 Note-On_57 Note-Duration_1 Note-Velocity_110 Position_5 Note-On_57 Note-Duration_1 Note-Velocity_110 Position_7 Note-On_57 Note-Duration_1 Note-Velocity_109 Position_8 Note-On_57 Note-Duration_1 Note-Velocity_110 Position_9 Note-On_57 Note-Duration_1 Note-Velocity_112 Position_11 Note-On_57 Note-Duration_1 Note-Velocity_113 Position_12 Note-On_57 Note-Duration_1 Note-Velocity_112 Position_13 Note-On_57 Note-Duration_1 Note-Velocity_110 Position_15 Note-On_57 Note-Duration_1 Note-Velocity_112 Bar-End Bar-Start Position_0 Note-On_55 Note-Duration_1 Note-Velocity_113 Position_1 Note-On_55 Note-Duration_1 Note-Velocity_115 Position_3 Note-On_55 Note-Duration_1 Note-Velocity_110 Position_4 Note-On_55 Note-Duration_1 Note-Velocity_110 Position_5 Note-On_55 Note-Duration_1 Note-Velocity_110 Position_7 Note-On_55 Note-Duration_1 Note-Velocity_111 Position_8 Note-On_55 Note-Duration_1 Note-Velocity_109 Position_9 Note-On_55 Note-Duration_1 Note-Velocity_110 Position_11 Note-On_55 Note-Duration_1 Note-Velocity_110 Position_12 Note-On_55 Note-Duration_1 Note-Velocity_110 Position_13 Note-On_55 Note-Duration_1 Note-Velocity_115 Position_15 Note-On_55 Note-Duration_1 Note-Velocity_111 Bar-End Bar-Start Position_0 Note-On_55 Note-Duration_1 Note-Velocity_111 Position_1 Note-On_55 Note-Duration_1 Note-Velocity_110 Position_3 Note-On_55 Note-Duration_1 Note-Velocity_111 Position_4 Note-On_55 Note-Duration_1 Note-Velocity_110 Position_5 Note-On_55 Note-Duration_1 Note-Velocity_110 Position_7 Note-On_55 Note-Duration_1 Note-Velocity_110 Position_8 Note-On_55 Note-Duration_1 Note-Velocity_111 Position_9 Note-On_55 Note-Duration_1 Note-Velocity_115 Position_11 Note-On_55 Note-Duration_1 Note-Velocity_113 Position_12 Note-On_55 Note-Duration_1 Note-Velocity_109 Position_13 Note-On_55 Note-Duration_1 Note-Velocity_109 Position_15 Note-On_55 Note-Duration_1 Note-Velocity_110 Bar-End Bar-Start Position_0 Note-On_57 Note-Duration_1 Note-Velocity_113 Position_1 Note-On_57 Note-Duration_1 Note-Velocity_110 Position_3 Note-On_57 Note-Duration_1 Note-Velocity_109 Position_4 Note-On_57 Note-Duration_1 Note-Velocity_111 Position_5 Note-On_57 Note-Duration_1 Note-Velocity_115 Position_7 Note-On_57 Note-Duration_1 Note-Velocity_109 Position_8 Note-On_57 Note-Duration_1 Note-Velocity_110 Position_9 Note-On_57 Note-Duration_1 Note-Velocity_109 Position_11 Note-On_57 Note-Duration_1 Note-Velocity_115 Position_12 Note-On_57 Note-Duration_1 Note-Velocity_111 Position_13 Note-On_57 Note-Duration_1 Note-Velocity_111 Position_15 Note-On_57 Note-Duration_1 Note-Velocity_110 Bar-End Bar-Start Position_0 Note-On_55 Note-Duration_1 Note-Velocity_109 Position_1 Note-On_55 Note-Duration_1 Note-Velocity_111 Position_3 Note-On_55 Note-Duration_1 Note-Velocity_110 Position_4 Note-On_55 Note-Duration_1 Note-Velocity_109 Position_5 Note-On_55 Note-Duration_1 Note-Velocity_110 Position_7 Note-On_55 Note-Duration_1 Note-Velocity_110 Position_8 Note-On_55 Note-Duration_1 Note-Velocity_110 Position_9 Note-On_55 Note-Duration_1 Note-Velocity_111 Position_11 Note-On_55 Note-Duration_1 Note-Velocity_110 Position_12 Note-On_55 Note-Duration_1 Note-Velocity_109 Position_13 Note-On_55 Note-Duration_1 Note-Velocity_113 Position_15 Note-On_55 Note-Duration_1 Note-Velocity_110 Bar-End Bar-Start Position_0 Note-On_55 Note-Duration_1 Note-Velocity_109 Position_1 Note-On_55 Note-Duration_1 Note-Velocity_111 Position_3 Note-On_55 Note-Duration_1 Note-Velocity_109 Position_4 Note-On_55 Note-Duration_1 Note-Velocity_113 Position_5 Note-On_55 Note-Duration_1 Note-Velocity_115 Position_7 Note-On_55 Note-Duration_1 Note-Velocity_115 Position_8 Note-On_55 Note-Duration_1 Note-Velocity_109 Position_9 Note-On_55 Note-Duration_1 Note-Velocity_110 Position_11 Note-On_55 Note-Duration_1 Note-Velocity_109 Position_12 Note-On_55 Note-Duration_1 Note-Velocity_111 Position_13 Note-On_55 Note-Duration_1 Note-Velocity_111 Position_15 Note-On_55 Note-Duration_1 Note-Velocity_111 Bar-End Bar-Start Position_0 Note-On_57 Note-Duration_1 Note-Velocity_112 Position_1 Note-On_57 Note-Duration_1 Note-Velocity_112 Position_3 Note-On_57 Note-Duration_1 Note-Velocity_109 Position_4 Note-On_57 Note-Duration_1 Note-Velocity_109 Position_5 Note-On_57 Note-Duration_1 Note-Velocity_109 Position_7 Note-On_57 Note-Duration_1 Note-Velocity_115 Position_8 Note-On_57 Note-Duration_1 Note-Velocity_113 Position_9 Note-On_57 Note-Duration_1 Note-Velocity_109 Position_11 Note-On_57 Note-Duration_1 Note-Velocity_113 Position_12 Note-On_57 Note-Duration_1 Note-Velocity_113 Position_13 Note-On_57 Note-Duration_1 Note-Velocity_110 Position_15 Note-On_57 Note-Duration_1 Note-Velocity_111 Bar-End Bar-Start Position_0 Note-On_55 Note-Duration_1 Note-Velocity_109 Position_1 Note-On_55 Note-Duration_1 Note-Velocity_110 Position_3 Note-On_55 Note-Duration_1 Note-Velocity_110 Position_4 Note-On_55 Note-Duration_1 Note-Velocity_109 Position_5 Note-On_55 Note-Duration_1 Note-Velocity_115 Position_7 Note-On_55 Note-Duration_1 Note-Velocity_111 Position_8 Note-On_55 Note-Duration_1 Note-Velocity_112 Position_9 Note-On_55 Note-Duration_1 Note-Velocity_109 Position_11 Note-On_55 Note-Duration_1 Note-Velocity_109 Position_12 Note-On_55 Note-Duration_1 Note-Velocity_110 Position_13 Note-On_55 Note-Duration_1 Note-Velocity_110 Position_15 Note-On_55 Note-Duration_1 Note-Velocity_115 Bar-End Bar-Start Position_0 Note-On_57 Note-Duration_1 Note-Velocity_109 Position_1 Note-On_57 Note-Duration_1 Note-Velocity_113 Position_3 Note-On_57 Note-Duration_1 Note-Velocity_109 Position_4 Note-On_57 Note-Duration_1 Note-Velocity_112 Position_5 Note-On_57 Note-Duration_1 Note-Velocity_110 Position_7 Note-On_57 Note-Duration_1 Note-Velocity_112 Position_8 Note-On_57 Note-Duration_1 Note-Velocity_112 Position_9 Note-On_57 Note-Duration_1 Note-Velocity_110 Position_11 Note-On_57 Note-Duration_1 Note-Velocity_111 Position_12 Note-On_57 Note-Duration_1 Note-Velocity_109 Position_13 Note-On_57 Note-Duration_1 Note-Velocity_110 Position_15 Note-On_57 Note-Duration_1 Note-Velocity_110 Bar-End Bar-Start Position_0 Note-On_55 Note-Duration_1 Note-Velocity_112 Position_1 Note-On_55 Note-Duration_1 Note-Velocity_109 Position_3 Note-On_55 Note-Duration_1 Note-Velocity_110 Position_4 Note-On_55 Note-Duration_1 Note-Velocity_112 Position_5 Note-On_55 Note-Duration_1 Note-Velocity_113 Position_7 Note-On_55 Note-Duration_1 Note-Velocity_110 Position_8 Note-On_55 Note-Duration_1 Note-Velocity_110 Position_9 Note-On_55 Note-Duration_1 Note-Velocity_112 Position_11 Note-On_55 Note-Duration_1 Note-Velocity_112 Position_12 Note-On_55 Note-Duration_1 Note-Velocity_109 Position_13 Note-On_55 Note-Duration_1 Note-Velocity_115 Position_15 Note-On_55 Note-Duration_1 Note-Velocity_110 Bar-End Bar-Start Position_0 Note-On_55 Note-Duration_1 Note-Velocity_109 Position_1 Note-On_55 Note-Duration_1 Note-Velocity_109 Position_3 Note-On_55 Note-Duration_1 Note-Velocity_110 Position_4 Note-On_55 Note-Duration_1 Note-Velocity_112 Position_5 Note-On_55 Note-Duration_1 Note-Velocity_112 Position_7 Note-On_55 Note-Duration_1 Note-Velocity_110 Position_8 Note-On_55 Note-Duration_1 Note-Velocity_109 Position_9 Note-On_55 Note-Duration_1 Note-Velocity_110 Position_11 Note-On_55 Note-Duration_1 Note-Velocity_115 Position_12 Note-On_55 Note-Duration_1 Note-Velocity_115 Position_13 Note-On_55 Note-Duration_1 Note-Velocity_113 Position_15 Note-On_55 Note-Duration_1 Note-Velocity_112 Bar-End Bar-Start Position_0 Note-On_55 Note-Duration_1 Note-Velocity_115 Position_1 Note-On_55 Note-Duration_1 Note-Velocity_109 Position_3 Note-On_55 Note-Duration_1 Note-Velocity_115 Position_4 Note-On_55 Note-Duration_1 Note-Velocity_112 Position_5 Note-On_55 Note-Duration_1 Note-Velocity_112 Position_7 Note-On_55 Note-Duration_1 Note-Velocity_110 Position_8 Note-On_55 Note-Duration_1 Note-Velocity_112 Position_9 Note-On_55 Note-Duration_1 Note-Velocity_111 Position_11 Note-On_55 Note-Duration_1 Note-Velocity_113 Position_12 Note-On_55 Note-Duration_1 Note-Velocity_110 Position_13 Note-On_55 Note-Duration_1 Note-Velocity_109 Position_15 Note-On_55 Note-Duration_1 Note-Velocity_109 Bar-End Bar-Start Position_0 Note-On_57 Note-Duration_1 Note-Velocity_111 Position_1 Note-On_57 Note-Duration_1 Note-Velocity_111 Position_3 Note-On_57 Note-Duration_1 Note-Velocity_110 Position_4 Note-On_57 Note-Duration_1 Note-Velocity_112 Position_5 Note-On_57 Note-Duration_1 Note-Velocity_115 Position_7 Note-On_57 Note-Duration_1 Note-Velocity_112 Position_8 Note-On_57 Note-Duration_1 Note-Velocity_112 Position_9 Note-On_57 Note-Duration_1 Note-Velocity_115 Position_11 Note-On_57 Note-Duration_1 Note-Velocity_112 Position_12 Note-On_57 Note-Duration_1 Note-Velocity_115 Position_13 Note-On_57 Note-Duration_1 Note-Velocity_115 Position_15 Note-On_57 Note-Duration_1 Note-Velocity_111 Bar-End Bar-Start Position_0 Note-On_57 Note-Duration_1 Note-Velocity_109 Position_1 Note-On_57 Note-Duration_1 Note-Velocity_111 Position_3 Note-On_57 Note-Duration_1 Note-Velocity_109 Position_4 Note-On_57 Note-Duration_1 Note-Velocity_109 Position_5 Note-On_57 Note-Duration_1 Note-Velocity_111 Position_7 Note-On_57 Note-Duration_1 Note-Velocity_110 Position_8 Note-On_57 Note-Duration_1 Note-Velocity_112 Position_9 Note-On_57 Note-Duration_1 Note-Velocity_113 Position_11 Note-On_57 Note-Duration_1 Note-Velocity_115 Position_12 Note-On_57 Note-Duration_1 Note-Velocity_112 Position_13 Note-On_57 Note-Duration_1 Note-Velocity_110 Position_15 Note-On_57 Note-Duration_1 Note-Velocity_110 Bar-End Bar-Start Position_0 Note-On_55 Note-Duration_1 Note-Velocity_115 Position_1 Note-On_55 Note-Duration_1 Note-Velocity_112 Position_3 Note-On_55 Note-Duration_1 Note-Velocity_115 Position_4 Note-On_55 Note-Duration_1 Note-Velocity_111 Position_5 Note-On_55 Note-Duration_1 Note-Velocity_113 Position_7 Note-On_55 Note-Duration_1 Note-Velocity_111 Position_8 Note-On_55 Note-Duration_1 Note-Velocity_112 Position_9 Note-On_55 Note-Duration_1 Note-Velocity_111 Position_11 Note-On_55 Note-Duration_1 Note-Velocity_110 Position_12 Note-On_55 Note-Duration_1 Note-Velocity_110 Position_13 Note-On_55 Note-Duration_1 Note-Velocity_112 Position_15 Note-On_55 Note-Duration_1 Note-Velocity_110 Bar-End Bar-Start Position_0 Note-On_55 Note-Duration_1 Note-Velocity_109 Position_1 Note-On_55 Note-Duration_1 Note-Velocity_110 Position_3 Note-On_55 Note-Duration_1 Note-Velocity_112 Position_4 Note-On_55 Note-Duration_1 Note-Velocity_113 Position_5 Note-On_55 Note-Duration_1 Note-Velocity_110 Position_7 Note-On_55 Note-Duration_1 Note-Velocity_113 Position_8 Note-On_55 Note-Duration_1 Note-Velocity_113 Position_9 Note-On_55 Note-Duration_1 Note-Velocity_115 Position_11 Note-On_55 Note-Duration_1 Note-Velocity_112 Position_12 Note-On_55 Note-Duration_1 Note-Velocity_110 Position_13 Note-On_55 Note-Duration_1 Note-Velocity_110 Position_15 Note-On_55 Note-Duration_1 Note-Velocity_110 Bar-End Bar-Start Position_0 Note-On_57 Note-Duration_1 Note-Velocity_110 Position_1 Note-On_57 Note-Duration_1 Note-Velocity_115 Position_3 Note-On_57 Note-Duration_1 Note-Velocity_111 Position_4 Note-On_57 Note-Duration_1 Note-Velocity_115 Position_5 Note-On_57 Note-Duration_1 Note-Velocity_110 Position_7 Note-On_57 Note-Duration_1 Note-Velocity_112 Position_8 Note-On_57 Note-Duration_1 Note-Velocity_111 Position_9 Note-On_57 Note-Duration_1 Note-Velocity_110 Position_11 Note-On_57 Note-Duration_1 Note-Velocity_110 Position_12 Note-On_57 Note-Duration_1 Note-Velocity_111 Position_13 Note-On_57 Note-Duration_1 Note-Velocity_110 Position_15 Note-On_57 Note-Duration_1 Note-Velocity_111 Bar-End Bar-Start Position_0 Note-On_57 Note-Duration_1 Note-Velocity_110 Position_1 Note-On_57 Note-Duration_1 Note-Velocity_110 Position_3 Note-On_57 Note-Duration_1 Note-Velocity_110 Position_4 Note-On_57 Note-Duration_1 Note-Velocity_110 Position_5 Note-On_57 Note-Duration_1 Note-Velocity_111 Position_7 Note-On_57 Note-Duration_1 Note-Velocity_110 Position_8 Note-On_57 Note-Duration_1 Note-Velocity_109 Position_9 Note-On_57 Note-Duration_1 Note-Velocity_111 Position_11 Note-On_57 Note-Duration_1 Note-Velocity_109 Position_12 Note-On_57 Note-Duration_1 Note-Velocity_110 Position_13 Note-On_57 Note-Duration_1 Note-Velocity_109 Position_15 Note-On_57 Note-Duration_1 Note-Velocity_110 Bar-End Bar-Start Position_0 Note-On_55 Note-Duration_1 Note-Velocity_110 Position_1 Note-On_55 Note-Duration_1 Note-Velocity_110 Position_3 Note-On_55 Note-Duration_1 Note-Velocity_111 Position_4 Note-On_55 Note-Duration_1 Note-Velocity_110 Position_5 Note-On_55 Note-Duration_1 Note-Velocity_109 Position_7 Note-On_55 Note-Duration_1 Note-Velocity_115 Position_8 Note-On_55 Note-Duration_1 Note-Velocity_109 Position_9 Note-On_55 Note-Duration_1 Note-Velocity_110 Position_11 Note-On_55 Note-Duration_1 Note-Velocity_110 Position_12 Note-On_55 Note-Duration_1 Note-Velocity_111 Position_13 Note-On_55 Note-Duration_1 Note-Velocity_111 Position_15 Note-On_55 Note-Duration_1 Note-Velocity_110 Bar-End Bar-Start Position_0 Note-On_55 Note-Duration_1 Note-Velocity_110 Position_1 Note-On_55 Note-Duration_1 Note-Velocity_110 Position_3 Note-On_55 Note-Duration_1 Note-Velocity_111 Position_4 Note-On_55 Note-Duration_1 Note-Velocity_113 Position_5 Note-On_55 Note-Duration_1 Note-Velocity_109 Position_7 Note-On_55 Note-Duration_1 Note-Velocity_111 Position_8 Note-On_55 Note-Duration_1 Note-Velocity_115 Position_9 Note-On_55 Note-Duration_1 Note-Velocity_110 Position_11 Note-On_55 Note-Duration_1 Note-Velocity_112 Position_12 Note-On_55 Note-Duration_1 Note-Velocity_109 Position_13 Note-On_55 Note-Duration_1 Note-Velocity_111 Position_15 Note-On_55 Note-Duration_1 Note-Velocity_109 Bar-End Bar-Start Position_0 Note-On_57 Note-Duration_1 Note-Velocity_110 Position_1 Note-On_57 Note-Duration_1 Note-Velocity_110 Position_3 Note-On_57 Note-Duration_1 Note-Velocity_111 Position_4 Note-On_57 Note-Duration_1 Note-Velocity_110 Position_5 Note-On_57 Note-Duration_1 Note-Velocity_111 Position_7 Note-On_57 Note-Duration_1 Note-Velocity_113 Position_8 Note-On_57 Note-Duration_1 Note-Velocity_109 Position_9 Note-On_57 Note-Duration_1 Note-Velocity_109 Position_11 Note-On_57 Note-Duration_1 Note-Velocity_109 Position_12 Note-On_57 Note-Duration_1 Note-Velocity_110 Position_13 Note-On_57 Note-Duration_1 Note-Velocity_111 Position_15 Note-On_57 Note-Duration_1 Note-Velocity_110 Bar-End Bar-Start Position_0 Note-On_55 Note-Duration_1 Note-Velocity_115 Position_1 Note-On_55 Note-Duration_1 Note-Velocity_110 Position_3 Note-On_55 Note-Duration_1 Note-Velocity_110 Position_4 Note-On_55 Note-Duration_1 Note-Velocity_111 Position_5 Note-On_55 Note-Duration_1 Note-Velocity_111 Position_7 Note-On_55 Note-Duration_1 Note-Velocity_115 Position_8 Note-On_55 Note-Duration_1 Note-Velocity_109 Position_9 Note-On_55 Note-Duration_1 Note-Velocity_110 Position_11 Note-On_55 Note-Duration_1 Note-Velocity_109 Position_12 Note-On_55 Note-Duration_1 Note-Velocity_110 Position_13 Note-On_55 Note-Duration_1 Note-Velocity_110 Position_15 Note-On_55 Note-Duration_1 Note-Velocity_113 Bar-End Bar-Start Position_0 Note-On_57 Note-Duration_1 Note-Velocity_111 Position_1 Note-On_57 Note-Duration_1 Note-Velocity_113 Position_3 Note-On_57 Note-Duration_1 Note-Velocity_111 Position_4 Note-On_57 Note-Duration_1 Note-Velocity_109 Position_5 Note-On_57 Note-Duration_1 Note-Velocity_113 Position_7 Note-On_57 Note-Duration_1 Note-Velocity_115 Position_8 Note-On_57 Note-Duration_1 Note-Velocity_110 Position_9 Note-On_57 Note-Duration_1 Note-Velocity_111 Position_11 Note-On_57 Note-Duration_1 Note-Velocity_111 Position_12 Note-On_57 Note-Duration_1 Note-Velocity_110 Position_13 Note-On_57 Note-Duration_1 Note-Velocity_113 Position_15 Note-On_57 Note-Duration_1 Note-Velocity_113 Bar-End Bar-Start Position_0 Note-On_55 Note-Duration_1 Note-Velocity_110 Position_1 Note-On_55 Note-Duration_1 Note-Velocity_110 Position_3 Note-On_55 Note-Duration_1 Note-Velocity_110 Position_4 Note-On_55 Note-Duration_1 Note-Velocity_111 Position_5 Note-On_55 Note-Duration_1 Note-Velocity_111 Position_7 Note-On_55 Note-Duration_1 Note-Velocity_111 Position_8 Note-On_55 Note-Duration_1 Note-Velocity_109 Position_9 Note-On_55 Note-Duration_1 Note-Velocity_111 Position_11 Note-On_55 Note-Duration_1 Note-Velocity_111 Position_12 Note-On_55 Note-Duration_1 Note-Velocity_115 Position_13 Note-On_55 Note-Duration_1 Note-Velocity_109 Position_15 Note-On_55 Note-Duration_1 Note-Velocity_113 Bar-End Bar-Start Position_0 Note-On_55 Note-Duration_1 Note-Velocity_110 Position_1 Note-On_55 Note-Duration_1 Note-Velocity_110 Position_3 Note-On_55 Note-Duration_1 Note-Velocity_109 Position_4 Note-On_55 Note-Duration_1 Note-Velocity_111 Position_5 Note-On_55 Note-Duration_1 Note-Velocity_111 Position_7 Note-On_55 Note-Duration_1 Note-Velocity_110 Position_8 Note-On_55 Note-Duration_1 Note-Velocity_115 Position_9 Note-On_55 Note-Duration_1 Note-Velocity_113 Position_11 Note-On_55 Note-Duration_1 Note-Velocity_110 Position_12 Note-On_55 Note-Duration_1 Note-Velocity_111 Position_13 Note-On_55 Note-Duration_1 Note-Velocity_109 Position_15 Note-On_55 Note-Duration_1 Note-Velocity_110 Bar-End Bar-Start Position_0 Note-On_57 Note-Duration_1 Note-Velocity_110 Position_1 Note-On_57 Note-Duration_1 Note-Velocity_111 Position_3 Note-On_57 Note-Duration_1 Note-Velocity_110 Position_4 Note-On_57 Note-Duration_1 Note-Velocity_109 Position_5 Note-On_57 Note-Duration_1 Note-Velocity_111 Position_7 Note-On_57 Note-Duration_1 Note-Velocity_115 Position_8 Note-On_57 Note-Duration_1 Note-Velocity_113 Position_9 Note-On_57 Note-Duration_1 Note-Velocity_111 Position_11 Note-On_57 Note-Duration_1 Note-Velocity_115 Position_12 Note-On_57 Note-Duration_1 Note-Velocity_115 Position_13 Note-On_57 Note-Duration_1 Note-Velocity_111 Position_15 Note-On_57 Note-Duration_1 Note-Velocity_110 Bar-End Bar-Start Position_0 Note-On_57 Note-Duration_1 Note-Velocity_111 Position_1 Note-On_57 Note-Duration_1 Note-Velocity_111 Position_3 Note-On_57 Note-Duration_1 Note-Velocity_110 Position_4 Note-On_57 Note-Duration_1 Note-Velocity_110 Position_5 Note-On_57 Note-Duration_1 Note-Velocity_115 Position_7 Note-On_57 Note-Duration_1 Note-Velocity_111 Position_8 Note-On_57 Note-Duration_1 Note-Velocity_111 Position_9 Note-On_57 Note-Duration_1 Note-Velocity_111 Position_11 Note-On_57 Note-Duration_1 Note-Velocity_111 Position_12 Note-On_57 Note-Duration_1 Note-Velocity_109 Position_13 Note-On_57 Note-Duration_1 Note-Velocity_111 Position_15 Note-On_57 Note-Duration_1 Note-Velocity_111 Bar-End Bar-Start Position_0 Note-On_55 Note-Duration_1 Note-Velocity_111 Position_1 Note-On_55 Note-Duration_1 Note-Velocity_110 Position_3 Note-On_55 Note-Duration_1 Note-Velocity_115 Position_4 Note-On_55 Note-Duration_1 Note-Velocity_110 Position_5 Note-On_55 Note-Duration_1 Note-Velocity_110 Position_7 Note-On_55 Note-Duration_1 Note-Velocity_115 Position_8 Note-On_55 Note-Duration_1 Note-Velocity_115 Position_9 Note-On_55 Note-Duration_1 Note-Velocity_111 Position_11 Note-On_55 Note-Duration_1 Note-Velocity_113 Position_12 Note-On_55 Note-Duration_1 Note-Velocity_115 Position_13 Note-On_55 Note-Duration_1 Note-Velocity_109 Position_15 Note-On_55 Note-Duration_1 Note-Velocity_113 Bar-End Bar-Start Position_0 Note-On_55 Note-Duration_1 Note-Velocity_109 Position_1 Note-On_55 Note-Duration_1 Note-Velocity_109 Position_3 Note-On_55 Note-Duration_1 Note-Velocity_113 Position_4 Note-On_55 Note-Duration_1 Note-Velocity_110 Position_5 Note-On_55 Note-Duration_1 Note-Velocity_110 Position_7 Note-On_55 Note-Duration_1 Note-Velocity_111 Position_8 Note-On_55 Note-Duration_1 Note-Velocity_113 Position_9 Note-On_55 Note-Duration_1 Note-Velocity_115 Position_11 Note-On_55 Note-Duration_1 Note-Velocity_111 Position_12 Note-On_55 Note-Duration_1 Note-Velocity_111 Position_13 Note-On_55 Note-Duration_1 Note-Velocity_111 Position_15 Note-On_55 Note-Duration_1 Note-Velocity_113 Bar-End Bar-Start Position_0 Note-On_55 Note-Duration_1 Note-Velocity_110 Position_1 Note-On_55 Note-Duration_1 Note-Velocity_109 Position_3 Note-On_55 Note-Duration_1 Note-Velocity_111 Position_4 Note-On_55 Note-Duration_1 Note-Velocity_111 Position_5 Note-On_55 Note-Duration_1 Note-Velocity_109 Position_7 Note-On_55 Note-Duration_1 Note-Velocity_115 Position_8 Note-On_55 Note-Duration_1 Note-Velocity_112 Position_9 Note-On_55 Note-Duration_1 Note-Velocity_109 Position_11 Note-On_55 Note-Duration_1 Note-Velocity_115 Position_12 Note-On_55 Note-Duration_1 Note-Velocity_112 Position_13 Note-On_55 Note-Duration_1 Note-Velocity_113 Position_15 Note-On_55 Note-Duration_1 Note-Velocity_111 Bar-End Bar-Start Position_0 Note-On_55 Note-Duration_1 Note-Velocity_110 Position_1 Note-On_55 Note-Duration_1 Note-Velocity_109 Position_3 Note-On_55 Note-Duration_1 Note-Velocity_110 Position_4 Note-On_55 Note-Duration_1 Note-Velocity_115 Position_5 Note-On_55 Note-Duration_1 Note-Velocity_111 Position_7 Note-On_55 Note-Duration_1 Note-Velocity_115 Position_8 Note-On_55 Note-Duration_1 Note-Velocity_112 Position_9 Note-On_55 Note-Duration_1 Note-Velocity_110 Position_11 Note-On_55 Note-Duration_1 Note-Velocity_113 Position_12 Note-On_55 Note-Duration_1 Note-Velocity_113 Position_13 Note-On_55 Note-Duration_1 Note-Velocity_115 Position_15 Note-On_55 Note-Duration_1 Note-Velocity_109 Bar-End Bar-Start Position_0 Note-On_57 Note-Duration_1 Note-Velocity_110 Position_1 Note-On_57 Note-Duration_1 Note-Velocity_115 Position_3 Note-On_57 Note-Duration_1 Note-Velocity_110 Position_4 Note-On_57 Note-Duration_1 Note-Velocity_115 Position_5 Note-On_57 Note-Duration_1 Note-Velocity_110 Position_7 Note-On_57 Note-Duration_1 Note-Velocity_112 Position_8 Note-On_57 Note-Duration_1 Note-Velocity_113 Position_9 Note-On_57 Note-Duration_1 Note-Velocity_113 Position_11 Note-On_57 Note-Duration_1 Note-Velocity_111 Position_12 Note-On_57 Note-Duration_1 Note-Velocity_113 Position_13 Note-On_57 Note-Duration_1 Note-Velocity_109 Position_15 Note-On_57 Note-Duration_1 Note-Velocity_111 Bar-End Bar-Start Position_0 Note-On_57 Note-Duration_1 Note-Velocity_111 Position_1 Note-On_57 Note-Duration_1 Note-Velocity_109 Position_3 Note-On_57 Note-Duration_1 Note-Velocity_110 Position_4 Note-On_57 Note-Duration_1 Note-Velocity_110 Position_5 Note-On_57 Note-Duration_1 Note-Velocity_115 Position_7 Note-On_57 Note-Duration_1 Note-Velocity_115 Position_8 Note-On_57 Note-Duration_1 Note-Velocity_112 Position_9 Note-On_57 Note-Duration_1 Note-Velocity_113 Position_11 Note-On_57 Note-Duration_1 Note-Velocity_111 Position_12 Note-On_57 Note-Duration_1 Note-Velocity_109 Position_13 Note-On_57 Note-Duration_1 Note-Velocity_111 Position_15 Note-On_57 Note-Duration_1 Note-Velocity_110 Bar-End Bar-Start Position_0 Note-On_55 Note-Duration_1 Note-Velocity_110 Position_1 Note-On_55 Note-Duration_1 Note-Velocity_109 Position_3 Note-On_55 Note-Duration_1 Note-Velocity_112 Position_4 Note-On_55 Note-Duration_1 Note-Velocity_115 Position_5 Note-On_55 Note-Duration_1 Note-Velocity_112 Position_7 Note-On_55 Note-Duration_1 Note-Velocity_111 Position_8 Note-On_55 Note-Duration_1 Note-Velocity_115 Position_9 Note-On_55 Note-Duration_1 Note-Velocity_111 Position_11 Note-On_55 Note-Duration_1 Note-Velocity_110 Position_12 Note-On_55 Note-Duration_1 Note-Velocity_112 Position_13 Note-On_55 Note-Duration_1 Note-Velocity_111 Position_15 Note-On_55 Note-Duration_1 Note-Velocity_110 Bar-End Bar-Start Position_0 Note-On_55 Note-Duration_1 Note-Velocity_113 Position_1 Note-On_55 Note-Duration_1 Note-Velocity_111 Position_3 Note-On_55 Note-Duration_1 Note-Velocity_115 Position_4 Note-On_55 Note-Duration_1 Note-Velocity_111 Position_5 Note-On_55 Note-Duration_1 Note-Velocity_111 Position_7 Note-On_55 Note-Duration_1 Note-Velocity_110 Position_8 Note-On_55 Note-Duration_1 Note-Velocity_115 Position_9 Note-On_55 Note-Duration_1 Note-Velocity_111 Position_11 Note-On_55 Note-Duration_1 Note-Velocity_115 Position_12 Note-On_55 Note-Duration_1 Note-Velocity_111 Position_13 Note-On_55 Note-Duration_1 Note-Velocity_113 Position_15 Note-On_55 Note-Duration_1 Note-Velocity_110 Bar-End Bar-Start Position_0 Note-On_57 Note-Duration_1 Note-Velocity_109 Position_1 Note-On_57 Note-Duration_1 Note-Velocity_111 Position_3 Note-On_57 Note-Duration_1 Note-Velocity_111 Position_4 Note-On_57 Note-Duration_1 Note-Velocity_113 Position_5 Note-On_57 Note-Duration_1 Note-Velocity_112 Position_7 Note-On_57 Note-Duration_1 Note-Velocity_110 Position_8 Note-On_57 Note-Duration_1 Note-Velocity_111 Position_9 Note-On_57 Note-Duration_1 Note-Velocity_115 Position_11 Note-On_57 Note-Duration_1 Note-Velocity_112 Position_12 Note-On_57 Note-Duration_1 Note-Velocity_111 Position_13 Note-On_57 Note-Duration_1 Note-Velocity_115 Position_15 Note-On_57 Note-Duration_1 Note-Velocity_110 Bar-End Bar-Start Position_0 Note-On_57 Note-Duration_1 Note-Velocity_115 Position_1 Note-On_57 Note-Duration_1 Note-Velocity_113 Position_3 Note-On_57 Note-Duration_1 Note-Velocity_110 Position_4 Note-On_57 Note-Duration_1 Note-Velocity_112 Position_5 Note-On_57 Note-Duration_1 Note-Velocity_112 Position_7 Note-On_57 Note-Duration_1 Note-Velocity_113 Position_8 Note-On_57 Note-Duration_1 Note-Velocity_112 Position_9 Note-On_57 Note-Duration_1 Note-Velocity_109 Position_11 Note-On_57 Note-Duration_1 Note-Velocity_112 Position_12 Note-On_57 Note-Duration_1 Note-Velocity_109 Position_13 Note-On_57 Note-Duration_1 Note-Velocity_110 Position_15 Note-On_57 Note-Duration_1 Note-Velocity_110 Bar-End Bar-Start Position_0 Note-On_55 Note-Duration_1 Note-Velocity_109 Position_1 Note-On_55 Note-Duration_1 Note-Velocity_115 Position_3 Note-On_55 Note-Duration_1 Note-Velocity_112 Position_4 Note-On_55 Note-Duration_1 Note-Velocity_111 Position_5 Note-On_55 Note-Duration_1 Note-Velocity_113 Position_7 Note-On_55 Note-Duration_1 Note-Velocity_115 Position_8 Note-On_55 Note-Duration_1 Note-Velocity_110 Position_9 Note-On_55 Note-Duration_1 Note-Velocity_111 Position_11 Note-On_55 Note-Duration_1 Note-Velocity_110 Position_12 Note-On_55 Note-Duration_1 Note-Velocity_112 Position_13 Note-On_55 Note-Duration_1 Note-Velocity_111 Position_15 Note-On_55 Note-Duration_1 Note-Velocity_109 Bar-End Bar-Start Position_0 Note-On_55 Note-Duration_1 Note-Velocity_110 Position_1 Note-On_55 Note-Duration_1 Note-Velocity_115 Position_3 Note-On_55 Note-Duration_1 Note-Velocity_113 Position_4 Note-On_55 Note-Duration_1 Note-Velocity_110 Position_5 Note-On_55 Note-Duration_1 Note-Velocity_113 Position_7 Note-On_55 Note-Duration_1 Note-Velocity_110 Position_8 Note-On_55 Note-Duration_1 Note-Velocity_112 Position_9 Note-On_55 Note-Duration_1 Note-Velocity_109 Position_11 Note-On_55 Note-Duration_1 Note-Velocity_111 Position_12 Note-On_55 Note-Duration_1 Note-Velocity_115 Position_13 Note-On_55 Note-Duration_1 Note-Velocity_111 Position_15 Note-On_55 Note-Duration_1 Note-Velocity_111 Bar-End Bar-Start Position_0 Note-On_57 Note-Duration_1 Note-Velocity_111 Position_1 Note-On_57 Note-Duration_1 Note-Velocity_115 Position_3 Note-On_57 Note-Duration_1 Note-Velocity_110 Position_4 Note-On_57 Note-Duration_1 Note-Velocity_111 Position_5 Note-On_57 Note-Duration_1 Note-Velocity_113 Position_7 Note-On_57 Note-Duration_1 Note-Velocity_110 Position_8 Note-On_57 Note-Duration_1 Note-Velocity_109 Position_9 Note-On_57 Note-Duration_1 Note-Velocity_115 Position_11 Note-On_57 Note-Duration_1 Note-Velocity_112 Position_12 Note-On_57 Note-Duration_1 Note-Velocity_109 Position_13 Note-On_57 Note-Duration_1 Note-Velocity_111 Position_15 Note-On_57 Note-Duration_1 Note-Velocity_115 Bar-End Bar-Start Position_0 Note-On_55 Note-Duration_1 Note-Velocity_111 Position_1 Note-On_55 Note-Duration_1 Note-Velocity_110 Position_3 Note-On_55 Note-Duration_1 Note-Velocity_109 Position_4 Note-On_55 Note-Duration_1 Note-Velocity_115 Position_5 Note-On_55 Note-Duration_1 Note-Velocity_112 Position_7 Note-On_55 Note-Duration_1 Note-Velocity_110 Position_8 Note-On_55 Note-Duration_1 Note-Velocity_115 Position_9 Note-On_55 Note-Duration_1 Note-Velocity_109 Position_11 Note-On_55 Note-Duration_1 Note-Velocity_112 Position_12 Note-On_55 Note-Duration_1 Note-Velocity_110 Position_13 Note-On_55 Note-Duration_1 Note-Velocity_109 Position_15 Note-On_55 Note-Duration_1 Note-Velocity_115 Bar-End Bar-Start Position_0 Note-On_57 Note-Duration_1 Note-Velocity_113 Position_1 Note-On_57 Note-Duration_1 Note-Velocity_113 Position_3 Note-On_57 Note-Duration_1 Note-Velocity_109 Position_4 Note-On_57 Note-Duration_1 Note-Velocity_115 Position_5 Note-On_57 Note-Duration_1 Note-Velocity_111 Position_7 Note-On_57 Note-Duration_1 Note-Velocity_111 Position_8 Note-On_57 Note-Duration_1 Note-Velocity_111 Position_9 Note-On_57 Note-Duration_1 Note-Velocity_110 Position_11 Note-On_57 Note-Duration_1 Note-Velocity_113 Position_12 Note-On_57 Note-Duration_1 Note-Velocity_109 Position_13 Note-On_57 Note-Duration_1 Note-Velocity_113 Position_15 Note-On_57 Note-Duration_1 Note-Velocity_112 Bar-End Bar-Start Position_0 Note-On_55 Note-Duration_1 Note-Velocity_109 Position_1 Note-On_55 Note-Duration_1 Note-Velocity_113 Position_3 Note-On_55 Note-Duration_1 Note-Velocity_113 Position_4 Note-On_55 Note-Duration_1 Note-Velocity_111 Position_5 Note-On_55 Note-Duration_1 Note-Velocity_110 Position_7 Note-On_55 Note-Duration_1 Note-Velocity_110 Position_8 Note-On_55 Note-Duration_1 Note-Velocity_109 Position_9 Note-On_55 Note-Duration_1 Note-Velocity_111 Position_11 Note-On_55 Note-Duration_1 Note-Velocity_112 Position_12 Note-On_55 Note-Duration_1 Note-Velocity_109 Position_13 Note-On_55 Note-Duration_1 Note-Velocity_112 Position_15 Note-On_55 Note-Duration_1 Note-Velocity_110 Bar-End Bar-Start Position_0 Note-On_55 Note-Duration_1 Note-Velocity_110 Position_1 Note-On_55 Note-Duration_1 Note-Velocity_111 Position_3 Note-On_55 Note-Duration_1 Note-Velocity_111 Position_4 Note-On_55 Note-Duration_1 Note-Velocity_110 Position_5 Note-On_55 Note-Duration_1 Note-Velocity_115 Position_7 Note-On_55 Note-Duration_1 Note-Velocity_113 Position_8 Note-On_55 Note-Duration_1 Note-Velocity_111 Position_9 Note-On_55 Note-Duration_1 Note-Velocity_112 Position_11 Note-On_55 Note-Duration_1 Note-Velocity_113 Position_12 Note-On_55 Note-Duration_1 Note-Velocity_113 Position_13 Note-On_55 Note-Duration_1 Note-Velocity_110 Position_15 Note-On_55 Note-Duration_1 Note-Velocity_110 Bar-End Bar-Start Position_0 Note-On_55 Note-Duration_1 Note-Velocity_111 Position_1 Note-On_55 Note-Duration_1 Note-Velocity_109 Position_3 Note-On_55 Note-Duration_1 Note-Velocity_111 Position_4 Note-On_55 Note-Duration_1 Note-Velocity_115 Position_5 Note-On_55 Note-Duration_1 Note-Velocity_115 Position_7 Note-On_55 Note-Duration_1 Note-Velocity_113 Position_8 Note-On_55 Note-Duration_1 Note-Velocity_112 Position_9 Note-On_55 Note-Duration_1 Note-Velocity_109 Position_11 Note-On_55 Note-Duration_1 Note-Velocity_111 Position_12 Note-On_55 Note-Duration_1 Note-Velocity_110 Position_13 Note-On_55 Note-Duration_1 Note-Velocity_113 Position_15 Note-On_55 Note-Duration_1 Note-Velocity_110 Bar-End Bar-Start Position_0 Note-On_55 Note-Duration_1 Note-Velocity_111 Position_1 Note-On_55 Note-Duration_1 Note-Velocity_111 Position_3 Note-On_55 Note-Duration_1 Note-Velocity_111 Position_4 Note-On_55 Note-Duration_1 Note-Velocity_110 Position_5 Note-On_55 Note-Duration_1 Note-Velocity_113 Position_7 Note-On_55 Note-Duration_1 Note-Velocity_111 Position_8 Note-On_55 Note-Duration_1 Note-Velocity_110 Position_9 Note-On_55 Note-Duration_1 Note-Velocity_111 Position_11 Note-On_55 Note-Duration_1 Note-Velocity_111 Position_12 Note-On_55 Note-Duration_1 Note-Velocity_109 Position_13 Note-On_55 Note-Duration_1 Note-Velocity_110 Position_15 Note-On_55 Note-Duration_1 Note-Velocity_113 Bar-End Bar-Start Position_0 Note-On_55 Note-Duration_1 Note-Velocity_109 Position_1 Note-On_55 Note-Duration_1 Note-Velocity_112 Position_3 Note-On_55 Note-Duration_1 Note-Velocity_113 Position_4 Note-On_55 Note-Duration_1 Note-Velocity_115 Position_5 Note-On_55 Note-Duration_1 Note-Velocity_111 Position_7 Note-On_55 Note-Duration_1 Note-Velocity_111 Position_8 Note-On_55 Note-Duration_1 Note-Velocity_112 Position_9 Note-On_55 Note-Duration_1 Note-Velocity_110 Position_11 Note-On_55 Note-Duration_1 Note-Velocity_113 Position_12 Note-On_55 Note-Duration_1 Note-Velocity_111 Position_13 Note-On_55 Note-Duration_1 Note-Velocity_113 Position_15 Note-On_55 Note-Duration_1 Note-Velocity_111 Bar-End Bar-Start Position_0 Note-On_55 Note-Duration_1 Note-Velocity_110 Position_1 Note-On_55 Note-Duration_1 Note-Velocity_109 Position_3 Note-On_55 Note-Duration_1 Note-Velocity_109 Position_4 Note-On_55 Note-Duration_1 Note-Velocity_113 Position_5 Note-On_55 Note-Duration_1 Note-Velocity_110 Position_7 Note-On_55 Note-Duration_1 Note-Velocity_111 Position_8 Note-On_55 Note-Duration_1 Note-Velocity_113 Position_9 Note-On_55 Note-Duration_1 Note-Velocity_109 Position_11 Note-On_55 Note-Duration_1 Note-Velocity_110 Position_12 Note-On_55 Note-Duration_1 Note-Velocity_115 Position_13 Note-On_55 Note-Duration_1 Note-Velocity_111 Position_15 Note-On_55 Note-Duration_1 Note-Velocity_113 Bar-End Bar-Start Position_0 Note-On_55 Note-Duration_1 Note-Velocity_111 Position_1 Note-On_55 Note-Duration_1 Note-Velocity_111 Position_3 Note-On_55 Note-Duration_1 Note-Velocity_110 Position_4 Note-On_55 Note-Duration_1 Note-Velocity_115 Position_5 Note-On_55 Note-Duration_1 Note-Velocity_113 Position_7 Note-On_55 Note-Duration_1 Note-Velocity_115 Position_8 Note-On_55 Note-Duration_1 Note-Velocity_112 Position_9 Note-On_55 Note-Duration_1 Note-Velocity_111 Position_11 Note-On_55 Note-Duration_1 Note-Velocity_109 Position_12 Note-On_55 Note-Duration_1 Note-Velocity_115 Position_13 Note-On_55 Note-Duration_1 Note-Velocity_113 Position_15 Note-On_55 Note-Duration_1 Note-Velocity_110 Bar-End Track-End Track-Start Inst_37 Bar-Start Bar-End Bar-Start Bar-End Bar-Start Bar-End Bar-Start Bar-End Bar-Start Bar-End Bar-Start Bar-End Bar-Start Position_0 Note-On_50 Note-Duration_2 Note-Velocity_127 Position_4 Note-On_55 Note-Duration_2 Note-Velocity_127 Position_8 Note-On_53 Note-Duration_1 Note-Velocity_127 Position_11 Note-On_53 Note-Duration_1 Note-Velocity_127 Bar-End Bar-Start Position_0 Note-On_50 Note-Duration_2 Note-Velocity_127 Position_4 Note-On_55 Note-Duration_2 Note-Velocity_127 Position_8 Note-On_53 Note-Duration_1 Note-Velocity_127 Position_11 Note-On_53 Note-Duration_1 Note-Velocity_127 Bar-End Bar-Start Position_0 Note-On_50 Note-Duration_2 Note-Velocity_127 Position_4 Note-On_55 Note-Duration_2 Note-Velocity_127 Position_8 Note-On_53 Note-Duration_1 Note-Velocity_127 Position_11 Note-On_53 Note-Duration_1 Note-Velocity_127 Bar-End Bar-Start Position_0 Note-On_50 Note-Duration_2 Note-Velocity_127 Position_4 Note-On_55 Note-Duration_2 Note-Velocity_127 Position_8 Note-On_53 Note-Duration_1 Note-Velocity_127 Position_11 Note-On_53 Note-Duration_1 Note-Velocity_127 Bar-End Bar-Start Position_0 Note-On_50 Note-Duration_2 Note-Velocity_127 Position_4 Note-On_55 Note-Duration_2 Note-Velocity_127 Position_8 Note-On_53 Note-Duration_1 Note-Velocity_127 Position_11 Note-On_53 Note-Duration_1 Note-Velocity_127 Bar-End Bar-Start Position_0 Note-On_50 Note-Duration_2 Note-Velocity_127 Position_4 Note-On_55 Note-Duration_2 Note-Velocity_127 Position_8 Note-On_53 Note-Duration_1 Note-Velocity_127 Position_11 Note-On_53 Note-Duration_1 Note-Velocity_127 Bar-End Bar-Start Position_0 Note-On_50 Note-Duration_2 Note-Velocity_127 Position_4 Note-On_55 Note-Duration_2 Note-Velocity_127 Position_8 Note-On_53 Note-Duration_1 Note-Velocity_127 Position_11 Note-On_53 Note-Duration_1 Note-Velocity_127 Bar-End Bar-Start Position_0 Note-On_50 Note-Duration_2 Note-Velocity_127 Position_4 Note-On_55 Note-Duration_2 Note-Velocity_127 Position_8 Note-On_53 Note-Duration_1 Note-Velocity_127 Position_11 Note-On_53 Note-Duration_1 Note-Velocity_127 Bar-End Bar-Start Position_0 Note-On_50 Note-Duration_2 Note-Velocity_127 Position_4 Note-On_55 Note-Duration_2 Note-Velocity_127 Position_8 Note-On_53 Note-Duration_1 Note-Velocity_127 Position_11 Note-On_53 Note-Duration_1 Note-Velocity_127 Bar-End Bar-Start Position_0 Note-On_50 Note-Duration_2 Note-Velocity_127 Position_4 Note-On_55 Note-Duration_2 Note-Velocity_127 Position_8 Note-On_53 Note-Duration_1 Note-Velocity_127 Position_11 Note-On_53 Note-Duration_1 Note-Velocity_127 Bar-End Bar-Start Position_0 Note-On_50 Note-Duration_2 Note-Velocity_127 Position_4 Note-On_55 Note-Duration_2 Note-Velocity_127 Position_8 Note-On_53 Note-Duration_1 Note-Velocity_127 Position_11 Note-On_53 Note-Duration_1 Note-Velocity_127 Bar-End Bar-Start Position_0 Note-On_50 Note-Duration_2 Note-Velocity_127 Position_4 Note-On_55 Note-Duration_2 Note-Velocity_127 Position_8 Note-On_53 Note-Duration_1 Note-Velocity_127 Position_11 Note-On_53 Note-Duration_1 Note-Velocity_127 Bar-End Bar-Start Position_0 Note-On_50 Note-Duration_2 Note-Velocity_127 Position_4 Note-On_55 Note-Duration_2 Note-Velocity_127 Position_8 Note-On_53 Note-Duration_1 Note-Velocity_127 Position_11 Note-On_53 Note-Duration_1 Note-Velocity_127 Bar-End Bar-Start Position_0 Note-On_50 Note-Duration_2 Note-Velocity_127 Position_4 Note-On_55 Note-Duration_2 Note-Velocity_127 Position_8 Note-On_53 Note-Duration_1 Note-Velocity_127 Position_11 Note-On_53 Note-Duration_1 Note-Velocity_127 Bar-End Bar-Start Position_0 Note-On_50 Note-Duration_2 Note-Velocity_127 Position_4 Note-On_55 Note-Duration_2 Note-Velocity_127 Position_8 Note-On_53 Note-Duration_1 Note-Velocity_127 Position_11 Note-On_53 Note-Duration_1 Note-Velocity_127 Bar-End Bar-Start Position_0 Note-On_50 Note-Duration_2 Note-Velocity_127 Position_4 Note-On_55 Note-Duration_2 Note-Velocity_127 Position_8 Note-On_53 Note-Duration_1 Note-Velocity_127 Position_11 Note-On_53 Note-Duration_1 Note-Velocity_127 Bar-End Bar-Start Position_0 Note-On_50 Note-Duration_2 Note-Velocity_127 Position_4 Note-On_55 Note-Duration_2 Note-Velocity_127 Position_8 Note-On_53 Note-Duration_1 Note-Velocity_127 Position_11 Note-On_53 Note-Duration_1 Note-Velocity_127 Bar-End Bar-Start Position_0 Note-On_50 Note-Duration_2 Note-Velocity_127 Position_4 Note-On_55 Note-Duration_2 Note-Velocity_127 Position_8 Note-On_53 Note-Duration_1 Note-Velocity_127 Position_11 Note-On_53 Note-Duration_1 Note-Velocity_127 Bar-End Bar-Start Position_0 Note-On_50 Note-Duration_2 Note-Velocity_127 Position_4 Note-On_55 Note-Duration_2 Note-Velocity_127 Position_8 Note-On_53 Note-Duration_1 Note-Velocity_127 Position_11 Note-On_53 Note-Duration_1 Note-Velocity_127 Bar-End Bar-Start Position_0 Note-On_50 Note-Duration_2 Note-Velocity_127 Position_4 Note-On_55 Note-Duration_2 Note-Velocity_127 Position_8 Note-On_53 Note-Duration_1 Note-Velocity_127 Position_11 Note-On_53 Note-Duration_1 Note-Velocity_127 Bar-End Bar-Start Position_0 Note-On_50 Note-Duration_2 Note-Velocity_127 Position_4 Note-On_55 Note-Duration_2 Note-Velocity_127 Position_8 Note-On_53 Note-Duration_1 Note-Velocity_127 Position_11 Note-On_53 Note-Duration_1 Note-Velocity_127 Bar-End Bar-Start Position_0 Note-On_50 Note-Duration_2 Note-Velocity_127 Position_4 Note-On_55 Note-Duration_2 Note-Velocity_127 Position_8 Note-On_53 Note-Duration_1 Note-Velocity_127 Position_11 Note-On_53 Note-Duration_1 Note-Velocity_127 Bar-End Bar-Start Position_0 Note-On_50 Note-Duration_2 Note-Velocity_127 Position_4 Note-On_55 Note-Duration_2 Note-Velocity_127 Position_8 Note-On_53 Note-Duration_1 Note-Velocity_127 Position_11 Note-On_53 Note-Duration_1 Note-Velocity_127 Bar-End Bar-Start Position_0 Note-On_50 Note-Duration_2 Note-Velocity_127 Position_4 Note-On_55 Note-Duration_2 Note-Velocity_127 Position_8 Note-On_53 Note-Duration_1 Note-Velocity_127 Position_11 Note-On_53 Note-Duration_1 Note-Velocity_127 Bar-End Bar-Start Position_0 Note-On_50 Note-Duration_2 Note-Velocity_127 Position_4 Note-On_55 Note-Duration_2 Note-Velocity_127 Position_8 Note-On_53 Note-Duration_1 Note-Velocity_127 Position_11 Note-On_53 Note-Duration_1 Note-Velocity_127 Bar-End Bar-Start Position_0 Note-On_50 Note-Duration_2 Note-Velocity_127 Position_4 Note-On_55 Note-Duration_2 Note-Velocity_127 Position_8 Note-On_53 Note-Duration_1 Note-Velocity_127 Position_11 Note-On_53 Note-Duration_1 Note-Velocity_127 Bar-End Bar-Start Position_0 Note-On_50 Note-Duration_2 Note-Velocity_127 Position_4 Note-On_55 Note-Duration_2 Note-Velocity_127 Position_8 Note-On_53 Note-Duration_1 Note-Velocity_127 Position_11 Note-On_53 Note-Duration_1 Note-Velocity_127 Bar-End Bar-Start Position_0 Note-On_50 Note-Duration_2 Note-Velocity_127 Position_4 Note-On_55 Note-Duration_2 Note-Velocity_127 Position_8 Note-On_53 Note-Duration_1 Note-Velocity_127 Position_11 Note-On_53 Note-Duration_1 Note-Velocity_127 Bar-End Bar-Start Position_0 Note-On_50 Note-Duration_2 Note-Velocity_127 Position_4 Note-On_55 Note-Duration_2 Note-Velocity_127 Position_8 Note-On_53 Note-Duration_1 Note-Velocity_127 Position_11 Note-On_53 Note-Duration_1 Note-Velocity_127 Bar-End Bar-Start Position_0 Note-On_50 Note-Duration_2 Note-Velocity_127 Position_4 Note-On_55 Note-Duration_2 Note-Velocity_127 Position_8 Note-On_53 Note-Duration_1 Note-Velocity_127 Position_11 Note-On_53 Note-Duration_1 Note-Velocity_127 Bar-End Bar-Start Position_0 Note-On_50 Note-Duration_2 Note-Velocity_127 Position_4 Note-On_55 Note-Duration_2 Note-Velocity_127 Position_8 Note-On_53 Note-Duration_1 Note-Velocity_127 Position_11 Note-On_53 Note-Duration_1 Note-Velocity_127 Bar-End Bar-Start Position_0 Note-On_50 Note-Duration_2 Note-Velocity_127 Position_4 Note-On_55 Note-Duration_2 Note-Velocity_127 Position_8 Note-On_53 Note-Duration_1 Note-Velocity_127 Position_11 Note-On_53 Note-Duration_1 Note-Velocity_127 Bar-End Bar-Start Position_0 Note-On_50 Note-Duration_2 Note-Velocity_127 Position_4 Note-On_55 Note-Duration_2 Note-Velocity_127 Position_8 Note-On_53 Note-Duration_1 Note-Velocity_127 Position_11 Note-On_53 Note-Duration_1 Note-Velocity_127 Bar-End Bar-Start Position_0 Note-On_50 Note-Duration_2 Note-Velocity_127 Position_4 Note-On_55 Note-Duration_2 Note-Velocity_127 Position_8 Note-On_53 Note-Duration_1 Note-Velocity_127 Position_11 Note-On_53 Note-Duration_1 Note-Velocity_127 Bar-End Bar-Start Position_0 Note-On_50 Note-Duration_2 Note-Velocity_127 Position_4 Note-On_55 Note-Duration_2 Note-Velocity_127 Position_8 Note-On_53 Note-Duration_1 Note-Velocity_127 Position_11 Note-On_53 Note-Duration_1 Note-Velocity_127 Bar-End Bar-Start Position_0 Note-On_50 Note-Duration_2 Note-Velocity_127 Position_4 Note-On_55 Note-Duration_2 Note-Velocity_127 Position_8 Note-On_53 Note-Duration_1 Note-Velocity_127 Position_11 Note-On_53 Note-Duration_1 Note-Velocity_127 Bar-End Bar-Start Position_0 Note-On_50 Note-Duration_2 Note-Velocity_127 Position_4 Note-On_55 Note-Duration_2 Note-Velocity_127 Position_8 Note-On_53 Note-Duration_1 Note-Velocity_127 Position_11 Note-On_53 Note-Duration_1 Note-Velocity_127 Bar-End Bar-Start Position_0 Note-On_50 Note-Duration_2 Note-Velocity_127 Position_4 Note-On_55 Note-Duration_2 Note-Velocity_127 Position_8 Note-On_53 Note-Duration_1 Note-Velocity_127 Position_11 Note-On_53 Note-Duration_1 Note-Velocity_127 Bar-End Bar-Start Position_0 Note-On_50 Note-Duration_2 Note-Velocity_127 Position_4 Note-On_55 Note-Duration_2 Note-Velocity_127 Position_8 Note-On_53 Note-Duration_1 Note-Velocity_127 Position_11 Note-On_53 Note-Duration_1 Note-Velocity_127 Bar-End Bar-Start Position_0 Note-On_50 Note-Duration_2 Note-Velocity_127 Position_4 Note-On_55 Note-Duration_2 Note-Velocity_127 Position_8 Note-On_53 Note-Duration_1 Note-Velocity_127 Position_11 Note-On_53 Note-Duration_1 Note-Velocity_127 Bar-End Bar-Start Position_0 Note-On_50 Note-Duration_2 Note-Velocity_127 Position_4 Note-On_55 Note-Duration_2 Note-Velocity_127 Position_8 Note-On_53 Note-Duration_1 Note-Velocity_127 Position_11 Note-On_53 Note-Duration_1 Note-Velocity_127 Bar-End Bar-Start Position_0 Note-On_50 Note-Duration_2 Note-Velocity_127 Position_4 Note-On_55 Note-Duration_2 Note-Velocity_127 Position_8 Note-On_53 Note-Duration_1 Note-Velocity_127 Position_11 Note-On_53 Note-Duration_1 Note-Velocity_127 Bar-End Bar-Start Position_0 Note-On_50 Note-Duration_2 Note-Velocity_127 Position_4 Note-On_55 Note-Duration_2 Note-Velocity_127 Position_8 Note-On_53 Note-Duration_1 Note-Velocity_127 Position_11 Note-On_53 Note-Duration_1 Note-Velocity_127 Bar-End Bar-Start Position_0 Note-On_50 Note-Duration_2 Note-Velocity_127 Position_4 Note-On_55 Note-Duration_2 Note-Velocity_127 Position_8 Note-On_53 Note-Duration_1 Note-Velocity_127 Position_11 Note-On_53 Note-Duration_1 Note-Velocity_127 Bar-End Bar-Start Position_0 Note-On_50 Note-Duration_2 Note-Velocity_127 Position_4 Note-On_55 Note-Duration_2 Note-Velocity_127 Position_8 Note-On_53 Note-Duration_1 Note-Velocity_127 Position_11 Note-On_53 Note-Duration_1 Note-Velocity_127 Bar-End Bar-Start Position_0 Note-On_50 Note-Duration_2 Note-Velocity_127 Position_4 Note-On_55 Note-Duration_2 Note-Velocity_127 Position_8 Note-On_53 Note-Duration_1 Note-Velocity_127 Position_11 Note-On_53 Note-Duration_1 Note-Velocity_127 Bar-End Bar-Start Position_0 Note-On_50 Note-Duration_2 Note-Velocity_127 Position_4 Note-On_55 Note-Duration_2 Note-Velocity_127 Position_8 Note-On_53 Note-Duration_1 Note-Velocity_127 Position_11 Note-On_53 Note-Duration_1 Note-Velocity_127 Bar-End Bar-Start Position_0 Note-On_50 Note-Duration_2 Note-Velocity_127 Position_4 Note-On_55 Note-Duration_2 Note-Velocity_127 Position_8 Note-On_53 Note-Duration_1 Note-Velocity_127 Position_11 Note-On_53 Note-Duration_1 Note-Velocity_127 Bar-End Bar-Start Position_0 Note-On_50 Note-Duration_2 Note-Velocity_127 Position_4 Note-On_55 Note-Duration_2 Note-Velocity_127 Position_8 Note-On_53 Note-Duration_1 Note-Velocity_127 Position_11 Note-On_53 Note-Duration_1 Note-Velocity_127 Bar-End Bar-Start Position_0 Note-On_50 Note-Duration_2 Note-Velocity_127 Position_4 Note-On_55 Note-Duration_2 Note-Velocity_127 Position_8 Note-On_53 Note-Duration_1 Note-Velocity_127 Position_11 Note-On_53 Note-Duration_1 Note-Velocity_127 Bar-End Bar-Start Position_0 Note-On_50 Note-Duration_2 Note-Velocity_127 Position_4 Note-On_55 Note-Duration_2 Note-Velocity_127 Position_8 Note-On_53 Note-Duration_1 Note-Velocity_127 Position_11 Note-On_53 Note-Duration_1 Note-Velocity_127 Bar-End Bar-Start Position_0 Note-On_50 Note-Duration_2 Note-Velocity_127 Position_4 Note-On_55 Note-Duration_2 Note-Velocity_127 Position_8 Note-On_53 Note-Duration_1 Note-Velocity_127 Position_11 Note-On_53 Note-Duration_1 Note-Velocity_127 Bar-End Bar-Start Position_0 Note-On_50 Note-Duration_2 Note-Velocity_127 Position_4 Note-On_55 Note-Duration_2 Note-Velocity_127 Position_8 Note-On_53 Note-Duration_1 Note-Velocity_127 Position_11 Note-On_53 Note-Duration_1 Note-Velocity_127 Bar-End Bar-Start Position_0 Note-On_50 Note-Duration_2 Note-Velocity_127 Position_4 Note-On_55 Note-Duration_2 Note-Velocity_127 Position_8 Note-On_53 Note-Duration_1 Note-Velocity_127 Position_11 Note-On_53 Note-Duration_1 Note-Velocity_127 Bar-End Bar-Start Position_0 Note-On_50 Note-Duration_2 Note-Velocity_127 Position_4 Note-On_55 Note-Duration_2 Note-Velocity_127 Position_8 Note-On_53 Note-Duration_1 Note-Velocity_127 Position_11 Note-On_53 Note-Duration_1 Note-Velocity_127 Bar-End Bar-Start Position_0 Note-On_50 Note-Duration_2 Note-Velocity_127 Position_4 Note-On_55 Note-Duration_2 Note-Velocity_127 Position_8 Note-On_53 Note-Duration_1 Note-Velocity_127 Position_11 Note-On_53 Note-Duration_1 Note-Velocity_127 Bar-End Bar-Start Position_0 Note-On_50 Note-Duration_2 Note-Velocity_127 Position_4 Note-On_55 Note-Duration_2 Note-Velocity_127 Position_8 Note-On_53 Note-Duration_1 Note-Velocity_127 Position_11 Note-On_53 Note-Duration_1 Note-Velocity_127 Bar-End Bar-Start Position_0 Note-On_50 Note-Duration_2 Note-Velocity_127 Position_4 Note-On_55 Note-Duration_2 Note-Velocity_127 Position_8 Note-On_53 Note-Duration_1 Note-Velocity_127 Position_11 Note-On_53 Note-Duration_1 Note-Velocity_127 Bar-End Bar-Start Position_0 Note-On_50 Note-Duration_2 Note-Velocity_127 Position_4 Note-On_55 Note-Duration_2 Note-Velocity_127 Position_8 Note-On_53 Note-Duration_1 Note-Velocity_127 Position_11 Note-On_53 Note-Duration_1 Note-Velocity_127 Bar-End Bar-Start Position_0 Note-On_50 Note-Duration_2 Note-Velocity_127 Position_4 Note-On_55 Note-Duration_2 Note-Velocity_127 Position_8 Note-On_53 Note-Duration_1 Note-Velocity_127 Position_11 Note-On_53 Note-Duration_1 Note-Velocity_127 Bar-End Bar-Start Position_0 Note-On_50 Note-Duration_2 Note-Velocity_127 Position_4 Note-On_55 Note-Duration_2 Note-Velocity_127 Position_8 Note-On_53 Note-Duration_1 Note-Velocity_127 Position_11 Note-On_53 Note-Duration_1 Note-Velocity_127 Bar-End Bar-Start Position_0 Note-On_50 Note-Duration_2 Note-Velocity_127 Position_4 Note-On_55 Note-Duration_2 Note-Velocity_127 Position_8 Note-On_53 Note-Duration_1 Note-Velocity_127 Position_11 Note-On_53 Note-Duration_1 Note-Velocity_127 Bar-End Bar-Start Position_0 Note-On_50 Note-Duration_2 Note-Velocity_127 Position_4 Note-On_55 Note-Duration_2 Note-Velocity_127 Position_8 Note-On_53 Note-Duration_1 Note-Velocity_127 Position_11 Note-On_53 Note-Duration_1 Note-Velocity_127 Bar-End Bar-Start Position_0 Note-On_50 Note-Duration_2 Note-Velocity_127 Position_4 Note-On_55 Note-Duration_2 Note-Velocity_127 Position_8 Note-On_53 Note-Duration_1 Note-Velocity_127 Position_11 Note-On_53 Note-Duration_1 Note-Velocity_127 Bar-End Bar-Start Position_0 Note-On_50 Note-Duration_2 Note-Velocity_127 Position_4 Note-On_55 Note-Duration_2 Note-Velocity_127 Position_8 Note-On_53 Note-Duration_1 Note-Velocity_127 Position_11 Note-On_53 Note-Duration_1 Note-Velocity_127 Bar-End Bar-Start Position_0 Note-On_50 Note-Duration_2 Note-Velocity_127 Position_4 Note-On_55 Note-Duration_2 Note-Velocity_127 Position_8 Note-On_53 Note-Duration_1 Note-Velocity_127 Position_11 Note-On_53 Note-Duration_1 Note-Velocity_127 Bar-End Bar-Start Position_0 Note-On_50 Note-Duration_2 Note-Velocity_127 Position_4 Note-On_55 Note-Duration_2 Note-Velocity_127 Position_8 Note-On_53 Note-Duration_1 Note-Velocity_127 Position_11 Note-On_53 Note-Duration_1 Note-Velocity_127 Bar-End Bar-Start Position_0 Note-On_50 Note-Duration_2 Note-Velocity_127 Position_4 Note-On_55 Note-Duration_2 Note-Velocity_127 Position_8 Note-On_53 Note-Duration_1 Note-Velocity_127 Position_11 Note-On_53 Note-Duration_1 Note-Velocity_127 Bar-End Bar-Start Position_0 Note-On_50 Note-Duration_2 Note-Velocity_127 Position_4 Note-On_55 Note-Duration_2 Note-Velocity_127 Position_8 Note-On_53 Note-Duration_1 Note-Velocity_127 Position_11 Note-On_53 Note-Duration_1 Note-Velocity_127 Bar-End Bar-Start Position_0 Note-On_50 Note-Duration_2 Note-Velocity_127 Position_4 Note-On_55 Note-Duration_2 Note-Velocity_127 Position_8 Note-On_53 Note-Duration_1 Note-Velocity_127 Position_11 Note-On_53 Note-Duration_1 Note-Velocity_127 Bar-End Bar-Start Position_0 Note-On_50 Note-Duration_2 Note-Velocity_127 Position_4 Note-On_55 Note-Duration_2 Note-Velocity_127 Position_8 Note-On_53 Note-Duration_1 Note-Velocity_127 Position_11 Note-On_53 Note-Duration_1 Note-Velocity_127 Bar-End Bar-Start Position_0 Note-On_50 Note-Duration_2 Note-Velocity_127 Position_4 Note-On_55 Note-Duration_2 Note-Velocity_127 Position_8 Note-On_53 Note-Duration_1 Note-Velocity_127 Position_11 Note-On_53 Note-Duration_1 Note-Velocity_127 Bar-End Bar-Start Position_0 Note-On_50 Note-Duration_2 Note-Velocity_127 Position_4 Note-On_55 Note-Duration_2 Note-Velocity_127 Position_8 Note-On_53 Note-Duration_1 Note-Velocity_127 Position_11 Note-On_53 Note-Duration_1 Note-Velocity_127 Bar-End Bar-Start Position_0 Note-On_50 Note-Duration_2 Note-Velocity_127 Position_4 Note-On_55 Note-Duration_2 Note-Velocity_127 Position_8 Note-On_53 Note-Duration_1 Note-Velocity_127 Position_11 Note-On_53 Note-Duration_1 Note-Velocity_127 Bar-End Bar-Start Position_0 Note-On_50 Note-Duration_2 Note-Velocity_127 Position_4 Note-On_55 Note-Duration_2 Note-Velocity_127 Position_8 Note-On_53 Note-Duration_1 Note-Velocity_127 Position_11 Note-On_53 Note-Duration_1 Note-Velocity_127 Bar-End Bar-Start Position_0 Note-On_50 Note-Duration_2 Note-Velocity_127 Position_4 Note-On_55 Note-Duration_2 Note-Velocity_127 Position_8 Note-On_53 Note-Duration_1 Note-Velocity_127 Position_11 Note-On_53 Note-Duration_1 Note-Velocity_127 Bar-End Bar-Start Position_0 Note-On_50 Note-Duration_2 Note-Velocity_127 Position_4 Note-On_55 Note-Duration_2 Note-Velocity_127 Position_8 Note-On_53 Note-Duration_1 Note-Velocity_127 Position_11 Note-On_53 Note-Duration_1 Note-Velocity_127 Bar-End Bar-Start Position_0 Note-On_50 Note-Duration_2 Note-Velocity_127 Position_4 Note-On_55 Note-Duration_2 Note-Velocity_127 Position_8 Note-On_53 Note-Duration_1 Note-Velocity_127 Position_11 Note-On_53 Note-Duration_1 Note-Velocity_127 Bar-End Bar-Start Position_0 Note-On_50 Note-Duration_2 Note-Velocity_127 Position_4 Note-On_55 Note-Duration_2 Note-Velocity_127 Position_8 Note-On_53 Note-Duration_1 Note-Velocity_127 Position_11 Note-On_53 Note-Duration_1 Note-Velocity_127 Bar-End Bar-Start Position_0 Note-On_50 Note-Duration_2 Note-Velocity_127 Position_4 Note-On_55 Note-Duration_2 Note-Velocity_127 Position_8 Note-On_53 Note-Duration_1 Note-Velocity_127 Position_11 Note-On_53 Note-Duration_1 Note-Velocity_127 Bar-End Bar-Start Position_0 Note-On_50 Note-Duration_2 Note-Velocity_127 Position_4 Note-On_55 Note-Duration_2 Note-Velocity_127 Position_8 Note-On_53 Note-Duration_1 Note-Velocity_127 Position_11 Note-On_53 Note-Duration_1 Note-Velocity_127 Bar-End Bar-Start Position_0 Note-On_50 Note-Duration_2 Note-Velocity_127 Position_4 Note-On_55 Note-Duration_2 Note-Velocity_127 Position_8 Note-On_53 Note-Duration_1 Note-Velocity_127 Position_11 Note-On_53 Note-Duration_1 Note-Velocity_127 Bar-End Bar-Start Position_0 Note-On_50 Note-Duration_2 Note-Velocity_127 Position_4 Note-On_55 Note-Duration_2 Note-Velocity_127 Position_8 Note-On_53 Note-Duration_1 Note-Velocity_127 Position_11 Note-On_53 Note-Duration_1 Note-Velocity_127 Bar-End Bar-Start Position_0 Note-On_50 Note-Duration_2 Note-Velocity_127 Position_4 Note-On_55 Note-Duration_2 Note-Velocity_127 Position_8 Note-On_53 Note-Duration_1 Note-Velocity_127 Position_11 Note-On_53 Note-Duration_1 Note-Velocity_127 Bar-End Bar-Start Position_0 Note-On_50 Note-Duration_2 Note-Velocity_127 Position_4 Note-On_55 Note-Duration_2 Note-Velocity_127 Position_8 Note-On_53 Note-Duration_1 Note-Velocity_127 Position_11 Note-On_53 Note-Duration_1 Note-Velocity_127 Bar-End Bar-Start Position_0 Note-On_50 Note-Duration_2 Note-Velocity_127 Position_4 Note-On_55 Note-Duration_2 Note-Velocity_127 Position_8 Note-On_53 Note-Duration_1 Note-Velocity_127 Position_11 Note-On_53 Note-Duration_1 Note-Velocity_127 Bar-End Bar-Start Position_0 Note-On_50 Note-Duration_2 Note-Velocity_127 Position_4 Note-On_55 Note-Duration_2 Note-Velocity_127 Position_8 Note-On_53 Note-Duration_1 Note-Velocity_127 Position_11 Note-On_53 Note-Duration_1 Note-Velocity_127 Bar-End Bar-Start Position_0 Note-On_50 Note-Duration_2 Note-Velocity_127 Position_4 Note-On_55 Note-Duration_2 Note-Velocity_127 Position_8 Note-On_53 Note-Duration_1 Note-Velocity_127 Position_11 Note-On_53 Note-Duration_1 Note-Velocity_127 Bar-End Bar-Start Position_0 Note-On_50 Note-Duration_2 Note-Velocity_127 Position_4 Note-On_55 Note-Duration_2 Note-Velocity_127 Position_8 Note-On_53 Note-Duration_1 Note-Velocity_127 Position_11 Note-On_53 Note-Duration_1 Note-Velocity_127 Bar-End Bar-Start Position_0 Note-On_50 Note-Duration_2 Note-Velocity_127 Position_4 Note-On_55 Note-Duration_2 Note-Velocity_127 Position_8 Note-On_53 Note-Duration_1 Note-Velocity_127 Position_11 Note-On_53 Note-Duration_1 Note-Velocity_127 Bar-End Bar-Start Position_0 Note-On_50 Note-Duration_2 Note-Velocity_127 Position_4 Note-On_55 Note-Duration_2 Note-Velocity_127 Position_8 Note-On_53 Note-Duration_1 Note-Velocity_127 Position_11 Note-On_53 Note-Duration_1 Note-Velocity_127 Bar-End Bar-Start Position_0 Note-On_50 Note-Duration_2 Note-Velocity_127 Position_4 Note-On_55 Note-Duration_2 Note-Velocity_127 Position_8 Note-On_53 Note-Duration_1 Note-Velocity_127 Position_11 Note-On_53 Note-Duration_1 Note-Velocity_127 Bar-End Bar-Start Position_0 Note-On_50 Note-Duration_2 Note-Velocity_127 Position_4 Note-On_55 Note-Duration_2 Note-Velocity_127 Position_8 Note-On_53 Note-Duration_1 Note-Velocity_127 Position_11 Note-On_53 Note-Duration_1 Note-Velocity_127 Bar-End Bar-Start Position_0 Note-On_50 Note-Duration_2 Note-Velocity_127 Position_4 Note-On_55 Note-Duration_2 Note-Velocity_127 Position_8 Note-On_53 Note-Duration_1 Note-Velocity_127 Position_11 Note-On_53 Note-Duration_1 Note-Velocity_127 Bar-End Bar-Start Position_0 Note-On_50 Note-Duration_2 Note-Velocity_127 Position_4 Note-On_55 Note-Duration_2 Note-Velocity_127 Position_8 Note-On_53 Note-Duration_1 Note-Velocity_127 Position_11 Note-On_53 Note-Duration_1 Note-Velocity_127 Bar-End Bar-Start Position_0 Note-On_50 Note-Duration_2 Note-Velocity_127 Position_4 Note-On_55 Note-Duration_2 Note-Velocity_127 Position_8 Note-On_53 Note-Duration_1 Note-Velocity_127 Position_11 Note-On_53 Note-Duration_1 Note-Velocity_127 Bar-End Bar-Start Position_0 Note-On_50 Note-Duration_2 Note-Velocity_127 Position_4 Note-On_55 Note-Duration_2 Note-Velocity_127 Position_8 Note-On_53 Note-Duration_1 Note-Velocity_127 Position_11 Note-On_53 Note-Duration_1 Note-Velocity_127 Bar-End Bar-Start Position_0 Note-On_50 Note-Duration_2 Note-Velocity_127 Position_4 Note-On_55 Note-Duration_2 Note-Velocity_127 Position_8 Note-On_53 Note-Duration_1 Note-Velocity_127 Position_11 Note-On_53 Note-Duration_1 Note-Velocity_127 Bar-End Bar-Start Position_0 Note-On_50 Note-Duration_2 Note-Velocity_127 Position_4 Note-On_55 Note-Duration_2 Note-Velocity_127 Position_8 Note-On_53 Note-Duration_1 Note-Velocity_127 Position_11 Note-On_53 Note-Duration_1 Note-Velocity_127 Bar-End Bar-Start Position_0 Note-On_50 Note-Duration_2 Note-Velocity_127 Position_4 Note-On_55 Note-Duration_2 Note-Velocity_127 Position_8 Note-On_53 Note-Duration_1 Note-Velocity_127 Position_11 Note-On_53 Note-Duration_1 Note-Velocity_127 Bar-End Bar-Start Position_0 Note-On_50 Note-Duration_2 Note-Velocity_127 Position_4 Note-On_55 Note-Duration_2 Note-Velocity_127 Position_8 Note-On_53 Note-Duration_1 Note-Velocity_127 Position_11 Note-On_53 Note-Duration_1 Note-Velocity_127 Bar-End Bar-Start Position_0 Note-On_50 Note-Duration_2 Note-Velocity_127 Position_4 Note-On_55 Note-Duration_2 Note-Velocity_127 Position_8 Note-On_53 Note-Duration_1 Note-Velocity_127 Position_11 Note-On_53 Note-Duration_1 Note-Velocity_127 Bar-End Bar-Start Position_0 Note-On_50 Note-Duration_2 Note-Velocity_127 Position_4 Note-On_55 Note-Duration_2 Note-Velocity_127 Position_8 Note-On_53 Note-Duration_1 Note-Velocity_127 Position_11 Note-On_53 Note-Duration_1 Note-Velocity_127 Bar-End Bar-Start Position_0 Note-On_50 Note-Duration_2 Note-Velocity_127 Position_4 Note-On_55 Note-Duration_2 Note-Velocity_127 Position_8 Note-On_53 Note-Duration_1 Note-Velocity_127 Position_11 Note-On_53 Note-Duration_1 Note-Velocity_127 Bar-End Bar-Start Position_0 Note-On_50 Note-Duration_2 Note-Velocity_127 Position_4 Note-On_55 Note-Duration_2 Note-Velocity_127 Position_8 Note-On_53 Note-Duration_1 Note-Velocity_127 Position_11 Note-On_53 Note-Duration_1 Note-Velocity_127 Bar-End Bar-Start Position_0 Note-On_50 Note-Duration_2 Note-Velocity_127 Position_4 Note-On_55 Note-Duration_2 Note-Velocity_127 Position_8 Note-On_53 Note-Duration_1 Note-Velocity_127 Position_11 Note-On_53 Note-Duration_1 Note-Velocity_127 Bar-End Bar-Start Position_0 Note-On_50 Note-Duration_2 Note-Velocity_127 Position_4 Note-On_55 Note-Duration_2 Note-Velocity_127 Position_8 Note-On_53 Note-Duration_1 Note-Velocity_127 Position_11 Note-On_53 Note-Duration_1 Note-Velocity_127 Bar-End Bar-Start Position_0 Note-On_50 Note-Duration_2 Note-Velocity_127 Position_4 Note-On_55 Note-Duration_2 Note-Velocity_127 Position_8 Note-On_53 Note-Duration_1 Note-Velocity_127 Position_11 Note-On_53 Note-Duration_1 Note-Velocity_127 Bar-End Bar-Start Position_0 Note-On_50 Note-Duration_2 Note-Velocity_127 Position_4 Note-On_55 Note-Duration_2 Note-Velocity_127 Position_8 Note-On_53 Note-Duration_1 Note-Velocity_127 Position_11 Note-On_53 Note-Duration_1 Note-Velocity_127 Bar-End Bar-Start Position_0 Note-On_50 Note-Duration_2 Note-Velocity_127 Position_4 Note-On_55 Note-Duration_2 Note-Velocity_127 Position_8 Note-On_53 Note-Duration_1 Note-Velocity_127 Position_11 Note-On_53 Note-Duration_1 Note-Velocity_127 Bar-End Bar-Start Position_0 Note-On_50 Note-Duration_2 Note-Velocity_127 Position_4 Note-On_55 Note-Duration_2 Note-Velocity_127 Position_8 Note-On_53 Note-Duration_1 Note-Velocity_127 Position_11 Note-On_53 Note-Duration_1 Note-Velocity_127 Bar-End Bar-Start Position_0 Note-On_50 Note-Duration_2 Note-Velocity_127 Position_4 Note-On_55 Note-Duration_2 Note-Velocity_127 Position_8 Note-On_53 Note-Duration_1 Note-Velocity_127 Position_11 Note-On_53 Note-Duration_1 Note-Velocity_127 Bar-End Bar-Start Position_0 Note-On_50 Note-Duration_2 Note-Velocity_127 Position_4 Note-On_55 Note-Duration_2 Note-Velocity_127 Position_8 Note-On_53 Note-Duration_1 Note-Velocity_127 Position_11 Note-On_53 Note-Duration_1 Note-Velocity_127 Bar-End Track-End Track-Start Inst_62 Bar-Start Bar-End Bar-Start Bar-End Bar-Start Bar-End Bar-Start Bar-End Bar-Start Bar-End Bar-Start Bar-End Bar-Start Bar-End Bar-Start Bar-End Bar-Start Bar-End Bar-Start Bar-End Bar-Start Bar-End Bar-Start Bar-End Bar-Start Bar-End Bar-Start Bar-End Bar-Start Bar-End Bar-Start Bar-End Bar-Start Bar-End Bar-Start Bar-End Bar-Start Bar-End Bar-Start Bar-End Bar-Start Bar-End Bar-Start Bar-End Bar-Start Bar-End Bar-Start Bar-End Bar-Start Bar-End Bar-Start Bar-End Bar-Start Bar-End Bar-Start Bar-End Bar-Start Bar-End Bar-Start Bar-End Bar-Start Bar-End Bar-Start Bar-End Bar-Start Bar-End Bar-Start Bar-End Bar-Start Bar-End Bar-Start Bar-End Bar-Start Bar-End Bar-Start Bar-End Bar-Start Bar-End Bar-Start Bar-End Bar-Start Bar-End Bar-Start Bar-End Bar-Start Bar-End Bar-Start Bar-End Bar-Start Bar-End Bar-Start Bar-End Bar-Start Bar-End Bar-Start Bar-End Bar-Start Bar-End Bar-Start Bar-End Bar-Start Bar-End Bar-Start Bar-End Bar-Start Bar-End Bar-Start Bar-End Bar-Start Bar-End Bar-Start Bar-End Bar-Start Bar-End Bar-Start Bar-End Bar-Start Bar-End Bar-Start Bar-End Bar-Start Bar-End Bar-Start Bar-End Bar-Start Bar-End Bar-Start Bar-End Bar-Start Bar-End Bar-Start Bar-End Bar-Start Bar-End Bar-Start Bar-End Bar-Start Bar-End Bar-Start Bar-End Bar-Start Bar-End Bar-Start Bar-End Bar-Start Bar-End Bar-Start Bar-End Bar-Start Bar-End Bar-Start Bar-End Bar-Start Bar-End Bar-Start Bar-End Bar-Start Bar-End Bar-Start Bar-End Bar-Start Bar-End Bar-Start Bar-End Bar-Start Bar-End Bar-Start Bar-End Bar-Start Bar-End Bar-Start Bar-End Bar-Start Bar-End Bar-Start Bar-End Bar-Start Bar-End Bar-Start Bar-End Bar-Start Bar-End Bar-Start Bar-End Bar-Start Bar-End Bar-Start Bar-End Bar-Start Bar-End Bar-Start Bar-End Bar-Start Bar-End Bar-Start Bar-End Bar-Start Bar-End Bar-Start Bar-End Bar-Start Bar-End Bar-Start Position_0 Note-On_77 Note-Duration_2 Note-Velocity_127 Note-On_74 Note-Duration_2 Note-Velocity_127 Note-On_69 Note-Duration_2 Note-Velocity_127 Position_8 Note-On_74 Note-Duration_2 Note-Velocity_127 Note-On_72 Note-Duration_2 Note-Velocity_127 Note-On_69 Note-Duration_2 Note-Velocity_127 Bar-End Bar-Start Position_0 Note-On_74 Note-Duration_2 Note-Velocity_127 Note-On_71 Note-Duration_2 Note-Velocity_127 Note-On_69 Note-Duration_2 Note-Velocity_127 Position_8 Note-On_74 Note-Duration_2 Note-Velocity_127 Note-On_71 Note-Duration_2 Note-Velocity_127 Note-On_69 Note-Duration_2 Note-Velocity_127 Bar-End Bar-Start Position_0 Note-On_77 Note-Duration_2 Note-Velocity_127 Note-On_74 Note-Duration_2 Note-Velocity_127 Note-On_71 Note-Duration_2 Note-Velocity_127 Position_8 Note-On_74 Note-Duration_2 Note-Velocity_127 Note-On_71 Note-Duration_2 Note-Velocity_127 Note-On_69 Note-Duration_2 Note-Velocity_127 Bar-End Bar-Start Position_0 Note-On_77 Note-Duration_2 Note-Velocity_127 Note-On_74 Note-Duration_2 Note-Velocity_127 Note-On_71 Note-Duration_2 Note-Velocity_127 Position_8 Note-On_74 Note-Duration_2 Note-Velocity_127 Note-On_71 Note-Duration_2 Note-Velocity_127 Note-On_69 Note-Duration_2 Note-Velocity_127 Bar-End Bar-Start Position_0 Note-On_76 Note-Duration_2 Note-Velocity_127 Note-On_72 Note-Duration_2 Note-Velocity_127 Note-On_69 Note-Duration_2 Note-Velocity_127 Position_8 Note-On_76 Note-Duration_2 Note-Velocity_127 Note-On_72 Note-Duration_2 Note-Velocity_127 Note-On_69 Note-Duration_2 Note-Velocity_127 Bar-End Bar-Start Position_0 Note-On_77 Note-Duration_2 Note-Velocity_127 Note-On_74 Note-Duration_2 Note-Velocity_127 Note-On_69 Note-Duration_2 Note-Velocity_127 Position_8 Note-On_74 Note-Duration_2 Note-Velocity_127 Note-On_72 Note-Duration_2 Note-Velocity_127 Note-On_69 Note-Duration_2 Note-Velocity_127 Bar-End Bar-Start Position_0 Note-On_74 Note-Duration_2 Note-Velocity_127 Note-On_71 Note-Duration_2 Note-Velocity_127 Note-On_69 Note-Duration_2 Note-Velocity_127 Position_8 Note-On_74 Note-Duration_2 Note-Velocity_127 Note-On_71 Note-Duration_2 Note-Velocity_127 Note-On_69 Note-Duration_2 Note-Velocity_127 Bar-End Bar-Start Position_0 Note-On_77 Note-Duration_2 Note-Velocity_127 Note-On_74 Note-Duration_2 Note-Velocity_127 Note-On_71 Note-Duration_2 Note-Velocity_127 Position_8 Note-On_74 Note-Duration_2 Note-Velocity_127 Note-On_71 Note-Duration_2 Note-Velocity_127 Note-On_69 Note-Duration_2 Note-Velocity_127 Bar-End Bar-Start Position_0 Note-On_77 Note-Duration_2 Note-Velocity_127 Note-On_74 Note-Duration_2 Note-Velocity_127 Note-On_71 Note-Duration_2 Note-Velocity_127 Position_8 Note-On_74 Note-Duration_2 Note-Velocity_127 Note-On_71 Note-Duration_2 Note-Velocity_127 Note-On_69 Note-Duration_2 Note-Velocity_127 Bar-End Bar-Start Position_0 Note-On_76 Note-Duration_2 Note-Velocity_127 Note-On_72 Note-Duration_2 Note-Velocity_127 Note-On_69 Note-Duration_2 Note-Velocity_127 Position_8 Note-On_76 Note-Duration_2 Note-Velocity_127 Note-On_72 Note-Duration_2 Note-Velocity_127 Note-On_69 Note-Duration_2 Note-Velocity_127 Bar-End Bar-Start Position_0 Note-On_77 Note-Duration_2 Note-Velocity_127 Note-On_74 Note-Duration_2 Note-Velocity_127 Note-On_69 Note-Duration_2 Note-Velocity_127 Position_8 Note-On_74 Note-Duration_2 Note-Velocity_127 Note-On_72 Note-Duration_2 Note-Velocity_127 Note-On_69 Note-Duration_2 Note-Velocity_127 Bar-End Bar-Start Position_0 Note-On_74 Note-Duration_2 Note-Velocity_127 Note-On_71 Note-Duration_2 Note-Velocity_127 Note-On_69 Note-Duration_2 Note-Velocity_127 Position_8 Note-On_74 Note-Duration_2 Note-Velocity_127 Note-On_71 Note-Duration_2 Note-Velocity_127 Note-On_69 Note-Duration_2 Note-Velocity_127 Bar-End Bar-Start Position_0 Note-On_77 Note-Duration_2 Note-Velocity_127 Note-On_74 Note-Duration_2 Note-Velocity_127 Note-On_71 Note-Duration_2 Note-Velocity_127 Position_8 Note-On_74 Note-Duration_2 Note-Velocity_127 Note-On_71 Note-Duration_2 Note-Velocity_127 Note-On_69 Note-Duration_2 Note-Velocity_127 Bar-End Bar-Start Position_0 Note-On_77 Note-Duration_2 Note-Velocity_127 Note-On_74 Note-Duration_2 Note-Velocity_127 Note-On_71 Note-Duration_2 Note-Velocity_127 Position_8 Note-On_74 Note-Duration_2 Note-Velocity_127 Note-On_71 Note-Duration_2 Note-Velocity_127 Note-On_69 Note-Duration_2 Note-Velocity_127 Bar-End Bar-Start Position_0 Note-On_76 Note-Duration_2 Note-Velocity_127 Note-On_72 Note-Duration_2 Note-Velocity_127 Note-On_69 Note-Duration_2 Note-Velocity_127 Position_8 Note-On_76 Note-Duration_2 Note-Velocity_127 Note-On_72 Note-Duration_2 Note-Velocity_127 Note-On_69 Note-Duration_2 Note-Velocity_127 Bar-End Bar-Start Position_0 Note-On_77 Note-Duration_2 Note-Velocity_127 Note-On_74 Note-Duration_2 Note-Velocity_127 Note-On_69 Note-Duration_2 Note-Velocity_127 Position_8 Note-On_74 Note-Duration_2 Note-Velocity_127 Note-On_72 Note-Duration_2 Note-Velocity_127 Note-On_69 Note-Duration_2 Note-Velocity_127 Bar-End Bar-Start Position_0 Note-On_74 Note-Duration_2 Note-Velocity_127 Note-On_71 Note-Duration_2 Note-Velocity_127 Note-On_69 Note-Duration_2 Note-Velocity_127 Position_8 Note-On_74 Note-Duration_2 Note-Velocity_127 Note-On_71 Note-Duration_2 Note-Velocity_127 Note-On_69 Note-Duration_2 Note-Velocity_127 Bar-End Bar-Start Position_0 Note-On_77 Note-Duration_2 Note-Velocity_127 Note-On_74 Note-Duration_2 Note-Velocity_127 Note-On_71 Note-Duration_2 Note-Velocity_127 Position_8 Note-On_74 Note-Duration_2 Note-Velocity_127 Note-On_71 Note-Duration_2 Note-Velocity_127 Note-On_69 Note-Duration_2 Note-Velocity_127 Bar-End Track-End Track-Start Inst_65 Bar-Start Bar-End Bar-Start Bar-End Bar-Start Bar-End Bar-Start Bar-End Bar-Start Position_4 Note-On_57 Note-Duration_2 Note-Velocity_117 Note-On_53 Note-Duration_2 Note-Velocity_115 Position_6 Note-On_55 Note-Duration_2 Note-Velocity_111 Note-On_52 Note-Duration_2 Note-Velocity_116 Position_8 Note-On_53 Note-Duration_4 Note-Velocity_117 Note-On_50 Note-Duration_4 Note-Velocity_119 Position_12 Note-On_57 Note-Duration_2 Note-Velocity_114 Note-On_53 Note-Duration_2 Note-Velocity_114 Position_14 Note-On_55 Note-Duration_3 Note-Velocity_114 Note-On_52 Note-Duration_3 Note-Velocity_115 Bar-End Bar-Start Position_4 Note-On_57 Note-Duration_2 Note-Velocity_117 Note-On_53 Note-Duration_2 Note-Velocity_113 Position_6 Note-On_55 Note-Duration_2 Note-Velocity_113 Note-On_52 Note-Duration_2 Note-Velocity_117 Position_8 Note-On_53 Note-Duration_4 Note-Velocity_115 Note-On_50 Note-Duration_4 Note-Velocity_116 Position_12 Note-On_57 Note-Duration_2 Note-Velocity_113 Note-On_53 Note-Duration_2 Note-Velocity_115 Position_14 Note-On_55 Note-Duration_2 Note-Velocity_115 Note-On_52 Note-Duration_2 Note-Velocity_115 Bar-End Bar-Start Position_4 Note-On_57 Note-Duration_2 Note-Velocity_116 Note-On_53 Note-Duration_2 Note-Velocity_111 Position_6 Note-On_55 Note-Duration_2 Note-Velocity_113 Note-On_52 Note-Duration_2 Note-Velocity_116 Position_8 Note-On_53 Note-Duration_4 Note-Velocity_113 Note-On_50 Note-Duration_4 Note-Velocity_113 Position_12 Note-On_57 Note-Duration_2 Note-Velocity_114 Note-On_53 Note-Duration_2 Note-Velocity_111 Position_14 Note-On_55 Note-Duration_3 Note-Velocity_114 Note-On_52 Note-Duration_3 Note-Velocity_115 Bar-End Bar-Start Position_4 Note-On_57 Note-Duration_2 Note-Velocity_113 Note-On_53 Note-Duration_2 Note-Velocity_117 Position_6 Note-On_55 Note-Duration_2 Note-Velocity_113 Note-On_52 Note-Duration_2 Note-Velocity_119 Position_8 Note-On_53 Note-Duration_4 Note-Velocity_117 Note-On_50 Note-Duration_4 Note-Velocity_113 Position_12 Note-On_57 Note-Duration_2 Note-Velocity_117 Note-On_53 Note-Duration_2 Note-Velocity_113 Position_14 Note-On_55 Note-Duration_2 Note-Velocity_115 Note-On_52 Note-Duration_2 Note-Velocity_115 Bar-End Bar-Start Position_4 Note-On_57 Note-Duration_2 Note-Velocity_116 Note-On_53 Note-Duration_2 Note-Velocity_115 Position_6 Note-On_55 Note-Duration_2 Note-Velocity_113 Note-On_52 Note-Duration_2 Note-Velocity_114 Position_8 Note-On_53 Note-Duration_4 Note-Velocity_113 Note-On_50 Note-Duration_4 Note-Velocity_113 Position_12 Note-On_57 Note-Duration_2 Note-Velocity_113 Note-On_53 Note-Duration_2 Note-Velocity_111 Position_14 Note-On_55 Note-Duration_3 Note-Velocity_114 Note-On_52 Note-Duration_3 Note-Velocity_115 Bar-End Bar-Start Position_4 Note-On_57 Note-Duration_2 Note-Velocity_115 Note-On_53 Note-Duration_2 Note-Velocity_112 Position_6 Note-On_55 Note-Duration_2 Note-Velocity_113 Note-On_52 Note-Duration_2 Note-Velocity_117 Position_8 Note-On_53 Note-Duration_4 Note-Velocity_119 Note-On_50 Note-Duration_4 Note-Velocity_114 Position_12 Note-On_57 Note-Duration_2 Note-Velocity_116 Note-On_53 Note-Duration_2 Note-Velocity_116 Position_14 Note-On_55 Note-Duration_3 Note-Velocity_115 Note-On_52 Note-Duration_3 Note-Velocity_116 Bar-End Bar-Start Position_4 Note-On_57 Note-Duration_2 Note-Velocity_115 Note-On_53 Note-Duration_2 Note-Velocity_111 Position_6 Note-On_55 Note-Duration_2 Note-Velocity_111 Note-On_52 Note-Duration_2 Note-Velocity_119 Position_8 Note-On_53 Note-Duration_4 Note-Velocity_116 Note-On_50 Note-Duration_4 Note-Velocity_115 Position_12 Note-On_57 Note-Duration_2 Note-Velocity_115 Note-On_53 Note-Duration_2 Note-Velocity_119 Position_14 Note-On_55 Note-Duration_2 Note-Velocity_115 Note-On_52 Note-Duration_2 Note-Velocity_115
Total 8 tracks
[0, 0, 0, 0, 0, 0, 0, 0]
